<?xml version="1.0" standalone="no"?>
<!DOCTYPE svg PUBLIC "-//W3C//DTD SVG 1.1//EN" "http://www.w3.org/Graphics/SVG/1.1/DTD/svg11.dtd" >
<svg xmlns="http://www.w3.org/2000/svg" xmlns:xlink="http://www.w3.org/1999/xlink" version="1.1">
<metadata>
Created by FontForge 20170731 at Sun Oct 18 08:27:52 2020
 By Aleksey,,,
Copyright (c) 2018 by Alexander Slobzheninov. All rights reserved.
</metadata>
<defs>
<font id="ObjectSans-Thin" horiz-adv-x="1232" >
  <font-face 
    font-family="Object Sans Thin"
    font-weight="250"
    font-stretch="normal"
    units-per-em="2048"
    panose-1="0 0 3 0 0 0 0 0 0 0"
    ascent="1638"
    descent="-410"
    x-height="1026"
    cap-height="1436"
    bbox="-254 -512 2955 1915"
    underline-thickness="102"
    underline-position="-255"
    unicode-range="U+000D-FB00"
  />
<missing-glyph horiz-adv-x="0" 
 />
    <glyph glyph-name=".notdef" horiz-adv-x="0" 
 />
    <glyph glyph-name=".null" horiz-adv-x="0" 
 />
    <glyph glyph-name="nonmarkingreturn" horiz-adv-x="682" 
 />
    <glyph glyph-name="NULL" horiz-adv-x="1435" 
d="M188 0v1436h1059v-1436h-1059zM266 76h903v1284h-903v-1284z" />
    <glyph glyph-name="NULL" horiz-adv-x="1435" 
d="M188 0v1436h1059v-1436h-1059zM266 76h903v1284h-903v-1284z" />
    <glyph glyph-name="CR" unicode="&#xd;" horiz-adv-x="61" 
 />
    <glyph glyph-name="space" unicode=" " horiz-adv-x="512" 
 />
    <glyph glyph-name="exclam" unicode="!" horiz-adv-x="368" 
d="M150 383l-9 682v371h86v-371l-8 -682h-69zM184 -23q-31 0 -51 21t-20 53q0 29 20.5 49.5t50.5 20.5q32 0 53 -20t21 -50q0 -32 -21 -53t-53 -21z" />
    <glyph glyph-name="quotedbl" unicode="&#x22;" horiz-adv-x="579" 
d="M106 811l-2 346v279h80v-279l-4 -346h-74zM401 811l-4 346v279h80v-279l-2 -346h-74z" />
    <glyph glyph-name="numbersign" unicode="#" horiz-adv-x="1935" 
d="M453 0l135 500h-484v73h504l107 404h-508v76h528l123 454h82l-123 -454h418l121 454h82l-121 -454h514l2 -76h-537l-108 -404h543l-2 -73h-560l-133 -500h-82l133 500h-417l-135 -500h-82zM688 573h420l106 404h-417z" />
    <glyph glyph-name="dollar" unicode="$" horiz-adv-x="1409" 
d="M1270 369q0 -187 -141 -299.5t-384 -120.5v-201h-83v203q-242 14 -382.5 149.5t-140.5 356.5h86q0 -197 133 -311.5t359 -114.5q214 0 340.5 91t126.5 243q0 68 -29.5 119t-63 80t-111.5 53.5t-121.5 33t-145.5 25.5q-15 3 -23 4q-66 10 -111.5 19t-105 25t-99.5 34.5
t-82.5 48t-68 65.5t-41.5 86t-16 111q0 184 132.5 297.5t363.5 120.5v192h83v-194q228 -14 360 -139t132 -330l-84 -2q-1 181 -126.5 286t-336.5 105q-201 0 -319.5 -92.5t-118.5 -241.5q0 -48 14 -88t35 -68t58.5 -51t71 -37.5t88 -27.5t93 -20t101.5 -17
q76 -12 116.5 -19.5t109.5 -24t107.5 -34t87.5 -47t74 -65.5t43.5 -88t18.5 -115z" />
    <glyph glyph-name="percent" unicode="%" horiz-adv-x="2082" 
d="M520 696q-182 0 -299 116t-117 296q0 179 117.5 294.5t298.5 115.5q180 0 296 -115.5t116 -294.5q0 -180 -116 -296t-296 -116zM481 0l1024 1497h101l-1024 -1497h-101zM522 780q142 0 235 93.5t93 236.5q0 141 -92.5 232.5t-235.5 91.5q-146 0 -240 -91.5t-94 -232.5
q0 -143 94 -236.5t240 -93.5zM1569 -20q-181 0 -297.5 115t-116.5 294q0 180 116.5 296t297.5 116q179 0 295 -116t116 -296q0 -179 -115.5 -294t-295.5 -115zM1569 63q143 0 236 93t93 235q0 141 -93.5 233.5t-235.5 92.5q-144 0 -238 -92.5t-94 -233.5q0 -143 93.5 -235.5
t238.5 -92.5z" />
    <glyph glyph-name="ampersand" unicode="&#x26;" horiz-adv-x="1568" 
d="M618 -51q-209 0 -344 113.5t-135 287.5q0 82 25.5 148.5t74.5 115.5t103 84t127 68q-184 184 -184 356q2 149 105 246.5t261 97.5q168 0 283 -111.5t119 -279.5h-84q-3 133 -93.5 221t-222.5 88q-123 0 -202.5 -74.5t-79.5 -191.5q0 -87 54.5 -170t152.5 -170l512 -465
q87 132 172 383h88q-93 -274 -199 -436l287 -260h-125l-213 193q-197 -247 -482 -244zM621 31q250 0 417 217l-508 459q-69 -29 -119.5 -59t-95 -72.5t-67.5 -99t-23 -126.5q0 -138 112 -228.5t284 -90.5z" />
    <glyph glyph-name="quotesingle" unicode="'" horiz-adv-x="286" 
d="M106 813l-2 346v277h78v-277l-2 -346h-74z" />
    <glyph glyph-name="parenleft" unicode="(" horiz-adv-x="604" 
d="M446 -369q-144 146 -234.5 406t-90.5 536t92 538.5t236 406.5h100q-160 -157 -254 -411.5t-94 -533.5q0 -283 94 -536t254 -406h-103z" />
    <glyph glyph-name="parenright" unicode=")" horiz-adv-x="602" 
d="M156 -369h-103q160 153 254 406t94 536q0 278 -94 533t-254 412h103q142 -144 233.5 -406.5t91.5 -538.5q0 -277 -90 -537t-235 -405z" />
    <glyph glyph-name="asterisk" unicode="*" horiz-adv-x="1026" 
d="M475 535l2 387l-336 -195l-37 66l336 192l-336 193l37 65l336 -194l-2 387h76l-2 -387l336 194l37 -65l-336 -193l336 -192l-37 -66l-336 195l2 -387h-76z" />
    <glyph glyph-name="plus" unicode="+" horiz-adv-x="1171" 
d="M543 270v426h-439v80h439v395h86v-395h438v-80h-440v-426h-84z" />
    <glyph glyph-name="comma" unicode="," horiz-adv-x="364" 
d="M131 -254l-45 16l88 218q-26 5 -41.5 23.5t-15.5 47.5q0 30 19.5 50t51.5 20t52 -20t20 -50q0 -21 -12 -51z" />
    <glyph glyph-name="hyphen" unicode="-" horiz-adv-x="1048" 
d="M104 606v80h840v-80h-840z" />
    <glyph glyph-name="period" unicode="." horiz-adv-x="350" 
d="M176 -23q-32 0 -52 21t-20 53q0 30 20 50t52 20q31 0 51.5 -19.5t20.5 -50.5q0 -32 -20.5 -53t-51.5 -21z" />
    <glyph glyph-name="slash" unicode="/" horiz-adv-x="813" 
d="M55 -471l617 1907h86l-617 -1907h-86z" />
    <glyph glyph-name="zero" unicode="0" horiz-adv-x="1447" 
d="M725 -51q-268 0 -426 209.5t-158 560.5q0 354 157 561t427 207q176 0 308 -94t203 -268t71 -406q0 -354 -157 -562t-425 -208zM725 31q227 0 361.5 187.5t134.5 500.5t-134.5 499.5t-361.5 186.5q-231 0 -363.5 -184t-134.5 -502q2 -314 136.5 -501t361.5 -187z" />
    <glyph glyph-name="one" unicode="1" horiz-adv-x="673" 
d="M399 0v1298h-12l-319 -258v107l356 289h63v-1436h-88z" />
    <glyph glyph-name="two" unicode="2" horiz-adv-x="1214" 
d="M141 0v86l598 522q127 109 191.5 212.5t64.5 221.5q0 159 -102.5 261t-259.5 102q-177 0 -291.5 -120t-116.5 -306h-84q0 221 139 364.5t353 143.5q195 0 321.5 -125t126.5 -318q0 -100 -39.5 -190.5t-105 -166t-176.5 -171.5l-488 -420v-14h789v-82h-920z" />
    <glyph glyph-name="three" unicode="3" horiz-adv-x="1249" 
d="M627 -51q-203 0 -344 135t-150 340h86q8 -170 124 -281.5t286 -111.5q175 0 288 107.5t113 273.5q0 164 -116 269t-296 105q-110 0 -169 -36l-29 61l473 528v15h-694v82h841v-58l-460 -514q152 9 275 -45.5t193 -161.5t70 -245q0 -201 -138.5 -332t-352.5 -131z" />
    <glyph glyph-name="four" unicode="4" horiz-adv-x="1185" 
d="M797 0v375h-717v57l651 1004h152v-979h184v-82h-184v-375h-86zM197 457h600v903h-15z" />
    <glyph glyph-name="five" unicode="5" horiz-adv-x="1196" 
d="M600 -51q-203 0 -344 135t-150 340h84q11 -170 127 -281.5t285 -111.5q173 0 287.5 108.5t114.5 272.5q0 165 -131 270.5t-338 105.5h-299l59 648h690v-82h-616l-41 -484h211q243 0 397 -128t154 -328q0 -202 -138.5 -333.5t-351.5 -131.5z" />
    <glyph glyph-name="six" unicode="6" horiz-adv-x="1193" 
d="M598 -51q-218 0 -356 130t-138 327q0 162 113 315l514 715h111l-461 -631q94 65 225 65q208 0 347 -128.5t139 -325.5q0 -203 -140.5 -335t-353.5 -132zM598 31q174 0 290 109t116 276q0 162 -115 268.5t-289 106.5q-182 0 -297 -106.5t-113 -272.5q0 -167 113 -274
t295 -107z" />
    <glyph glyph-name="seven" unicode="7" horiz-adv-x="1034" 
d="M317 0l568 1354h-858v82h964v-56l-581 -1380h-93z" />
    <glyph glyph-name="eight" unicode="8" horiz-adv-x="1320" 
d="M662 -51q-226 0 -373.5 120t-147.5 304q0 143 91.5 249t240.5 142v12q-121 34 -195.5 125t-74.5 211q0 164 129.5 269.5t329.5 105.5q199 0 328.5 -105.5t129.5 -269.5q0 -120 -76.5 -211t-199.5 -125v-12q152 -34 245 -140t93 -251q0 -186 -147 -305t-373 -119zM662 809
q161 0 265.5 85t104.5 216q0 129 -104.5 212t-265.5 83t-266 -83t-105 -212q0 -131 105 -216t266 -85zM662 23q186 0 308 100t122 252t-122 251t-308 99q-187 0 -309 -99t-122 -251t122 -252t309 -100z" />
    <glyph glyph-name="nine" unicode="9" horiz-adv-x="1196" 
d="M598 1487q217 0 355.5 -130t138.5 -327q0 -159 -115 -315l-514 -715h-109l461 633q-101 -68 -227 -68q-208 0 -346 129t-138 326q0 203 140.5 335t353.5 132zM596 1405q-173 0 -289.5 -109.5t-116.5 -275.5q0 -161 116 -267t290 -106q182 -1 296 105.5t112 273.5
q0 166 -112.5 272.5t-295.5 106.5z" />
    <glyph glyph-name="colon" unicode=":" horiz-adv-x="350" 
d="M176 823q-32 0 -52 20t-20 52q0 31 20 51.5t52 20.5q31 0 51.5 -20.5t20.5 -51.5t-20.5 -51.5t-51.5 -20.5zM176 -23q-32 0 -52 21t-20 53q0 30 20 50t52 20q31 0 51.5 -20.5t20.5 -49.5q0 -32 -20.5 -53t-51.5 -21z" />
    <glyph glyph-name="semicolon" unicode=";" horiz-adv-x="364" 
d="M188 823q-32 0 -51.5 20t-19.5 52q0 31 19.5 51.5t51.5 20.5q31 0 51.5 -20.5t20.5 -51.5t-20.5 -51.5t-51.5 -20.5zM131 -254l-45 16l90 218q-27 5 -43 23.5t-16 47.5t20.5 49.5t50.5 20.5q32 0 53 -20t21 -50q0 -23 -14 -51z" />
    <glyph glyph-name="less" unicode="&#x3c;" horiz-adv-x="937" 
d="M817 188l-762 467v93l762 466v-92l-678 -413v-15l678 -415v-91z" />
    <glyph glyph-name="equal" unicode="=" horiz-adv-x="1171" 
d="M104 909v80h963v-80h-963zM104 395v80h963v-80h-963z" />
    <glyph glyph-name="greater" unicode="&#x3e;" horiz-adv-x="935" 
d="M119 188v91l680 415v15l-680 413v92l762 -466v-93z" />
    <glyph glyph-name="question" unicode="?" horiz-adv-x="1140" 
d="M483 336q0 82 13 140t44.5 104.5t72 81t108.5 77.5q46 30 79 57t66 66.5t50.5 90.5t17.5 112q0 152 -99 246t-249 94q-162 0 -265 -108t-112 -279h-88q9 207 137.5 338t325.5 131q189 0 312.5 -118t123.5 -304q0 -73 -20 -134t-60 -109t-82 -83t-102 -73
q-109 -71 -149 -136.5t-40 -193.5h-84zM530 -23q-32 0 -52.5 20t-20.5 52q0 31 20.5 51.5t52.5 20.5q31 0 51.5 -20.5t20.5 -51.5t-20.5 -51.5t-51.5 -20.5z" />
    <glyph glyph-name="at" unicode="@" horiz-adv-x="2056" 
d="M965 -352q-240 0 -433 113.5t-302 315.5t-109 455q0 254 116.5 457.5t324 318.5t466.5 115q260 0 467 -114.5t323.5 -318t116.5 -458.5t-80.5 -400.5t-244.5 -145.5q-99 0 -168 53.5t-86 157.5h-15q-56 -110 -156 -169t-237 -59q-162 0 -264 84t-102 217q0 65 24 116.5
t64.5 86t102.5 60.5t128 41t152 26l297 39v57q0 134 -87.5 216.5t-226.5 82.5q-141 0 -228.5 -74t-86.5 -194h-84q0 156 104 253t279 97t294.5 -108t119.5 -273v-469q0 -72 50 -119t126 -47q64 0 111 35t75 99.5t41.5 148.5t13.5 188q0 175 -61.5 326.5t-170 258.5
t-261.5 168t-330 61q-176 0 -329 -61.5t-261.5 -168.5t-170.5 -258.5t-62 -325.5q0 -173 57.5 -323t157.5 -256t241.5 -166.5t305.5 -60.5q93 0 182.5 18t132.5 45v-84q-58 -26 -146 -41.5t-171 -15.5zM954 47q179 0 287.5 107.5t108.5 273.5v135l-297 -41
q-95 -12 -162.5 -30t-120 -47t-78.5 -73.5t-26 -105.5q0 -97 80.5 -158t207.5 -61z" />
    <glyph glyph-name="A" unicode="A" horiz-adv-x="1337" 
d="M47 0l559 1436h127l557 -1436h-88l-147 375h-772l-148 -375h-88zM311 457h715l-350 897h-14z" />
    <glyph glyph-name="B" unicode="B" horiz-adv-x="1384" 
d="M186 0v1436h600q183 0 301.5 -103.5t118.5 -261.5q0 -116 -69.5 -200t-186.5 -115v-15q134 -31 215.5 -125t81.5 -223q0 -170 -135 -281.5t-342 -111.5h-584zM272 788h510q148 0 243 79.5t95 203.5q0 123 -95 203t-243 80h-510v-566zM272 82h494q172 0 283.5 88.5
t111.5 224.5q0 135 -111.5 222.5t-283.5 87.5h-494v-623z" />
    <glyph glyph-name="C" unicode="C" horiz-adv-x="1671" 
d="M868 -51q-162 0 -301 58t-237 159.5t-153.5 244.5t-55.5 308q0 221 95 396t265.5 273.5t386.5 98.5q247 0 440.5 -150t241.5 -372l-86 -15q-42 192 -211.5 323.5t-384.5 131.5q-291 0 -476 -192.5t-185 -493.5q0 -197 84 -354t235 -245.5t342 -88.5q218 0 388 127
t210 313l84 -18q-46 -214 -240 -359t-442 -145z" />
    <glyph glyph-name="D" unicode="D" horiz-adv-x="1517" 
d="M186 0v1436h437q230 0 404.5 -84.5t272 -247.5t97.5 -385q0 -223 -96.5 -386.5t-271 -248t-406.5 -84.5h-437zM274 82h349q312 0 500 169.5t188 467.5q0 196 -87.5 340.5t-242.5 219.5t-358 75h-349v-1272z" />
    <glyph glyph-name="E" unicode="E" horiz-adv-x="1280" 
d="M188 0v1436h967v-82h-881v-566h799v-81h-799v-625h902v-82h-988z" />
    <glyph glyph-name="F" unicode="F" horiz-adv-x="1138" 
d="M188 0v1436h873v-82h-787v-566h689v-81h-689v-707h-86z" />
    <glyph glyph-name="G" unicode="G" horiz-adv-x="1742" 
d="M883 -51q-163 0 -305 58t-242 159.5t-157.5 244.5t-57.5 308t57.5 308t157.5 244t242 158.5t305 57.5q160 0 302 -63t239 -175.5t128 -253.5l-82 -20q-46 186 -212 308t-375 122q-193 1 -347.5 -87t-241.5 -245t-87 -354q0 -195 87 -352.5t241.5 -246.5t347.5 -89
q270 0 452 172.5t199 445.5h-829v84h919q1 -227 -92 -405.5t-262.5 -278.5t-386.5 -100z" />
    <glyph glyph-name="H" unicode="H" horiz-adv-x="1439" 
d="M186 0v1436h86v-645h893v645h88v-1436h-88v707h-893v-707h-86z" />
    <glyph glyph-name="I" unicode="I" horiz-adv-x="460" 
d="M186 0v1436h88v-1436h-88z" />
    <glyph glyph-name="J" unicode="J" horiz-adv-x="901" 
d="M311 -41q-115 0 -243 41v82q138 -41 239 -41q145 0 233.5 100t88.5 289v1006h86v-1006q0 -224 -112 -347.5t-292 -123.5z" />
    <glyph glyph-name="K" unicode="K" horiz-adv-x="1212" 
d="M186 0v1436h86v-643h15l725 643h125l-768 -680l784 -756h-121l-745 721h-15v-721h-86z" />
    <glyph glyph-name="L" unicode="L" horiz-adv-x="1136" 
d="M186 0v1436h88v-1354h801v-82h-889z" />
    <glyph glyph-name="M" unicode="M" horiz-adv-x="1849" 
d="M186 0v1436h142l590 -1321h14l588 1321h143v-1436h-88v1325h-12l-592 -1325h-94l-590 1321h-15v-1321h-86z" />
    <glyph glyph-name="N" unicode="N" horiz-adv-x="1439" 
d="M186 0v1436h129l838 -1323h14v1323h86v-1436h-129l-837 1321h-15v-1321h-86z" />
    <glyph glyph-name="O" unicode="O" horiz-adv-x="1763" 
d="M881 -51q-163 0 -305 58t-242 159.5t-157.5 244.5t-57.5 308t57.5 308t157.5 244t242 158.5t305 57.5t305 -57.5t243 -158.5t158.5 -244t57.5 -308t-57.5 -308t-158.5 -244.5t-243 -159.5t-305 -58zM881 31q194 0 348.5 88.5t240.5 245.5t86 354q0 147 -50.5 274.5
t-139 218t-214.5 142t-271 51.5q-193 0 -347 -88t-240.5 -245t-86.5 -353t86.5 -353.5t240.5 -246t347 -88.5z" />
    <glyph glyph-name="P" unicode="P" horiz-adv-x="1308" 
d="M188 0v1436h525q238 0 367.5 -118.5t127.5 -313.5q0 -196 -129.5 -314.5t-365.5 -118.5h-441v-571h-84zM272 653h441q199 0 304 96t105 255q0 158 -105.5 254t-303.5 96h-441v-701z" />
    <glyph glyph-name="Q" unicode="Q" horiz-adv-x="1765" 
d="M883 -51q-219 0 -393 99t-271.5 275t-97.5 396t97.5 395.5t271.5 274t393 98.5t393 -98.5t271.5 -274t97.5 -395.5q0 -163 -54 -302.5t-153 -242.5l194 -174h-121l-133 119q-204 -170 -495 -170zM883 31q252 0 430 145l-518 463h120l457 -408q187 193 187 488
q0 196 -87 353t-241.5 245t-347.5 88t-347.5 -88t-241.5 -245t-87 -353t87 -353.5t241.5 -246t347.5 -88.5z" />
    <glyph glyph-name="R" unicode="R" horiz-adv-x="1406" 
d="M186 0v1436h602q230 0 364 -109.5t134 -298.5q0 -182 -132.5 -293t-350.5 -112h-64l543 -623h-111l-538 621h-359v-621h-88zM274 702h514q189 0 299.5 88.5t110.5 237.5q0 153 -109 239.5t-301 86.5h-514v-652z" />
    <glyph glyph-name="S" unicode="S" horiz-adv-x="1409" 
d="M715 -51q-264 0 -420 137.5t-156 370.5l86 2q0 -199 132 -313.5t360 -114.5q213 0 340 91.5t127 242.5q0 57 -16 101t-55 75.5t-72 51.5t-101.5 37.5t-106.5 24.5t-121 21q-16 3 -24 4q-66 10 -111 19t-104.5 25t-99.5 34.5t-83 48t-68 65.5t-41.5 86t-16.5 111
q0 190 140 304t382 114q254 0 402 -126.5t149 -344.5l-86 -2q-1 181 -125.5 286t-337.5 105q-201 0 -318.5 -92.5t-117.5 -241.5q0 -48 14 -88t35 -68t58.5 -51t71 -37.5t88 -27.5t93 -20t101.5 -17q76 -12 116.5 -19.5t109.5 -24t107.5 -34t87.5 -47t74 -65.5t43.5 -88
t18.5 -115q0 -194 -149.5 -307t-405.5 -113z" />
    <glyph glyph-name="T" unicode="T" horiz-adv-x="1173" 
d="M545 0v1354h-506v82h1098v-82h-506v-1354h-86z" />
    <glyph glyph-name="U" unicode="U" horiz-adv-x="1441" 
d="M721 -51q-248 0 -400.5 171t-152.5 449v867h88v-867q0 -244 127 -391t338 -147q212 0 339.5 146.5t127.5 391.5v867h86v-867q0 -278 -152.5 -449t-400.5 -171z" />
    <glyph glyph-name="V" unicode="V" horiz-adv-x="1331" 
d="M600 0l-553 1436h92l520 -1358h15l520 1358h92l-553 -1436h-133z" />
    <glyph glyph-name="W" unicode="W" horiz-adv-x="2043" 
d="M500 0l-430 1436h88l405 -1356h17l376 1356h134l376 -1356h17l405 1356h86l-428 -1436h-143l-371 1341h-18l-371 -1341h-143z" />
    <glyph glyph-name="X" unicode="X" horiz-adv-x="1257" 
d="M68 0l503 760l-485 676h102l433 -611h14l436 611h105l-490 -676l506 -760h-102l-455 688h-14l-453 -688h-100z" />
    <glyph glyph-name="Y" unicode="Y" horiz-adv-x="1179" 
d="M549 0v580l-502 856h96l441 -758h14l440 758h97l-500 -856v-580h-86z" />
    <glyph glyph-name="Z" unicode="Z" horiz-adv-x="1253" 
d="M72 0v49l956 1290v15h-936v82h1071v-50l-954 -1290v-14h975v-82h-1112z" />
    <glyph glyph-name="bracketleft" unicode="[" horiz-adv-x="868" 
d="M186 -369v1866h627v-74h-543v-1718h543l-2 -74h-625z" />
    <glyph glyph-name="backslash" unicode="\" horiz-adv-x="811" 
d="M758 -471h-86l-619 1907h88z" />
    <glyph glyph-name="bracketright" unicode="]" horiz-adv-x="866" 
d="M680 -369h-625v74h543v1718h-543v74h625v-1866z" />
    <glyph glyph-name="asciicircum" unicode="^" horiz-adv-x="1132" 
d="M72 819l438 617h115l440 -617h-96l-394 557h-14l-395 -557h-94z" />
    <glyph glyph-name="underscore" unicode="_" horiz-adv-x="1024" 
d="M0 -78v78h1024v-78h-1024z" />
    <glyph glyph-name="grave" unicode="`" horiz-adv-x="534" 
d="M328 1260l-224 237h107l221 -237h-104z" />
    <glyph glyph-name="a" unicode="a" horiz-adv-x="1107" 
d="M438 -39q-157 0 -249.5 70t-92.5 190q0 130 106.5 214t332.5 122l329 55v58q0 132 -86.5 216.5t-224.5 84.5q-139 0 -228 -76t-89 -195h-84q0 154 112 252.5t289 98.5q173 0 284 -107t111 -274v-670h-84v190h-12q-56 -112 -165 -170.5t-249 -58.5zM444 39
q188 0 304 107.5t116 271.5v117l-319 -54q-193 -34 -279 -98t-86 -162q0 -86 70 -134t194 -48z" />
    <glyph glyph-name="b" unicode="b" horiz-adv-x="1355" 
d="M719 -41q-153 0 -269 75.5t-174 205.5h-14v-240h-82v1497h82v-709h14q58 130 174 204.5t269 74.5q232 0 383 -156t151 -397q0 -242 -151.5 -398.5t-382.5 -156.5zM715 39q196 0 325 134.5t129 340.5q0 204 -129 338.5t-325 134.5t-324.5 -134.5t-128.5 -338.5
q0 -206 128.5 -340.5t324.5 -134.5z" />
    <glyph glyph-name="c" unicode="c" horiz-adv-x="1222" 
d="M637 -41q-232 0 -383 157t-150 398q0 240 151 396.5t382 156.5q175 0 311 -102t170 -260l-82 -13q-34 129 -146 212t-253 83q-195 0 -323 -134t-128 -339q0 -207 128 -341t323 -134q142 0 254.5 78t144.5 200l82 -14q-37 -150 -172.5 -247t-308.5 -97z" />
    <glyph glyph-name="d" unicode="d" horiz-adv-x="1355" 
d="M637 -41q-232 0 -383.5 156.5t-151.5 398.5q0 241 151 397t382 156q154 0 270 -74.5t174 -204.5h13v709h84v-1497h-84v240h-13q-58 -130 -174 -205.5t-268 -75.5zM639 39q197 0 326 135t129 340q0 204 -129.5 338.5t-325.5 134.5t-324.5 -134.5t-128.5 -338.5
q0 -206 128.5 -340.5t324.5 -134.5z" />
    <glyph glyph-name="e" unicode="e" horiz-adv-x="1294" 
d="M657 -41q-241 0 -397 157t-156 400q0 240 155 395.5t396 155.5q234 0 384.5 -155.5t150.5 -395.5v-31h-1002q7 -196 139 -321t330 -125q141 0 260.5 77.5t165.5 198.5l78 -22q-52 -148 -193 -241t-311 -93zM190 565h914q-15 187 -140.5 304.5t-310.5 117.5
q-192 0 -320.5 -118t-142.5 -304z" />
    <glyph glyph-name="f" unicode="f" horiz-adv-x="712" 
d="M264 0v950h-180v76h180v254q0 124 65 191t171 67q82 0 147 -20v-80q-70 20 -137 20q-75 0 -118.5 -45t-43.5 -135v-252h281v-76h-281v-950h-84z" />
    <glyph glyph-name="g" unicode="g" horiz-adv-x="1355" 
d="M657 -512q-206 0 -354.5 108.5t-177.5 280.5l86 19q22 -145 146.5 -236.5t299.5 -91.5q192 0 314.5 122t122.5 314v225h-15q-66 -126 -180 -197t-262 -71q-232 0 -382.5 156t-150.5 397q0 240 151 396.5t382 156.5q150 0 264.5 -72.5t177.5 -199.5h15v231h82v-1022
q0 -227 -145.5 -371.5t-373.5 -144.5zM641 41q198 0 325.5 133.5t127.5 339.5q0 205 -129 339t-324 134q-199 0 -327 -133.5t-128 -339.5q0 -205 129.5 -339t325.5 -134z" />
    <glyph glyph-name="h" unicode="h" 
d="M180 0v1497h84v-657h12q52 105 151 166t224 61q192 0 307 -130.5t115 -336.5v-600h-84v600q0 172 -93.5 279.5t-252.5 107.5t-269 -107t-110 -268v-612h-84z" />
    <glyph glyph-name="i" unicode="i" horiz-adv-x="466" 
d="M233 1245q-32 0 -52.5 21t-20.5 53t20.5 53t52.5 21t53 -21t21 -53t-21 -53t-53 -21zM190 0v1026h84v-1026h-84z" />
    <glyph glyph-name="j" unicode="j" horiz-adv-x="462" 
d="M227 1245q-32 0 -52.5 21t-20.5 53q0 33 20 53.5t53 20.5q32 0 53 -21t21 -53q0 -31 -21 -52.5t-53 -21.5zM43 -453q-66 0 -145 27v80q75 -27 133 -27q69 0 112 45.5t43 116.5v1237h82v-1235q0 -106 -63.5 -175t-161.5 -69z" />
    <glyph glyph-name="k" unicode="k" horiz-adv-x="950" 
d="M178 0v1497h84v-928h14l517 457h122l-563 -491l580 -535h-121l-535 496h-14v-496h-84z" />
    <glyph glyph-name="l" unicode="l" horiz-adv-x="440" 
d="M178 0v1497h84v-1497h-84z" />
    <glyph glyph-name="m" unicode="m" horiz-adv-x="1888" 
d="M180 0v1026h82v-162h14q42 93 128 148t202 55q132 0 227 -69t128 -185h12q36 118 130 186t232 68q177 0 286.5 -120.5t109.5 -315.5v-631h-84v631q0 160 -87.5 258t-228.5 98q-151 0 -242.5 -98t-91.5 -258v-631h-84v631q0 161 -87 258.5t-228 97.5q-151 0 -242.5 -97.5
t-91.5 -258.5v-631h-84z" />
    <glyph glyph-name="n" unicode="n" 
d="M180 0v1026h84v-188h12q52 106 150.5 167.5t224.5 61.5q192 0 307 -131.5t115 -337.5v-598h-84v598q0 172 -93.5 280.5t-252.5 108.5t-269 -107t-110 -268v-612h-84z" />
    <glyph glyph-name="o" unicode="o" horiz-adv-x="1277" 
d="M639 -41q-154 0 -276.5 70.5t-191.5 197.5t-69 287q0 241 151.5 397t385.5 156t385.5 -156t151.5 -397q0 -160 -69 -287t-191.5 -197.5t-276.5 -70.5zM639 39q198 0 326.5 134t128.5 341q0 206 -128.5 339.5t-326.5 133.5q-197 0 -325 -134t-128 -339q0 -207 128 -341
t325 -134z" />
    <glyph glyph-name="p" unicode="p" horiz-adv-x="1355" 
d="M721 1067q231 0 381.5 -156t150.5 -397q0 -242 -150.5 -398.5t-381.5 -156.5q-154 0 -269 74.5t-173 204.5h-15v-709h-84v1497h84v-240h15q58 130 173 205.5t269 75.5zM717 987q-196 0 -325.5 -134.5t-129.5 -338.5q0 -205 129 -340t326 -135q196 0 324 134.5t128 340.5
q0 204 -128 338.5t-324 134.5z" />
    <glyph glyph-name="q" unicode="q" horiz-adv-x="1355" 
d="M637 1067q152 0 268 -75.5t174 -205.5h13v240h84v-1497h-84v709h-13q-58 -130 -174 -204.5t-270 -74.5q-231 0 -382 156.5t-151 398.5q0 241 151.5 397t383.5 156zM639 987q-196 0 -324.5 -134.5t-128.5 -338.5q0 -206 128.5 -340.5t324.5 -134.5q197 0 326 135t129 340
q0 204 -129.5 338.5t-325.5 134.5z" />
    <glyph glyph-name="r" unicode="r" horiz-adv-x="770" 
d="M180 0v1026h82v-180h14q38 95 109 148t170 53q81 0 152 -33v-88q-69 41 -156 41q-130 0 -208.5 -109.5t-78.5 -288.5v-569h-84z" />
    <glyph glyph-name="s" unicode="s" horiz-adv-x="1048" 
d="M547 -41q-199 0 -321 102t-122 265h82q2 -128 101.5 -208.5t259.5 -80.5q138 0 226.5 58.5t88.5 156.5q0 29 -6 53.5t-13 43.5t-24 35.5t-28.5 27t-38.5 21t-40.5 16t-47.5 12.5t-48 9.5t-53.5 8.5t-52.5 8q-48 7 -80 13t-75.5 17.5t-72.5 25t-60.5 35.5t-50 49.5
t-30.5 66.5t-12 86q0 128 105.5 207.5t275.5 79.5q182 0 293 -93.5t110 -246.5h-82q1 119 -87.5 190.5t-235.5 71.5q-132 0 -214.5 -56t-82.5 -147q0 -50 17.5 -87t44 -58t70 -36.5t82 -23t94.5 -15.5q6 -1 9 -1q171 -27 242 -55q153 -61 171 -209q3 -22 3 -45
q0 -136 -111 -216.5t-286 -80.5z" />
    <glyph glyph-name="t" unicode="t" horiz-adv-x="710" 
d="M485 -25q-107 0 -172 71t-65 187v717h-182v76h182l8 313h76l-2 -313h282v-76h-282l2 -714q0 -82 44 -132.5t118 -50.5q67 0 139 21v-76q-64 -23 -148 -23z" />
    <glyph glyph-name="u" unicode="u" 
d="M1053 1026v-1026h-84v188h-15q-52 -106 -150 -167.5t-224 -61.5q-191 0 -306.5 131.5t-115.5 337.5v598h84v-598q0 -172 94.5 -280.5t253.5 -108.5q158 0 268.5 107.5t110.5 267.5v612h84z" />
    <glyph glyph-name="v" unicode="v" horiz-adv-x="1091" 
d="M481 0l-428 1026h90l396 -954h12l395 954h90l-428 -1026h-127z" />
    <glyph glyph-name="w" unicode="w" horiz-adv-x="1699" 
d="M414 0l-357 1026h88l324 -938h14l303 938h121l310 -938h12l323 938h88l-356 -1026h-125l-305 932h-14l-301 -932h-125z" />
    <glyph glyph-name="x" unicode="x" horiz-adv-x="1050" 
d="M72 0l397 535l-377 491h98l328 -426h12l328 426h98l-376 -491l397 -535h-98l-349 467h-12l-348 -467h-98z" />
    <glyph glyph-name="y" unicode="y" horiz-adv-x="1101" 
d="M229 -453q-62 0 -129 23v80q79 -23 125 -23q31 0 59 10.5t50.5 25.5t46 45.5t40 56t39.5 72t37.5 79.5t39.5 92l-482 1018h88l428 -903h15l370 903h88l-426 -1030q-36 -90 -63 -148.5t-64.5 -121t-73.5 -98t-84 -58.5t-104 -23z" />
    <glyph glyph-name="z" unicode="z" horiz-adv-x="1067" 
d="M80 0v47l745 885v14h-725v80h867v-47l-744 -885v-14h764v-80h-907z" />
    <glyph glyph-name="braceleft" unicode="{" horiz-adv-x="671" 
d="M496 -369q-100 0 -164 68.5t-64 175.5v492q0 66 -36 108.5t-93 42.5h-20v111h20q57 0 93 42.5t36 110.5v471q0 107 64 175.5t164 68.5h120v-74h-104q-70 0 -116 -50.5t-46 -127.5v-467q0 -83 -41.5 -136.5t-107.5 -59.5v-15q66 -6 107.5 -59.5t41.5 -136.5v-488
q0 -77 46 -127.5t116 -50.5h104v-74h-120z" />
    <glyph glyph-name="bar" unicode="|" horiz-adv-x="456" 
d="M188 -471v1968h82v-1968h-82z" />
    <glyph glyph-name="braceright" unicode="}" horiz-adv-x="671" 
d="M176 -369h-123v74h107q69 0 114 50.5t45 127.5v488q0 82 42.5 136t109.5 60v15q-67 6 -109.5 60t-42.5 136v467q0 77 -45 127.5t-114 50.5h-107v74h123q100 0 163.5 -68.5t63.5 -175.5v-471q0 -68 35.5 -110.5t93.5 -42.5h21v-111h-21q-58 0 -93.5 -42t-35.5 -109v-492
q0 -107 -63.5 -175.5t-163.5 -68.5z" />
    <glyph glyph-name="asciitilde" unicode="~" horiz-adv-x="1214" 
d="M893 481q-55 -1 -115 24t-113 61t-104.5 72t-107.5 61.5t-105 25.5q-51 0 -104.5 -25t-96.5 -69l-43 61q51 52 117.5 82.5t128.5 30.5q56 0 117 -25t114.5 -61t106 -72t107.5 -61t102 -25q91 0 172 78l41 -61q-46 -45 -104 -71t-113 -26z" />
    <glyph glyph-name="exclamdown" unicode="&#xa1;" horiz-adv-x="366" 
d="M184 844q-32 0 -51.5 19t-19.5 50q0 33 19.5 53.5t51.5 20.5q31 0 51.5 -20.5t20.5 -51.5t-20.5 -51t-51.5 -20zM139 -471v371l8 682h72l8 -682v-371h-88z" />
    <glyph glyph-name="cent" unicode="&#xa2;" horiz-adv-x="1222" 
d="M639 39q140 0 252.5 78.5t144.5 199.5l82 -14q-34 -138 -153.5 -233.5t-276.5 -108.5v-170h-84v168q-220 14 -360 168t-140 387q0 231 140 385t360 168v166h84v-168q160 -15 280 -114.5t150 -245.5l-82 -13q-34 129 -146.5 212t-250.5 83q-196 0 -323.5 -133.5
t-127.5 -339.5q0 -207 127 -341t324 -134z" />
    <glyph glyph-name="sterling" unicode="&#xa3;" horiz-adv-x="1169" 
d="M102 0v121q52 7 90 36t70 90.5t48.5 171t17.5 265.5h-205v80h205v354q0 161 98.5 265t249.5 104q159 0 267 -115.5t116 -292.5h-82q-8 145 -91.5 237.5t-207.5 92.5q-117 0 -191.5 -82.5t-74.5 -208.5v-354h544v-80h-544q-2 -187 -29.5 -311t-73 -186.5t-114.5 -92.5v-14
h870v-80h-963z" />
    <glyph glyph-name="currency" unicode="&#xa4;" horiz-adv-x="1519" 
d="M178 -100l-57 53l219 219q-117 139 -117 342q0 201 117 340l-217 217l55 57l219 -217q145 136 365 136q217 0 366 -136l215 215l56 -55l-217 -217q116 -138 116 -340q0 -204 -116 -342l217 -217l-56 -55l-215 215q-145 -133 -366 -133q-223 0 -365 133zM762 57
q197 0 324.5 129t127.5 328q0 198 -127 326.5t-325 128.5q-197 0 -326 -128.5t-129 -326.5q0 -199 128 -328t327 -129z" />
    <glyph glyph-name="yen" unicode="&#xa5;" horiz-adv-x="1325" 
d="M621 0v164h-525v76h525v262h-525v76h494l-522 858h100l487 -807h15l485 811l102 -4l-522 -858h494v-76h-522v-262h522v-76h-522v-164h-86z" />
    <glyph glyph-name="brokenbar" unicode="&#xa6;" horiz-adv-x="454" 
d="M186 674v823h82v-823h-82zM186 -471v823h82v-823h-82z" />
    <glyph glyph-name="section" unicode="&#xa7;" horiz-adv-x="1214" 
d="M610 -317q-188 0 -307 106.5t-119 271.5h82q2 -131 97 -214t249 -83q146 0 240 77.5t94 197.5q0 59 -24 101.5t-52 66t-90.5 41.5t-98 23t-117.5 15q-5 1 -7 1q-56 7 -89.5 11.5t-83 15.5t-79.5 23t-65.5 33.5t-55 48t-32.5 65t-13 85.5q0 98 69.5 169t192.5 91
q-200 65 -200 275q0 148 111.5 244t281.5 96q175 0 288 -107.5t111 -271.5h-82q0 129 -89.5 213t-227.5 84q-135 0 -222 -72t-87 -182q0 -32 7.5 -59.5t17.5 -48t31.5 -38.5t38 -29.5t49.5 -23t52 -17t60 -13t60 -10.5t65 -9q40 -6 61.5 -9t58.5 -10t58 -13t53 -15.5
t50 -20.5t41.5 -26t37 -33.5t26 -41t18 -50.5t5.5 -61q0 -103 -66.5 -171t-189.5 -90q213 -64 213 -274q0 -158 -119.5 -260t-302.5 -102zM643 356q167 4 257.5 60.5t90.5 156.5q0 50 -22.5 87t-55 57t-80 33.5t-87.5 19t-87 10.5q-6 0 -8.5 0.5t-7 1t-8.5 0.5q-16 1 -72 11
q-158 -6 -249 -65.5t-91 -152.5q0 -28 7 -52t16.5 -41.5t30 -33t35.5 -25.5t45.5 -19t48.5 -14t56 -10.5t56 -7.5t60 -7q12 -1 34 -4.5t31 -4.5z" />
    <glyph glyph-name="dieresis" unicode="&#xa8;" horiz-adv-x="776" 
d="M174 1245q-32 0 -52 20t-20 52t20 52t52 20t52 -20t20 -52t-20 -52t-52 -20zM600 1245q-32 0 -52 20t-20 52t20 52t52 20t52 -20t20 -52t-20 -52t-52 -20z" />
    <glyph glyph-name="copyright" unicode="&#xa9;" horiz-adv-x="1824" 
d="M911 -276q-170 0 -317 59.5t-250.5 163t-163 250.5t-59.5 317q0 221 101 401t282 284t407 104q228 0 409 -101t282.5 -281t101.5 -407q0 -170 -59.5 -317t-163.5 -250.5t-252 -163t-318 -59.5zM913 -203q206 0 369.5 91.5t255.5 255.5t92 370q0 200 -91.5 363
t-256.5 257.5t-369 94.5q-205 0 -369.5 -94.5t-255.5 -257.5t-91 -363q0 -206 91.5 -370t255 -255.5t369.5 -91.5zM913 -39q-232 0 -383 156t-151 397q0 240 152.5 396.5t386.5 156.5q163 0 296.5 -89t176.5 -226l-70 -19q-47 119 -157.5 189.5t-248.5 70.5
q-199 0 -328.5 -136t-129.5 -343q0 -212 128 -346.5t330 -134.5q136 0 252 75.5t160 192.5l66 -25q-47 -138 -182.5 -226.5t-297.5 -88.5z" />
    <glyph glyph-name="guillemotleft" unicode="&#xab;" horiz-adv-x="1177" 
d="M494 0l-422 514l424 512h104l-426 -512l426 -514h-106zM950 0l-422 514l424 512h105l-424 -512l424 -514h-107z" />
    <glyph glyph-name="logicalnot" unicode="&#xac;" horiz-adv-x="1290" 
d="M1092 143v478h-988v79h1063v-557h-75z" />
    <glyph glyph-name="registered" unicode="&#xae;" horiz-adv-x="1824" 
d="M911 -270q-170 0 -317 59t-250.5 162.5t-163 250t-59.5 316.5q0 221 101 401t282 284t407 104q228 0 409 -101t282.5 -281t101.5 -407q0 -170 -59.5 -316.5t-164 -250t-251.5 -162.5t-318 -59zM913 -199q205 0 369 92t256 256t92 369q0 150 -54 283t-148 228t-228 150.5
t-287 55.5q-123 0 -234.5 -35.5t-198.5 -100.5t-151 -153t-98 -198t-34 -230q0 -154 53.5 -287t147.5 -227.5t227 -148.5t288 -54zM598 25v1007h383q149 0 247.5 -85.5t98.5 -215.5q0 -129 -98.5 -213t-247.5 -84h-8l344 -409h-92l-344 409h-207v-409h-76zM674 506h303
q120 0 197 63t77 162q0 100 -78 163.5t-198 63.5h-301v-452z" />
    <glyph glyph-name="macron" unicode="&#xaf;" horiz-adv-x="782" 
d="M104 1262v77h576v-77h-576z" />
    <glyph glyph-name="degree" unicode="&#xb0;" horiz-adv-x="1030" 
d="M516 711q-186 0 -299 109t-113 288q0 180 113 289.5t299 109.5q185 0 297.5 -109.5t112.5 -289.5q0 -179 -113 -288t-297 -109zM518 784q149 0 240.5 89t91.5 235q0 147 -91 236.5t-241 89.5q-152 0 -245 -89t-93 -237q0 -146 93 -235t245 -89z" />
    <glyph glyph-name="plusminus" unicode="&#xb1;" horiz-adv-x="1136" 
d="M526 553v295h-422v80h422v270h84v-270h424v-80h-424v-295h-84zM104 242v82h930v-82h-930z" />
    <glyph glyph-name="acute" unicode="&#xb4;" horiz-adv-x="532" 
d="M209 1260h-107l224 237h104z" />
    <glyph glyph-name="uni00B5" unicode="&#xb5;" horiz-adv-x="1163" 
d="M178 -354v1380h84v-610q0 -159 86.5 -247.5t231.5 -88.5q81 0 153 39.5t120 118.5t48 180v608h84v-1026h-82v180q-54 -88 -141.5 -134t-186.5 -46q-221 0 -313 168v-522h-84z" />
    <glyph glyph-name="paragraph" unicode="&#xb6;" horiz-adv-x="1343" 
d="M557 -467v1157q-205 0 -329 102.5t-124 270.5q0 167 125 270t328 103h623v-76h-187v-1827h-80v1827h-276v-1827h-80z" />
    <glyph glyph-name="periodcentered" unicode="&#xb7;" horiz-adv-x="352" 
d="M176 522q-32 0 -52 20.5t-20 51.5t20 51.5t52 20.5q31 0 51.5 -20.5t20.5 -51.5t-20.5 -51.5t-51.5 -20.5z" />
    <glyph glyph-name="cedilla" unicode="&#xb8;" horiz-adv-x="632" 
d="M317 -504q-83 0 -141 46t-72 120l68 16q12 -53 51.5 -84.5t95.5 -31.5q60 0 99 36t39 89q0 58 -46.5 93.5t-117.5 35.5h-78l23 196h75l-18 -131q103 0 168 -53t65 -139q0 -83 -59 -138t-152 -55z" />
    <glyph glyph-name="guillemotright" unicode="&#xbb;" horiz-adv-x="1175" 
d="M119 0l426 514l-426 512h106l424 -512l-424 -514h-106zM578 0l426 514l-426 512h104l424 -512l-422 -514h-106z" />
    <glyph glyph-name="questiondown" unicode="&#xbf;" horiz-adv-x="1118" 
d="M604 870q-31 0 -51.5 19.5t-20.5 50.5q0 32 20.5 53t51.5 21q32 0 53 -21t21 -53q0 -30 -21 -50t-53 -20zM545 -496q-188 0 -311 117.5t-123 304.5q0 73 20 134t59 109.5t81 83.5t102 73q74 48 112 87t57 95.5t19 144.5h84q0 -81 -13 -138.5t-44 -104t-71 -81t-107 -77.5
q-46 -30 -79 -57t-66 -66.5t-50.5 -91t-17.5 -113.5q0 -151 98.5 -244.5t249.5 -93.5q162 0 265 107.5t112 277.5h88q-9 -205 -138 -336t-327 -131z" />
    <glyph glyph-name="Agrave" unicode="&#xc0;" horiz-adv-x="1335" 
d="M719 1585h-109l-188 193h110zM47 0l559 1436h127l557 -1436h-88l-147 375h-772l-148 -375h-88zM311 457h715l-350 897h-14z" />
    <glyph glyph-name="Aacute" unicode="&#xc1;" horiz-adv-x="1335" 
d="M618 1585l189 193h111l-189 -193h-111zM47 0l559 1436h127l557 -1436h-88l-147 375h-772l-148 -375h-88zM311 457h715l-350 897h-14z" />
    <glyph glyph-name="Acircumflex" unicode="&#xc2;" horiz-adv-x="1335" 
d="M616 1778h107l207 -193h-109l-143 131h-14l-148 -131h-108zM47 0l559 1436h127l557 -1436h-88l-147 375h-772l-148 -375h-88zM311 457h715l-350 897h-14z" />
    <glyph glyph-name="Atilde" unicode="&#xc3;" horiz-adv-x="1335" 
d="M795 1606q-37 0 -67.5 10.5t-52 26t-41.5 31t-44.5 26t-52.5 10.5q-40 0 -74 -21t-55 -55l-58 37q22 50 74 80.5t115 30.5q43 0 79.5 -16.5t58 -36t54 -36t68.5 -16.5q45 0 80 22t53 58l61 -33q-23 -53 -77 -85.5t-121 -32.5zM47 0l559 1436h127l557 -1436h-88l-147 375
h-772l-148 -375h-88zM311 457h715l-350 897h-14z" />
    <glyph glyph-name="Adieresis" unicode="&#xc4;" horiz-adv-x="1335" 
d="M459 1618q-32 0 -53 21t-21 53q0 31 21 52t53 21q31 0 52 -21t21 -52q0 -32 -21 -53t-52 -21zM881 1618q-32 0 -53 21t-21 53q0 31 21 52t53 21t52.5 -21t20.5 -52q0 -32 -20.5 -53t-52.5 -21zM47 0l559 1436h127l557 -1436h-88l-147 375h-772l-148 -375h-88zM311 457
h715l-350 897h-14z" />
    <glyph glyph-name="Aring" unicode="&#xc5;" horiz-adv-x="1335" 
d="M670 1561q-78 0 -129.5 50.5t-51.5 127.5q0 76 51.5 126t129.5 50t129 -50t51 -126t-51.5 -127t-128.5 -51zM670 1626q49 0 80.5 31.5t31.5 81.5q0 49 -31 79.5t-81 30.5t-81.5 -30.5t-31.5 -79.5q0 -50 31 -81.5t82 -31.5zM47 0l559 1436h127l557 -1436h-88l-147 375
h-772l-148 -375h-88zM311 457h715l-350 897h-14z" />
    <glyph glyph-name="AE" unicode="&#xc6;" horiz-adv-x="1810" 
d="M47 0l748 1436h897v-82h-742v-584h660v-80h-660v-608h762v-82h-848v319h-551l-168 -319h-98zM354 399h510v959h-14z" />
    <glyph glyph-name="Ccedilla" unicode="&#xc7;" horiz-adv-x="1671" 
d="M868 31q219 0 388.5 126.5t211.5 313.5l82 -18q-45 -205 -227 -348.5t-418 -155.5l-8 -68q102 0 167.5 -53t65.5 -139q0 -82 -59.5 -137.5t-150.5 -55.5q-83 0 -141.5 46t-73.5 120l69 16q10 -52 50 -84t96 -32q61 0 100 36t39 89q0 58 -46.5 93.5t-119.5 35.5h-78
l16 133q-206 9 -368 109.5t-252 273t-90 387.5q0 221 95 396t265.5 273.5t386.5 98.5q247 0 440.5 -150t243.5 -372l-86 -15q-43 192 -213 323.5t-385 131.5q-191 0 -341.5 -87.5t-234 -244t-83.5 -354.5q0 -197 83.5 -354t234 -245.5t341.5 -88.5z" />
    <glyph glyph-name="Egrave" unicode="&#xc8;" horiz-adv-x="1280" 
d="M729 1585h-108l-189 193h111zM188 0v1436h969v-82h-883v-566h801v-81h-801v-625h904v-82h-990z" />
    <glyph glyph-name="Eacute" unicode="&#xc9;" horiz-adv-x="1280" 
d="M629 1585l188 193h111l-189 -193h-110zM188 0v1436h969v-82h-883v-566h801v-81h-801v-625h904v-82h-990z" />
    <glyph glyph-name="Ecircumflex" unicode="&#xca;" horiz-adv-x="1280" 
d="M627 1778h106l207 -193h-109l-143 131h-14l-148 -131h-108zM188 0v1436h969v-82h-883v-566h801v-81h-801v-625h904v-82h-990z" />
    <glyph glyph-name="Edieresis" unicode="&#xcb;" horiz-adv-x="1280" 
d="M469 1618q-32 0 -53 21t-21 53q0 31 21 52t53 21q31 0 52.5 -21t21.5 -52q0 -32 -21.5 -53t-52.5 -21zM891 1618q-32 0 -53 21t-21 53q0 31 21 52t53 21t53 -21t21 -52q0 -32 -21 -53t-53 -21zM188 0v1436h969v-82h-883v-566h801v-81h-801v-625h904v-82h-990z" />
    <glyph glyph-name="Igrave" unicode="&#xcc;" horiz-adv-x="460" 
d="M279 1585h-109l-190 193h112zM188 0v1436h86v-1436h-86z" />
    <glyph glyph-name="Iacute" unicode="&#xcd;" horiz-adv-x="460" 
d="M178 1585l187 193h112l-190 -193h-109zM188 0v1436h86v-1436h-86z" />
    <glyph glyph-name="Icircumflex" unicode="&#xce;" horiz-adv-x="460" 
d="M174 1778h105l208 -193h-108l-146 131h-14l-145 -131h-109zM188 0v1436h86v-1436h-86z" />
    <glyph glyph-name="Idieresis" unicode="&#xcf;" horiz-adv-x="460" 
d="M16 1618q-31 0 -52 21t-21 53q0 31 21 52t52 21q32 0 53 -21t21 -52q0 -32 -21 -53t-53 -21zM440 1618q-32 0 -52.5 21t-20.5 53q0 31 20.5 52t52.5 21q31 0 52.5 -21t21.5 -52q0 -32 -21.5 -53t-52.5 -21zM188 0v1436h86v-1436h-86z" />
    <glyph glyph-name="Ntilde" unicode="&#xd1;" horiz-adv-x="1439" 
d="M864 1606q-37 0 -67.5 10.5t-52 26t-41.5 31t-44.5 26t-52.5 10.5q-40 0 -74 -21t-55 -55l-59 37q22 50 74 80.5t116 30.5q43 0 79 -16.5t58 -36t54.5 -36t68.5 -16.5q45 0 80.5 22t50.5 58l64 -33q-23 -53 -77.5 -85.5t-121.5 -32.5zM186 0v1436h129l838 -1323h14v1323
h86v-1436h-129l-837 1321h-15v-1321h-86z" />
    <glyph glyph-name="Ograve" unicode="&#xd2;" horiz-adv-x="1763" 
d="M932 1585h-109l-190 193h112zM881 -51q-163 0 -305 58t-242 159.5t-157.5 244.5t-57.5 308t57.5 308t157.5 244t242 158.5t305 57.5t305 -57.5t243 -158.5t158.5 -244t57.5 -308t-57.5 -308t-158.5 -244.5t-243 -159.5t-305 -58zM881 31q194 0 348.5 88.5t240.5 245.5
t86 354q0 147 -50.5 274.5t-139 218t-214.5 142t-271 51.5q-193 0 -347 -88t-240.5 -245t-86.5 -353t86.5 -353.5t240.5 -246t347 -88.5z" />
    <glyph glyph-name="Oacute" unicode="&#xd3;" horiz-adv-x="1763" 
d="M831 1585l187 193h112l-190 -193h-109zM881 -51q-163 0 -305 58t-242 159.5t-157.5 244.5t-57.5 308t57.5 308t157.5 244t242 158.5t305 57.5t305 -57.5t243 -158.5t158.5 -244t57.5 -308t-57.5 -308t-158.5 -244.5t-243 -159.5t-305 -58zM881 31q194 0 348.5 88.5
t240.5 245.5t86 354q0 147 -50.5 274.5t-139 218t-214.5 142t-271 51.5q-193 0 -347 -88t-240.5 -245t-86.5 -353t86.5 -353.5t240.5 -246t347 -88.5z" />
    <glyph glyph-name="Ocircumflex" unicode="&#xd4;" horiz-adv-x="1763" 
d="M829 1778h105l209 -193h-109l-145 131h-15l-147 -131h-109zM881 -51q-163 0 -305 58t-242 159.5t-157.5 244.5t-57.5 308t57.5 308t157.5 244t242 158.5t305 57.5t305 -57.5t243 -158.5t158.5 -244t57.5 -308t-57.5 -308t-158.5 -244.5t-243 -159.5t-305 -58zM881 31
q194 0 348.5 88.5t240.5 245.5t86 354q0 147 -50.5 274.5t-139 218t-214.5 142t-271 51.5q-193 0 -347 -88t-240.5 -245t-86.5 -353t86.5 -353.5t240.5 -246t347 -88.5z" />
    <glyph glyph-name="Otilde" unicode="&#xd5;" horiz-adv-x="1763" 
d="M1008 1606q-37 0 -67.5 10.5t-52 26t-41.5 31t-44.5 26t-52.5 10.5q-40 0 -74 -21t-55 -55l-60 37q22 50 74.5 80.5t116.5 30.5q43 0 79 -16.5t58 -36t54 -36t67 -16.5q46 0 82 22t51 58l63 -33q-23 -53 -77 -85.5t-121 -32.5zM881 -51q-163 0 -305 58t-242 159.5
t-157.5 244.5t-57.5 308t57.5 308t157.5 244t242 158.5t305 57.5t305 -57.5t243 -158.5t158.5 -244t57.5 -308t-57.5 -308t-158.5 -244.5t-243 -159.5t-305 -58zM881 31q194 0 348.5 88.5t240.5 245.5t86 354q0 147 -50.5 274.5t-139 218t-214.5 142t-271 51.5
q-193 0 -347 -88t-240.5 -245t-86.5 -353t86.5 -353.5t240.5 -246t347 -88.5z" />
    <glyph glyph-name="Odieresis" unicode="&#xd6;" horiz-adv-x="1763" 
d="M670 1618q-31 0 -52.5 21t-21.5 53q0 31 21.5 52t52.5 21q32 0 52.5 -21t20.5 -52q0 -32 -20.5 -53t-52.5 -21zM1092 1618q-31 0 -52.5 21t-21.5 53q0 31 21.5 52t52.5 21q32 0 52.5 -21t20.5 -52q0 -32 -20.5 -53t-52.5 -21zM881 -51q-163 0 -305 58t-242 159.5
t-157.5 244.5t-57.5 308t57.5 308t157.5 244t242 158.5t305 57.5t305 -57.5t243 -158.5t158.5 -244t57.5 -308t-57.5 -308t-158.5 -244.5t-243 -159.5t-305 -58zM881 31q194 0 348.5 88.5t240.5 245.5t86 354q0 147 -50.5 274.5t-139 218t-214.5 142t-271 51.5
q-193 0 -347 -88t-240.5 -245t-86.5 -353t86.5 -353.5t240.5 -246t347 -88.5z" />
    <glyph glyph-name="multiply" unicode="&#xd7;" horiz-adv-x="759" 
d="M160 424l-56 53l224 242l-224 239l56 54l219 -236l221 236l57 -54l-225 -239l225 -242l-57 -53l-221 238z" />
    <glyph glyph-name="Oslash" unicode="&#xd8;" horiz-adv-x="1724" 
d="M338 -287l164 324q-177 95 -279 274t-102 408q0 219 95 394.5t264.5 274.5t381.5 99q180 0 334 -74l176 348h92l-196 -389q157 -100 246.5 -270.5t89.5 -382.5q0 -220 -95 -396t-265 -275t-382 -99q-157 0 -287 53l-145 -289h-92zM539 113l620 1224q-139 68 -297 68
q-140 0 -262 -51.5t-208 -142t-135.5 -218t-49.5 -274.5q0 -201 89 -360.5t243 -245.5zM862 31q188 0 338 88t234 245t84 355q0 186 -76.5 336t-212.5 241l-617 -1218q115 -47 250 -47z" />
    <glyph glyph-name="Ugrave" unicode="&#xd9;" horiz-adv-x="1441" 
d="M774 1585h-110l-189 193h111zM723 -51q-248 0 -400.5 171t-152.5 449v867h86v-867q0 -243 127.5 -390.5t339.5 -147.5q211 0 338 147.5t127 390.5v867h86v-867q0 -278 -152 -449t-399 -171z" />
    <glyph glyph-name="Uacute" unicode="&#xda;" horiz-adv-x="1441" 
d="M672 1585l188 193h111l-189 -193h-110zM723 -51q-248 0 -400.5 171t-152.5 449v867h86v-867q0 -243 127.5 -390.5t339.5 -147.5q211 0 338 147.5t127 390.5v867h86v-867q0 -278 -152 -449t-399 -171z" />
    <glyph glyph-name="Ucircumflex" unicode="&#xdb;" horiz-adv-x="1441" 
d="M670 1778h106l209 -193h-108l-146 131h-14l-148 -131h-108zM723 -51q-248 0 -400.5 171t-152.5 449v867h86v-867q0 -243 127.5 -390.5t339.5 -147.5q211 0 338 147.5t127 390.5v867h86v-867q0 -278 -152 -449t-399 -171z" />
    <glyph glyph-name="Udieresis" unicode="&#xdc;" horiz-adv-x="1441" 
d="M512 1618q-32 0 -53 21t-21 53q0 31 21 52t53 21q31 0 52.5 -21t21.5 -52q0 -32 -21.5 -53t-52.5 -21zM934 1618q-32 0 -53 21t-21 53q0 31 21 52t53 21t53 -21t21 -52q0 -32 -21 -53t-53 -21zM723 -51q-248 0 -400.5 171t-152.5 449v867h86v-867q0 -243 127.5 -390.5
t339.5 -147.5q211 0 338 147.5t127 390.5v867h86v-867q0 -278 -152 -449t-399 -171z" />
    <glyph glyph-name="Yacute" unicode="&#xdd;" horiz-adv-x="1179" 
d="M541 1585l188 193h111l-189 -193h-110zM549 0v580l-502 856h96l441 -758h14l440 758h97l-500 -856v-580h-86z" />
    <glyph glyph-name="germandbls" unicode="&#xdf;" horiz-adv-x="1306" 
d="M748 -51q-156 0 -281 71v95q54 -38 127.5 -61t148.5 -23q154 0 248 90.5t94 238.5q0 167 -135 267t-354 100h-72v82h76q159 0 261 76t102 200q0 126 -94.5 212.5t-237.5 86.5q-166 0 -272.5 -113.5t-106.5 -291.5v-979h-86v983q0 211 131.5 348t333.5 137
q179 0 298.5 -109t119.5 -267q0 -126 -76.5 -204.5t-212.5 -107.5v-14q188 -24 299.5 -132t111.5 -280q0 -175 -120 -290t-303 -115z" />
    <glyph glyph-name="agrave" unicode="&#xe0;" horiz-adv-x="1107" 
d="M504 1260l-223 237h106l221 -237h-104zM438 -39q-157 0 -249.5 70t-92.5 190q0 130 106.5 214t332.5 122l329 55v58q0 132 -86.5 216.5t-224.5 84.5q-139 0 -228 -76t-89 -195h-84q0 154 112 252.5t289 98.5q173 0 284 -107t111 -274v-670h-84v190h-12
q-56 -112 -165 -170.5t-249 -58.5zM444 39q188 0 304 107.5t116 271.5v117l-319 -54q-193 -34 -279 -98t-86 -162q0 -86 70 -134t194 -48z" />
    <glyph glyph-name="aacute" unicode="&#xe1;" horiz-adv-x="1107" 
d="M610 1260h-104l221 237h107zM438 -39q-157 0 -249.5 70t-92.5 190q0 130 106.5 214t332.5 122l329 55v58q0 132 -86.5 216.5t-224.5 84.5q-139 0 -228 -76t-89 -195h-84q0 154 112 252.5t289 98.5q173 0 284 -107t111 -274v-670h-84v190h-12q-56 -112 -165 -170.5
t-249 -58.5zM444 39q188 0 304 107.5t116 271.5v117l-319 -54q-193 -34 -279 -98t-86 -162q0 -86 70 -134t194 -48z" />
    <glyph glyph-name="acircumflex" unicode="&#xe2;" horiz-adv-x="1107" 
d="M303 1260l203 237h104l203 -237h-98l-150 170h-14l-152 -170h-96zM438 -39q-157 0 -249.5 70t-92.5 190q0 130 106.5 214t332.5 122l329 55v58q0 132 -86.5 216.5t-224.5 84.5q-139 0 -228 -76t-89 -195h-84q0 154 112 252.5t289 98.5q173 0 284 -107t111 -274v-670h-84
v190h-12q-56 -112 -165 -170.5t-249 -58.5zM444 39q188 0 304 107.5t116 271.5v117l-319 -54q-193 -34 -279 -98t-86 -162q0 -86 70 -134t194 -48z" />
    <glyph glyph-name="atilde" unicode="&#xe3;" horiz-adv-x="1107" 
d="M676 1260q-44 0 -84.5 19t-66.5 41t-60 41t-66 19q-37 0 -69 -20t-51 -53l-58 39q23 49 72.5 79.5t105.5 30.5q41 0 81 -19t67 -42.5t62 -42.5t67 -19q41 0 76 22t49 56l65 -35q-23 -51 -76 -83.5t-114 -32.5zM438 -39q-157 0 -249.5 70t-92.5 190q0 130 106.5 214
t332.5 122l329 55v58q0 132 -86.5 216.5t-224.5 84.5q-139 0 -228 -76t-89 -195h-84q0 154 112 252.5t289 98.5q173 0 284 -107t111 -274v-670h-84v190h-12q-56 -112 -165 -170.5t-249 -58.5zM444 39q188 0 304 107.5t116 271.5v117l-319 -54q-193 -34 -279 -98t-86 -162
q0 -86 70 -134t194 -48z" />
    <glyph glyph-name="adieresis" unicode="&#xe4;" horiz-adv-x="1107" 
d="M342 1245q-32 0 -52 20t-20 52t20 52t52 20t52 -20t20 -52t-20 -52t-52 -20zM768 1245q-32 0 -52 20t-20 52t20 52t52 20t52 -20t20 -52t-20 -52t-52 -20zM438 -39q-157 0 -249.5 70t-92.5 190q0 130 106.5 214t332.5 122l329 55v58q0 132 -86.5 216.5t-224.5 84.5
q-139 0 -228 -76t-89 -195h-84q0 154 112 252.5t289 98.5q173 0 284 -107t111 -274v-670h-84v190h-12q-56 -112 -165 -170.5t-249 -58.5zM444 39q188 0 304 107.5t116 271.5v117l-319 -54q-193 -34 -279 -98t-86 -162q0 -86 70 -134t194 -48z" />
    <glyph glyph-name="aring" unicode="&#xe5;" horiz-adv-x="1107" 
d="M557 1176q-88 0 -144.5 55t-56.5 141q0 88 56.5 143.5t144.5 55.5t144.5 -55.5t56.5 -143.5q0 -86 -56.5 -141t-144.5 -55zM557 1235q60 0 98.5 39t38.5 98q0 60 -38.5 99.5t-98.5 39.5t-98.5 -39.5t-38.5 -99.5q0 -59 38.5 -98t98.5 -39zM438 -39q-157 0 -249.5 70
t-92.5 190q0 130 106.5 214t332.5 122l329 55v58q0 132 -86.5 216.5t-224.5 84.5q-139 0 -228 -76t-89 -195h-84q0 154 112 252.5t289 98.5q173 0 284 -107t111 -274v-670h-84v190h-12q-56 -112 -165 -170.5t-249 -58.5zM444 39q188 0 304 107.5t116 271.5v117l-319 -54
q-193 -34 -279 -98t-86 -162q0 -86 70 -134t194 -48z" />
    <glyph glyph-name="ae" unicode="&#xe6;" horiz-adv-x="1992" 
d="M578 1067q153 0 262.5 -77t140.5 -204q65 133 174.5 207t257.5 74q209 0 343 -155.5t134 -395.5v-31h-886q7 -195 123 -320.5t288 -125.5q122 0 221.5 76t145.5 200l78 -22q-52 -148 -173 -241t-270 -93q-157 0 -278.5 88.5t-175.5 239.5q-41 -153 -168.5 -239.5
t-309.5 -86.5q-171 0 -280 83.5t-109 215.5q0 65 26 117t69 87t107.5 61t132.5 41t153 26l331 39v57q0 132 -94 215.5t-243 83.5q-150 0 -246 -75.5t-96 -192.5h-84q0 152 120 250t306 98zM1411 987q-167 0 -279 -118t-126 -306h796q-15 188 -123.5 306t-267.5 118zM584 514
q-196 -22 -300 -80.5t-104 -175.5q0 -96 87 -157.5t222 -61.5q192 0 309 107.5t117 273.5v133z" />
    <glyph glyph-name="ccedilla" unicode="&#xe7;" horiz-adv-x="1222" 
d="M639 39q140 0 252.5 78.5t144.5 199.5l82 -14q-35 -141 -159 -237t-285 -105l-10 -80q102 0 167.5 -53t65.5 -139q0 -82 -59.5 -137.5t-151.5 -55.5q-84 0 -142 45.5t-73 120.5l70 16q11 -53 50.5 -84.5t94.5 -31.5q61 0 100 36t39 89q0 58 -46.5 93.5t-119.5 35.5h-77
l18 145q-219 14 -357.5 168t-138.5 385q0 241 151 397t384 156q174 0 309.5 -102t169.5 -260l-82 -13q-34 129 -146.5 212t-250.5 83q-196 0 -323.5 -133.5t-127.5 -339.5q0 -207 127 -341t324 -134z" />
    <glyph glyph-name="egrave" unicode="&#xe8;" horiz-adv-x="1294" 
d="M602 1260l-221 237h104l224 -237h-107zM659 -41q-243 0 -399 157t-156 400q0 240 156 395.5t397 155.5q233 0 384 -156t151 -395v-31h-1004q9 -196 141 -321t330 -125q141 0 260.5 77.5t163.5 198.5l78 -22q-53 -148 -192.5 -241t-309.5 -93zM190 565h914
q-14 186 -138.5 304t-310.5 118q-192 0 -321 -118t-144 -304z" />
    <glyph glyph-name="eacute" unicode="&#xe9;" horiz-adv-x="1294" 
d="M711 1260h-107l223 237h105zM659 -41q-243 0 -399 157t-156 400q0 240 156 395.5t397 155.5q233 0 384 -156t151 -395v-31h-1004q9 -196 141 -321t330 -125q141 0 260.5 77.5t163.5 198.5l78 -22q-53 -148 -192.5 -241t-309.5 -93zM190 565h914q-14 186 -138.5 304
t-310.5 118q-192 0 -321 -118t-144 -304z" />
    <glyph glyph-name="ecircumflex" unicode="&#xea;" horiz-adv-x="1294" 
d="M403 1260l201 237h105l202 -237h-96l-151 170h-15l-149 -170h-97zM659 -41q-243 0 -399 157t-156 400q0 240 156 395.5t397 155.5q233 0 384 -156t151 -395v-31h-1004q9 -196 141 -321t330 -125q141 0 260.5 77.5t163.5 198.5l78 -22q-53 -148 -192.5 -241t-309.5 -93z
M190 565h914q-14 186 -138.5 304t-310.5 118q-192 0 -321 -118t-144 -304z" />
    <glyph glyph-name="edieresis" unicode="&#xeb;" horiz-adv-x="1294" 
d="M442 1245q-32 0 -51.5 20t-19.5 52t19.5 52t51.5 20t52 -20t20 -52t-20 -52t-52 -20zM868 1245q-32 0 -51.5 20t-19.5 52t19.5 52t51.5 20t52 -20t20 -52t-20 -52t-52 -20zM659 -41q-243 0 -399 157t-156 400q0 240 156 395.5t397 155.5q233 0 384 -156t151 -395v-31
h-1004q9 -196 141 -321t330 -125q141 0 260.5 77.5t163.5 198.5l78 -22q-53 -148 -192.5 -241t-309.5 -93zM190 565h914q-14 186 -138.5 304t-310.5 118q-192 0 -321 -118t-144 -304z" />
    <glyph glyph-name="igrave" unicode="&#xec;" horiz-adv-x="409" 
d="M152 1260l-222 237h105l223 -237h-106zM164 0v1026h84v-1026h-84z" />
    <glyph glyph-name="iacute" unicode="&#xed;" horiz-adv-x="409" 
d="M260 1260h-106l223 237h104zM164 0v1026h84v-1026h-84z" />
    <glyph glyph-name="icircumflex" unicode="&#xee;" horiz-adv-x="409" 
d="M-47 1260l201 237h104l203 -237h-96l-152 170h-12l-152 -170h-96zM164 0v1026h84v-1026h-84z" />
    <glyph glyph-name="idieresis" unicode="&#xef;" horiz-adv-x="409" 
d="M-8 1245q-32 0 -52 20t-20 52t20 52t52 20t51.5 -20t19.5 -52t-19.5 -52t-51.5 -20zM418 1245q-32 0 -52 20t-20 52t20 52t52 20t51.5 -20t19.5 -52t-19.5 -52t-51.5 -20zM164 0v1026h84v-1026h-84z" />
    <glyph glyph-name="ntilde" unicode="&#xf1;" 
d="M764 1260q-44 0 -84.5 19t-66 41t-59 41t-65.5 19q-37 0 -69 -20t-51 -53l-58 39q23 49 71.5 79.5t104.5 30.5q42 0 82 -19t66.5 -42.5t61.5 -42.5t67 -19q41 0 76.5 22t50.5 56l63 -35q-23 -51 -76 -83.5t-114 -32.5zM180 0v1026h84v-188h15q50 106 149 167.5t225 61.5
q191 0 306.5 -131.5t115.5 -337.5v-598h-84v598q0 172 -94.5 280.5t-253.5 108.5t-269 -107t-110 -268v-612h-84z" />
    <glyph glyph-name="ograve" unicode="&#xf2;" horiz-adv-x="1277" 
d="M586 1260l-224 237h107l223 -237h-106zM639 -41q-154 0 -276.5 70.5t-191.5 197.5t-69 287q0 241 151.5 397t385.5 156q235 0 386 -155.5t151 -397.5q0 -243 -151 -399t-386 -156zM639 39q197 0 326 134t129 341q0 205 -129 339t-326 134t-325 -134t-128 -339
q0 -207 128 -341t325 -134z" />
    <glyph glyph-name="oacute" unicode="&#xf3;" horiz-adv-x="1277" 
d="M694 1260h-106l221 237h106zM639 -41q-154 0 -276.5 70.5t-191.5 197.5t-69 287q0 241 151.5 397t385.5 156q235 0 386 -155.5t151 -397.5q0 -243 -151 -399t-386 -156zM639 39q197 0 326 134t129 341q0 205 -129 339t-326 134t-325 -134t-128 -339q0 -207 128 -341
t325 -134z" />
    <glyph glyph-name="ocircumflex" unicode="&#xf4;" horiz-adv-x="1277" 
d="M385 1260l203 237h104l203 -237h-98l-150 170h-14l-150 -170h-98zM639 -41q-154 0 -276.5 70.5t-191.5 197.5t-69 287q0 241 151.5 397t385.5 156q235 0 386 -155.5t151 -397.5q0 -243 -151 -399t-386 -156zM639 39q197 0 326 134t129 341q0 205 -129 339t-326 134
t-325 -134t-128 -339q0 -207 128 -341t325 -134z" />
    <glyph glyph-name="otilde" unicode="&#xf5;" horiz-adv-x="1277" 
d="M758 1260q-44 0 -84.5 19t-66 41t-59 41t-65.5 19q-37 0 -69.5 -20t-51.5 -53l-57 39q22 49 71 79.5t105 30.5q42 0 82 -19t66.5 -42.5t61.5 -42.5t67 -19q41 0 76.5 22t50.5 56l63 -35q-23 -51 -76 -83.5t-114 -32.5zM639 -41q-154 0 -276.5 70.5t-191.5 197.5t-69 287
q0 241 151.5 397t385.5 156q235 0 386 -155.5t151 -397.5q0 -243 -151 -399t-386 -156zM639 39q197 0 326 134t129 341q0 205 -129 339t-326 134t-325 -134t-128 -339q0 -207 128 -341t325 -134z" />
    <glyph glyph-name="odieresis" unicode="&#xf6;" horiz-adv-x="1277" 
d="M424 1245q-32 0 -52 20t-20 52t20 52t52 20t52 -20t20 -52t-20 -52t-52 -20zM850 1245q-32 0 -52 20t-20 52t20 52t52 20t52 -20t20 -52t-20 -52t-52 -20zM639 -41q-154 0 -276.5 70.5t-191.5 197.5t-69 287q0 241 151.5 397t385.5 156q235 0 386 -155.5t151 -397.5
q0 -243 -151 -399t-386 -156zM639 39q197 0 326 134t129 341q0 205 -129 339t-326 134t-325 -134t-128 -339q0 -207 128 -341t325 -134z" />
    <glyph glyph-name="divide" unicode="&#xf7;" horiz-adv-x="1130" 
d="M565 1004q-31 0 -50 18.5t-19 50.5q0 31 19 49.5t50 18.5t50.5 -18.5t19.5 -49.5q0 -32 -19.5 -50.5t-50.5 -18.5zM104 684v80h922v-80h-922zM565 268q-31 0 -50 19.5t-19 50.5t19 49.5t50 18.5t50.5 -18.5t19.5 -49.5t-19.5 -50.5t-50.5 -19.5z" />
    <glyph glyph-name="oslash" unicode="&#xf8;" horiz-adv-x="1282" 
d="M641 1067q132 0 240 -51l108 213h88l-127 -252q108 -73 169 -194t61 -269q0 -243 -152 -399t-387 -156q-108 0 -190 33l-80 -156h-88l94 187q-128 68 -200.5 197t-72.5 294q0 241 151.5 397t385.5 156zM641 991q-199 0 -328 -135t-129 -342q0 -140 61.5 -250.5
t168.5 -171.5l432 854q-95 45 -205 45zM641 35q200 0 329.5 135t129.5 344q0 124 -49.5 225.5t-137.5 165.5l-428 -844q68 -26 156 -26z" />
    <glyph glyph-name="ugrave" unicode="&#xf9;" 
d="M537 1260l-222 237h105l223 -237h-106zM1053 1026v-1026h-84v188h-15q-52 -106 -150 -167.5t-224 -61.5q-191 0 -306.5 131.5t-115.5 337.5v598h84v-598q0 -172 94.5 -280.5t253.5 -108.5q158 0 268.5 107.5t110.5 267.5v612h84z" />
    <glyph glyph-name="uacute" unicode="&#xfa;" 
d="M645 1260h-106l223 237h106zM1053 1026v-1026h-84v188h-15q-52 -106 -150 -167.5t-224 -61.5q-191 0 -306.5 131.5t-115.5 337.5v598h84v-598q0 -172 94.5 -280.5t253.5 -108.5q158 0 268.5 107.5t110.5 267.5v612h84z" />
    <glyph glyph-name="ucircumflex" unicode="&#xfb;" 
d="M338 1260l203 237h102l203 -237h-96l-152 170h-12l-152 -170h-96zM1053 1026v-1026h-84v188h-15q-52 -106 -150 -167.5t-224 -61.5q-191 0 -306.5 131.5t-115.5 337.5v598h84v-598q0 -172 94.5 -280.5t253.5 -108.5q158 0 268.5 107.5t110.5 267.5v612h84z" />
    <glyph glyph-name="udieresis" unicode="&#xfc;" 
d="M377 1245q-32 0 -52 20t-20 52t20 52t52 20t52 -20t20 -52t-20 -52t-52 -20zM803 1245q-32 0 -52 20t-20 52t20 52t52 20t51.5 -20t19.5 -52t-19.5 -52t-51.5 -20zM1053 1026v-1026h-84v188h-15q-52 -106 -150 -167.5t-224 -61.5q-191 0 -306.5 131.5t-115.5 337.5v598
h84v-598q0 -172 94.5 -280.5t253.5 -108.5q158 0 268.5 107.5t110.5 267.5v612h84z" />
    <glyph glyph-name="yacute" unicode="&#xfd;" horiz-adv-x="1103" 
d="M612 1260h-106l221 237h107zM229 -453q-62 0 -129 23v80q79 -23 125 -23q31 0 59 10.5t50.5 25.5t46 45.5t40 56t39.5 72t37.5 79.5t39.5 92l-482 1018h88l428 -903h15l370 903h88l-426 -1030q-36 -90 -63 -148.5t-64.5 -121t-73.5 -98t-84 -58.5t-104 -23z" />
    <glyph glyph-name="ydieresis" unicode="&#xff;" horiz-adv-x="1103" 
d="M342 1245q-32 0 -52 20t-20 52t20 52t52 20t52 -20t20 -52t-20 -52t-52 -20zM768 1245q-32 0 -52 20t-20 52t20 52t52 20t52 -20t20 -52t-20 -52t-52 -20zM229 -453q-62 0 -129 23v80q79 -23 125 -23q31 0 59 10.5t50.5 25.5t46 45.5t40 56t39.5 72t37.5 79.5t39.5 92
l-482 1018h88l428 -903h15l370 903h88l-426 -1030q-36 -90 -63 -148.5t-64.5 -121t-73.5 -98t-84 -58.5t-104 -23z" />
    <glyph glyph-name="Amacron" unicode="&#x100;" horiz-adv-x="1335" 
d="M383 1671v78h575v-78h-575zM47 0l559 1436h127l557 -1436h-88l-147 375h-772l-148 -375h-88zM311 457h715l-350 897h-14z" />
    <glyph glyph-name="amacron" unicode="&#x101;" horiz-adv-x="1107" 
d="M270 1262v77h576v-77h-576zM438 -39q-157 0 -249.5 70t-92.5 190q0 130 106.5 214t332.5 122l329 55v58q0 132 -86.5 216.5t-224.5 84.5q-139 0 -228 -76t-89 -195h-84q0 154 112 252.5t289 98.5q173 0 284 -107t111 -274v-670h-84v190h-12q-56 -112 -165 -170.5
t-249 -58.5zM444 39q188 0 304 107.5t116 271.5v117l-319 -54q-193 -34 -279 -98t-86 -162q0 -86 70 -134t194 -48z" />
    <glyph glyph-name="Abreve" unicode="&#x102;" horiz-adv-x="1335" 
d="M672 1565q-106 0 -175 60.5t-69 152.5h84q0 -61 44.5 -99.5t115.5 -38.5q70 0 113.5 38t43.5 100h84q0 -92 -68.5 -152.5t-172.5 -60.5zM47 0l559 1436h127l557 -1436h-88l-147 375h-772l-148 -375h-88zM311 457h715l-350 897h-14z" />
    <glyph glyph-name="abreve" unicode="&#x103;" horiz-adv-x="1107" 
d="M555 1245q-109 0 -180.5 71t-71.5 181h78q0 -77 49.5 -127.5t124.5 -50.5q76 0 125 50.5t49 127.5h78q0 -110 -71.5 -181t-180.5 -71zM438 -39q-157 0 -249.5 70t-92.5 190q0 130 106.5 214t332.5 122l329 55v58q0 132 -86.5 216.5t-224.5 84.5q-139 0 -228 -76t-89 -195
h-84q0 154 112 252.5t289 98.5q173 0 284 -107t111 -274v-670h-84v190h-12q-56 -112 -165 -170.5t-249 -58.5zM444 39q188 0 304 107.5t116 271.5v117l-319 -54q-193 -34 -279 -98t-86 -162q0 -86 70 -134t194 -48z" />
    <glyph glyph-name="Aogonek" unicode="&#x104;" horiz-adv-x="1335" 
d="M1282 0q-151 -77 -209.5 -131.5t-58.5 -110.5q0 -46 27.5 -72t74.5 -26q63 0 139 49v-71q-76 -48 -149 -48q-71 0 -116.5 46t-45.5 118q0 71 57.5 133t192.5 133l-139 355h-772l-148 -375h-88l559 1436h127l557 -1436h-8zM311 457h715l-350 897h-14z" />
    <glyph glyph-name="aogonek" unicode="&#x105;" horiz-adv-x="1107" 
d="M948 0q-152 -77 -210 -131.5t-58 -110.5q0 -46 27.5 -72t74.5 -26q61 0 140 49v-71q-79 -48 -152 -48q-69 0 -114.5 46t-45.5 118t58.5 135t195.5 134v167h-12q-56 -112 -165 -170.5t-249 -58.5q-157 0 -249.5 70t-92.5 190q0 130 106.5 214t332.5 122l329 55v58
q0 132 -86.5 216.5t-224.5 84.5q-139 0 -228 -76t-89 -195h-84q0 154 112 252.5t289 98.5q173 0 284 -107t111 -274v-670zM444 39q188 0 304 107.5t116 271.5v117l-319 -54q-193 -34 -279 -98t-86 -162q0 -86 70 -134t194 -48z" />
    <glyph glyph-name="Cacute" unicode="&#x106;" horiz-adv-x="1671" 
d="M823 1589l187 195h112l-190 -195h-109zM868 -51q-162 0 -301 58t-237 159.5t-153.5 244.5t-55.5 308q0 221 95 396t265.5 273.5t386.5 98.5q247 0 440.5 -150t243.5 -372l-86 -15q-43 192 -213 323.5t-385 131.5q-191 0 -341.5 -87.5t-234 -244t-83.5 -354.5
q0 -197 83.5 -354t234 -245.5t341.5 -88.5q219 0 388.5 126.5t211.5 313.5l82 -18q-46 -214 -240 -359t-442 -145z" />
    <glyph glyph-name="cacute" unicode="&#x107;" horiz-adv-x="1222" 
d="M692 1260h-106l223 237h106zM639 -41q-233 0 -384 156t-151 399q0 241 151 397t384 156q174 0 309.5 -102t169.5 -260l-82 -13q-34 129 -146.5 212t-250.5 83q-196 0 -323.5 -133.5t-127.5 -339.5q0 -207 127 -341t324 -134q140 0 252.5 78.5t144.5 199.5l82 -14
q-37 -149 -172 -246.5t-307 -97.5z" />
    <glyph glyph-name="Ccircumflex" unicode="&#x108;" horiz-adv-x="1671" 
d="M821 1784h107l207 -195h-109l-145 133h-15l-145 -133h-109zM868 -51q-162 0 -301 58t-237 159.5t-153.5 244.5t-55.5 308q0 221 95 396t265.5 273.5t386.5 98.5q247 0 440.5 -150t243.5 -372l-86 -15q-43 192 -213 323.5t-385 131.5q-191 0 -341.5 -87.5t-234 -244
t-83.5 -354.5q0 -197 83.5 -354t234 -245.5t341.5 -88.5q219 0 388.5 126.5t211.5 313.5l82 -18q-46 -214 -240 -359t-442 -145z" />
    <glyph glyph-name="ccircumflex" unicode="&#x109;" horiz-adv-x="1222" 
d="M385 1260l203 237h102l203 -237h-96l-152 170h-12l-152 -170h-96zM639 -41q-233 0 -384 156t-151 399q0 241 151 397t384 156q174 0 309.5 -102t169.5 -260l-82 -13q-34 129 -146.5 212t-250.5 83q-196 0 -323.5 -133.5t-127.5 -339.5q0 -207 127 -341t324 -134
q140 0 252.5 78.5t144.5 199.5l82 -14q-37 -149 -172 -246.5t-307 -97.5z" />
    <glyph glyph-name="Cdotaccent" unicode="&#x10a;" horiz-adv-x="1671" 
d="M877 1624q-32 0 -53 21t-21 53t20.5 51.5t53.5 19.5q32 0 52.5 -19.5t20.5 -51.5t-20.5 -53t-52.5 -21zM868 -51q-162 0 -301 58t-237 159.5t-153.5 244.5t-55.5 308q0 221 95 396t265.5 273.5t386.5 98.5q247 0 440.5 -150t243.5 -372l-86 -15q-43 192 -213 323.5
t-385 131.5q-191 0 -341.5 -87.5t-234 -244t-83.5 -354.5q0 -197 83.5 -354t234 -245.5t341.5 -88.5q219 0 388.5 126.5t211.5 313.5l82 -18q-46 -214 -240 -359t-442 -145z" />
    <glyph glyph-name="cdotaccent" unicode="&#x10b;" horiz-adv-x="1222" 
d="M639 1245q-32 0 -53 21.5t-21 52.5q0 32 21 53t53 21q31 0 52.5 -21t21.5 -53q0 -31 -21.5 -52.5t-52.5 -21.5zM639 -41q-233 0 -384 156t-151 399q0 241 151 397t384 156q174 0 309.5 -102t169.5 -260l-82 -13q-34 129 -146.5 212t-250.5 83q-196 0 -323.5 -133.5
t-127.5 -339.5q0 -207 127 -341t324 -134q140 0 252.5 78.5t144.5 199.5l82 -14q-37 -149 -172 -246.5t-307 -97.5z" />
    <glyph glyph-name="Ccaron" unicode="&#x10c;" horiz-adv-x="1671" 
d="M819 1589l-209 195h109l145 -133h15l145 133h109l-207 -195h-107zM868 -51q-162 0 -301 58t-237 159.5t-153.5 244.5t-55.5 308q0 221 95 396t265.5 273.5t386.5 98.5q247 0 440.5 -150t243.5 -372l-86 -15q-43 192 -213 323.5t-385 131.5q-191 0 -341.5 -87.5t-234 -244
t-83.5 -354.5q0 -197 83.5 -354t234 -245.5t341.5 -88.5q219 0 388.5 126.5t211.5 313.5l82 -18q-46 -214 -240 -359t-442 -145z" />
    <glyph glyph-name="ccaron" unicode="&#x10d;" horiz-adv-x="1222" 
d="M383 1497h98l150 -170h14l150 170h98l-203 -237h-104zM639 -41q-233 0 -384 156t-151 399q0 241 151 397t384 156q174 0 309.5 -102t169.5 -260l-82 -13q-34 129 -146.5 212t-250.5 83q-196 0 -323.5 -133.5t-127.5 -339.5q0 -207 127 -341t324 -134q140 0 252.5 78.5
t144.5 199.5l82 -14q-37 -149 -172 -246.5t-307 -97.5z" />
    <glyph glyph-name="Dcaron" unicode="&#x10e;" horiz-adv-x="1517" 
d="M643 1585l-211 193h109l147 -131h14l146 131h108l-208 -193h-105zM188 0v1436h435q231 0 405.5 -84.5t271.5 -247.5t97 -385q0 -336 -210 -527.5t-564 -191.5h-435zM274 82h349q312 0 500 169.5t188 467.5q0 295 -189 465t-499 170h-349v-1272z" />
    <glyph glyph-name="dcaron" unicode="&#x10f;" horiz-adv-x="1374" 
d="M1356 1194l-43 16l69 166q-28 5 -44.5 23.5t-16.5 46.5q0 31 20 51.5t52 20.5t51.5 -20.5t19.5 -51.5q0 -19 -12 -49zM637 -41q-232 0 -383.5 156.5t-151.5 398.5q0 241 151 397t382 156q154 0 270 -74.5t174 -204.5h13v709h84v-1497h-84v240h-13q-58 -130 -174 -205.5
t-268 -75.5zM639 39q197 0 326 135t129 340q0 204 -129.5 338.5t-325.5 134.5t-324.5 -134.5t-128.5 -338.5q0 -206 128.5 -340.5t324.5 -134.5z" />
    <glyph glyph-name="Dcroat" unicode="&#x110;" horiz-adv-x="1617" 
d="M725 1436q230 0 404.5 -84.5t272 -247.5t97.5 -385q0 -223 -96.5 -386.5t-271 -248t-406.5 -84.5h-436v795h-242v79h242v562h436zM725 82q312 0 500 169.5t188 467.5q0 196 -87.5 340.5t-242.5 219.5t-358 75h-348v-480h592v-79h-592v-713h348z" />
    <glyph glyph-name="dcroat" unicode="&#x111;" horiz-adv-x="1353" 
d="M1368 1354v-76h-192v-1278h-84v240h-15q-58 -130 -173 -205.5t-269 -75.5q-231 0 -382 156.5t-151 398.5q0 241 151 397t382 156q154 0 269 -74.5t173 -204.5h15v490h-506v76h506v143h84v-143h192zM639 39q197 0 326 135t129 340q0 204 -129.5 338.5t-325.5 134.5
t-324.5 -134.5t-128.5 -338.5q0 -206 128.5 -340.5t324.5 -134.5z" />
    <glyph glyph-name="Emacron" unicode="&#x112;" horiz-adv-x="1280" 
d="M393 1671v78h576v-78h-576zM188 0v1436h969v-82h-883v-566h801v-81h-801v-625h904v-82h-990z" />
    <glyph glyph-name="emacron" unicode="&#x113;" horiz-adv-x="1294" 
d="M371 1262v77h575v-77h-575zM659 -41q-243 0 -399 157t-156 400q0 240 156 395.5t397 155.5q233 0 384 -156t151 -395v-31h-1004q9 -196 141 -321t330 -125q141 0 260.5 77.5t163.5 198.5l78 -22q-53 -148 -192.5 -241t-309.5 -93zM190 565h914q-14 186 -138.5 304
t-310.5 118q-192 0 -321 -118t-144 -304z" />
    <glyph glyph-name="Ebreve" unicode="&#x114;" horiz-adv-x="1280" 
d="M682 1565q-106 0 -175 60.5t-69 152.5h84q0 -61 44.5 -99.5t115.5 -38.5q70 0 114 38t44 100h84q0 -92 -69 -152.5t-173 -60.5zM188 0v1436h969v-82h-883v-566h801v-81h-801v-625h904v-82h-990z" />
    <glyph glyph-name="ebreve" unicode="&#x115;" horiz-adv-x="1294" 
d="M655 1245q-110 0 -181 71t-71 181h78q0 -77 49 -127.5t125 -50.5q75 0 123.5 50.5t48.5 127.5h78q0 -110 -71 -181t-179 -71zM659 -41q-243 0 -399 157t-156 400q0 240 156 395.5t397 155.5q233 0 384 -156t151 -395v-31h-1004q9 -196 141 -321t330 -125
q141 0 260.5 77.5t163.5 198.5l78 -22q-53 -148 -192.5 -241t-309.5 -93zM190 565h914q-14 186 -138.5 304t-310.5 118q-192 0 -321 -118t-144 -304z" />
    <glyph glyph-name="Edotaccent" unicode="&#x116;" horiz-adv-x="1280" 
d="M682 1618q-32 0 -53 21t-21 53t21 52.5t53 20.5t53 -20.5t21 -52.5t-21 -53t-53 -21zM188 0v1436h969v-82h-883v-566h801v-81h-801v-625h904v-82h-990z" />
    <glyph glyph-name="edotaccent" unicode="&#x117;" horiz-adv-x="1294" 
d="M655 1245q-31 0 -52 21.5t-21 52.5q0 32 21 53t52 21q32 0 53 -21t21 -53q0 -31 -21 -52.5t-53 -21.5zM659 -41q-243 0 -399 157t-156 400q0 240 156 395.5t397 155.5q233 0 384 -156t151 -395v-31h-1004q9 -196 141 -321t330 -125q141 0 260.5 77.5t163.5 198.5l78 -22
q-53 -148 -192.5 -241t-309.5 -93zM190 565h914q-14 186 -138.5 304t-310.5 118q-192 0 -321 -118t-144 -304z" />
    <glyph glyph-name="Eogonek" unicode="&#x118;" horiz-adv-x="1280" 
d="M274 82h904v-82h-48q-152 -77 -210 -131.5t-58 -110.5q0 -46 28 -72t75 -26q60 0 139 49v-71q-79 -48 -152 -48q-69 0 -114 46t-45 118q0 67 49 125t164 121h-818v1436h969v-82h-883v-566h801v-81h-801v-625z" />
    <glyph glyph-name="eogonek" unicode="&#x119;" horiz-adv-x="1294" 
d="M1192 516v-31h-1004q9 -196 141 -321t330 -125q141 0 260.5 77.5t163.5 198.5l78 -22q-38 -108 -126 -189t-204 -118q-135 -71 -188 -123t-53 -105q0 -46 27.5 -72t74.5 -26q60 0 139 49v-71q-76 -48 -149 -48q-71 0 -116.5 46t-45.5 118q0 56 34.5 104.5t111.5 100.5h-7
q-243 0 -399 157t-156 400q0 240 156 395.5t397 155.5q233 0 384 -156t151 -395zM190 565h914q-14 186 -138.5 304t-310.5 118q-192 0 -321 -118t-144 -304z" />
    <glyph glyph-name="Ecaron" unicode="&#x11a;" horiz-adv-x="1280" 
d="M625 1585l-209 193h108l148 -131h14l143 131h109l-207 -193h-106zM188 0v1436h969v-82h-883v-566h801v-81h-801v-625h904v-82h-990z" />
    <glyph glyph-name="ecaron" unicode="&#x11b;" horiz-adv-x="1294" 
d="M401 1497h97l151 -170h15l149 170h98l-202 -237h-105zM659 -41q-243 0 -399 157t-156 400q0 240 156 395.5t397 155.5q233 0 384 -156t151 -395v-31h-1004q9 -196 141 -321t330 -125q141 0 260.5 77.5t163.5 198.5l78 -22q-53 -148 -192.5 -241t-309.5 -93zM190 565h914
q-14 186 -138.5 304t-310.5 118q-192 0 -321 -118t-144 -304z" />
    <glyph glyph-name="Gcircumflex" unicode="&#x11c;" horiz-adv-x="1742" 
d="M831 1778h105l209 -193h-109l-145 131h-14l-148 -131h-108zM883 -51q-163 0 -305 58t-242 159.5t-157.5 244.5t-57.5 308t57.5 308t157.5 244t242 158.5t305 57.5q160 0 302 -63t239 -175.5t128 -253.5l-82 -20q-46 186 -212 308t-375 122q-193 1 -347 -87t-240.5 -245
t-86.5 -354q0 -195 86.5 -352.5t240.5 -246.5t347 -89q270 0 452 172.5t199 445.5h-829v84h919q1 -227 -92 -405.5t-262.5 -278.5t-386.5 -100z" />
    <glyph glyph-name="gcircumflex" unicode="&#x11d;" horiz-adv-x="1355" 
d="M387 1260l203 237h104l203 -237h-98l-150 170h-14l-152 -170h-96zM657 -512q-205 0 -353 108.5t-177 280.5l84 19q23 -145 147.5 -236.5t300.5 -91.5q191 0 313 122t122 314v225h-15q-64 -126 -178.5 -197t-263.5 -71q-232 0 -382.5 156t-150.5 397q0 240 151 396.5
t382 156.5q151 0 265 -72t179 -200h13v231h84v-1022q0 -227 -146 -371.5t-375 -144.5zM641 41q198 0 326.5 133.5t128.5 339.5q0 205 -129.5 339t-325.5 134q-199 0 -326 -133.5t-127 -339.5q0 -205 129.5 -339t323.5 -134z" />
    <glyph glyph-name="Gbreve" unicode="&#x11e;" horiz-adv-x="1742" 
d="M885 1565q-106 0 -174 60.5t-68 152.5h84q0 -61 44.5 -99.5t113.5 -38.5q71 0 115 38.5t44 99.5h82q0 -93 -68 -153t-173 -60zM883 -51q-163 0 -305 58t-242 159.5t-157.5 244.5t-57.5 308t57.5 308t157.5 244t242 158.5t305 57.5q160 0 302 -63t239 -175.5t128 -253.5
l-82 -20q-46 186 -212 308t-375 122q-193 1 -347 -87t-240.5 -245t-86.5 -354q0 -195 86.5 -352.5t240.5 -246.5t347 -89q270 0 452 172.5t199 445.5h-829v84h919q1 -227 -92 -405.5t-262.5 -278.5t-386.5 -100z" />
    <glyph glyph-name="gbreve" unicode="&#x11f;" horiz-adv-x="1355" 
d="M639 1245q-109 0 -180.5 71t-71.5 181h78q0 -77 49.5 -127.5t124.5 -50.5q76 0 125 50.5t49 127.5h78q0 -110 -71.5 -181t-180.5 -71zM657 -512q-205 0 -353 108.5t-177 280.5l84 19q23 -145 147.5 -236.5t300.5 -91.5q191 0 313 122t122 314v225h-15
q-64 -126 -178.5 -197t-263.5 -71q-232 0 -382.5 156t-150.5 397q0 240 151 396.5t382 156.5q151 0 265 -72t179 -200h13v231h84v-1022q0 -227 -146 -371.5t-375 -144.5zM641 41q198 0 326.5 133.5t128.5 339.5q0 205 -129.5 339t-325.5 134q-199 0 -326 -133.5t-127 -339.5
q0 -205 129.5 -339t323.5 -134z" />
    <glyph glyph-name="Gdotaccent" unicode="&#x120;" horiz-adv-x="1742" 
d="M887 1618q-32 0 -53 21t-21 53t21 52.5t53 20.5t53 -20.5t21 -52.5t-21 -53t-53 -21zM883 -51q-163 0 -305 58t-242 159.5t-157.5 244.5t-57.5 308t57.5 308t157.5 244t242 158.5t305 57.5q160 0 302 -63t239 -175.5t128 -253.5l-82 -20q-46 186 -212 308t-375 122
q-193 1 -347 -87t-240.5 -245t-86.5 -354q0 -195 86.5 -352.5t240.5 -246.5t347 -89q270 0 452 172.5t199 445.5h-829v84h919q1 -227 -92 -405.5t-262.5 -278.5t-386.5 -100z" />
    <glyph glyph-name="gdotaccent" unicode="&#x121;" horiz-adv-x="1355" 
d="M641 1245q-32 0 -53 21.5t-21 52.5q0 32 21 53t53 21t53 -21t21 -53q0 -31 -21 -52.5t-53 -21.5zM657 -512q-205 0 -353 108.5t-177 280.5l84 19q23 -145 147.5 -236.5t300.5 -91.5q191 0 313 122t122 314v225h-15q-64 -126 -178.5 -197t-263.5 -71q-232 0 -382.5 156
t-150.5 397q0 240 151 396.5t382 156.5q151 0 265 -72t179 -200h13v231h84v-1022q0 -227 -146 -371.5t-375 -144.5zM641 41q198 0 326.5 133.5t128.5 339.5q0 205 -129.5 339t-325.5 134q-199 0 -326 -133.5t-127 -339.5q0 -205 129.5 -339t323.5 -134z" />
    <glyph glyph-name="Gcommaaccent" unicode="&#x122;" horiz-adv-x="1742" 
d="M883 -51q-163 0 -305 58t-242 159.5t-157.5 244.5t-57.5 308t57.5 308t157.5 244t242 158.5t305 57.5q160 0 302 -63t239 -175.5t128 -253.5l-82 -20q-46 186 -212 308t-375 122q-193 1 -347 -87t-240.5 -245t-86.5 -354q0 -195 86.5 -352.5t240.5 -246.5t347 -89
q270 0 452 172.5t199 445.5h-829v84h919q1 -227 -92 -405.5t-262.5 -278.5t-386.5 -100zM846 -487l-43 16l69 166q-28 5 -44.5 23t-16.5 46q0 31 20 51.5t52 20.5t51.5 -20.5t19.5 -51.5q0 -19 -12 -49z" />
    <glyph glyph-name="gcommaaccent" unicode="&#x123;" horiz-adv-x="1355" 
d="M678 1513l41 -16l-70 -166q29 -5 46.5 -23t17.5 -46q0 -31 -20 -51.5t-52 -20.5t-52 20.5t-20 51.5q0 23 13 49zM657 -512q-205 0 -353 108.5t-177 280.5l84 19q23 -145 147.5 -236.5t300.5 -91.5q191 0 313 122t122 314v225h-15q-64 -126 -178.5 -197t-263.5 -71
q-232 0 -382.5 156t-150.5 397q0 240 151 396.5t382 156.5q151 0 265 -72t179 -200h13v231h84v-1022q0 -227 -146 -371.5t-375 -144.5zM641 41q198 0 326.5 133.5t128.5 339.5q0 205 -129.5 339t-325.5 134q-199 0 -326 -133.5t-127 -339.5q0 -205 129.5 -339t323.5 -134z
" />
    <glyph glyph-name="Itilde" unicode="&#x128;" horiz-adv-x="460" 
d="M354 1606q-37 0 -67.5 10.5t-52 26t-41.5 31t-44.5 26t-52.5 10.5q-40 0 -74 -21t-55 -55l-59 37q22 50 74 80.5t116 30.5q43 0 79 -16.5t58 -36t54.5 -36t68.5 -16.5q45 0 80.5 22t50.5 58l64 -33q-23 -53 -77.5 -85.5t-121.5 -32.5zM188 0v1436h86v-1436h-86z" />
    <glyph glyph-name="itilde" unicode="&#x129;" horiz-adv-x="409" 
d="M324 1260q-43 0 -83.5 19t-66.5 41t-59.5 41t-65.5 19q-37 0 -69.5 -20t-51.5 -53l-57 39q23 49 72.5 79.5t105.5 30.5q41 0 81 -19t66.5 -42.5t61 -42.5t66.5 -19q41 0 77.5 22t49.5 56l63 -35q-22 -51 -74.5 -83.5t-115.5 -32.5zM164 0v1026h84v-1026h-84z" />
    <glyph glyph-name="Imacron" unicode="&#x12a;" horiz-adv-x="460" 
d="M-57 1671v78h575v-78h-575zM188 0v1436h86v-1436h-86z" />
    <glyph glyph-name="imacron" unicode="&#x12b;" horiz-adv-x="409" 
d="M-80 1262v77h576v-77h-576zM164 0v1026h84v-1026h-84z" />
    <glyph glyph-name="Iogonek" unicode="&#x12e;" horiz-adv-x="460" 
d="M188 1436h86v-1436h-8q-151 -77 -209.5 -131.5t-58.5 -110.5q0 -46 27.5 -72t74.5 -26q64 0 140 49v-71q-76 -48 -150 -48q-71 0 -116.5 46t-45.5 118q0 71 60 134.5t200 136.5v1411z" />
    <glyph glyph-name="iogonek" unicode="&#x12f;" horiz-adv-x="466" 
d="M233 1393q32 0 53 -21t21 -53q0 -31 -21 -52.5t-53 -21.5t-52.5 21.5t-20.5 52.5q0 32 20.5 53t52.5 21zM193 25v1001h83v-1026h-6q-152 -77 -210 -131.5t-58 -110.5q0 -46 27.5 -72t74.5 -26q61 0 140 49v-71q-79 -48 -152 -48q-69 0 -114.5 46t-45.5 118q0 73 60 135.5
t201 135.5z" />
    <glyph glyph-name="Idotaccent" unicode="&#x130;" horiz-adv-x="460" 
d="M231 1618q-32 0 -52.5 21t-20.5 53t20.5 52.5t52.5 20.5t53 -20.5t21 -52.5t-21 -53t-53 -21zM188 0v1436h86v-1436h-86z" />
    <glyph glyph-name="dotlessi" unicode="&#x131;" horiz-adv-x="409" 
d="M164 0v1026h82v-1026h-82z" />
    <glyph glyph-name="IJ" unicode="&#x132;" horiz-adv-x="1314" 
d="M188 0v1436h86v-1436h-86zM723 -41q-116 0 -244 41v82q138 -41 242 -41q145 0 233 100t88 289v1006h86v-1006q0 -225 -111.5 -348t-293.5 -123z" />
    <glyph glyph-name="ij" unicode="&#x133;" horiz-adv-x="931" 
d="M233 1245q-32 0 -52.5 21.5t-20.5 52.5q0 32 20.5 53t52.5 21t53 -21t21 -53q0 -31 -21 -52.5t-53 -21.5zM696 1245q-32 0 -52.5 21t-20.5 53q0 33 20 53.5t53 20.5q31 0 52.5 -21t21.5 -53q0 -31 -21.5 -52.5t-52.5 -21.5zM193 0v1026h83v-1026h-83zM512 -453
q-71 0 -150 27v80q79 -27 138 -27q68 0 110.5 45.5t42.5 116.5v1237h84v-1235q0 -106 -64 -175t-161 -69z" />
    <glyph glyph-name="Kcommaaccent" unicode="&#x136;" horiz-adv-x="1212" 
d="M186 0v1436h86v-643h15l725 643h125l-768 -680l784 -756h-121l-745 721h-15v-721h-86zM584 -487l-41 16l69 166q-29 5 -46 23t-17 46q0 31 20 51.5t52 20.5t51.5 -20.5t19.5 -51.5q0 -25 -12 -49z" />
    <glyph glyph-name="kcommaaccent" unicode="&#x137;" horiz-adv-x="950" 
d="M178 0v1497h84v-928h14l517 457h122l-563 -491l580 -535h-121l-535 496h-14v-496h-84zM514 -487l-43 16l70 166q-28 5 -45 23.5t-17 45.5q0 31 20 51.5t52 20.5t52 -20.5t20 -51.5q0 -23 -13 -49z" />
    <glyph glyph-name="Lacute" unicode="&#x139;" horiz-adv-x="1136" 
d="M182 1585l187 193h110l-188 -193h-109zM188 0v1436h86v-1354h801v-82h-887z" />
    <glyph glyph-name="lacute" unicode="&#x13a;" horiz-adv-x="440" 
d="M170 1585l188 193h111l-188 -193h-111zM178 0v1497h84v-1497h-84z" />
    <glyph glyph-name="Lcommaaccent" unicode="&#x13b;" horiz-adv-x="1136" 
d="M188 0v1436h86v-1354h801v-82h-887zM612 -487l-43 16l70 166q-28 5 -46 23.5t-18 45.5q0 31 20.5 51.5t51.5 20.5q32 0 53 -20.5t21 -51.5q0 -21 -14 -49z" />
    <glyph glyph-name="lcommaaccent" unicode="&#x13c;" horiz-adv-x="440" 
d="M178 0v1497h84v-1497h-84zM184 -487l-43 16l70 166q-28 5 -44.5 23t-16.5 46q0 31 19.5 51.5t51.5 20.5t52 -20.5t20 -51.5q0 -19 -12 -49z" />
    <glyph glyph-name="Lcaron" unicode="&#x13d;" horiz-adv-x="1136" 
d="M596 1133l-41 16l70 166q-28 5 -46 23.5t-18 45.5q0 31 20 51.5t52 20.5t52 -20.5t20 -51.5q0 -23 -13 -49zM188 0v1436h86v-1354h801v-82h-887z" />
    <glyph glyph-name="lcaron" unicode="&#x13e;" horiz-adv-x="440" 
d="M424 1194l-43 16l70 166q-28 5 -45 23.5t-17 46.5q0 31 20 51.5t52 20.5t51.5 -20.5t19.5 -51.5q0 -21 -14 -49zM178 0v1497h84v-1497h-84z" />
    <glyph glyph-name="Lslash" unicode="&#x141;" horiz-adv-x="1220" 
d="M360 82h799v-82h-887v565l-225 -139v90l225 139v781h88v-725l619 383v-88l-619 -385v-539z" />
    <glyph glyph-name="lslash" unicode="&#x142;" horiz-adv-x="772" 
d="M770 1112v-96l-342 -221v-795h-84v739l-340 -219v94l340 222v661h84v-608z" />
    <glyph glyph-name="Nacute" unicode="&#x143;" horiz-adv-x="1439" 
d="M688 1585l186 193h113l-190 -193h-109zM186 0v1436h129l838 -1323h14v1323h86v-1436h-129l-837 1321h-15v-1321h-86z" />
    <glyph glyph-name="nacute" unicode="&#x144;" 
d="M700 1260h-106l221 237h107zM180 0v1026h84v-188h15q50 106 149 167.5t225 61.5q191 0 306.5 -131.5t115.5 -337.5v-598h-84v598q0 172 -94.5 280.5t-253.5 108.5t-269 -107t-110 -268v-612h-84z" />
    <glyph glyph-name="Ncommaaccent" unicode="&#x145;" horiz-adv-x="1439" 
d="M186 0v1436h129l838 -1323h14v1323h86v-1436h-129l-837 1321h-15v-1321h-86zM702 -487l-43 16l70 166q-28 5 -45.5 23.5t-17.5 45.5q0 31 20 51.5t51 20.5q32 0 53 -20.5t21 -51.5q0 -21 -14 -49z" />
    <glyph glyph-name="ncommaaccent" unicode="&#x146;" 
d="M180 0v1026h84v-188h15q50 106 149 167.5t225 61.5q191 0 306.5 -131.5t115.5 -337.5v-598h-84v598q0 172 -94.5 280.5t-253.5 108.5t-269 -107t-110 -268v-612h-84zM604 -487l-41 16l70 166q-28 5 -46 23.5t-18 45.5q0 31 20 51.5t52 20.5t52 -20.5t20 -51.5
q0 -23 -13 -49z" />
    <glyph glyph-name="Ncaron" unicode="&#x147;" horiz-adv-x="1439" 
d="M684 1585l-209 193h109l145 -131h14l146 131h108l-209 -193h-104zM186 0v1436h129l838 -1323h14v1323h86v-1436h-129l-837 1321h-15v-1321h-86z" />
    <glyph glyph-name="ncaron" unicode="&#x148;" 
d="M391 1497h96l152 -170h12l152 170h96l-203 -237h-102zM180 0v1026h84v-188h15q50 106 149 167.5t225 61.5q191 0 306.5 -131.5t115.5 -337.5v-598h-84v598q0 172 -94.5 280.5t-253.5 108.5t-269 -107t-110 -268v-612h-84z" />
    <glyph glyph-name="Omacron" unicode="&#x14c;" horiz-adv-x="1763" 
d="M596 1671v78h575v-78h-575zM881 -51q-163 0 -305 58t-242 159.5t-157.5 244.5t-57.5 308t57.5 308t157.5 244t242 158.5t305 57.5t305 -57.5t243 -158.5t158.5 -244t57.5 -308t-57.5 -308t-158.5 -244.5t-243 -159.5t-305 -58zM881 31q194 0 348.5 88.5t240.5 245.5
t86 354q0 147 -50.5 274.5t-139 218t-214.5 142t-271 51.5q-193 0 -347 -88t-240.5 -245t-86.5 -353t86.5 -353.5t240.5 -246t347 -88.5z" />
    <glyph glyph-name="omacron" unicode="&#x14d;" horiz-adv-x="1277" 
d="M352 1262v77h578v-77h-578zM639 -41q-154 0 -276.5 70.5t-191.5 197.5t-69 287q0 241 151.5 397t385.5 156q235 0 386 -155.5t151 -397.5q0 -243 -151 -399t-386 -156zM639 39q197 0 326 134t129 341q0 205 -129 339t-326 134t-325 -134t-128 -339q0 -207 128 -341
t325 -134z" />
    <glyph glyph-name="Obreve" unicode="&#x14e;" horiz-adv-x="1763" 
d="M883 1565q-106 0 -174 60.5t-68 152.5h84q0 -61 44.5 -99.5t113.5 -38.5q71 0 115 38.5t44 99.5h82q0 -93 -68 -153t-173 -60zM881 -51q-163 0 -305 58t-242 159.5t-157.5 244.5t-57.5 308t57.5 308t157.5 244t242 158.5t305 57.5t305 -57.5t243 -158.5t158.5 -244
t57.5 -308t-57.5 -308t-158.5 -244.5t-243 -159.5t-305 -58zM881 31q194 0 348.5 88.5t240.5 245.5t86 354q0 147 -50.5 274.5t-139 218t-214.5 142t-271 51.5q-193 0 -347 -88t-240.5 -245t-86.5 -353t86.5 -353.5t240.5 -246t347 -88.5z" />
    <glyph glyph-name="obreve" unicode="&#x14f;" horiz-adv-x="1277" 
d="M637 1245q-109 0 -179.5 71t-70.5 181h78q0 -77 48.5 -127.5t123.5 -50.5q76 0 125 50.5t49 127.5h78q0 -110 -71.5 -181t-180.5 -71zM639 -41q-154 0 -276.5 70.5t-191.5 197.5t-69 287q0 241 151.5 397t385.5 156q235 0 386 -155.5t151 -397.5q0 -243 -151 -399
t-386 -156zM639 39q197 0 326 134t129 341q0 205 -129 339t-326 134t-325 -134t-128 -339q0 -207 128 -341t325 -134z" />
    <glyph glyph-name="Ohungarumlaut" unicode="&#x150;" horiz-adv-x="1763" 
d="M649 1585l174 195h109l-178 -195h-105zM975 1585l174 195h111l-183 -195h-102zM881 -51q-163 0 -305 58t-242 159.5t-157.5 244.5t-57.5 308t57.5 308t157.5 244t242 158.5t305 57.5t305 -57.5t243 -158.5t158.5 -244t57.5 -308t-57.5 -308t-158.5 -244.5t-243 -159.5
t-305 -58zM881 31q194 0 348.5 88.5t240.5 245.5t86 354q0 147 -50.5 274.5t-139 218t-214.5 142t-271 51.5q-193 0 -347 -88t-240.5 -245t-86.5 -353t86.5 -353.5t240.5 -246t347 -88.5z" />
    <glyph glyph-name="ohungarumlaut" unicode="&#x151;" horiz-adv-x="1277" 
d="M430 1260l211 235h109l-215 -235h-105zM858 1260h-104l215 235h106zM639 -41q-154 0 -276.5 70.5t-191.5 197.5t-69 287q0 241 151.5 397t385.5 156q235 0 386 -155.5t151 -397.5q0 -243 -151 -399t-386 -156zM639 39q197 0 326 134t129 341q0 205 -129 339t-326 134
t-325 -134t-128 -339q0 -207 128 -341t325 -134z" />
    <glyph glyph-name="OE" unicode="&#x152;" horiz-adv-x="2150" 
d="M879 -47q-217 0 -390.5 98t-270.5 273t-97 395q0 219 97 393.5t270.5 272.5t390.5 98q135 0 256 -47h895v-82h-820v-586h738v-80h-738v-606h840v-82h-917q-118 -47 -254 -47zM877 35q138 0 247 47v1272q-106 47 -243 47q-193 0 -347 -87t-240.5 -243t-86.5 -352
t86.5 -352.5t239.5 -244t344 -87.5z" />
    <glyph glyph-name="oe" unicode="&#x153;" horiz-adv-x="2285" 
d="M2183 516q0 -21 -2 -31h-1001q9 -197 140.5 -321.5t330.5 -124.5q141 0 259.5 77t164.5 199l77 -22q-53 -148 -192.5 -241t-310.5 -93q-180 0 -315.5 90t-196.5 244q-59 -154 -191 -244t-307 -90q-154 0 -276.5 70.5t-191.5 197.5t-69 287q0 241 151.5 397t385.5 156
q175 0 307 -89.5t191 -242.5q61 153 196.5 242.5t313.5 89.5q234 0 385 -155.5t151 -395.5zM639 39q197 0 326 134t129 341q0 205 -129 339t-326 134t-325 -134t-128 -339q0 -207 128 -341t325 -134zM1182 565h913q-14 186 -139 304t-309 118q-192 0 -321.5 -118
t-143.5 -304z" />
    <glyph glyph-name="Racute" unicode="&#x154;" horiz-adv-x="1406" 
d="M659 1585l187 193h110l-188 -193h-109zM188 0v1436h600q230 0 364 -109.5t134 -298.5q0 -182 -132.5 -293t-350.5 -112h-62l541 -623h-111l-536 621h-361v-621h-86zM274 702h514q190 0 301 88t111 238q0 154 -109 240t-303 86h-514v-652z" />
    <glyph glyph-name="racute" unicode="&#x155;" horiz-adv-x="770" 
d="M500 1260h-107l221 237h107zM180 0v1026h82v-180h14q38 95 109 148t170 53q80 0 154 -33v-88q-72 41 -158 41q-130 0 -208.5 -109.5t-78.5 -288.5v-569h-84z" />
    <glyph glyph-name="Rcommaaccent" unicode="&#x156;" horiz-adv-x="1406" 
d="M188 0v1436h600q230 0 364 -109.5t134 -298.5q0 -182 -132.5 -293t-350.5 -112h-62l541 -623h-111l-536 621h-361v-621h-86zM274 702h514q190 0 301 88t111 238q0 154 -109 240t-303 86h-514v-652zM692 -487l-43 16l70 166q-28 5 -45 23.5t-17 45.5q0 31 20 51.5t52 20.5
t52 -20.5t20 -51.5q0 -23 -13 -49z" />
    <glyph glyph-name="rcommaaccent" unicode="&#x157;" horiz-adv-x="770" 
d="M180 0v1026h82v-180h14q38 95 109 148t170 53q80 0 154 -33v-88q-72 41 -158 41q-130 0 -208.5 -109.5t-78.5 -288.5v-569h-84zM186 -487l-43 16l70 166q-28 5 -44.5 23t-16.5 46q0 31 19.5 51.5t51.5 20.5t52 -20.5t20 -51.5q0 -21 -14 -49z" />
    <glyph glyph-name="Rcaron" unicode="&#x158;" horiz-adv-x="1406" 
d="M655 1585l-211 193h109l147 -131h15l145 131h109l-209 -193h-105zM188 0v1436h600q230 0 364 -109.5t134 -298.5q0 -182 -132.5 -293t-350.5 -112h-62l541 -623h-111l-536 621h-361v-621h-86zM274 702h514q190 0 301 88t111 238q0 154 -109 240t-303 86h-514v-652z" />
    <glyph glyph-name="rcaron" unicode="&#x159;" horiz-adv-x="770" 
d="M190 1497h97l151 -170h13l151 170h96l-202 -237h-105zM180 0v1026h82v-180h14q38 95 109 148t170 53q80 0 154 -33v-88q-72 41 -158 41q-130 0 -208.5 -109.5t-78.5 -288.5v-569h-84z" />
    <glyph glyph-name="Sacute" unicode="&#x15a;" horiz-adv-x="1409" 
d="M645 1585l189 193h110l-188 -193h-111zM715 -51q-264 0 -420 137.5t-156 370.5h86q0 -197 133 -311.5t359 -114.5q214 0 340.5 91t126.5 243q0 68 -29.5 119t-63 80t-111.5 53.5t-121.5 33t-145.5 25.5q-15 3 -23 4q-66 10 -111.5 19t-105 25t-99.5 34.5t-82.5 48
t-68 65.5t-41.5 86t-16 111q0 190 139.5 304t382.5 114q253 0 401 -126.5t148 -344.5l-84 -2q-1 181 -126.5 286t-336.5 105q-201 0 -319.5 -92.5t-118.5 -241.5q0 -48 14 -88t35 -68t58.5 -51t71 -37.5t88 -27.5t93 -20t101.5 -17q76 -12 116.5 -19.5t109.5 -24t107.5 -34
t87.5 -47t74 -65.5t43.5 -88t18.5 -115q0 -194 -149.5 -307t-405.5 -113z" />
    <glyph glyph-name="sacute" unicode="&#x15b;" horiz-adv-x="1048" 
d="M571 1260h-104l221 237h107zM547 -41q-198 0 -320.5 102t-122.5 265h82q0 -128 100 -208.5t261 -80.5q138 0 226.5 58.5t88.5 156.5q0 29 -6 53.5t-13 43.5t-24 35.5t-28.5 27t-38.5 21t-40.5 16t-47.5 12.5t-48 9.5t-53.5 8.5t-52.5 8q-48 7 -80 13t-75.5 17.5t-72.5 25
t-60.5 35.5t-50 49.5t-30.5 66.5t-12 86q0 128 105.5 207.5t275.5 79.5q183 0 293.5 -93t109.5 -247h-82q1 119 -87.5 190.5t-235.5 71.5q-132 0 -214.5 -56t-82.5 -147q0 -50 17.5 -87t44 -58t70 -36.5t82 -23t94.5 -15.5q6 -1 9 -1h1h2q172 -27 244 -57q152 -63 167 -215
q2 -18 2 -37q0 -136 -110.5 -216.5t-286.5 -80.5z" />
    <glyph glyph-name="Scircumflex" unicode="&#x15c;" horiz-adv-x="1409" 
d="M643 1778h107l208 -193h-108l-145 131h-15l-147 -131h-109zM715 -51q-264 0 -420 137.5t-156 370.5h86q0 -197 133 -311.5t359 -114.5q214 0 340.5 91t126.5 243q0 68 -29.5 119t-63 80t-111.5 53.5t-121.5 33t-145.5 25.5q-15 3 -23 4q-66 10 -111.5 19t-105 25
t-99.5 34.5t-82.5 48t-68 65.5t-41.5 86t-16 111q0 190 139.5 304t382.5 114q253 0 401 -126.5t148 -344.5l-84 -2q-1 181 -126.5 286t-336.5 105q-201 0 -319.5 -92.5t-118.5 -241.5q0 -48 14 -88t35 -68t58.5 -51t71 -37.5t88 -27.5t93 -20t101.5 -17q76 -12 116.5 -19.5
t109.5 -24t107.5 -34t87.5 -47t74 -65.5t43.5 -88t18.5 -115q0 -194 -149.5 -307t-405.5 -113z" />
    <glyph glyph-name="scircumflex" unicode="&#x15d;" horiz-adv-x="1048" 
d="M264 1260l203 237h104l203 -237h-98l-150 170h-14l-152 -170h-96zM547 -41q-198 0 -320.5 102t-122.5 265h82q0 -128 100 -208.5t261 -80.5q138 0 226.5 58.5t88.5 156.5q0 29 -6 53.5t-13 43.5t-24 35.5t-28.5 27t-38.5 21t-40.5 16t-47.5 12.5t-48 9.5t-53.5 8.5
t-52.5 8q-48 7 -80 13t-75.5 17.5t-72.5 25t-60.5 35.5t-50 49.5t-30.5 66.5t-12 86q0 128 105.5 207.5t275.5 79.5q183 0 293.5 -93t109.5 -247h-82q1 119 -87.5 190.5t-235.5 71.5q-132 0 -214.5 -56t-82.5 -147q0 -50 17.5 -87t44 -58t70 -36.5t82 -23t94.5 -15.5
q6 -1 9 -1h1h2q172 -27 244 -57q152 -63 167 -215q2 -18 2 -37q0 -136 -110.5 -216.5t-286.5 -80.5z" />
    <glyph glyph-name="Scedilla" unicode="&#x15e;" horiz-adv-x="1409" 
d="M1270 369q0 -187 -139 -299t-381 -121l-9 -68q102 0 168 -53t66 -139q0 -82 -59.5 -137.5t-151.5 -55.5q-83 0 -141.5 46t-73.5 120l69 16q10 -52 50 -84t96 -32q61 0 100 36t39 89q0 58 -46.5 93.5t-119.5 35.5h-78l17 133q-248 11 -392.5 147.5t-144.5 360.5h86
q0 -197 133 -311.5t359 -114.5q214 0 340.5 91t126.5 243q0 68 -29.5 119t-63 80t-111.5 53.5t-121.5 33t-145.5 25.5q-15 3 -23 4q-66 10 -111.5 19t-105 25t-99.5 34.5t-82.5 48t-68 65.5t-41.5 86t-16 111q0 190 139.5 304t382.5 114q253 0 401 -126.5t148 -344.5l-84 -2
q-1 181 -126.5 286t-336.5 105q-201 0 -319.5 -92.5t-118.5 -241.5q0 -48 14 -88t35 -68t58.5 -51t71 -37.5t88 -27.5t93 -20t101.5 -17q76 -12 116.5 -19.5t109.5 -24t107.5 -34t87.5 -47t74 -65.5t43.5 -88t18.5 -115z" />
    <glyph glyph-name="scedilla" unicode="&#x15f;" horiz-adv-x="1048" 
d="M944 256q0 -131 -104 -211t-271 -86l-10 -78q103 0 168.5 -53t65.5 -139q0 -83 -59 -138t-152 -55q-83 0 -141 46t-72 120l67 16q12 -53 51.5 -84.5t96.5 -31.5q61 0 100 36t39 89q0 58 -47 93.5t-119 35.5h-78l19 145q-178 12 -286 112t-108 253h82q0 -128 100 -208.5
t261 -80.5q138 0 226.5 58.5t88.5 156.5q0 29 -6 53.5t-13 43.5t-24 35.5t-28.5 27t-38.5 21t-40.5 16t-47.5 12.5t-48 9.5t-53.5 8.5t-52.5 8q-48 7 -80 13t-75.5 17.5t-72.5 25t-60.5 35.5t-50 49.5t-30.5 66.5t-12 86q0 128 105.5 207.5t275.5 79.5q183 0 293.5 -93
t109.5 -247h-82q1 119 -87.5 190.5t-235.5 71.5q-132 0 -214.5 -56t-82.5 -147q0 -50 17.5 -87t44 -58t70 -36.5t82 -23t94.5 -15.5q6 -1 9 -1h1h2q172 -27 244 -57q152 -63 167 -215q2 -18 2 -37z" />
    <glyph glyph-name="Scaron" unicode="&#x160;" horiz-adv-x="1409" 
d="M641 1585l-209 193h109l147 -131h14l146 131h108l-208 -193h-107zM715 -51q-264 0 -420 137.5t-156 370.5h86q0 -197 133 -311.5t359 -114.5q214 0 340.5 91t126.5 243q0 68 -29.5 119t-63 80t-111.5 53.5t-121.5 33t-145.5 25.5q-15 3 -23 4q-66 10 -111.5 19t-105 25
t-99.5 34.5t-82.5 48t-68 65.5t-41.5 86t-16 111q0 190 139.5 304t382.5 114q253 0 401 -126.5t148 -344.5l-84 -2q-1 181 -126.5 286t-336.5 105q-201 0 -319.5 -92.5t-118.5 -241.5q0 -48 14 -88t35 -68t58.5 -51t71 -37.5t88 -27.5t93 -20t101.5 -17q76 -12 116.5 -19.5
t109.5 -24t107.5 -34t87.5 -47t74 -65.5t43.5 -88t18.5 -115q0 -194 -149.5 -307t-405.5 -113z" />
    <glyph glyph-name="scaron" unicode="&#x161;" horiz-adv-x="1048" 
d="M264 1497h96l150 -170h14l152 170h96l-203 -237h-104zM547 -41q-198 0 -320.5 102t-122.5 265h82q0 -128 100 -208.5t261 -80.5q138 0 226.5 58.5t88.5 156.5q0 29 -6 53.5t-13 43.5t-24 35.5t-28.5 27t-38.5 21t-40.5 16t-47.5 12.5t-48 9.5t-53.5 8.5t-52.5 8
q-48 7 -80 13t-75.5 17.5t-72.5 25t-60.5 35.5t-50 49.5t-30.5 66.5t-12 86q0 128 105.5 207.5t275.5 79.5q183 0 293.5 -93t109.5 -247h-82q1 119 -87.5 190.5t-235.5 71.5q-132 0 -214.5 -56t-82.5 -147q0 -50 17.5 -87t44 -58t70 -36.5t82 -23t94.5 -15.5q6 -1 9 -1h1h2
q172 -27 244 -57q152 -63 167 -215q2 -18 2 -37q0 -136 -110.5 -216.5t-286.5 -80.5z" />
    <glyph glyph-name="uni0162" unicode="&#x162;" horiz-adv-x="1173" 
d="M545 0v1354h-506v82h1098v-82h-506v-1354h-86zM551 -487l-41 16l70 166q-28 5 -46 23.5t-18 45.5q0 31 20 51.5t52 20.5t51.5 -20.5t19.5 -51.5q0 -25 -12 -49z" />
    <glyph glyph-name="uni0163" unicode="&#x163;" horiz-adv-x="710" 
d="M485 -25q-107 0 -172 71t-65 187v717h-180v76h180l8 313h76v-313h282v-76h-282v-714q0 -82 44 -132.5t118 -50.5q67 0 139 21v-76q-64 -23 -148 -23zM428 -487l-43 16l70 166q-28 5 -45 23.5t-17 45.5q0 31 20 51.5t52 20.5t52 -20.5t20 -51.5q0 -19 -15 -49z" />
    <glyph glyph-name="Tcaron" unicode="&#x164;" horiz-adv-x="1173" 
d="M535 1585l-211 193h108l148 -131h14l145 131h109l-209 -193h-104zM545 0v1354h-506v82h1098v-82h-506v-1354h-86z" />
    <glyph glyph-name="tcaron" unicode="&#x165;" horiz-adv-x="710" 
d="M475 1110l-41 16l70 166q-28 5 -46 24t-18 46q0 31 20 51.5t52 20.5t52 -20.5t20 -51.5q0 -23 -13 -49zM485 -25q-107 0 -172 71t-65 187v717h-180v76h180l8 313h76v-313h282v-76h-282v-714q0 -82 44 -132.5t118 -50.5q67 0 139 21v-76q-64 -23 -148 -23z" />
    <glyph glyph-name="Utilde" unicode="&#x168;" horiz-adv-x="1441" 
d="M848 1606q-36 0 -66.5 10.5t-52 26t-41.5 31t-44.5 26t-51.5 10.5q-41 0 -75 -21t-54 -55l-60 37q22 50 74 80.5t115 30.5q43 0 79.5 -16.5t58 -36t54 -36t68.5 -16.5q45 0 80 22t53 58l62 -33q-23 -53 -77.5 -85.5t-121.5 -32.5zM723 -51q-248 0 -400.5 171t-152.5 449
v867h86v-867q0 -243 127.5 -390.5t339.5 -147.5q211 0 338 147.5t127 390.5v867h86v-867q0 -278 -152 -449t-399 -171z" />
    <glyph glyph-name="utilde" unicode="&#x169;" 
d="M709 1260q-43 0 -83.5 19t-66.5 41t-59.5 41t-65.5 19q-37 0 -69.5 -20t-51.5 -53l-57 39q23 49 72.5 79.5t105.5 30.5q41 0 81 -19t66.5 -42.5t61 -42.5t66.5 -19q41 0 77.5 22t49.5 56l65 -35q-23 -51 -76 -83.5t-116 -32.5zM1053 1026v-1026h-84v188h-15
q-52 -106 -150 -167.5t-224 -61.5q-191 0 -306.5 131.5t-115.5 337.5v598h84v-598q0 -172 94.5 -280.5t253.5 -108.5q158 0 268.5 107.5t110.5 267.5v612h84z" />
    <glyph glyph-name="Umacron" unicode="&#x16a;" horiz-adv-x="1441" 
d="M436 1671v78h576v-78h-576zM723 -51q-248 0 -400.5 171t-152.5 449v867h86v-867q0 -243 127.5 -390.5t339.5 -147.5q211 0 338 147.5t127 390.5v867h86v-867q0 -278 -152 -449t-399 -171z" />
    <glyph glyph-name="umacron" unicode="&#x16b;" 
d="M305 1262v77h576v-77h-576zM1053 1026v-1026h-84v188h-15q-52 -106 -150 -167.5t-224 -61.5q-191 0 -306.5 131.5t-115.5 337.5v598h84v-598q0 -172 94.5 -280.5t253.5 -108.5q158 0 268.5 107.5t110.5 267.5v612h84z" />
    <glyph glyph-name="Ubreve" unicode="&#x16c;" horiz-adv-x="1441" 
d="M725 1565q-106 0 -174 60.5t-68 152.5h82q0 -61 44.5 -99.5t115.5 -38.5q70 0 114 38t44 100h84q0 -92 -69 -152.5t-173 -60.5zM723 -51q-248 0 -400.5 171t-152.5 449v867h86v-867q0 -243 127.5 -390.5t339.5 -147.5q211 0 338 147.5t127 390.5v867h86v-867
q0 -278 -152 -449t-399 -171z" />
    <glyph glyph-name="ubreve" unicode="&#x16d;" 
d="M590 1245q-110 0 -181 71t-71 181h78q0 -77 49 -127.5t125 -50.5q75 0 124.5 50.5t49.5 127.5h78q0 -110 -72 -181t-180 -71zM1053 1026v-1026h-84v188h-15q-52 -106 -150 -167.5t-224 -61.5q-191 0 -306.5 131.5t-115.5 337.5v598h84v-598q0 -172 94.5 -280.5
t253.5 -108.5q158 0 268.5 107.5t110.5 267.5v612h84z" />
    <glyph glyph-name="Uring" unicode="&#x16e;" horiz-adv-x="1441" 
d="M723 1561q-78 0 -129 50.5t-51 127.5q0 76 51 126t129 50t129 -50t51 -126t-51.5 -127t-128.5 -51zM723 1626q50 0 82.5 32t32.5 81t-32 79.5t-83 30.5q-50 0 -81.5 -30.5t-31.5 -79.5q0 -50 31 -81.5t82 -31.5zM723 -51q-248 0 -400.5 171t-152.5 449v867h86v-867
q0 -243 127.5 -390.5t339.5 -147.5q211 0 338 147.5t127 390.5v867h86v-867q0 -278 -152 -449t-399 -171z" />
    <glyph glyph-name="uring" unicode="&#x16f;" 
d="M592 1176q-88 0 -144.5 55t-56.5 141q0 88 56.5 143.5t144.5 55.5q87 0 143 -56t56 -143q0 -86 -56 -141t-143 -55zM592 1235q58 0 97.5 39.5t39.5 97.5q0 60 -39 99.5t-98 39.5q-60 0 -99.5 -39.5t-39.5 -99.5q0 -59 39.5 -98t99.5 -39zM1053 1026v-1026h-84v188h-15
q-52 -106 -150 -167.5t-224 -61.5q-191 0 -306.5 131.5t-115.5 337.5v598h84v-598q0 -172 94.5 -280.5t253.5 -108.5q158 0 268.5 107.5t110.5 267.5v612h84z" />
    <glyph glyph-name="Uhungarumlaut" unicode="&#x170;" horiz-adv-x="1441" 
d="M489 1585l175 195h108l-178 -195h-105zM817 1585l174 195h111l-182 -195h-103zM723 -51q-248 0 -400.5 171t-152.5 449v867h86v-867q0 -243 127.5 -390.5t339.5 -147.5q211 0 338 147.5t127 390.5v867h86v-867q0 -278 -152 -449t-399 -171z" />
    <glyph glyph-name="uhungarumlaut" unicode="&#x171;" 
d="M383 1260l211 235h108l-217 -235h-102zM811 1260h-106l217 235h104zM1053 1026v-1026h-84v188h-15q-52 -106 -150 -167.5t-224 -61.5q-191 0 -306.5 131.5t-115.5 337.5v598h84v-598q0 -172 94.5 -280.5t253.5 -108.5q158 0 268.5 107.5t110.5 267.5v612h84z" />
    <glyph glyph-name="Uogonek" unicode="&#x172;" horiz-adv-x="1441" 
d="M1188 1436h86v-867q0 -224 -102 -383t-277 -213q-122 -65 -170.5 -114.5t-48.5 -100.5q0 -46 27.5 -72t74.5 -26q64 0 140 49v-71q-76 -48 -150 -48q-71 0 -116.5 46t-45.5 118q0 53 30.5 99.5t100.5 95.5h-14q-248 0 -400.5 171t-152.5 449v867h86v-867
q0 -243 127.5 -390.5t339.5 -147.5q211 0 338 147.5t127 390.5v867z" />
    <glyph glyph-name="uogonek" unicode="&#x173;" 
d="M969 1026h84v-1026h-21q-151 -77 -209.5 -131.5t-58.5 -110.5q0 -45 28 -71.5t76 -26.5q62 0 138 49v-71q-76 -48 -150 -48q-70 0 -115 46t-45 118q0 75 62 139.5t211 139.5v155h-15q-52 -106 -150 -167.5t-224 -61.5q-191 0 -306.5 131.5t-115.5 337.5v598h84v-598
q0 -172 94.5 -280.5t253.5 -108.5q158 0 268.5 107.5t110.5 267.5v612z" />
    <glyph glyph-name="Wcircumflex" unicode="&#x174;" horiz-adv-x="2043" 
d="M973 1778h104l209 -193h-108l-146 131h-14l-146 -131h-108zM500 0l-430 1436h88l405 -1356h17l376 1356h134l376 -1356h17l405 1356h86l-428 -1436h-143l-371 1341h-18l-371 -1341h-143z" />
    <glyph glyph-name="wcircumflex" unicode="&#x175;" horiz-adv-x="1699" 
d="M598 1260l201 237h104l203 -237h-96l-152 170h-14l-150 -170h-96zM414 0l-357 1026h88l324 -938h14l303 938h121l310 -938h12l323 938h88l-356 -1026h-125l-305 932h-14l-301 -932h-125z" />
    <glyph glyph-name="Ycircumflex" unicode="&#x176;" horiz-adv-x="1179" 
d="M539 1778h106l207 -193h-109l-145 131h-12l-148 -131h-108zM549 0v580l-502 856h96l441 -758h14l440 758h97l-500 -856v-580h-86z" />
    <glyph glyph-name="ycircumflex" unicode="&#x177;" horiz-adv-x="1103" 
d="M303 1260l203 237h104l203 -237h-98l-150 170h-14l-150 -170h-98zM229 -453q-62 0 -129 23v80q79 -23 125 -23q31 0 59 10.5t50.5 25.5t46 45.5t40 56t39.5 72t37.5 79.5t39.5 92l-482 1018h88l428 -903h15l370 903h88l-426 -1030q-36 -90 -63 -148.5t-64.5 -121
t-73.5 -98t-84 -58.5t-104 -23z" />
    <glyph glyph-name="Ydieresis" unicode="&#x178;" horiz-adv-x="1179" 
d="M381 1618q-32 0 -53 21t-21 53q0 31 21 52t53 21q31 0 52.5 -21t21.5 -52q0 -32 -21.5 -53t-52.5 -21zM803 1618q-32 0 -53 21t-21 53q0 31 21 52t53 21q31 0 52.5 -21t21.5 -52q0 -32 -21.5 -53t-52.5 -21zM549 0v580l-502 856h96l441 -758h14l440 758h97l-500 -856
v-580h-86z" />
    <glyph glyph-name="Zacute" unicode="&#x179;" horiz-adv-x="1253" 
d="M586 1585l186 193h111l-189 -193h-108zM72 0v49l956 1290v15h-936v82h1071v-50l-954 -1290v-14h975v-82h-1112z" />
    <glyph glyph-name="zacute" unicode="&#x17a;" horiz-adv-x="1067" 
d="M596 1260h-107l224 237h104zM80 0v47l745 885v14h-725v80h867v-47l-744 -885v-14h764v-80h-907z" />
    <glyph glyph-name="Zdotaccent" unicode="&#x17b;" horiz-adv-x="1253" 
d="M639 1618q-33 0 -53.5 20.5t-20.5 53.5q0 32 20.5 52.5t53.5 20.5q32 0 53 -20.5t21 -52.5t-21 -53t-53 -21zM72 0v49l956 1290v15h-936v82h1071v-50l-954 -1290v-14h975v-82h-1112z" />
    <glyph glyph-name="zdotaccent" unicode="&#x17c;" horiz-adv-x="1067" 
d="M541 1245q-31 0 -52.5 21.5t-21.5 52.5q0 32 21.5 53t52.5 21q32 0 52.5 -21t20.5 -53q0 -31 -20.5 -52.5t-52.5 -21.5zM80 0v47l745 885v14h-725v80h867v-47l-744 -885v-14h764v-80h-907z" />
    <glyph glyph-name="Zcaron" unicode="&#x17d;" horiz-adv-x="1253" 
d="M582 1585l-211 193h108l148 -131h14l145 131h109l-209 -193h-104zM72 0v49l956 1290v15h-936v82h1071v-50l-954 -1290v-14h975v-82h-1112z" />
    <glyph glyph-name="zcaron" unicode="&#x17e;" horiz-adv-x="1067" 
d="M287 1497h96l152 -170h14l149 170h99l-203 -237h-105zM80 0v47l745 885v14h-725v80h867v-47l-744 -885v-14h764v-80h-907z" />
    <glyph glyph-name="AEacute" unicode="&#x1fc;" horiz-adv-x="1810" 
d="M846 1585l188 193h111l-189 -193h-110zM47 0l748 1436h897v-82h-742v-584h660v-80h-660v-608h760v-82h-846v319h-551l-170 -319h-96zM354 399h510v959h-14z" />
    <glyph glyph-name="aeacute" unicode="&#x1fd;" horiz-adv-x="1994" 
d="M1096 1260h-107l221 237h107zM578 1067q153 0 262.5 -77t140.5 -204q65 133 174.5 207t257.5 74q209 0 343 -155.5t134 -395.5v-31h-886q7 -195 123 -320.5t288 -125.5q122 0 221.5 76t145.5 200l78 -22q-52 -148 -173 -241t-270 -93q-157 0 -278.5 88.5t-175.5 239.5
q-41 -153 -168.5 -239.5t-309.5 -86.5q-171 0 -280 83.5t-109 215.5q0 65 26 117t69 87t107.5 61t132.5 41t153 26l331 39v57q0 132 -94 215.5t-243 83.5q-150 0 -246 -75.5t-96 -192.5h-84q0 152 120 250t306 98zM1411 987q-167 0 -279 -118t-126 -306h796
q-15 188 -123.5 306t-267.5 118zM584 514q-196 -22 -300 -80.5t-104 -175.5q0 -96 87 -157.5t222 -61.5q192 0 309 107.5t117 273.5v133z" />
    <glyph glyph-name="Oslashacute" unicode="&#x1fe;" horiz-adv-x="1724" 
d="M764 1585l188 193h111l-189 -193h-110zM338 -287l164 324q-177 95 -279 274t-102 408q0 220 95 395.5t264.5 274t381.5 98.5q182 0 334 -76l178 350h90l-196 -389q158 -100 248 -270.5t90 -382.5q0 -220 -95.5 -396t-265.5 -275t-383 -99q-157 0 -287 53l-145 -289h-92z
M539 113l620 1224q-139 68 -297 68q-141 0 -262.5 -51.5t-207 -142t-134.5 -218t-49 -274.5q0 -201 88.5 -360.5t241.5 -245.5zM862 31q188 0 338 88t234 245t84 355q0 187 -77 337.5t-212 239.5l-615 -1218q112 -47 248 -47z" />
    <glyph glyph-name="oslashacute" unicode="&#x1ff;" horiz-adv-x="1282" 
d="M735 1260h-106l223 237h106zM283 -164l94 187q-127 69 -200 197.5t-73 293.5q0 242 151 397.5t386 155.5q134 0 240 -53l108 215h88l-129 -252q109 -73 170.5 -194t61.5 -269q0 -243 -152 -399t-387 -156q-107 0 -192 33l-78 -156h-88zM412 92l434 854q-92 45 -205 45
q-198 0 -327.5 -135t-129.5 -342q0 -139 61 -250t167 -172zM641 35q200 0 329.5 135t129.5 344q0 124 -49.5 225.5t-137.5 165.5l-430 -846q73 -24 158 -24z" />
    <glyph glyph-name="Scommaaccent" unicode="&#x218;" horiz-adv-x="1409" 
d="M715 -51q-264 0 -420 137.5t-156 370.5h86q0 -197 133 -311.5t359 -114.5q214 0 340.5 91t126.5 243q0 68 -29.5 119t-63 80t-111.5 53.5t-121.5 33t-145.5 25.5q-15 3 -23 4q-66 10 -111.5 19t-105 25t-99.5 34.5t-82.5 48t-68 65.5t-41.5 86t-16 111q0 190 139.5 304
t382.5 114q253 0 401 -126.5t148 -344.5l-84 -2q-1 181 -126.5 286t-336.5 105q-201 0 -319.5 -92.5t-118.5 -241.5q0 -48 14 -88t35 -68t58.5 -51t71 -37.5t88 -27.5t93 -20t101.5 -17q76 -12 116.5 -19.5t109.5 -24t107.5 -34t87.5 -47t74 -65.5t43.5 -88t18.5 -115
q0 -194 -149.5 -307t-405.5 -113zM680 -487l-41 16l68 166q-28 5 -45 23.5t-17 45.5q0 31 20 51.5t52 20.5t51.5 -20.5t19.5 -51.5q0 -25 -12 -49z" />
    <glyph glyph-name="scommaaccent" unicode="&#x219;" horiz-adv-x="1048" 
d="M547 -41q-198 0 -320.5 102t-122.5 265h82q0 -128 100 -208.5t261 -80.5q138 0 226.5 58.5t88.5 156.5q0 29 -6 53.5t-13 43.5t-24 35.5t-28.5 27t-38.5 21t-40.5 16t-47.5 12.5t-48 9.5t-53.5 8.5t-52.5 8q-48 7 -80 13t-75.5 17.5t-72.5 25t-60.5 35.5t-50 49.5
t-30.5 66.5t-12 86q0 128 105.5 207.5t275.5 79.5q183 0 293.5 -93t109.5 -247h-82q1 119 -87.5 190.5t-235.5 71.5q-132 0 -214.5 -56t-82.5 -147q0 -50 17.5 -87t44 -58t70 -36.5t82 -23t94.5 -15.5q6 -1 9 -1h1h2q172 -27 244 -57q152 -63 167 -215q2 -18 2 -37
q0 -136 -110.5 -216.5t-286.5 -80.5zM498 -487l-41 16l69 166q-28 5 -45.5 23.5t-17.5 45.5q0 31 20 51.5t52 20.5t51.5 -20.5t19.5 -51.5q0 -25 -12 -49z" />
    <glyph glyph-name="uni021A" unicode="&#x21a;" horiz-adv-x="1173" 
d="M545 0v1354h-506v82h1098v-82h-506v-1354h-86zM551 -487l-41 16l70 166q-28 5 -46 23.5t-18 45.5q0 31 20 51.5t52 20.5t51.5 -20.5t19.5 -51.5q0 -25 -12 -49z" />
    <glyph glyph-name="uni021B" unicode="&#x21b;" horiz-adv-x="710" 
d="M485 -25q-107 0 -172 71t-65 187v717h-180v76h180l8 313h76v-313h282v-76h-282v-714q0 -82 44 -132.5t118 -50.5q67 0 139 21v-76q-64 -23 -148 -23zM428 -487l-43 16l70 166q-28 5 -45 23.5t-17 45.5q0 31 20 51.5t52 20.5t52 -20.5t20 -51.5q0 -19 -15 -49z" />
    <glyph glyph-name="circumflex" unicode="&#x2c6;" horiz-adv-x="716" 
d="M104 1260l201 237h105l202 -237h-96l-151 170h-15l-149 -170h-97z" />
    <glyph glyph-name="caron" unicode="&#x2c7;" horiz-adv-x="716" 
d="M104 1497h97l149 -170h15l151 170h96l-202 -237h-105z" />
    <glyph glyph-name="breve" unicode="&#x2d8;" horiz-adv-x="708" 
d="M354 1245q-109 0 -179.5 71.5t-70.5 180.5h78q0 -77 48.5 -127.5t123.5 -50.5q76 0 125 50.5t49 127.5h78q0 -109 -71 -180.5t-181 -71.5z" />
    <glyph glyph-name="dotaccent" unicode="&#x2d9;" horiz-adv-x="354" 
d="M178 1245q-32 0 -53 21.5t-21 52.5q0 32 21 53t53 21q31 0 52.5 -21t21.5 -53q0 -31 -21.5 -52.5t-52.5 -21.5z" />
    <glyph glyph-name="ring" unicode="&#x2da;" horiz-adv-x="608" 
d="M303 1176q-87 0 -143 55t-56 141q0 87 56 143t143 56q88 0 144.5 -55.5t56.5 -143.5q0 -86 -56.5 -141t-144.5 -55zM303 1235q60 0 99.5 39t39.5 98q0 60 -39.5 99.5t-99.5 39.5q-59 0 -98 -39.5t-39 -99.5q0 -58 39 -97.5t98 -39.5z" />
    <glyph glyph-name="ogonek" unicode="&#x2db;" horiz-adv-x="544" 
d="M264 -410q-70 0 -115 46t-45 118q0 77 69 144.5t235 148.5l32 -47q-151 -77 -209.5 -131.5t-58.5 -110.5q0 -46 27.5 -72t76.5 -26q62 0 138 49v-71q-76 -48 -150 -48z" />
    <glyph glyph-name="tilde" unicode="&#x2dc;" horiz-adv-x="851" 
d="M557 1260q-44 0 -84.5 19t-66 41t-58.5 41t-65 19q-37 0 -69.5 -20t-51.5 -53l-58 39q23 49 72 79.5t105 30.5q35 0 67 -12.5t56.5 -31t48 -36.5t50.5 -30.5t54 -12.5q41 0 76.5 22t50.5 56l64 -35q-23 -51 -76.5 -83.5t-114.5 -32.5z" />
    <glyph glyph-name="hungarumlaut" unicode="&#x2dd;" horiz-adv-x="851" 
d="M104 1260l211 235h109l-215 -235h-105zM532 1260h-104l215 235h105z" />
    <glyph glyph-name="uni0401" unicode="&#x401;" horiz-adv-x="1280" 
d="M469 1618q-32 0 -53 21t-21 53q0 31 21 52t53 21q31 0 52.5 -21t21.5 -52q0 -32 -21.5 -53t-52.5 -21zM891 1618q-32 0 -53 21t-21 53q0 31 21 52t53 21t53 -21t21 -52q0 -32 -21 -53t-53 -21zM188 0v1436h969v-82h-883v-566h801v-81h-801v-625h904v-82h-990z" />
    <glyph glyph-name="uni0402" unicode="&#x402;" horiz-adv-x="1411" 
d="M815 -39q-85 0 -178 21v79q80 -22 170 -22q169 0 265.5 99t96.5 306v76q0 223 -109.5 345t-307.5 122q-204 0 -327.5 -123.5t-123.5 -331.5v-532h-82v1356h-182v80h446v-80h-182v-576h14q44 136 165.5 211.5t289.5 75.5q224 0 352.5 -145t128.5 -402v-76
q0 -243 -116.5 -363t-319.5 -120z" />
    <glyph glyph-name="uni0403" unicode="&#x403;" horiz-adv-x="1214" 
d="M565 1585l189 193h110l-188 -193h-111zM186 0v1436h883v-82h-797v-1354h-86z" />
    <glyph glyph-name="uni0404" unicode="&#x404;" horiz-adv-x="1677" 
d="M881 -51q-163 0 -305 58t-242 159.5t-157.5 244.5t-57.5 308t57.5 308t157.5 244t242 158.5t305 57.5q165 0 310.5 -70.5t241 -190t123.5 -265.5l-83 -15q-42 195 -208.5 327t-381.5 132q-140 0 -262 -48t-211 -132t-142.5 -204.5t-60.5 -260.5h954v-82h-954
q7 -140 60.5 -260t142 -205t211 -133.5t262.5 -48.5q221 0 387 127.5t205 316.5l84 -16q-28 -142 -123.5 -258t-241.5 -184t-313 -68z" />
    <glyph glyph-name="uni0405" unicode="&#x405;" horiz-adv-x="1409" 
d="M715 -51q-264 0 -420 137.5t-156 370.5h86q0 -197 133 -311.5t359 -114.5q214 0 340.5 91t126.5 243q0 68 -29.5 119t-63 80t-111.5 53.5t-121.5 33t-145.5 25.5q-15 3 -23 4q-66 10 -111.5 19t-105 25t-99.5 34.5t-82.5 48t-68 65.5t-41.5 86t-16 111q0 190 139.5 304
t382.5 114q253 0 401 -126.5t148 -344.5l-84 -2q-1 181 -126.5 286t-336.5 105q-201 0 -319.5 -92.5t-118.5 -241.5q0 -48 14 -88t35 -68t58.5 -51t71 -37.5t88 -27.5t93 -20t101.5 -17q76 -12 116.5 -19.5t109.5 -24t107.5 -34t87.5 -47t74 -65.5t43.5 -88t18.5 -115
q0 -194 -149.5 -307t-405.5 -113z" />
    <glyph glyph-name="uni0406" unicode="&#x406;" horiz-adv-x="460" 
d="M186 0v1436h88v-1436h-88z" />
    <glyph glyph-name="uni0407" unicode="&#x407;" horiz-adv-x="460" 
d="M20 1618q-32 0 -52.5 21t-20.5 53q0 31 20.5 52t52.5 21t53 -21t21 -52q0 -32 -21 -53t-53 -21zM442 1618q-31 0 -52 21t-21 53q0 31 21 52t52 21q32 0 53 -21t21 -52q0 -32 -21 -53t-53 -21zM190 0v1436h86v-1436h-86z" />
    <glyph glyph-name="uni0408" unicode="&#x408;" horiz-adv-x="903" 
d="M311 -41q-115 0 -243 41v82q138 -41 239 -41q145 0 233.5 100t88.5 289v1006h86v-1006q0 -224 -112 -347.5t-292 -123.5z" />
    <glyph glyph-name="uni0409" unicode="&#x409;" horiz-adv-x="2230" 
d="M45 0v82q149 0 226 97t100 315l104 942h811v-578h356q212 0 350 -121t138 -307q0 -187 -138 -308.5t-350 -121.5h-442v1354h-641l-110 -910q-26 -227 -125.5 -335.5t-278.5 -108.5zM1288 82h350q178 0 293 97.5t115 248.5t-115 249.5t-293 98.5h-350v-694z" />
    <glyph glyph-name="uni040A" unicode="&#x40a;" horiz-adv-x="2007" 
d="M186 0v1436h86v-645h740v645h86v-645h356q203 0 329 -109.5t126 -286.5t-126 -286t-329 -109h-442v709h-740v-709h-86zM1100 82h350q167 0 269 86t102 227t-101.5 227.5t-269.5 86.5h-350v-627z" />
    <glyph glyph-name="uni040B" unicode="&#x40b;" horiz-adv-x="1411" 
d="M219 0v1356h-182v80h446v-80h-182v-576h14q44 136 165.5 211.5t289.5 75.5q224 0 352.5 -145t128.5 -402v-518h-82v518q0 223 -109.5 345t-307.5 122q-204 0 -327.5 -123.5t-123.5 -331.5v-532h-82z" />
    <glyph glyph-name="uni040C" unicode="&#x40c;" horiz-adv-x="1212" 
d="M588 1585l186 193h111l-189 -193h-108zM186 0v1436h86v-643h15l725 643h125l-768 -680l784 -756h-121l-745 721h-15v-721h-86z" />
    <glyph glyph-name="uni040E" unicode="&#x40e;" horiz-adv-x="1208" 
d="M643 1565q-106 0 -174 60.5t-68 152.5h82q0 -61 45 -99.5t115 -38.5t114 38t44 100h84q0 -92 -68 -152.5t-174 -60.5zM188 -41q-77 0 -131 23v81q72 -22 129 -22q52 0 91 8.5t71.5 28.5t58.5 47t53 71t52 93t60 120q4 9 6 13l36 74l-548 940h96l489 -838h13l405 838h94
l-489 -1012q-49 -102 -73 -148.5t-63.5 -113t-68.5 -94t-73 -58.5t-93.5 -41t-114.5 -10z" />
    <glyph glyph-name="uni040F" unicode="&#x40f;" horiz-adv-x="1439" 
d="M676 -305v305h-490v1436h86v-1354h893v1354h88v-1436h-491v-305h-86z" />
    <glyph glyph-name="uni0410" unicode="&#x410;" horiz-adv-x="1335" 
d="M47 0l559 1436h127l557 -1436h-88l-147 375h-772l-148 -375h-88zM311 457h715l-350 897h-14z" />
    <glyph glyph-name="uni0411" unicode="&#x411;" horiz-adv-x="1325" 
d="M186 0v1436h934v-82h-848v-537h459q237 0 366.5 -113.5t129.5 -293.5q0 -182 -137 -296t-379 -114h-525zM272 82h433q209 0 322.5 93t113.5 235q0 144 -107 234.5t-309 90.5h-453v-653z" />
    <glyph glyph-name="uni0412" unicode="&#x412;" horiz-adv-x="1384" 
d="M186 0v1436h600q183 0 301.5 -103.5t118.5 -261.5q0 -116 -69.5 -200t-186.5 -115v-15q134 -31 215.5 -125t81.5 -223q0 -170 -135 -281.5t-342 -111.5h-584zM272 788h510q148 0 243 79.5t95 203.5q0 123 -95 203t-243 80h-510v-566zM272 82h494q172 0 283.5 88.5
t111.5 224.5q0 135 -111.5 222.5t-283.5 87.5h-494v-623z" />
    <glyph glyph-name="uni0413" unicode="&#x413;" horiz-adv-x="1130" 
d="M186 0v1436h883v-82h-797v-1354h-86z" />
    <glyph glyph-name="uni0414" unicode="&#x414;" horiz-adv-x="1638" 
d="M25 -307v389h143q101 75 159 192t83 295l118 867h842v-1354h223v-389h-84v307h-1400v-307h-84zM287 82h995v1272h-676l-112 -799q-23 -167 -73 -276.5t-134 -182.5v-14z" />
    <glyph glyph-name="uni0415" unicode="&#x415;" horiz-adv-x="1280" 
d="M188 0v1436h969v-82h-883v-566h801v-81h-801v-625h904v-82h-990z" />
    <glyph glyph-name="uni0416" unicode="&#x416;" horiz-adv-x="1796" 
d="M45 0l717 756l-701 680h119l660 -643h14v643h88v-643h12l660 643h121l-703 -680l719 -756h-117l-680 719h-12v-719h-88v719h-14l-678 -719h-117z" />
    <glyph glyph-name="uni0417" unicode="&#x417;" horiz-adv-x="1320" 
d="M678 -51q-238 0 -390.5 150.5t-152.5 383.5h86q0 -198 128.5 -325t328.5 -127q184 0 304 99.5t120 252.5q0 151 -106 241.5t-275 90.5h-227v82h229q147 0 237.5 82t90.5 221q0 132 -111.5 218.5t-280.5 86.5q-178 0 -292.5 -108.5t-114.5 -276.5h-86q0 203 138.5 335
t354.5 132q206 0 342 -108.5t136 -276.5q0 -135 -68 -220.5t-186 -115.5v-14q141 -32 223 -127.5t82 -243.5q0 -187 -144.5 -309.5t-365.5 -122.5z" />
    <glyph glyph-name="uni0418" unicode="&#x418;" horiz-adv-x="1439" 
d="M1253 0h-86v1321h-14l-838 -1321h-129v1436h86v-1323h15l837 1323h129v-1436z" />
    <glyph glyph-name="uni0419" unicode="&#x419;" horiz-adv-x="1439" 
d="M739 1565q-104 0 -172.5 60.5t-68.5 152.5h84q0 -61 44 -99.5t113 -38.5q71 0 115.5 38.5t44.5 99.5h82q0 -92 -68 -152.5t-174 -60.5zM186 1436h86v-1321h15l837 1321h129v-1436h-86v1323h-14l-838 -1323h-129v1436z" />
    <glyph glyph-name="uni041A" unicode="&#x41a;" horiz-adv-x="1212" 
d="M186 0v1436h86v-643h15l725 643h125l-768 -680l784 -756h-121l-745 721h-15v-721h-86z" />
    <glyph glyph-name="uni041B" unicode="&#x41b;" horiz-adv-x="1472" 
d="M45 0v82q149 0 226 97t100 315l104 942h811v-1436h-86v1354h-641l-110 -910q-26 -227 -125.5 -335.5t-278.5 -108.5z" />
    <glyph glyph-name="uni041C" unicode="&#x41c;" horiz-adv-x="1849" 
d="M186 0v1436h142l590 -1321h14l588 1321h143v-1436h-88v1325h-12l-592 -1325h-94l-590 1321h-15v-1321h-86z" />
    <glyph glyph-name="uni041D" unicode="&#x41d;" horiz-adv-x="1439" 
d="M186 0v1436h86v-645h893v645h88v-1436h-88v707h-893v-707h-86z" />
    <glyph glyph-name="uni041E" unicode="&#x41e;" horiz-adv-x="1763" 
d="M881 -51q-163 0 -305 58t-242 159.5t-157.5 244.5t-57.5 308t57.5 308t157.5 244t242 158.5t305 57.5t305 -57.5t243 -158.5t158.5 -244t57.5 -308t-57.5 -308t-158.5 -244.5t-243 -159.5t-305 -58zM881 31q194 0 348.5 88.5t240.5 245.5t86 354q0 147 -50.5 274.5
t-139 218t-214.5 142t-271 51.5q-193 0 -347 -88t-240.5 -245t-86.5 -353t86.5 -353.5t240.5 -246t347 -88.5z" />
    <glyph glyph-name="uni041F" unicode="&#x41f;" horiz-adv-x="1437" 
d="M186 0v1436h1065v-1436h-86v1356h-893v-1356h-86z" />
    <glyph glyph-name="uni0420" unicode="&#x420;" horiz-adv-x="1308" 
d="M188 0v1436h525q238 0 367.5 -118.5t127.5 -313.5q0 -196 -129.5 -314.5t-365.5 -118.5h-441v-571h-84zM272 653h441q199 0 304 96t105 255q0 158 -105.5 254t-303.5 96h-441v-701z" />
    <glyph glyph-name="uni0421" unicode="&#x421;" horiz-adv-x="1671" 
d="M868 -51q-162 0 -301 58t-237 159.5t-153.5 244.5t-55.5 308q0 221 95 396t265.5 273.5t386.5 98.5q247 0 440.5 -150t243.5 -372l-86 -15q-43 192 -213 323.5t-385 131.5q-191 0 -341.5 -87.5t-234 -244t-83.5 -354.5q0 -197 83.5 -354t234 -245.5t341.5 -88.5
q219 0 388.5 126.5t211.5 313.5l82 -18q-46 -214 -240 -359t-442 -145z" />
    <glyph glyph-name="uni0422" unicode="&#x422;" horiz-adv-x="1173" 
d="M545 0v1354h-506v82h1098v-82h-506v-1354h-86z" />
    <glyph glyph-name="uni0423" unicode="&#x423;" horiz-adv-x="1208" 
d="M188 -41q-77 0 -131 23v81q72 -22 129 -22q52 0 91 8.5t71.5 28.5t58.5 47t53 71t52 93t60 120q4 9 6 13l36 74l-548 940h96l489 -838h13l405 838h94l-489 -1012q-49 -102 -73 -148.5t-63.5 -113t-68.5 -94t-73 -58.5t-93.5 -41t-114.5 -10z" />
    <glyph glyph-name="uni0424" unicode="&#x424;" horiz-adv-x="1601" 
d="M756 -61v172q-191 7 -342.5 92t-233.5 223t-82 301q1 124 49.5 236t133.5 195t209 133.5t268 54.5v151h86v-151q193 -1 345 -84.5t233.5 -224t80.5 -310.5q0 -127 -48.5 -240t-133.5 -196t-209.5 -131.5t-269.5 -48.5v-172h-86zM758 193v1071q-253 -9 -412.5 -163
t-159.5 -374q0 -105 42 -201t116 -168t181.5 -116.5t232.5 -48.5zM844 193q166 0 298 72t203.5 193.5t71.5 268.5q1 110 -41 208.5t-116.5 171t-182.5 115t-233 42.5v-1071z" />
    <glyph glyph-name="uni0425" unicode="&#x425;" horiz-adv-x="1257" 
d="M68 0l503 760l-485 676h102l433 -611h14l436 611h105l-490 -676l506 -760h-102l-455 688h-14l-453 -688h-100z" />
    <glyph glyph-name="uni0426" unicode="&#x426;" horiz-adv-x="1488" 
d="M1358 -305v305h-1172v1436h86v-1354h893v1354h88v-1354h193v-387h-88z" />
    <glyph glyph-name="uni0427" unicode="&#x427;" horiz-adv-x="1333" 
d="M1059 0v680q-63 -97 -183 -157t-249 -60q-108 0 -197.5 30t-158.5 90t-107.5 157.5t-38.5 224.5v471h86v-467q0 -110 32.5 -193t91.5 -133t134.5 -75t167.5 -25q134 0 255 76t167 188v629h88v-1436h-88z" />
    <glyph glyph-name="uni0428" unicode="&#x428;" horiz-adv-x="1896" 
d="M186 0v1436h86v-1354h633v1354h86v-1354h633v1354h86v-1436h-1524z" />
    <glyph glyph-name="uni0429" unicode="&#x429;" horiz-adv-x="1968" 
d="M1835 -305v305h-1649v1436h86v-1354h633v1354h86v-1354h633v1354h86v-1354h213v-387h-88z" />
    <glyph glyph-name="uni042A" unicode="&#x42a;" horiz-adv-x="1454" 
d="M330 0v1354h-285v82h371v-559h444q222 0 359 -122.5t137 -316.5t-137 -316t-359 -122h-530zM416 82h438q186 0 300 98t114 258q0 159 -114 257t-300 98h-438v-711z" />
    <glyph glyph-name="uni042B" unicode="&#x42b;" horiz-adv-x="1804" 
d="M186 0v1436h86v-559h445q216 0 355.5 -124.5t139.5 -314.5t-139.5 -314t-355.5 -124h-531zM1532 0v1436h86v-1436h-86zM272 82h439q181 0 297 100t116 256q0 154 -116 254.5t-297 100.5h-439v-711z" />
    <glyph glyph-name="uni042C" unicode="&#x42c;" horiz-adv-x="1310" 
d="M186 0v1436h86v-559h445q216 0 355.5 -124.5t139.5 -314.5t-139.5 -314t-355.5 -124h-531zM272 82h439q181 0 297 100t116 256q0 154 -116 254.5t-297 100.5h-439v-711z" />
    <glyph glyph-name="uni042D" unicode="&#x42d;" horiz-adv-x="1677" 
d="M805 -51q-167 0 -314.5 68t-245.5 184.5t-126 257.5l84 16q39 -188 209 -316t393 -128q281 0 466 181.5t199 465.5h-958v82h958q-12 286 -197 465.5t-468 179.5q-217 0 -387.5 -132.5t-212.5 -326.5l-84 15q21 109 83.5 206t152.5 167.5t207 111.5t241 41
q163 0 303.5 -57.5t239.5 -159t155 -244t56 -307.5t-56 -308t-155 -244.5t-239.5 -159.5t-303.5 -58z" />
    <glyph glyph-name="uni042E" unicode="&#x42e;" horiz-adv-x="2035" 
d="M1235 -51q-289 0 -478.5 203.5t-203.5 525.5h-281v-678h-86v1436h86v-674h281q14 320 204 522.5t478 202.5q199 0 354 -98t240.5 -273t85.5 -397q0 -223 -87 -399t-242.5 -273.5t-350.5 -97.5zM1235 31q173 0 308.5 87.5t210.5 244.5t75 356q0 302 -165 494t-429 192
q-173 0 -309 -87.5t-211.5 -244t-75.5 -354.5q0 -302 167 -495t429 -193z" />
    <glyph glyph-name="uni042F" unicode="&#x42f;" horiz-adv-x="1406" 
d="M1219 0h-89v621h-358l-536 -621h-113l543 623h-62q-218 1 -350.5 112t-132.5 293q0 189 133 298.5t362 109.5h603v-1436zM1130 702v652h-514q-192 0 -300.5 -86t-108.5 -240q0 -150 110 -238t299 -88h514z" />
    <glyph glyph-name="uni0430" unicode="&#x430;" horiz-adv-x="1107" 
d="M438 -39q-157 0 -249.5 70t-92.5 190q0 130 106.5 214t332.5 122l329 55v58q0 132 -86.5 216.5t-224.5 84.5q-139 0 -228 -76t-89 -195h-84q0 154 112 252.5t289 98.5q173 0 284 -107t111 -274v-670h-84v190h-12q-56 -112 -165 -170.5t-249 -58.5zM444 39
q188 0 304 107.5t116 271.5v117l-319 -54q-193 -34 -279 -98t-86 -162q0 -86 70 -134t194 -48z" />
    <glyph glyph-name="uni0431" unicode="&#x431;" horiz-adv-x="1251" 
d="M655 -43q-217 0 -357 144t-140 368q0 169 9 297.5t27.5 234t50.5 178.5t76 126.5t106.5 84t138 44.5t175.5 14q146 0 205.5 20t59.5 68h79q0 -88 -76 -129t-266 -41q-88 0 -151 -10t-118.5 -36.5t-92.5 -70.5t-65 -113.5t-43.5 -165t-22.5 -225.5h12q59 114 160.5 175
t236.5 61q216 0 353 -144t137 -368t-139 -368t-355 -144zM655 37q180 0 295 121t115 313q0 189 -115 309.5t-295 120.5q-179 0 -296 -118.5t-117 -311.5q0 -192 115.5 -313t297.5 -121z" />
    <glyph glyph-name="uni0432" unicode="&#x432;" horiz-adv-x="1097" 
d="M178 0v1026h494q130 0 213.5 -74t83.5 -190q0 -182 -178 -230v-12q97 -17 151.5 -80t54.5 -159q0 -126 -91.5 -203.5t-243.5 -77.5h-484zM262 565h406q97 0 158 52t61 139q0 86 -61 139t-158 53h-406v-383zM262 78h393q118 0 189 56t71 149q0 94 -69.5 149t-190.5 55
h-393v-409z" />
    <glyph glyph-name="uni0433" unicode="&#x433;" horiz-adv-x="897" 
d="M178 0v1026h658v-80h-574v-946h-84z" />
    <glyph glyph-name="uni0434" unicode="&#x434;" horiz-adv-x="1290" 
d="M41 -307v387h125q80 53 115.5 140.5t60.5 262.5l76 543h616v-946h174v-387h-80v307h-1007v-307h-80zM279 80h673v866h-463l-71 -497q-21 -145 -48.5 -222t-90.5 -133v-14z" />
    <glyph glyph-name="uni0435" unicode="&#x435;" horiz-adv-x="1294" 
d="M659 -41q-243 0 -399 157t-156 400q0 240 156 395.5t397 155.5q233 0 384 -156t151 -395v-31h-1004q9 -196 141 -321t330 -125q141 0 260.5 77.5t163.5 198.5l78 -22q-53 -148 -192.5 -241t-309.5 -93zM190 565h914q-14 186 -138.5 304t-310.5 118q-192 0 -321 -118
t-144 -304z" />
    <glyph glyph-name="uni0436" unicode="&#x436;" horiz-adv-x="1390" 
d="M51 0l510 532l-493 494h112l459 -461h14v461h84v-461h15l458 461h113l-494 -494l510 -532h-110l-477 502h-15v-502h-84v502h-14l-477 -502h-111z" />
    <glyph glyph-name="uni0437" unicode="&#x437;" horiz-adv-x="980" 
d="M494 -41q-176 0 -284 101t-108 262h84q0 -128 84 -205.5t224 -77.5q137 0 221 64.5t84 170.5q0 99 -70.5 160.5t-177.5 61.5h-207v79h207q95 0 158 60.5t63 146.5q0 93 -78.5 149t-206.5 56q-134 0 -211 -70.5t-77 -189.5h-84q-5 148 100 244t272 96q165 0 266 -78
t101 -205q0 -87 -47.5 -147.5t-128.5 -89.5v-15q95 -24 150 -93t55 -169q0 -142 -107.5 -226.5t-281.5 -84.5z" />
    <glyph glyph-name="uni0438" unicode="&#x438;" horiz-adv-x="1234" 
d="M178 0v1026h84v-899h14l680 899h101v-1026h-84v899h-15l-677 -899h-103z" />
    <glyph glyph-name="uni0439" unicode="&#x439;" horiz-adv-x="1234" 
d="M602 1245q-110 0 -181 71t-71 181h78q0 -77 49 -127.5t125 -50.5q75 0 123.5 50.5t48.5 127.5h78q0 -110 -71 -181t-179 -71zM178 0v1026h84v-899h14l680 899h101v-1026h-84v899h-15l-677 -899h-103z" />
    <glyph glyph-name="uni043A" unicode="&#x43a;" horiz-adv-x="948" 
d="M178 0v1026h84v-457h14l517 457h122l-563 -491l580 -535h-121l-535 496h-14v-496h-84z" />
    <glyph glyph-name="uni043B" unicode="&#x43b;" horiz-adv-x="1099" 
d="M20 0v78q101 0 145.5 77t65.5 240l76 631h615v-1026h-84v946h-451l-78 -592q-24 -174 -93 -264t-196 -90z" />
    <glyph glyph-name="uni043C" unicode="&#x43c;" horiz-adv-x="1523" 
d="M178 0v1026h131l445 -926h14l446 926h132v-1026h-84v909h-15l-440 -909h-92l-439 909h-14v-909h-84z" />
    <glyph glyph-name="uni043D" unicode="&#x43d;" horiz-adv-x="1251" 
d="M178 0v1026h84v-469h727v469h84v-1026h-84v477h-727v-477h-84z" />
    <glyph glyph-name="uni043E" unicode="&#x43e;" horiz-adv-x="1277" 
d="M639 -41q-154 0 -276.5 70.5t-191.5 197.5t-69 287q0 241 151.5 397t385.5 156q235 0 386 -155.5t151 -397.5q0 -243 -151 -399t-386 -156zM639 39q197 0 326 134t129 341q0 205 -129 339t-326 134t-325 -134t-128 -339q0 -207 128 -341t325 -134z" />
    <glyph glyph-name="uni043F" unicode="&#x43f;" horiz-adv-x="1273" 
d="M178 0v1026h918v-1026h-84v946h-750v-946h-84z" />
    <glyph glyph-name="uni0440" unicode="&#x440;" horiz-adv-x="1355" 
d="M721 1067q231 0 381.5 -156t150.5 -397q0 -242 -150.5 -398.5t-381.5 -156.5q-154 0 -269 74.5t-173 204.5h-15v-709h-84v1497h84v-240h15q58 130 173 205.5t269 75.5zM717 987q-196 0 -325.5 -134.5t-129.5 -338.5q0 -205 129 -340t326 -135q196 0 324 134.5t128 340.5
q0 204 -128 338.5t-324 134.5z" />
    <glyph glyph-name="uni0441" unicode="&#x441;" horiz-adv-x="1222" 
d="M639 -41q-233 0 -384 156t-151 399q0 241 151 397t384 156q174 0 309.5 -102t169.5 -260l-82 -13q-34 129 -146.5 212t-250.5 83q-196 0 -323.5 -133.5t-127.5 -339.5q0 -207 127 -341t324 -134q140 0 252.5 78.5t144.5 199.5l82 -14q-37 -149 -172 -246.5t-307 -97.5z
" />
    <glyph glyph-name="uni0442" unicode="&#x442;" horiz-adv-x="1003" 
d="M461 0v946h-404v80h889v-80h-401v-946h-84z" />
    <glyph glyph-name="uni0443" unicode="&#x443;" horiz-adv-x="1103" 
d="M229 -453q-62 0 -129 23v80q79 -23 125 -23q31 0 59 10.5t50.5 25.5t46 45.5t40 56t39.5 72t37.5 79.5t39.5 92l-482 1018h88l428 -903h15l370 903h88l-426 -1030q-36 -90 -63 -148.5t-64.5 -121t-73.5 -98t-84 -58.5t-104 -23z" />
    <glyph glyph-name="uni0444" unicode="&#x444;" horiz-adv-x="1388" 
d="M653 -473v434q-152 7 -277.5 78.5t-199.5 196.5t-74 278q0 152 74 276.5t199.5 196t277.5 78.5v434h84v-434q150 -7 275 -78.5t199.5 -196t74.5 -276.5t-74.5 -277t-199.5 -197t-275 -79v-434h-84zM653 39v946q-194 -9 -330.5 -143.5t-136.5 -327.5q0 -129 63.5 -236
t170 -169.5t233.5 -69.5zM737 39q193 11 329 146t136 329q0 128 -63.5 234t-169.5 168t-232 69v-946z" />
    <glyph glyph-name="uni0445" unicode="&#x445;" horiz-adv-x="1050" 
d="M72 0l397 535l-377 491h98l328 -426h12l328 426h98l-376 -491l397 -535h-98l-349 467h-12l-348 -467h-98z" />
    <glyph glyph-name="uni0446" unicode="&#x446;" horiz-adv-x="1280" 
d="M1122 -307v307h-944v1026h84v-946h723v946h84v-946h133v-387h-80z" />
    <glyph glyph-name="uni0447" unicode="&#x447;" horiz-adv-x="1134" 
d="M874 0v496q-58 -78 -155 -124t-199 -46q-85 0 -157.5 24.5t-128.5 73t-87.5 128t-31.5 181.5v293h84v-293q0 -158 84.5 -242.5t244.5 -84.5q121 0 213.5 56.5t130.5 153.5v408h84v-1024h-82z" />
    <glyph glyph-name="uni0448" unicode="&#x448;" horiz-adv-x="1705" 
d="M178 0v1026h84v-946h549v946h84v-946h549v946h84v-1026h-1350z" />
    <glyph glyph-name="uni0449" unicode="&#x449;" horiz-adv-x="1738" 
d="M1581 -307v307h-1403v1026h84v-946h549v946h84v-946h549v946h84v-946h133v-387h-80z" />
    <glyph glyph-name="uni044A" unicode="&#x44a;" horiz-adv-x="1134" 
d="M268 0v946h-264v80h346v-342h301q193 0 305.5 -92t112.5 -250q0 -161 -110 -251.5t-308 -90.5h-383zM352 80h301q162 0 248 67.5t86 194.5q0 123 -89 192.5t-245 69.5h-301v-524z" />
    <glyph glyph-name="uni044B" unicode="&#x44b;" horiz-adv-x="1351" 
d="M178 0v1026h84v-342h223q192 0 304 -92t112 -250q0 -161 -110 -251.5t-308 -90.5h-305zM1090 0v1026h84v-1026h-84zM262 80h223q162 0 248 67.5t86 194.5q0 123 -89 192.5t-245 69.5h-223v-524z" />
    <glyph glyph-name="uni044C" unicode="&#x44c;" horiz-adv-x="1044" 
d="M178 0v1026h84v-342h301q192 0 305 -92t113 -250q0 -161 -110.5 -251.5t-307.5 -90.5h-385zM262 80h301q162 0 248 67.5t86 194.5q0 123 -88.5 192.5t-245.5 69.5h-301v-524z" />
    <glyph glyph-name="uni044D" unicode="&#x44d;" horiz-adv-x="1220" 
d="M584 -41q-172 0 -307.5 97.5t-172.5 246.5l80 14q34 -121 146.5 -199.5t253.5 -78.5q186 0 310 121t138 313h-616v78h618q-12 192 -137.5 314t-312.5 122q-140 0 -252 -83t-146 -212l-84 13q34 157 171 259.5t311 102.5q232 0 383 -156t151 -397q0 -243 -150.5 -399
t-383.5 -156z" />
    <glyph glyph-name="uni044E" unicode="&#x44e;" horiz-adv-x="1560" 
d="M961 -49q-214 0 -350.5 143t-145.5 379h-203v-485h-84v1038h84v-473h203q14 230 149.5 370t346.5 140q221 0 359 -154t138 -401q0 -249 -138 -403t-359 -154zM961 31q188 0 300.5 130.5t112.5 346.5q0 215 -112.5 345t-300.5 130t-301 -130.5t-113 -344.5
q0 -216 113 -346.5t301 -130.5z" />
    <glyph glyph-name="uni044F" unicode="&#x44f;" horiz-adv-x="1060" 
d="M106 0l349 412q-162 3 -257.5 89.5t-95.5 221.5q0 138 101.5 220.5t271.5 82.5h408v-1026h-84v410h-244l-342 -410h-107zM475 489h324v457h-324q-135 0 -212 -59.5t-77 -163.5q0 -105 78.5 -169.5t210.5 -64.5z" />
    <glyph glyph-name="uni0451" unicode="&#x451;" horiz-adv-x="1294" 
d="M442 1245q-32 0 -51.5 20t-19.5 52t19.5 52t51.5 20t52 -20t20 -52t-20 -52t-52 -20zM868 1245q-32 0 -51.5 20t-19.5 52t19.5 52t51.5 20t52 -20t20 -52t-20 -52t-52 -20zM659 -41q-243 0 -399 157t-156 400q0 240 156 395.5t397 155.5q233 0 384 -156t151 -395v-31
h-1004q9 -196 141 -321t330 -125q141 0 260.5 77.5t163.5 198.5l78 -22q-53 -148 -192.5 -241t-309.5 -93zM190 565h914q-14 186 -138.5 304t-310.5 118q-192 0 -321 -118t-144 -304z" />
    <glyph glyph-name="uni0452" unicode="&#x452;" horiz-adv-x="1230" 
d="M637 -203q-71 0 -178 21v80q89 -21 168 -21q167 0 264.5 94t97.5 279v350q0 171 -94.5 279t-253.5 108t-269 -107t-110 -268v-612h-84v1274h-184v80h184v143h84v-143h283v-80h-283v-445h14q48 109 147.5 173.5t227.5 64.5q191 0 306.5 -131t115.5 -336v-352
q0 -220 -117.5 -335.5t-318.5 -115.5z" />
    <glyph glyph-name="uni0453" unicode="&#x453;" horiz-adv-x="888" 
d="M424 1260l221 237h109l-224 -237h-106zM178 0v1026h658v-80h-574v-946h-84z" />
    <glyph glyph-name="uni0454" unicode="&#x454;" horiz-adv-x="1220" 
d="M637 -41q-233 0 -384 156t-151 399q0 241 151 397t384 156q174 0 309.5 -102t169.5 -260l-82 -13q-34 129 -145.5 212t-251.5 83q-188 0 -313.5 -121.5t-137.5 -314.5h619v-78h-619q14 -191 139 -312.5t312 -121.5q141 0 253 78.5t144 199.5l82 -14q-37 -149 -172 -246.5
t-307 -97.5z" />
    <glyph glyph-name="uni0455" unicode="&#x455;" horiz-adv-x="1048" 
d="M547 -41q-198 0 -320.5 102t-122.5 265h82q0 -128 100 -208.5t261 -80.5q138 0 226.5 58.5t88.5 156.5q0 29 -6 53.5t-13 43.5t-24 35.5t-28.5 27t-38.5 21t-40.5 16t-47.5 12.5t-48 9.5t-53.5 8.5t-52.5 8q-48 7 -80 13t-75.5 17.5t-72.5 25t-60.5 35.5t-50 49.5
t-30.5 66.5t-12 86q0 128 105.5 207.5t275.5 79.5q183 0 293.5 -93t109.5 -247h-82q1 119 -87.5 190.5t-235.5 71.5q-132 0 -214.5 -56t-82.5 -147q0 -50 17.5 -87t44 -58t70 -36.5t82 -23t94.5 -15.5q6 -1 9 -1h1h2q172 -27 244 -57q152 -63 167 -215q2 -18 2 -37
q0 -136 -110.5 -216.5t-286.5 -80.5z" />
    <glyph glyph-name="uni0456" unicode="&#x456;" horiz-adv-x="473" 
d="M238 1245q-33 0 -53.5 20.5t-20.5 53.5t20.5 53.5t53.5 20.5q32 0 52.5 -21t20.5 -53t-20.5 -53t-52.5 -21zM195 0v1026h84v-1026h-84z" />
    <glyph glyph-name="uni0457" unicode="&#x457;" horiz-adv-x="411" 
d="M-20 1245q-32 0 -52 20t-20 52t20 52t52 20t51.5 -20t19.5 -52t-19.5 -52t-51.5 -20zM406 1245q-32 0 -52 20t-20 52t20 52t52 20t51.5 -20t19.5 -52t-19.5 -52t-51.5 -20zM164 0v1026h84v-1026h-84z" />
    <glyph glyph-name="uni0458" unicode="&#x458;" horiz-adv-x="462" 
d="M227 1245q-32 0 -52.5 21t-20.5 53q0 33 20 53.5t53 20.5q32 0 53 -21t21 -53q0 -31 -21 -52.5t-53 -21.5zM43 -453q-66 0 -145 27v80q75 -27 133 -27q69 0 112 45.5t43 116.5v1237h82v-1235q0 -106 -63.5 -175t-161.5 -69z" />
    <glyph glyph-name="uni0459" unicode="&#x459;" horiz-adv-x="1515" 
d="M20 0v78q101 0 145.5 77t65.5 240l76 631h555v-463h230q155 0 248.5 -78t93.5 -204t-94 -203.5t-248 -77.5h-314v948h-391l-78 -594q-24 -174 -93 -264t-196 -90zM862 80h230q118 0 188 55t70 146t-70.5 146.5t-187.5 55.5h-230v-403z" />
    <glyph glyph-name="uni045A" unicode="&#x45a;" horiz-adv-x="1511" 
d="M178 0v1026h84v-463h512v463h84v-463h229q155 0 249 -78t94 -204t-94.5 -203.5t-248.5 -77.5h-313v483h-512v-483h-84zM858 80h229q118 0 188.5 55t70.5 146t-71 146.5t-188 55.5h-229v-403z" />
    <glyph glyph-name="uni045B" unicode="&#x45b;" horiz-adv-x="1230" 
d="M178 0v1274h-184v80h184v143h84v-143h283v-80h-283v-445h14q48 109 147.5 173.5t227.5 64.5q191 0 306.5 -131t115.5 -336v-600h-84v600q0 171 -94.5 279t-253.5 108t-269 -107t-110 -268v-612h-84z" />
    <glyph glyph-name="uni045C" unicode="&#x45c;" horiz-adv-x="950" 
d="M465 1260l221 237h109l-226 -237h-104zM178 0v1026h84v-457h14l517 457h120l-561 -491l580 -535h-121l-535 496h-14v-496h-84z" />
    <glyph glyph-name="uni045E" unicode="&#x45e;" horiz-adv-x="1103" 
d="M555 1245q-109 0 -179.5 71t-70.5 181h78q0 -77 48.5 -127.5t123.5 -50.5q76 0 125 50.5t49 127.5h78q0 -110 -71.5 -181t-180.5 -71zM229 -453q-62 0 -129 23v80q79 -23 125 -23q31 0 59 10.5t50.5 25.5t46 45.5t40 56t39.5 72t37.5 79.5t39.5 92l-482 1018h88l428 -903
h15l370 903h88l-426 -1030q-36 -90 -63 -148.5t-64.5 -121t-73.5 -98t-84 -58.5t-104 -23z" />
    <glyph glyph-name="uni045F" unicode="&#x45f;" horiz-adv-x="1236" 
d="M575 -307v307h-397v1026h84v-946h713v946h82v-1026h-398v-307h-84z" />
    <glyph glyph-name="uni0490" unicode="&#x490;" horiz-adv-x="1224" 
d="M186 0v1436h895v215h82v-295h-891v-1356h-86z" />
    <glyph glyph-name="uni0491" unicode="&#x491;" horiz-adv-x="888" 
d="M178 0v1026h578v178h80v-258h-574v-946h-84z" />
    <glyph glyph-name="Wgrave" unicode="&#x1e80;" horiz-adv-x="2043" 
d="M1075 1585h-108l-191 193h113zM500 0l-430 1436h88l405 -1356h17l376 1356h134l376 -1356h17l405 1356h86l-428 -1436h-143l-371 1341h-18l-371 -1341h-143z" />
    <glyph glyph-name="wgrave" unicode="&#x1e81;" horiz-adv-x="1699" 
d="M797 1260l-222 237h105l223 -237h-106zM414 0l-357 1026h88l324 -938h14l303 938h121l310 -938h12l323 938h88l-356 -1026h-125l-305 932h-14l-301 -932h-125z" />
    <glyph glyph-name="Wacute" unicode="&#x1e82;" horiz-adv-x="2043" 
d="M975 1585l186 193h113l-191 -193h-108zM500 0l-430 1436h88l405 -1356h17l376 1356h134l376 -1356h17l405 1356h86l-428 -1436h-143l-371 1341h-18l-371 -1341h-143z" />
    <glyph glyph-name="wacute" unicode="&#x1e83;" horiz-adv-x="1699" 
d="M905 1260h-106l223 237h104zM414 0l-357 1026h88l324 -938h14l303 938h121l310 -938h12l323 938h88l-356 -1026h-125l-305 932h-14l-301 -932h-125z" />
    <glyph glyph-name="Wdieresis" unicode="&#x1e84;" horiz-adv-x="2043" 
d="M813 1618q-31 0 -52.5 21t-21.5 53q0 31 21.5 52t52.5 21q32 0 53 -21t21 -52q0 -32 -21 -53t-53 -21zM1237 1618q-32 0 -53 21t-21 53q0 31 21 52t53 21q31 0 52.5 -21t21.5 -52q0 -32 -21.5 -53t-52.5 -21zM500 0l-430 1436h88l405 -1356h17l376 1356h134l376 -1356h17
l405 1356h86l-428 -1436h-143l-371 1341h-18l-371 -1341h-143z" />
    <glyph glyph-name="wdieresis" unicode="&#x1e85;" horiz-adv-x="1699" 
d="M637 1245q-32 0 -52 20t-20 52t20 52t52 20t52 -20t20 -52t-20 -52t-52 -20zM1063 1245q-32 0 -52 20t-20 52t20 52t52 20t52 -20t20 -52t-20 -52t-52 -20zM414 0l-357 1026h88l324 -938h14l303 938h121l310 -938h12l323 938h88l-356 -1026h-125l-305 932h-14l-301 -932
h-125z" />
    <glyph glyph-name="uni1E9E" unicode="&#x1e9e;" horiz-adv-x="1306" 
d="M748 -51q-156 0 -281 71v95q54 -38 127.5 -61t148.5 -23q154 0 248 90.5t94 238.5q0 167 -135 267t-354 100h-72v82h76q159 0 261 76t102 200q0 126 -94.5 212.5t-237.5 86.5q-166 0 -272.5 -113.5t-106.5 -291.5v-979h-86v983q0 211 131.5 348t333.5 137
q179 0 298.5 -109t119.5 -267q0 -126 -76.5 -204.5t-212.5 -107.5v-14q188 -24 299.5 -132t111.5 -280q0 -175 -120 -290t-303 -115z" />
    <glyph glyph-name="Ygrave" unicode="&#x1ef2;" horiz-adv-x="1179" 
d="M641 1585h-109l-188 193h111zM549 0v580l-502 856h96l441 -758h14l440 758h97l-500 -856v-580h-86z" />
    <glyph glyph-name="ygrave" unicode="&#x1ef3;" horiz-adv-x="1103" 
d="M504 1260l-223 237h106l223 -237h-106zM229 -453q-62 0 -129 23v80q79 -23 125 -23q31 0 59 10.5t50.5 25.5t46 45.5t40 56t39.5 72t37.5 79.5t39.5 92l-482 1018h88l428 -903h15l370 903h88l-426 -1030q-36 -90 -63 -148.5t-64.5 -121t-73.5 -98t-84 -58.5t-104 -23z
" />
    <glyph glyph-name="endash" unicode="&#x2013;" horiz-adv-x="1372" 
d="M102 606v80h1168v-80h-1168z" />
    <glyph glyph-name="emdash" unicode="&#x2014;" horiz-adv-x="1781" 
d="M102 606v80h1577v-80h-1577z" />
    <glyph glyph-name="quoteleft" unicode="&#x2018;" horiz-adv-x="378" 
d="M231 1483l45 -17l-88 -215q27 -6 42.5 -25t15.5 -46q0 -31 -20 -51.5t-52 -20.5t-52 20.5t-20 51.5q0 16 13 49z" />
    <glyph glyph-name="quoteright" unicode="&#x2019;" horiz-adv-x="364" 
d="M133 1108l-45 14l88 217q-26 5 -41.5 24t-15.5 48q0 31 19.5 51.5t51.5 20.5t52 -20.5t20 -51.5q0 -17 -12 -51z" />
    <glyph glyph-name="quotesinglbase" unicode="&#x201a;" horiz-adv-x="364" 
d="M133 -254l-45 16l88 218q-26 5 -41.5 23.5t-15.5 47.5q0 30 19.5 50t51.5 20t52 -20t20 -50q0 -21 -12 -51z" />
    <glyph glyph-name="quotedblleft" unicode="&#x201c;" horiz-adv-x="626" 
d="M231 1483l45 -17l-88 -215q27 -6 42.5 -25t15.5 -46q0 -31 -20 -51.5t-52 -20.5t-52 20.5t-20 51.5q0 16 13 49zM479 1483l45 -17l-90 -215q28 -6 44 -24.5t16 -46.5q0 -31 -20 -51.5t-52 -20.5t-52 20.5t-20 51.5q0 25 12 49z" />
    <glyph glyph-name="quotedblright" unicode="&#x201d;" horiz-adv-x="608" 
d="M131 1108l-45 14l90 217q-27 5 -43 24t-16 48q0 31 20 51.5t51 20.5q32 0 53 -20.5t21 -51.5q0 -19 -14 -51zM377 1108l-45 14l90 217q-28 5 -44 24t-16 48q0 31 20 51.5t52 20.5t52 -20.5t20 -51.5q0 -23 -12 -51z" />
    <glyph glyph-name="quotedblbase" unicode="&#x201e;" horiz-adv-x="610" 
d="M131 -254l-45 16l90 218q-59 10 -59 71q0 30 19.5 50t51.5 20t52 -20t20 -50q0 -27 -12 -51zM379 -254l-45 16l90 218q-59 10 -59 71q0 30 19.5 50t51.5 20t52 -20t20 -50q0 -27 -12 -51z" />
    <glyph glyph-name="dagger" unicode="&#x2020;" horiz-adv-x="1044" 
d="M481 -457v1065h-379v78h379v801h82v-801h379v-78h-379v-1065h-82z" />
    <glyph glyph-name="daggerdbl" unicode="&#x2021;" horiz-adv-x="1167" 
d="M543 -471v823h-441v78h441v438h-441v76h441v553h82v-553h440v-76h-440v-438h440v-78h-440v-823h-82z" />
    <glyph glyph-name="bullet" unicode="&#x2022;" horiz-adv-x="360" 
d="M180 559q-33 0 -54.5 21.5t-21.5 54.5t21.5 54.5t54.5 21.5q34 0 56 -22t22 -54t-22 -54t-56 -22z" />
    <glyph glyph-name="ellipsis" unicode="&#x2026;" horiz-adv-x="915" 
d="M174 -23q-32 0 -52 21t-20 53q0 30 20 50t52 20q31 0 51.5 -20.5t20.5 -49.5q0 -32 -20.5 -53t-51.5 -21zM457 -23q-31 0 -51.5 21t-20.5 53q0 29 20.5 49.5t51.5 20.5q32 0 52.5 -20t20.5 -50q0 -32 -20.5 -53t-52.5 -21zM741 -23q-32 0 -51.5 20.5t-19.5 53.5
q0 30 19.5 50t51.5 20q31 0 51.5 -20.5t20.5 -49.5q0 -32 -20.5 -53t-51.5 -21z" />
    <glyph glyph-name="perthousand" unicode="&#x2030;" horiz-adv-x="3057" 
d="M518 696q-181 0 -297.5 116t-116.5 296q0 179 117.5 294.5t298.5 115.5q180 0 296 -115.5t116 -294.5q0 -180 -116.5 -296t-297.5 -116zM481 0l1028 1497h97l-1028 -1497h-97zM520 780q144 0 237 93.5t93 236.5q0 141 -93 232.5t-237 91.5q-145 0 -238.5 -91.5
t-93.5 -232.5q0 -143 94 -236.5t238 -93.5zM1567 -20q-181 0 -297.5 115t-116.5 294q0 180 117 296t299 116q179 0 295 -116t116 -296q0 -179 -116 -294t-297 -115zM2542 -23q-180 0 -297 116t-117 296q0 178 117 294t297 116t296.5 -115.5t116.5 -294.5q0 -180 -116 -296
t-297 -116zM1569 63q143 0 236 93t93 235q0 141 -93.5 233.5t-235.5 92.5q-144 0 -238 -92.5t-94 -233.5q0 -143 93.5 -235.5t238.5 -92.5zM2544 61q142 0 234.5 92.5t92.5 235.5q0 142 -92 234t-235 92q-146 0 -239 -91.5t-93 -234.5t93 -235.5t239 -92.5z" />
    <glyph glyph-name="guilsinglleft" unicode="&#x2039;" horiz-adv-x="688" 
d="M479 0l-424 514l424 512h105l-424 -512l424 -514h-105z" />
    <glyph glyph-name="guilsinglright" unicode="&#x203a;" horiz-adv-x="686" 
d="M209 0h-107l426 514l-426 512h105l424 -512z" />
    <glyph glyph-name="lira" unicode="&#x20a4;" horiz-adv-x="1171" 
d="M104 0v119q56 7 96 41t72 115.5t45 211.5h-194v72h201q6 65 6 139h-207v74h207v346q0 161 98.5 265t249.5 104q159 0 267 -115.5t116 -292.5h-82q-8 143 -91.5 235.5t-207.5 92.5q-117 0 -191.5 -81.5t-74.5 -207.5v-346h544v-74h-544q0 -72 -6 -139h550v-72h-557
q-18 -173 -66 -265.5t-132 -131.5v-14h864v-76h-963z" />
    <glyph glyph-name="Euro" unicode="&#x20ac;" horiz-adv-x="1814" 
d="M1012 31q145 0 273 58.5t213.5 159t111.5 222.5l84 -18q-46 -214 -240 -359t-442 -145q-281 0 -479.5 165t-251.5 433h-177v76h164q-4 62 -4 96q0 57 6 112h-166v76h181q56 262 253 421t474 159q247 0 440.5 -150t241.5 -372l-86 -13q-42 192 -211.5 322.5t-384.5 130.5
q-242 0 -414 -136t-225 -362h757v-76h-772q-8 -49 -8 -112q0 -49 6 -96h774v-76h-761q52 -233 225 -374.5t418 -141.5z" />
    <glyph glyph-name="uni20BD" unicode="&#x20bd;" horiz-adv-x="1480" 
d="M885 571h-439v-204h601v-82h-601v-285h-86v285h-258v82h258v204h-258v82h258v783h525q237 0 367 -118t130 -314q0 -195 -130.5 -314t-366.5 -119zM446 1354v-701h439q200 0 305.5 96t105.5 255q0 158 -106 254t-305 96h-439z" />
    <glyph glyph-name="uni2116" unicode="&#x2116;" horiz-adv-x="1732" 
d="M186 0v1436h119l707 -1303h12v1303h86v-1436h-123l-702 1300h-15v-1300h-84zM1436 584q-80 0 -132.5 52.5t-52.5 131.5q0 81 52.5 132.5t132.5 51.5q82 0 133 -51t51 -133q0 -80 -52 -132t-132 -52zM1436 657q49 0 80.5 31.5t31.5 79.5t-31.5 79.5t-80.5 31.5t-81 -31.5
t-32 -79.5t32 -79.5t81 -31.5zM1237 346v74h393v-74h-393z" />
    <glyph glyph-name="trademark" unicode="&#x2122;" horiz-adv-x="2158" 
d="M346 307v1053h-323v76h725v-76h-324v-1053h-78zM928 307v1129h137l387 -1016h14l385 1016h140v-1129h-78v1032h-12l-400 -1032h-86l-397 1032h-12v-1032h-78z" />
    <glyph glyph-name="arrowleft" unicode="&#x2190;" horiz-adv-x="1310" 
d="M510 102l-408 416l408 416h113l-367 -371v-4h952v-82h-952v-4l367 -371h-113z" />
    <glyph glyph-name="arrowup" unicode="&#x2191;" horiz-adv-x="1036" 
d="M477 0v952h-4l-371 -366v112l416 408l416 -408v-112l-371 366h-4v-952h-82z" />
    <glyph glyph-name="arrowright" unicode="&#x2192;" horiz-adv-x="1310" 
d="M688 102l367 371v4h-953v82h953v4l-367 371h113l407 -416l-407 -416h-113z" />
    <glyph glyph-name="arrowdown" unicode="&#x2193;" horiz-adv-x="1036" 
d="M518 0l-416 408v112l371 -366h4v952h82v-952h4l371 366v-112z" />
    <glyph glyph-name="uni2196" unicode="&#x2196;" horiz-adv-x="1019" 
d="M862 133l-674 674l-4 -2l-2 -522l-80 79l7 582l581 6l82 -80l-524 -2l-4 -4l674 -674z" />
    <glyph glyph-name="uni2197" unicode="&#x2197;" horiz-adv-x="1019" 
d="M160 133l-58 57l674 674l-2 4l-522 2l78 80l583 -6l5 -582l-78 -79l-2 522l-4 2z" />
    <glyph glyph-name="uni2198" unicode="&#x2198;" horiz-adv-x="1019" 
d="M330 156l-78 80l522 2l2 4l-674 673l58 58l674 -674l4 2l2 524l78 -82l-5 -581z" />
    <glyph glyph-name="uni2199" unicode="&#x2199;" horiz-adv-x="1019" 
d="M690 156l-581 6l-7 581l80 82l2 -524l4 -2l674 674l56 -58l-674 -673l4 -4l524 -2z" />
    <glyph glyph-name="minus" unicode="&#x2212;" horiz-adv-x="1048" 
d="M104 696v80h840v-80h-840z" />
    <glyph glyph-name="notequal" unicode="&#x2260;" horiz-adv-x="1169" 
d="M283 0l161 434h-340v80h371l156 416h-527v80h558l141 374h82l-140 -374h322v-80h-352l-156 -416h508v-80h-539l-161 -434h-84z" />
    <glyph glyph-name="lessequal" unicode="&#x2264;" horiz-adv-x="907" 
d="M805 391l-703 357v112l703 352v-88l-631 -313v-14l629 -316zM102 164v80h703v-80h-703z" />
    <glyph glyph-name="greaterequal" unicode="&#x2265;" horiz-adv-x="907" 
d="M102 391l2 90l629 316v14l-631 313v88l703 -352v-112zM805 164h-703v80h703v-80z" />
    <glyph glyph-name="uniF6C3" unicode="&#xf6c3;" horiz-adv-x="0" 
d="M-213 -487l-41 16l70 166q-28 5 -46 23.5t-18 45.5q0 31 20 51.5t52 20.5t52 -20.5t20 -51.5q0 -23 -13 -49z" />
    <glyph glyph-name="uni0430.alt1" unicode="&#xfb00;" horiz-adv-x="1357" 
d="M635 -41q-232 0 -382.5 156t-150.5 399q0 241 150.5 397t382.5 156q154 0 268 -74.5t174 -204.5h17v238h84v-1026h-84v242h-15q-60 -132 -174.5 -207.5t-269.5 -75.5zM639 39q193 0 324 135t131 340q0 203 -131 338t-324 135q-198 0 -325.5 -133.5t-127.5 -339.5
t127.5 -340.5t325.5 -134.5z" />
    <glyph glyph-name="a.alt1" horiz-adv-x="1357" 
d="M635 -41q-232 0 -382.5 156t-150.5 399q0 241 150.5 397t382.5 156q154 0 268 -74.5t174 -204.5h17v238h84v-1026h-84v242h-15q-60 -132 -174.5 -207.5t-269.5 -75.5zM639 39q193 0 324 135t131 340q0 203 -131 338t-324 135q-198 0 -325.5 -133.5t-127.5 -339.5
t127.5 -340.5t325.5 -134.5z" />
    <glyph glyph-name="agrave.alt1" horiz-adv-x="1357" 
d="M590 1260l-221 237h104l223 -237h-106zM635 -41q-232 0 -382.5 156t-150.5 399q0 241 150.5 397t382.5 156q154 0 268 -74.5t174 -204.5h17v238h84v-1026h-84v242h-15q-60 -132 -174.5 -207.5t-269.5 -75.5zM639 39q193 0 324 135t131 340q0 203 -131 338t-324 135
q-198 0 -325.5 -133.5t-127.5 -339.5t127.5 -340.5t325.5 -134.5z" />
    <glyph glyph-name="aacute.alt1" horiz-adv-x="1357" 
d="M698 1260h-106l223 237h107zM635 -41q-232 0 -382.5 156t-150.5 399q0 241 150.5 397t382.5 156q154 0 268 -74.5t174 -204.5h17v238h84v-1026h-84v242h-15q-60 -132 -174.5 -207.5t-269.5 -75.5zM639 39q193 0 324 135t131 340q0 203 -131 338t-324 135
q-198 0 -325.5 -133.5t-127.5 -339.5t127.5 -340.5t325.5 -134.5z" />
    <glyph glyph-name="atilde.alt1" horiz-adv-x="1357" 
d="M762 1260q-43 0 -83.5 19t-66.5 41t-59.5 41t-65.5 19q-37 0 -69 -20t-51 -53l-58 39q23 49 72.5 79.5t105.5 30.5q41 0 81 -19t66.5 -42.5t61 -42.5t66.5 -19q41 0 77.5 22t49.5 56l65 -35q-23 -51 -76 -83.5t-116 -32.5zM635 -41q-232 0 -382.5 156t-150.5 399
q0 241 150.5 397t382.5 156q154 0 268 -74.5t174 -204.5h17v238h84v-1026h-84v242h-15q-60 -132 -174.5 -207.5t-269.5 -75.5zM639 39q193 0 324 135t131 340q0 203 -131 338t-324 135q-198 0 -325.5 -133.5t-127.5 -339.5t127.5 -340.5t325.5 -134.5z" />
    <glyph glyph-name="adieresis.alt1" horiz-adv-x="1357" 
d="M430 1245q-32 0 -52 20t-20 52t20 52t52 20t52 -20t20 -52t-20 -52t-52 -20zM856 1245q-32 0 -52 20t-20 52t20 52t52 20t52 -20t20 -52t-20 -52t-52 -20zM635 -41q-232 0 -382.5 156t-150.5 399q0 241 150.5 397t382.5 156q154 0 268 -74.5t174 -204.5h17v238h84v-1026
h-84v242h-15q-60 -132 -174.5 -207.5t-269.5 -75.5zM639 39q193 0 324 135t131 340q0 203 -131 338t-324 135q-198 0 -325.5 -133.5t-127.5 -339.5t127.5 -340.5t325.5 -134.5z" />
    <glyph glyph-name="aring.alt1" horiz-adv-x="1357" 
d="M645 1176q-88 0 -144.5 55t-56.5 141q0 88 56.5 143.5t144.5 55.5q87 0 143 -56t56 -143q0 -86 -56 -141t-143 -55zM645 1235q59 0 98 39.5t39 97.5q0 60 -39 99.5t-98 39.5q-60 0 -99.5 -39.5t-39.5 -99.5q0 -59 39.5 -98t99.5 -39zM635 -41q-232 0 -382.5 156
t-150.5 399q0 241 150.5 397t382.5 156q154 0 268 -74.5t174 -204.5h17v238h84v-1026h-84v242h-15q-60 -132 -174.5 -207.5t-269.5 -75.5zM639 39q193 0 324 135t131 340q0 203 -131 338t-324 135q-198 0 -325.5 -133.5t-127.5 -339.5t127.5 -340.5t325.5 -134.5z" />
    <glyph glyph-name="amacron.alt1" horiz-adv-x="1357" 
d="M358 1262v77h576v-77h-576zM635 -41q-232 0 -382.5 156t-150.5 399q0 241 150.5 397t382.5 156q154 0 268 -74.5t174 -204.5h17v238h84v-1026h-84v242h-15q-60 -132 -174.5 -207.5t-269.5 -75.5zM639 39q193 0 324 135t131 340q0 203 -131 338t-324 135
q-198 0 -325.5 -133.5t-127.5 -339.5t127.5 -340.5t325.5 -134.5z" />
    <glyph glyph-name="abreve.alt1" horiz-adv-x="1357" 
d="M643 1245q-110 0 -181 71t-71 181h78q0 -77 49 -127.5t125 -50.5q75 0 124.5 50.5t49.5 127.5h78q0 -110 -72 -181t-180 -71zM635 -41q-232 0 -382.5 156t-150.5 399q0 241 150.5 397t382.5 156q154 0 268 -74.5t174 -204.5h17v238h84v-1026h-84v242h-15
q-60 -132 -174.5 -207.5t-269.5 -75.5zM639 39q193 0 324 135t131 340q0 203 -131 338t-324 135q-198 0 -325.5 -133.5t-127.5 -339.5t127.5 -340.5t325.5 -134.5z" />
    <glyph glyph-name="aogonek.alt1" horiz-adv-x="1357" 
d="M1094 1026h84v-1026h-7q-151 -77 -209.5 -131.5t-58.5 -110.5q0 -46 28 -72t75 -26q63 0 139 49v-71q-76 -48 -150 -48q-71 0 -116 46t-45 118q0 71 60 134.5t200 136.5v217h-15q-60 -132 -174.5 -207.5t-269.5 -75.5q-232 0 -382.5 156t-150.5 399q0 241 150.5 397
t382.5 156q154 0 268 -74.5t174 -204.5h17v238zM639 39q193 0 324 135t131 340q0 203 -131 338t-324 135q-198 0 -325.5 -133.5t-127.5 -339.5t127.5 -340.5t325.5 -134.5z" />
    <glyph glyph-name="acircumflex.alt1" horiz-adv-x="1357" 
d="M391 1260l203 237h102l203 -237h-96l-152 170h-12l-152 -170h-96zM635 -41q-232 0 -382.5 156t-150.5 399q0 241 150.5 397t382.5 156q154 0 268 -74.5t174 -204.5h17v238h84v-1026h-84v242h-15q-60 -132 -174.5 -207.5t-269.5 -75.5zM639 39q193 0 324 135t131 340
q0 203 -131 338t-324 135q-198 0 -325.5 -133.5t-127.5 -339.5t127.5 -340.5t325.5 -134.5z" />
    <glyph glyph-name="IJacute" horiz-adv-x="1351" 
d="M162 1585l188 193h111l-189 -193h-110zM1036 1585l187 193h112l-190 -193h-109zM186 0v1436h86v-1436h-86zM750 -41q-116 0 -244 41v82q138 -41 239 -41q145 0 233.5 100t88.5 289v1006h86v-1006q0 -224 -111.5 -347.5t-291.5 -123.5z" />
    <glyph glyph-name="ijacute" horiz-adv-x="833" 
d="M164 1241l209 256h102l-211 -256h-100zM584 1241l209 256h102l-213 -256h-98zM176 0v1026h82v-1026h-82zM457 -451q-67 0 -146 27v78q86 -29 135 -27q69 0 111.5 45t42.5 117v1237h84v-1237q0 -104 -64.5 -172t-162.5 -68z" />
    <glyph glyph-name="acute.case" horiz-adv-x="505" 
d="M104 1585l187 193h110l-188 -193h-109z" />
    <glyph glyph-name="breve.case" horiz-adv-x="690" 
d="M346 1565q-106 0 -174 60.5t-68 152.5h82q0 -61 45 -99.5t115 -38.5q71 0 115.5 38.5t44.5 99.5h82q0 -92 -68 -152.5t-174 -60.5z" />
    <glyph glyph-name="caron.case" horiz-adv-x="731" 
d="M311 1585l-209 193h109l147 -131h15l145 131h109l-209 -193h-107z" />
    <glyph glyph-name="caron.alt1" horiz-adv-x="364" 
d="M152 1133l-41 16l69 166q-28 5 -45.5 23.5t-17.5 45.5q0 31 19.5 51.5t51.5 20.5t52 -20.5t20 -51.5q0 -25 -12 -49z" />
    <glyph glyph-name="circumflex.case" horiz-adv-x="731" 
d="M313 1780h105l209 -195h-109l-145 131h-15l-145 -131h-109z" />
    <glyph glyph-name="dieresis.case" horiz-adv-x="776" 
d="M178 1618q-32 0 -53 21t-21 53q0 31 21 52t53 21q31 0 52.5 -21t21.5 -52q0 -32 -21.5 -53t-52.5 -21zM600 1618q-32 0 -53 21t-21 53q0 31 21 52t53 21q31 0 52.5 -21t21.5 -52q0 -32 -21.5 -53t-52.5 -21z" />
    <glyph glyph-name="dotaccent.case" horiz-adv-x="354" 
d="M178 1618q-32 0 -53 21t-21 53t21 52.5t53 20.5q31 0 52.5 -20.5t21.5 -52.5t-21.5 -53t-52.5 -21z" />
    <glyph glyph-name="grave.case" horiz-adv-x="503" 
d="M401 1585h-110l-189 193h111z" />
    <glyph glyph-name="hungarumlaut.case" horiz-adv-x="817" 
d="M104 1585l175 193h108l-178 -193h-105zM430 1585l174 193h111l-183 -193h-102z" />
    <glyph glyph-name="ring.case" horiz-adv-x="567" 
d="M285 1561q-78 0 -129.5 50t-51.5 128q0 76 51.5 126t129.5 50t128 -49.5t50 -126.5q0 -78 -50.5 -128t-127.5 -50zM285 1626q48 0 80 32t32 81q0 48 -31.5 79t-80.5 31t-81 -31.5t-32 -78.5q0 -50 31 -81.5t82 -31.5z" />
    <glyph glyph-name="tilde.case" horiz-adv-x="851" 
d="M549 1606q-37 0 -67.5 10.5t-52 26t-41.5 31t-44.5 26t-52.5 10.5q-40 0 -74 -21t-55 -55l-58 37q22 50 74 80.5t115 30.5q43 0 79.5 -16.5t58 -36t54 -36t68.5 -16.5q45 0 80 22t53 58l62 -33q-23 -53 -77.5 -85.5t-121.5 -32.5z" />
    <glyph glyph-name="uni0432.alt1" horiz-adv-x="1189" 
d="M629 -41q-211 0 -337 129t-126 344v610q0 200 115.5 323.5t304.5 123.5q158 0 258 -87t100 -224q0 -110 -75 -204t-185 -147q179 -6 291 -119t112 -307q0 -201 -124.5 -321.5t-333.5 -120.5zM250 741q610 163 610 433q0 104 -76 168.5t-198 64.5q-155 0 -245.5 -98.5
t-90.5 -264.5v-303zM629 37q172 0 274.5 100t102.5 266q0 177 -110.5 273t-305.5 96q-187 -73 -340 -115v-229q0 -179 102.5 -285t276.5 -106z" />
    <glyph glyph-name="uni0433.alt" horiz-adv-x="1048" 
d="M502 -41q-175 0 -285.5 80.5t-110.5 216.5q0 71 27 123.5t57 81.5t100 52.5t104.5 30t121.5 20.5q3 1 4 1q146 22 200 44q112 46 118 162v15q0 91 -82 147t-213 56q-148 0 -237 -71t-89 -191h-82q-1 153 111 246.5t295 93.5q169 0 274 -79.5t105 -207.5q0 -47 -12 -86
t-30.5 -66.5t-49.5 -49.5t-60 -35.5t-72 -25t-75.5 -17.5t-79.5 -13q-15 -2 -44 -7q-36 -5 -54 -8t-50 -9.5t-49 -12.5t-42 -16t-39 -21t-30.5 -27t-24.5 -35t-14 -44t-6 -55q0 -98 88 -156.5t226 -58.5q162 0 261 80.5t99 208.5h82q0 -163 -121.5 -265t-320.5 -102z" />
    <glyph glyph-name="uni0414.alt1" horiz-adv-x="1619" 
d="M27 -307v389h184l532 1354h131l533 -1354h188v-389h-84v307h-1402v-307h-82zM301 82h1014l-500 1270h-12z" />
    <glyph glyph-name="uni0434.alt1" horiz-adv-x="1355" 
d="M657 -512q-205 0 -353 108.5t-177 280.5l84 19q23 -145 147.5 -236.5t300.5 -91.5q191 0 313 122t122 314v225h-15q-64 -126 -178.5 -197t-263.5 -71q-232 0 -382.5 156t-150.5 397q0 240 151 396.5t382 156.5q151 0 265 -72t179 -200h13v231h84v-1022
q0 -227 -146 -371.5t-375 -144.5zM641 41q198 0 326.5 133.5t128.5 339.5q0 205 -129.5 339t-325.5 134q-199 0 -326 -133.5t-127 -339.5q0 -205 129.5 -339t323.5 -134z" />
    <glyph glyph-name="uni0437.alt1" horiz-adv-x="1085" 
d="M526 -512q-196 0 -325 119t-129 301h82q0 -149 105 -244.5t267 -95.5q170 0 273.5 96.5t103.5 253.5q0 149 -89 242.5t-226 93.5h-277v80h277q123 0 197.5 93.5t74.5 234.5q0 147 -92.5 236t-243.5 89q-146 0 -241 -90.5t-95 -230.5h-84q-6 172 113 286.5t307 114.5
q186 0 302 -109t116 -286q0 -141 -60.5 -237.5t-148.5 -129.5v-14q104 -28 179 -131t75 -246q0 -192 -127 -309t-334 -117z" />
    <glyph glyph-name="uni0436.alt" horiz-adv-x="1390" 
d="M51 0l518 535l-501 491h112l459 -453h14v924h84v-924h15l458 453h113l-502 -491l518 -535h-110l-477 492h-15v-492h-84v492h-14l-477 -492h-111z" />
    <glyph glyph-name="uni0438.alt1" 
d="M1053 1026v-1026h-84v188h-15q-52 -106 -150 -167.5t-224 -61.5q-191 0 -306.5 131.5t-115.5 337.5v598h84v-598q0 -172 94.5 -280.5t253.5 -108.5q158 0 268.5 107.5t110.5 267.5v612h84z" />
    <glyph glyph-name="uni0439.alt1" 
d="M590 1245q-110 0 -181 71t-71 181h78q0 -77 49 -127.5t125 -50.5q75 0 124.5 50.5t49.5 127.5h78q0 -110 -72 -181t-180 -71zM1053 1026v-1026h-84v188h-15q-52 -106 -150 -167.5t-224 -61.5q-191 0 -306.5 131.5t-115.5 337.5v598h84v-598q0 -172 94.5 -280.5
t253.5 -108.5q158 0 268.5 107.5t110.5 267.5v612h84z" />
    <glyph glyph-name="uni043A.alt1" horiz-adv-x="950" 
d="M178 0v1497h84v-928h14l517 457h122l-563 -491l580 -535h-121l-535 496h-14v-496h-84z" />
    <glyph glyph-name="uni041B.alt1" horiz-adv-x="1333" 
d="M45 0l557 1436h131l557 -1436h-92l-524 1352h-12l-525 -1352h-92z" />
    <glyph glyph-name="uni043B.alt1" horiz-adv-x="1099" 
d="M55 0l426 1026h133l433 -1026h-93l-399 954h-14l-396 -954h-90z" />
    <glyph glyph-name="uni0442.alt1" horiz-adv-x="1888" 
d="M180 0v1026h82v-162h14q42 93 128 148t202 55q132 0 227 -69t128 -185h12q36 118 130 186t232 68q177 0 286.5 -120.5t109.5 -315.5v-631h-84v631q0 160 -87.5 258t-228.5 98q-151 0 -242.5 -98t-91.5 -258v-631h-84v631q0 161 -87 258.5t-228 97.5q-151 0 -242.5 -97.5
t-91.5 -258.5v-631h-84z" />
    <glyph glyph-name="uni043F.alt1" 
d="M180 0v1026h84v-188h12q52 106 150.5 167.5t224.5 61.5q192 0 307 -131.5t115 -337.5v-598h-84v598q0 172 -93.5 280.5t-252.5 108.5t-269 -107t-110 -268v-612h-84z" />
    <glyph glyph-name="uni0446.alt1" horiz-adv-x="1320" 
d="M1178 -305v305h-228v190h-14q-52 -105 -150 -168t-219 -63q-192 0 -300.5 130.5t-108.5 338.5v598h84v-598q0 -174 86 -281.5t243 -107.5q158 0 268.5 107.5t110.5 267.5v612h84v-946h223v-385h-79z" />
    <glyph glyph-name="uni0448.alt1" horiz-adv-x="1888" 
d="M1708 1026v-1026h-82v162h-14q-42 -93 -128 -148t-200 -55q-132 0 -226.5 68.5t-127.5 185.5h-15q-36 -118 -130 -186t-232 -68q-177 0 -286 120.5t-109 315.5v631h84v-631q0 -160 87 -258t228 -98q151 0 243.5 98t92.5 258v631h84v-631q0 -160 86 -258t227 -98
q151 0 243.5 98t92.5 258v631h82z" />
    <glyph glyph-name="uni0449.alt1" horiz-adv-x="1990" 
d="M1849 -305v305h-223v162h-14q-43 -94 -128 -148.5t-200 -54.5q-131 0 -225 69t-127 185h-14q-36 -118 -130.5 -186t-232.5 -68q-177 0 -287 120.5t-110 315.5v631h84v-631q0 -159 88 -257.5t229 -98.5q151 0 242.5 98t91.5 258v631h82v-631q0 -159 88 -257.5t229 -98.5
q150 0 241 98t91 258v631h84v-946h221v-385h-80z" />
    <glyph glyph-name="uni044A.alt1" horiz-adv-x="1099" 
d="M676 0q-157 0 -258 96.5t-101 245.5v604h-262v80h346v-342h275q157 0 259.5 -96.5t102.5 -245.5t-102.5 -245.5t-259.5 -96.5zM676 80q121 0 199.5 74t78.5 188t-78.5 188t-199.5 74h-275v-262q0 -114 77.5 -188t197.5 -74z" />
    <glyph glyph-name="uni044C.alt1" horiz-adv-x="940" 
d="M516 0q-157 0 -257.5 96.5t-100.5 245.5v684h84v-342h274q157 0 260 -96.5t103 -245.5t-103 -245.5t-260 -96.5zM516 80q121 0 200 74t79 188t-79 188t-200 74h-274v-262q0 -114 77 -188t197 -74z" />
    <glyph glyph-name="uni044E.alt1" horiz-adv-x="1560" 
d="M950 -51q-210 0 -353.5 147.5t-152.5 376.5h-182v-487h-84v1511h84v-946h182q9 148 77.5 265.5t180.5 182t248 64.5q218 0 363 -156.5t145 -398.5q0 -243 -145 -401t-363 -158zM950 29q190 0 308 132t118 347q0 213 -118 344t-308 131t-308 -131t-118 -344
q0 -215 118 -347t308 -132z" />
    <glyph glyph-name="uni0424.alt1" horiz-adv-x="1767" 
d="M840 -197v156q-155 5 -289.5 64.5t-229 159t-148.5 238.5t-54 298t54 297.5t148.5 238t228.5 159t290 65.5v133h88v-133q156 -6 289.5 -65t228.5 -158.5t149 -238t54 -298.5t-54 -299t-148.5 -238.5t-228.5 -158.5t-290 -64v-156h-88zM840 41v1354q-277 -11 -455 -200
t-178 -476t178 -477t455 -201zM928 41q277 9 456 199.5t179 478.5q0 189 -81.5 341.5t-226.5 240.5t-327 94v-1354z" />
    </font>
</defs>
</svg>
