<svg id="Layer_1" data-name="Layer 1" xmlns="http://www.w3.org/2000/svg" viewBox="0 0 289.59804 289.59804"><title>logo-s</title><path d="M144.7977,289.598C64.95649,289.598,0,224.64154,0,144.80034,0,64.95649,64.95649,0,144.7977,0,224.64154,0,289.598,64.95649,289.598,144.80034,289.598,224.64154,224.64154,289.598,144.7977,289.598Zm0-257.1396a112.34058,112.34058,0,1,0,112.3419,112.3419A112.46728,112.46728,0,0,0,144.7977,32.45844Z"/><path d="M142.20377,99.5783q-17.04147,2.74581-42.887,5.20634L90.7954,87.55431Q148.54462,83.39,190.865,69.093l10.41533,17.23034q-16.09846,5.02012-37.58554,9.56214v33.32484h48.85143v18.08353H163.50462Q163.2233,181.8523,148.641,201.732q-12.87718,17.41789-40.23493,28.874L93.54253,215.45713q28.77755-11.54587,38.90892-27.45284,9.08931-14.20056,9.75232-40.7104H82.84456V129.21036h59.35921Z"/><path d="M107.7598,233.81105,88.77288,214.457l3.7641-1.50828c18.55636-7.44631,31.21959-16.32695,37.63309-26.39625,5.44936-8.51347,8.55309-20.80161,9.23723-36.55272H80.14054V126.50644h59.35921V102.74109c-10.85381,1.65356-24.26194,3.24637-39.92588,4.73617l-1.85431.177-11.13118-22.508,4.0124-.28792c38.10327-2.74713,71.54433-8.915,99.39868-18.32655l2.05771-.69471,13.3236,22.04311-3.29392,1.02753c-10.21194,3.183-22.20952,6.26558-35.68632,9.16856v28.43019H215.252v23.49327H166.16544c-.54943,22.26234-5.70823,40.19531-15.34168,53.334-8.8463,11.96323-22.76423,21.97706-41.37342,29.76941Zm-9.48289-17.38883,10.76929,10.97269c16.84732-7.29576,29.4313-16.46431,37.42176-27.27059,9.327-12.71869,14.15038-30.50374,14.33264-52.85061l.02114-2.68374h49.02048V131.91618H160.99079V93.694l2.14488-.45433c12.73719-2.69431,24.16685-5.54446,34.03275-8.4897l-7.49914-12.407c-26.87436,8.84629-58.69356,14.7632-94.67044,17.60806l5.9169,11.96324c16.27941-1.57432,30.01771-3.25958,40.85832-5.00559l3.13543-.50453v35.512H85.55028V144.59h59.42789l-.06868,2.77355c-.45169,18.08881-3.87768,32.2524-10.18024,42.09981C128.15462,199.78886,115.90082,208.84647,98.27691,216.42222Z"/></svg>