<svg id="Layer_1" data-name="Layer 1" xmlns="http://www.w3.org/2000/svg" viewBox="0 0 652.89324 289.59804"><title>logo copy</title><path d="M171.27971,243.39713c1.50222,1.25563,2.25383,2.44123,2.25383,3.56863a9.63326,9.63326,0,0,1-1.69062,4.50765,56.01257,56.01257,0,0,1-7.13628,8.45109,125.51294,125.51294,0,0,1-15.02516,12.77035q-9.577,7.14024-24.79008,12.01974A105.81394,105.81394,0,0,1,92.40083,289.598q-39.43993,0-65.92013-25.91749Q0,237.76355,0,194.00437q0-43.75426,26.4807-69.113Q52.96139,99.53663,91.27343,99.53712q38.314,0,57.84484,27.79551h.3758l-.3758-20.65923q0-4.87655,4.88345-4.88246h14.27257q4.50813,0,4.50764,4.88246v63.85471q0,4.50814-4.50764,4.50765h-17.278q-4.50666,0-4.50764-4.50765v-6.38567q-.3773-13.52145-15.4-25.91748Q116.061,125.8309,92.964,125.83041q-23.1,0-42.25647,18.40441-19.15552,18.40836-19.156,50.14436,0,31.74636,18.78022,50.33276Q69.11,263.30524,92.40083,263.30475q23.2849,0,39.62685-9.95332,16.34-9.94839,21.974-19.34441,2.62321-4.50815,6.38468-1.12741Z"/><path d="M401.15291,286.96841H365.4705q-16.155,0-16.15157-15.77578v-98.7865q0-21.78021-10.51752-33.80537Q328.28193,126.584,308.00146,126.581q-15.40638,0-23.47625,4.69506a83.86782,83.86782,0,0,0-12.20714,8.26369,49.372,49.372,0,0,0-6.76147,6.94888,71.211,71.211,0,0,0-7.51209,12.39553V261.80253h19.90762q4.87655,0,4.88246,4.50666v16.15157q0,4.50814-4.88246,4.50765H206.20954q-4.88543,0-4.88247-4.50765V266.30919q0-4.50666,4.88247-4.50666h20.65922V42.44388H206.20954q-4.88543,0-4.88247-4.50765V21.78466q0-4.50666,4.88247-4.50666h47.32732q4.50814,0,4.50765,4.50666V105.547a163.08871,163.08871,0,0,1-1.50222,22.91207h.75062q18.39948-28.919,58.59644-28.92193,30.04638,0,46.95153,17.6538,16.90219,17.65971,17.278,47.70313v96.90848h21.034q4.878,0,4.88345,4.50666v16.15157Q406.03636,286.9689,401.15291,286.96841Z"/><path d="M474.77057,72.869q-1.88344,2.25333-3.756,2.25284a4.64717,4.64717,0,0,1-3.38024-1.50222L404.53118,23.28786a4.29974,4.29974,0,0,1-1.878-3.38123,7.27062,7.27062,0,0,1,1.12642-3.756L415.79931,2.25284C417.05494.75062,418.29972,0,419.55536,0a4.69182,4.69182,0,0,1,3.38122,1.50222l60.47348,53.33719q2.25333,1.50469,2.25383,3.38025a6.022,6.022,0,0,1-1.50321,3.756Zm34.557,214.0994H437.585q-4.88543,0-4.88247-4.50765V266.30919q0-4.50666,4.88247-4.50666h20.65922V127.33263H437.585q-4.88543,0-4.88247-4.50765V106.6734q0-4.50666,4.88247-4.50666h47.32732q4.50815,0,4.50765,4.50666V261.80253h19.90762q4.87655,0,4.88246,4.50666v16.15157Q514.21,286.9689,509.32755,286.96841Z"/><path d="M599.00684,107.73805A53.53272,53.53272,0,1,1,652.54,54.20582,53.59311,53.59311,0,0,1,599.00684,107.73805Zm0-95.06543A41.53272,41.53272,0,1,0,640.54,54.20582,41.57956,41.57956,0,0,0,599.00684,12.67262Z"/><path d="M598.04785,37.48707q-6.30029,1.01514-15.85547,1.92481L579.042,33.04176q21.3501-1.53955,36.9961-6.8252l3.85058,6.37012q-5.95166,1.85595-13.89551,3.53516V48.44215h18.06055V55.1277H605.92285q-.104,12.77636-5.49512,20.126-4.76073,6.43945-14.875,10.67481l-5.49511-5.60059q10.63915-4.26855,14.38476-10.14941,3.36036-5.25,3.60547-15.05078H576.10254V48.44215h21.94531Z"/><path d="M585.31348,87.11336,578.294,79.95809l1.3916-.55762c6.86035-2.75293,11.542-6.03613,13.91308-9.75879,2.01465-3.14746,3.16211-7.69042,3.415-13.51367H575.10254V47.44247h21.94531V38.65633c-4.01269.61133-8.96972,1.2002-14.76074,1.751l-.68555.06543-4.11523-8.32129,1.4834-.10644c14.08691-1.01563,26.45019-3.2959,36.748-6.7754l.76075-.25683,4.92578,8.14941-1.21778.37989c-3.77539,1.17675-8.21093,2.3164-13.19336,3.38964V47.44247h18.06055V56.128H606.90625c-.20312,8.23047-2.11035,14.86035-5.67187,19.71778-3.27051,4.42285-8.416,8.125-15.2959,11.00586Zm-3.50586-6.42871,3.98144,4.05664c6.22852-2.69726,10.88086-6.08691,13.835-10.082,3.44825-4.70215,5.23145-11.27734,5.29883-19.53906l.00781-.99219h18.12305V49.44247H604.99316V35.31161l.793-.168c4.709-.9961,8.93457-2.04981,12.582-3.13867l-2.77246-4.58692c-9.93554,3.27051-21.69922,5.458-35,6.50977l2.1875,4.42285c6.01856-.582,11.09766-1.20508,15.10547-1.85059l1.15918-.18652V49.44247H577.10254V54.128h21.9707l-.02539,1.02539c-.167,6.6875-1.43359,11.92383-3.76367,15.56446C592.85352,74.53524,588.32324,77.88387,581.80762,80.68465Z"/></svg>