<svg id="Layer_1" data-name="Layer 1" xmlns="http://www.w3.org/2000/svg" viewBox="0 0 576 448"><defs><style>.cls-1{fill:#fff;}</style></defs><path class="cls-1" d="M528,32H48A48,48,0,0,0,0,80V432a48,48,0,0,0,48,48H528a48,48,0,0,0,48-48V80A48,48,0,0,0,528,32Zm0,400H303.2c.9-4.5.8,3.6.8-22.4,0-31.8-30.1-57.6-67.2-57.6-10.8,0-18.7,8-44.8,8-26.9,0-33.4-8-44.8-8C110.1,352,80,377.8,80,409.6c0,26-.2,17.9.8,22.4H48V144H528ZM360,352H472a8,8,0,0,0,8-8V328a8,8,0,0,0-8-8H360a8,8,0,0,0-8,8v16A8,8,0,0,0,360,352Zm0-64H472a8,8,0,0,0,8-8V264a8,8,0,0,0-8-8H360a8,8,0,0,0-8,8v16A8,8,0,0,0,360,288Zm0-64H472a8,8,0,0,0,8-8V200a8,8,0,0,0-8-8H360a8,8,0,0,0-8,8v16A8,8,0,0,0,360,224ZM192,320a64,64,0,1,0-64-64A64.06,64.06,0,0,0,192,320Z" transform="translate(0 -32)"/></svg>