<?xml version="1.0" encoding="utf-8"?>
<!-- Generator: Adobe Illustrator 24.3.0, SVG Export Plug-In . SVG Version: 6.00 Build 0)  -->
<svg version="1.1" id="Layer_1" xmlns="http://www.w3.org/2000/svg" xmlns:xlink="http://www.w3.org/1999/xlink" x="0px" y="0px"
	 viewBox="0 0 448 512" style="enable-background:new 0 0 448 512;" xml:space="preserve">
<style type="text/css">
	.st0{fill:#FFFFFF;}
</style>
<path class="st0" d="M400,32H48C21.5,32,0,53.5,0,80v352c0,26.5,21.5,48,48,48h352c26.5,0,48-21.5,48-48V80
	C448,53.5,426.5,32,400,32z M416,432c0,8.8-7.2,16-16,16H48c-8.8,0-16-7.2-16-16V80c0-8.8,7.2-16,16-16h352c8.8,0,16,7.2,16,16V432z
	 M188,352h12V232h-12c-6.6,0-12-5.4-12-12v-8c0-6.6,5.4-12,12-12h48c6.6,0,12,5.4,12,12v140h12c6.6,0,12,5.4,12,12v8
	c0,6.6-5.4,12-12,12h-72c-6.6,0-12-5.4-12-12v-8C176,357.4,181.4,352,188,352z M224,112c-17.7,0-32,14.3-32,32s14.3,32,32,32
	s32-14.3,32-32S241.7,112,224,112z"/>
</svg>
