<svg id="Layer_1" data-name="Layer 1" xmlns="http://www.w3.org/2000/svg" viewBox="0 0 448 512"><path d="M386.18,66.79a27.22,27.22,0,0,1,27,27.28V417.93a27.22,27.22,0,0,1-27,27.28H61.73a27.15,27.15,0,0,1-26.94-27.28V94.07A27.15,27.15,0,0,1,61.73,66.79H386.18M121.12,185.89A32.52,32.52,0,1,0,88.6,153.37a32.48,32.48,0,0,0,32.52,32.52m117.07,49.33V210.56H184.38V391.15h56.09V301.78c0-23.56,4.48-46.37,33.7-46.37,28.72,0,29.15,26.94,29.15,47.89v87.85H359.4v-99c0-48.65-10.55-86.07-67.32-86.07-27.28,0-45.61,14.95-53.13,29.14h-.76M93.07,391.15h56.17V210.56H93.07V391.15M386.18,33H61.73C28.24,33,1,60.4,1,94.07V417.93C1,451.6,28.24,479,61.73,479H386.18A61,61,0,0,0,447,417.93V94.07A61,61,0,0,0,386.18,33Z"/></svg>