<?xml version="1.0" encoding="utf-8"?>
<!-- Generator: Adobe Illustrator 24.3.0, SVG Export Plug-In . SVG Version: 6.00 Build 0)  -->
<svg version="1.1" id="Layer_1" xmlns="http://www.w3.org/2000/svg" xmlns:xlink="http://www.w3.org/1999/xlink" x="0px" y="0px"
	 viewBox="0 0 512 512" style="enable-background:new 0 0 512 512;" xml:space="preserve">
<style type="text/css">
	.st0{fill:#FFFFFF;}
</style>
<path class="st0" d="M333.9,426.2c-0.6,0-1.2,0.1-1.8,0.2c-9.6,1.8-19.2,2.7-28.6,2.7c-81.3,0-150-66.1-150-150.4
	c0-54.2,29-104,76.1-130.8c7.3-4.1,5.4-15.1-2.8-16.7c-11.6-2.1-23.3-3.2-35-3.2C85.9,128,0,213.9,0,320c0,106,85.8,192,191.8,192
	c59.2,0,113.2-26.9,149-71.1C345.7,434.9,341.1,426.2,333.9,426.2L333.9,426.2z M191.8,480C103.7,480,32,408.2,32,320
	c0-78.5,56.8-144,131.4-157.5c-26.6,32.2-41.8,73.2-41.8,116.2c0,89.8,65.1,164.7,150.5,179.7C248.1,472.4,220.5,480,191.8,480
	L191.8,480z M503.2,193.7l-48.6-24.3l-24.3-48.6c-5.4-10.8-23.2-10.8-28.6,0l-24.3,48.6l-48.6,24.3c-5.4,2.7-8.8,8.2-8.8,14.3
	s3.4,11.6,8.8,14.3l48.6,24.3l24.3,48.6c2.7,5.4,8.2,8.8,14.3,8.8s11.6-3.4,14.3-8.8l24.3-48.6l48.6-24.3c5.4-2.7,8.8-8.2,8.8-14.3
	S508.6,196.4,503.2,193.7L503.2,193.7z M435.5,220.4c-3.1,1.5-5.6,4.1-7.2,7.2L416,252.2l-12.3-24.7c-1.6-3.1-4.1-5.6-7.2-7.2
	L371.8,208l24.7-12.4c3.1-1.5,5.6-4.1,7.2-7.2l12.3-24.7l12.3,24.7c1.6,3.1,4.1,5.6,7.2,7.2l24.7,12.4L435.5,220.4L435.5,220.4z
	 M304,96l16-32l32-16l-32-16L304,0l-16,32l-32,16l32,16L304,96z"/>
</svg>
