<?xml version="1.0" encoding="utf-8"?>
<!-- Generator: Adobe Illustrator 24.3.0, SVG Export Plug-In . SVG Version: 6.00 Build 0)  -->
<svg version="1.1" id="Layer_1" xmlns="http://www.w3.org/2000/svg" xmlns:xlink="http://www.w3.org/1999/xlink" x="0px" y="0px"
	 viewBox="0 0 576 512" style="enable-background:new 0 0 576 512;" xml:space="preserve">
<style type="text/css">
	.st0{fill:#FFFFFF;}
</style>
<path class="st0" d="M120,320c0,13.3-10.7,24-24,24s-24-10.7-24-24s10.7-24,24-24S120,306.7,120,320z M288,152c13.3,0,24-10.7,24-24
	s-10.7-24-24-24s-24,10.7-24,24S274.7,152,288,152z M352,352c0,35.4-28.6,64-64,64s-64-28.6-64-64c0-14.3,4.8-27.3,12.7-37.9
	l-97.1-120c-5.6-6.9-4.5-16.9,2.4-22.5c6.9-5.6,17-4.5,22.5,2.4l97.1,119.9c8.1-3.7,17-5.9,26.5-5.9C323.4,288,352,316.6,352,352z
	 M320,352c0-17.7-14.3-32-32-32s-32,14.3-32,32s14.3,32,32,32S320,369.7,320,352z M576,320c0,52.8-14.2,102.3-39.1,144.8
	c-5.6,9.6-16.3,15.2-27.4,15.2h-443c-11.1,0-21.8-5.6-27.4-15.2C14.2,422.3,0,372.8,0,320C0,160.9,128.9,32,288,32
	S576,160.9,576,320z M544,320c0-141.2-114.8-256-256-256S32,178.8,32,320c0,45.3,12,89.8,34.7,128.7l442.8-0.7
	C532,409.8,544,365.3,544,320z M424,160c-13.3,0-24,10.7-24,24s10.7,24,24,24s24-10.7,24-24S437.3,160,424,160z M480,296
	c-13.3,0-24,10.7-24,24s10.7,24,24,24s24-10.7,24-24S493.3,296,480,296z"/>
</svg>
