<?xml version="1.0" encoding="utf-8"?>
<!-- Generator: Adobe Illustrator 23.1.0, SVG Export Plug-In . SVG Version: 6.00 Build 0)  -->
<svg version="1.1" id="Layer_1" xmlns="http://www.w3.org/2000/svg" xmlns:xlink="http://www.w3.org/1999/xlink" x="0px" y="0px"
	 viewBox="0 0 176.4 118.4" style="enable-background:new 0 0 176.4 118.4;" xml:space="preserve">
<polygon points="176.4,70.6 159.7,70.6 159.7,0 176.4,0 "/>
<polygon points="44.9,20 35.4,70.6 23.7,70.6 14.2,20 14.2,70.6 0,70.6 0,0 21.2,0 29.5,44.1 37.9,0 59.1,0 59.1,70.6 44.9,70.6 "/>
<path d="M110.5,52.9c0,12.2-9.9,19.2-22.1,19.2c-12.2,0-22.1-7.1-22.1-19.3l0-52.9h16.6l0,52.6c0,3,2.5,5.5,5.5,5.5s5.5-2.5,5.5-5.5
	L94,0h16.6L110.5,52.9z"/>
<path d="M152.5,55.1c0,10.6-8.7,17.1-19.3,17.1c-10.6,0-19.3-6.5-19.3-17.1c0-2.7,0-6.6,0-10.3l14.8,0v10.3c0,2,1.6,3.6,3.6,3.6
	c2,0,3.6-1.6,3.6-3.6l0-55.1h16.6L152.5,55.1z"/>
<path d="M18.4,91c-0.8,0.7-1.3,1.1-2.8,2.2c-1.2-1.8-2.1-2.9-3.7-4.1c3.3-2.2,5.3-4.1,6.8-6.4c0.4-0.6,0.7-1.1,0.9-1.7l6.2,1
	c-0.3,0.4-0.3,0.4-0.7,1c-0.2,0.4-0.6,0.9-0.9,1.4h18c2.3,0,3.6-0.1,5-0.2V90c-1.2-0.2-2-0.2-3.4-0.2v3.6h1c2,0,2.6,0,3.8-0.2v5.8
	c-1.2-0.2-1.9-0.2-3.8-0.2h-1v3.7H44c2,0,2.8,0,3.7-0.2v5.7c-1-0.2-1.7-0.2-3.6-0.2c1.7,2.1,2.1,2.7,4.6,7l-5.3,3.3
	c-1.4-3.4-2.5-5.4-4.6-8.5l3.6-1.7H17.9l4.1,2c-1.6,3.9-2.6,5.7-5,8.4l-4.8-3.6c2.2-2.2,3.3-3.8,4.6-6.8h-0.3c-1.5,0-2.3,0-3.3,0.2
	v-5.7c1,0.2,1.9,0.2,3.8,0.2h0.8v-3.7h-1.4c-1.9,0-2.6,0-3.8,0.2v-5.8c1.2,0.2,1.9,0.2,3.8,0.2h1.8C18.4,93.3,18.4,91,18.4,91z
	 M23.3,118.1c0.1-1,0.1-1.4,0.1-2.1c0-2.6-0.1-4.5-0.3-6.8l5.4-0.5c0.6,4,0.8,5.9,0.9,9L23.3,118.1z M23.2,93.3H25v-3.6h-1.8V93.3z
	 M23.2,102.4H25v-3.7h-1.8V102.4z M29.9,93.3h1.8v-3.6h-1.8V93.3z M29.9,102.4h1.8v-3.7h-1.8V102.4z M32.5,118
	c-0.5-3.8-0.9-5.8-1.7-8.5l5.4-1.1c1.1,3.4,1.7,5.3,2.2,8.4L32.5,118z M38.5,93.3v-3.6h-1.9v3.6H38.5z M38.5,102.4v-3.7h-1.9v3.7
	H38.5z"/>
<path d="M70.2,87.3c-0.5,0.2-0.5,0.2-1.3,0.4c-2.5,0.8-6.3,1.9-9.8,2.6V95h6.1c1.5,0,2.6-0.1,3.6-0.2v5.9c-0.9-0.1-1.9-0.2-3.5-0.2
	h-6.2v6h6.3c1.5,0,2.4,0,3.4-0.2v5.9c-0.9-0.1-1.9-0.2-3.4-0.2h-6.3c0,1.7,0,2.1,0.2,3.2H53c0.2-1.2,0.2-2.8,0.2-5.3V88.7
	c0-2.1,0-2.5-0.1-3.4c4.9-0.5,8.8-1.4,12.1-2.7c0.9-0.4,1.4-0.6,1.9-0.9l3.1,4.9v-0.3c0-1.3,0-2.1-0.1-3c0.9,0.1,2.1,0.2,3.7,0.2H84
	c1.5,0,2.5,0,3.6-0.2c-0.1,1.2-0.2,1.9-0.2,3.7v21c0,2-0.2,3.1-0.8,3.9c-0.9,1.4-2.3,1.7-6,1.7c-0.6,0-1.1,0-2.2-0.1
	c-0.1-2.2-0.3-3.6-1.1-6.1c1.3,0.2,2,0.2,2.8,0.2c1,0,1.2-0.2,1.2-1V89.1h-5.2v23.7c0,2.3,0.1,4,0.2,5.3h-6.5
	c0.2-1.1,0.2-2.9,0.2-5.4L70.2,87.3L70.2,87.3z"/>
<path d="M110.1,114.6c-5.5,1.4-8.8,2.1-16.4,3.4c-0.5,0.1-0.5,0.1-1,0.2c-0.3,0.1-0.4,0.1-0.7,0.2l-1-6.1c0.9,0,2.3-0.2,3.9-0.3
	V88.8c0-1.6,0-2.9-0.2-4.1c1.3,0.1,2.8,0.2,4.4,0.2h6.9v-0.4c0-0.9-0.1-1.7-0.2-2.8h6.5c-0.2,0.8-0.2,1.4-0.2,2.8v0.4h7.3
	c1.6,0,3-0.1,4.3-0.2c-0.1,0.9-0.2,2.2-0.2,4.2V99c0,2.1,0,3.2,0.2,4.3c-1.1-0.1-1.6-0.1-2.8-0.2l4.1,2.9c-3.4,2.2-4.5,2.9-6.5,3.9
	c2.8,1.3,5.6,2,9.5,2.4c-1.2,1.7-1.8,2.9-2.9,6c-3.7-0.8-6.1-1.7-9.1-3.3c-2.3-1.2-4-2.5-5.8-4.2L110.1,114.6z M101,91.7h16.5v-1.6
	H101C101,90.1,101,91.7,101,91.7z M101,98.1h16.5v-1.8H101C101,96.4,101,98.1,101,98.1z M101,111c2.9-0.5,2.9-0.5,7.6-1.5
	c-1.7-2-2.6-3.4-3.8-6.4H101V111z M110.9,103.1c1,1.9,1.5,2.6,2.9,3.8c2.3-1.2,4.2-2.6,5.6-3.8C119.3,103.1,110.9,103.1,110.9,103.1
	z"/>
<path d="M131.5,118c0.2-1.3,0.2-2.3,0.2-4.4V103c0-1.3,0-2.4-0.2-3.6c1.2,0.1,2.3,0.2,3.9,0.2h9.6c1,0,1.9,0,2.7-0.1
	c-0.1,0.7-0.1,1.2-0.1,3.1v11.7c0,1.4,0,2.3,0.1,3.2H142v-1.1h-4.5v1.7C137.5,118,131.5,118,131.5,118z M136.4,86.2
	c0-1.4,0-2.4-0.2-3.6c1.1,0.1,2.4,0.2,4.4,0.2h16.5c2.1,0,3.4,0,4.5-0.2c-0.1,1-0.2,2-0.2,3.6v7.7c0,1.7,0,2.8,0.2,3.8
	c-1.1-0.1-1.8-0.1-4-0.1h-17.5c-2.1,0-2.9,0-3.9,0.1c0.1-1,0.2-2.2,0.2-3.8V86.2z M142,104.9h-4.5v6h4.5V104.9z M142.2,88.3v4h13.3
	v-4H142.2z M162.6,99.6c1.7,0,2.7,0,3.6-0.2c-0.1,1.1-0.2,2.1-0.2,3.6v10.5c0,2.1,0,3.2,0.2,4.4h-6.1v-1.7h-4.9v1.7h-5.7
	c0.1-0.9,0.1-1.8,0.1-3.2v-12.3c0-1.8,0-2.1-0.1-3c0.8,0.1,1.6,0.1,2.7,0.1H162.6z M155.3,111h4.9v-6h-4.9V111z"/>
</svg>
