<?xml version="1.0" encoding="utf-8"?>
<!-- Generator: Adobe Illustrator 23.1.0, SVG Export Plug-In . SVG Version: 6.00 Build 0)  -->
<svg version="1.1"
	 id="svg2" inkscape:version="0.92.1 r15371" sodipodi:docname="Pentel.svg" xmlns:cc="http://creativecommons.org/ns#" xmlns:dc="http://purl.org/dc/elements/1.1/" xmlns:inkscape="http://www.inkscape.org/namespaces/inkscape" xmlns:rdf="http://www.w3.org/1999/02/22-rdf-syntax-ns#" xmlns:sodipodi="http://sodipodi.sourceforge.net/DTD/sodipodi-0.dtd" xmlns:svg="http://www.w3.org/2000/svg"
	 xmlns="http://www.w3.org/2000/svg" xmlns:xlink="http://www.w3.org/1999/xlink" x="0px" y="0px" viewBox="0 0 291.1 90.2"
	 style="enable-background:new 0 0 291.1 90.2;" xml:space="preserve">
<style type="text/css">
	.st0{clip-path:url(#SVGID_2_);}
</style>
<sodipodi:namedview  bordercolor="#666666" borderopacity="1" fit-margin-bottom="0" fit-margin-left="0" fit-margin-right="0" fit-margin-top="0" gridtolerance="10" guidetolerance="10" id="namedview4" inkscape:current-layer="g14" inkscape:cx="124.61358" inkscape:cy="-1.6405185" inkscape:pageopacity="0" inkscape:pageshadow="2" inkscape:window-height="1008" inkscape:window-maximized="0" inkscape:window-width="958" inkscape:window-x="953" inkscape:window-y="0" inkscape:zoom="2.3786081" objecttolerance="10" pagecolor="#ffffff" showgrid="false">
	</sodipodi:namedview>
<g id="g10" transform="matrix(1.3333333,0,0,-1.3333333,-435.12799,222.70399)" inkscape:groupmode="layer" inkscape:label="A9R8ql8br_1yp4c2v_b6k">
	<g id="g3716">
		<g id="g12">
			<g>
				<g>
					<defs>
						<rect id="SVGID_1_" x="241.5" y="61.6" width="388.1" height="172.5"/>
					</defs>
					<clipPath id="SVGID_2_">
						<use xlink:href="#SVGID_1_"  style="overflow:visible;"/>
					</clipPath>
					<g id="g14" class="st0">
						<g id="g20" transform="translate(539.842,113.761)">
							<path id="path22" inkscape:connector-curvature="0" d="M0,0h0.9c0.4,0,0.7,0.2,0.7,0.7c0,0.4-0.3,0.6-0.7,0.6H0V0z M0-2.7h-1
								V2h2c0.8,0,1.7-0.3,1.7-1.2c0-0.6-0.4-1-1-1.1l0.9-2.3H1.7L0.9-0.8H0V-2.7z"/>
						</g>
						<g id="g24" transform="translate(536.951,113.344)">
							<path id="path26" inkscape:connector-curvature="0" d="M0,0c0,1,0.3,1.9,1.1,2.5c0.7,0.7,1.6,1.1,2.5,1.1
								c1,0,1.8-0.4,2.5-1.1C6.8,1.9,7.2,1,7.2,0c0-2-1.6-3.6-3.6-3.6c-1,0-1.9,0.4-2.5,1C0.3-1.9,0-0.9,0,0 M3.6-4.1
								c1.1,0,2.1,0.4,2.9,1.2S7.7-1.1,7.7,0S7.3,2.1,6.5,2.9S4.7,4.1,3.6,4.1C1.3,4.1-0.5,2.3-0.5,0c0-1.1,0.4-2.1,1.2-2.9
								S2.5-4.1,3.6-4.1"/>
						</g>
						<g id="g28" transform="translate(472.755,111.922)">
							<path id="path30" inkscape:connector-curvature="0" d="M0,0c-0.7,0-3.4,0-4.2,0.2c-2.4,0.4-3.9,1.6-3.9,4.3v15h9
								c-1.4-2.9-2.2-6.2-2.2-9.7C-1.4,6.3-0.6,3,0.9,0C0.5,0,0.1,0,0,0 M59.2,0c-0.7,0-3.3,0-4.1,0.2c-2.4,0.4-3.9,1.6-3.9,4.3
								v37.6H38.5V23.5C34.4,28.7,28.1,32,20.9,32c-7.7,0-14.5-3.9-18.5-9.8v8.2H-8.1V42h-12.6V3.5C-20.7-7-14.7-11-3.5-11
								c2.5,0,4.4,0,5.9,0.3v7.9c4-5.9,10.8-9.8,18.5-9.8c5.7,0,10.8,2.1,14.8,5.6l-6.9,9.7c-1.9-2.2-4.8-3.6-7.9-3.6
								c-5.8,0-10.5,4.7-10.5,10.5s4.7,10.5,10.5,10.5c1.8,0,3.6-0.5,5.1-1.3l-10.8-7.6l5.5-7.7L38.5,16V3.5C38.5-7,44.4-11,55.7-11
								c2.5,0,4.3,0,5.9,0.3V0.2C61,0,59.5,0,59.2,0"/>
						</g>
						<g id="g32" transform="translate(449.214,126.982)">
							<path id="path34" inkscape:connector-curvature="0" d="M0,0c0,9.4-7.6,17-17,17l0,0c-7.2,0-13.4-4.5-15.9-10.8
								C-36.8,12.7-43.9,17-52,17c-5.9,0-11.2-2.3-15.2-6c0,0.4,0,0.8,0,1.2C-67.1,27.6-79.6,40-95,40s-27.8-12.5-27.8-27.8V-26
								h14.6v38.2c0,7.4,5.9,13.3,13.2,13.3c7.3,0,13.2-5.9,13.2-13.3S-87.7-1-95-1c-4.3,0-8,1.9-10.4,4.9v-17.6
								c3.2-1.3,6.7-2,10.4-2c6,0,11.6,1.9,16.2,5.2l0,0c1.7,1.2,3.2,2.6,4.6,4.1c0.5-11.8,10.3-21.3,22.3-21.3
								c5.7,0,10.8,2.1,14.8,5.6l-6.9,9.7c-1.9-2.2-4.7-3.6-7.9-3.6c-5.8,0-10.5,4.7-10.5,10.5S-57.7,5-51.9,5
								c1.8,0,3.5-0.5,5.1-1.3l-10.8-7.6l5.5-7.7L-33.8,1C-34,0.8-34,0.4-34,0v-0.1c0-0.2,0-0.4,0-0.6V-26h12.6V1
								c0,3.5,2.8,4.6,4.5,4.6c1.6,0,4.4-1.1,4.4-4.6v-27H0v25.4C0-0.5,0-0.3,0,0L0,0"/>
						</g>
					</g>
				</g>
			</g>
		</g>
	</g>
</g>
</svg>
