<?xml version="1.0" encoding="utf-8"?>
<!-- Generator: Adobe Illustrator 23.1.0, SVG Export Plug-In . SVG Version: 6.00 Build 0)  -->
<svg version="1.1"
	 id="svg8" inkscape:version="0.92.3 (2405546, 2018-03-11)" sodipodi:docname="pilot.svg" xmlns:cc="http://creativecommons.org/ns#" xmlns:dc="http://purl.org/dc/elements/1.1/" xmlns:inkscape="http://www.inkscape.org/namespaces/inkscape" xmlns:rdf="http://www.w3.org/1999/02/22-rdf-syntax-ns#" xmlns:sodipodi="http://sodipodi.sourceforge.net/DTD/sodipodi-0.dtd" xmlns:svg="http://www.w3.org/2000/svg"
	 xmlns="http://www.w3.org/2000/svg" xmlns:xlink="http://www.w3.org/1999/xlink" x="0px" y="0px" viewBox="0 0 229.8 62"
	 style="enable-background:new 0 0 229.8 62;" xml:space="preserve">
<sodipodi:namedview  bordercolor="#666666" borderopacity="1.0" fit-margin-bottom="0.5" fit-margin-left="0.5" fit-margin-right="0.5" fit-margin-top="0.5" id="base" inkscape:current-layer="layer1" inkscape:cx="15.372409" inkscape:cy="16.906495" inkscape:document-units="px" inkscape:pageopacity="0" inkscape:pageshadow="2" inkscape:window-height="1001" inkscape:window-maximized="1" inkscape:window-width="1920" inkscape:window-x="-9" inkscape:window-y="-9" inkscape:zoom="0.98994949" pagecolor="#00ffff" showgrid="false" units="px">
	</sodipodi:namedview>
<g id="g19673" transform="matrix(3.7900184,0,0,3.7900184,-2382.2589,-172.81769)">
	<path id="path11712" inkscape:connector-curvature="0" d="M653.6,56.8h-1.4v-1.9h1.2c0.9,0,1.3,0.3,1.3,0.9
		C654.8,56.4,654.5,56.8,653.6,56.8 M654,52.6h-4.8v9.1h3v-2.7h2.2c1.7,0,3.3-1.1,3.3-3.1C657.7,53.5,656,52.6,654,52.6"/>
	<path id="path11714" inkscape:connector-curvature="0" d="M658.9,61.7h3.1v-9.1h-3.1V61.7z"/>
	<path id="path11716" inkscape:connector-curvature="0" d="M680.6,52.6V55h2.7v6.7h3.1V55h2.7v-2.4"/>
	<path id="path11718" inkscape:connector-curvature="0" d="M667,52.6h-3.1v9.1h6.1v-2.4H667"/>
	<path id="path11720" inkscape:connector-curvature="0" d="M675.2,59.2c-1.3,0-2-0.9-2-2.1c0-1.3,0.8-2.1,2-2.1
		c1.3,0,2.1,0.9,2.1,2.1C677.3,58.4,676.5,59.2,675.2,59.2 M675.2,52.4c-2.7,0-5.1,1.8-5.1,4.7c0,2.8,2.1,4.7,5.1,4.7
		c2.8,0,5-1.8,5-4.7C680.3,54.3,678.1,52.4,675.2,52.4"/>
	<path id="path11722" inkscape:connector-curvature="0" d="M632.9,61.7h8.3v-5.9c-2.9,3-5.5,4.4-8.3,5.5"/>
	<path id="path11724" inkscape:connector-curvature="0" d="M632.9,60.9c5-2.1,7.3-5.7,6.8-7.3c-0.3-1-1.2-1.6-3.4-1
		c-1,0.3-2.2,0.9-3.4,1.7"/>
	<path id="path11726" inkscape:connector-curvature="0" d="M629.1,56.5c2.1-2.6,7.3-7.7,11.7-7.7c2.8,0,2.7,2,2.3,3.5
		c1.3-1.5,1.7-3.1,1.7-3.9c0-1.1-0.8-2.7-2.9-2.7c-5,0-11.1,7.2-12.9,10.4C628.6,56.9,628.5,57.4,629.1,56.5"/>
</g>
</svg>
