<?xml version="1.0" encoding="utf-8"?>
<!-- Generator: Adobe Illustrator 23.1.0, SVG Export Plug-In . SVG Version: 6.00 Build 0)  -->
<svg version="1.1" id="svg1878" xmlns:svg="http://www.w3.org/2000/svg"
	 xmlns="http://www.w3.org/2000/svg" xmlns:xlink="http://www.w3.org/1999/xlink" x="0px" y="0px" viewBox="0 0 566.9 162.9"
	 style="enable-background:new 0 0 566.9 162.9;" xml:space="preserve">
<style type="text/css">
	.st0{fill-rule:evenodd;clip-rule:evenodd;}
</style>
<path id="_47360496" class="st0" d="M566.9,47.9v100.5c-0.8,4-2,6.4-4.8,9.3c-2.7,2.9-4.9,4.2-8.7,5.2h-72.7V144h45.5
	c3.9,0,8.3-2.6,8.3-5.5c0-23.6,0-71.5,0-71.5s-13.1,0-17.7,0c-2.5,0-4.8,2-4.6,7.7l-0.1,28.8c0,1.6,1.1,2.3,2.3,3.4
	c3.2,3.1,11.3,1.4,11.3,1.4v20.5H496c-7.3,0-15.3-6.1-15.3-11.9V60.6c0.4-3.3,1.4-5.3,3.6-7.7c3-3.3,6-4.7,10.5-4.8L566.9,47.9z
	 M377.1,128.2V46h68.5c4.7,0.3,10.1,2,13.2,5.4c4.2,4.6,5.4,6.8,5.4,13.2v63.6h-34.1V74.9c0-10.2-5.6-8.5-19.1-8.6v61.9H377.1z
	 M326,18.9C326,8.5,334.5,0,344.9,0s18.9,8.5,18.9,18.9s-8.5,18.9-18.9,18.9C334.4,37.8,326,29.3,326,18.9L326,18.9z M328.2,128.2
	h32.6V46.4h-32.6V128.2z M268.6,128.2h35.6v-62h19.4V46h-36.3c-4.7,0.3-10.1,2-13.2,5.4c-4.2,4.6-5.4,6.8-5.4,13.2v63.6H268.6z
	 M251.9,21.9v25.3h13.7v19.2h-13.7v61.8h-34.7V66.4h-21.9l-7.2-18.9l27-0.6c5.4-0.6,8.7-0.8,13.1-5.8c5.4-6.1,7.3-10.5,8.5-19.2
	H251.9z M0,128.2h35.6v-62H55V46H18.6c-4.7,0.3-10.1,2-13.2,5.4C1.2,56,0,58.2,0,64.6C0,64.6,0,128.2,0,128.2z M85.6,84.4
	c0-22.9,18.6-41.5,41.5-41.5s41.5,18.6,41.5,41.5s-18.6,41.5-41.5,41.5S85.6,107.4,85.6,84.4z"/>
<path id="_47304680" class="st0" d="M70.8,84.4c0-31.1,25.2-56.3,56.3-56.3s56.3,25.2,56.3,56.3s-25.2,56.3-56.3,56.3
	S70.8,115.5,70.8,84.4z M52.2,84.4c0-41.4,33.5-74.9,74.9-74.9S202,43,202,84.4s-33.5,74.9-74.9,74.9S52.2,125.8,52.2,84.4
	L52.2,84.4z"/>
</svg>
