<?xml version="1.0" encoding="utf-8"?>
<!-- Generator: Adobe Illustrator 23.1.0, SVG Export Plug-In . SVG Version: 6.00 Build 0)  -->
<svg version="1.1" id="レイヤー_1" xmlns="http://www.w3.org/2000/svg" xmlns:xlink="http://www.w3.org/1999/xlink" x="0px"
	 y="0px" viewBox="0 0 116.5 17.6" style="enable-background:new 0 0 116.5 17.6;" xml:space="preserve">
<style type="text/css">
	.st0{stroke:#000000;stroke-miterlimit:10;}
</style>
<path class="st0" d="M47.3,1.9v1.4h-5v13.1h-1.8V3.3h-4.8V1.9H47.3z M48.2,15.2c-0.8-1-1.3-2.3-1.3-4c0-1.6,0.4-3,1.3-4
	c0.9-1,2-1.5,3.5-1.5s2.7,0.5,3.5,1.4c0.8,1,1.3,2.3,1.3,4s-0.4,3.1-1.3,4c-0.8,1-2,1.5-3.5,1.5C50.2,16.7,49,16.2,48.2,15.2
	 M49.5,8.1c-0.5,0.7-0.8,1.8-0.8,3c0,2.8,1,4.2,3,4.2c0.9,0,1.7-0.4,2.2-1.2c0.5-0.7,0.8-1.8,0.8-3.1c0-2.8-1-4.2-3-4.2
	C50.8,7,50.1,7.4,49.5,8.1 M67.5,7.1c0.2-0.4,0.6-0.7,1.1-1c0.6-0.3,1.2-0.4,1.8-0.4c1.1,0,1.9,0.3,2.5,1c0.6,0.6,0.9,1.5,0.9,2.7
	v7.1h-1.6V9.7c0-1.8-0.8-2.7-2.4-2.7c-0.5,0-1,0.2-1.4,0.5s-0.7,0.7-0.9,1l0,0v7.9h-1.6V8.9c0-0.6-0.2-1-0.7-1.4
	c-0.5-0.3-1-0.5-1.7-0.5c-0.4,0-0.9,0.2-1.3,0.5c-0.5,0.3-0.8,0.7-1,1.1l0,0v7.8h-1.7V5.9h1c0.1,0.1,0.7,1.4,0.7,1.4l0.1-0.2
	C62,6.2,62.9,5.7,64,5.7c1.5,0,2.6,0.5,3.2,1.4l0.1,0.2L67.5,7.1z M79,1.9v4.9c0.3-0.3,0.7-0.6,1.2-0.8c0.5-0.2,1-0.3,1.4-0.3
	c1.4,0,2.6,0.5,3.5,1.5s1.3,2.3,1.3,3.8c0,1.8-0.5,3.2-1.4,4.2s-2.1,1.5-3.7,1.5c-0.5,0-1-0.1-1.5-0.3c-0.5-0.2-0.8-0.4-1.1-0.7
	l-0.1-0.1c0,0-0.7,1-0.7,1.1h-0.7V1.9H79z M79.8,7.3c-0.3,0.2-0.7,0.4-0.8,0.6l0,0v6.4c0.1,0.2,0.5,0.5,0.8,0.7
	c0.5,0.3,0.9,0.3,1.2,0.3c1.3,0,2.3-0.3,2.9-1s0.9-1.8,0.9-3.3c0-1.3-0.3-2.3-1-3c-0.8-0.6-1.7-1-2.9-1C80.6,7,80.1,7.2,79.8,7.3
	 M90.4,15.2c-0.8-1-1.3-2.3-1.3-4c0-1.6,0.4-3,1.3-4s2-1.5,3.5-1.5s2.7,0.5,3.5,1.4c0.8,1,1.3,2.3,1.3,4s-0.4,3.1-1.3,4
	c-0.8,1-2,1.5-3.5,1.5C92.4,16.7,91.2,16.2,90.4,15.2 M91.7,8.1c-0.5,0.7-0.8,1.8-0.8,3c0,2.8,1,4.2,3,4.2c0.9,0,1.7-0.4,2.2-1.2
	s0.8-1.8,0.8-3.1c0-2.8-1-4.2-3-4.2C93,7,92.2,7.4,91.7,8.1 M115,5.9c-0.1,0.4-3.7,10.6-3.8,10.8h-0.3c-0.1-0.2-3.3-7.6-3.3-7.6
	s-3.2,7.4-3.3,7.6h-0.3c-0.1-0.2-3.7-10.4-3.8-10.8h1.8c0.1,0.2,2.4,7.4,2.4,7.4s2.9-7.2,3-7.4h0.3c0.1,0.2,3.1,7.4,3.1,7.4
	s2.5-7.2,2.6-7.4C113.3,5.9,115,5.9,115,5.9z"/>
<path d="M15.3,2.2c0.2,0,0.7,0.1,0.9,0.1c0.4,0.1,0.8,0.1,1-0.3c0.2-0.3,0.2-0.7-0.2-1.2C16.6,0.3,16,0,15.3,0S14,0.3,13.6,0.8
	s-0.3,1-0.2,1.2c0.2,0.4,0.6,0.3,1,0.3C14.7,2.2,15.1,2.2,15.3,2.2"/>
<path d="M14.8,5.1V17c0,0.3,0.3,0.6,0.6,0.6S16,17.3,16,17V5.1c0-0.3-0.3-0.6-0.6-0.6S14.8,4.8,14.8,5.1"/>
<path d="M14,4.3v2.9c0,0.7,0.6,1.4,1.4,1.4c0.7,0,1.4-0.6,1.4-1.4V4.3c0-0.7-0.6-1.3-1.4-1.3C14.6,3,14,3.6,14,4.3"/>
<path d="M4.1,8.2C3.6,8.1,3.2,7.9,3.2,7.6C3.1,7.2,3.6,6.7,4.9,6.3c2.2-0.7,5.1-0.6,8.9-0.5c0.6,0,0.8,0,1.3,0
	c-0.3,0.1-0.6,0.2-1,0.3c-0.5,0.1-1.1,0.3-1.7,0.5c-0.1,0-0.3,0.1-0.6,0.2c-1.3,0.3-3.8,1-5.2,1.3C5.6,8.2,4.7,8.3,4.1,8.2
	 M25.4,9.4c2.6,0,3.9-0.8,3.9-1.6V7.7c0-0.8-1-1.4-2.7-1.8c-1.3-0.3-2.7-0.4-4.2-0.5c0.6,0,1.1,0,1.6-0.1c1.6-0.3,2.8-0.6,4-1.1
	c1.6-0.6,2.5-1.7,2.5-2.6c0-0.1,0-0.2-0.1-0.4c-0.1-0.5-0.6-0.8-1.3-1c-0.8-0.2-1.8-0.2-3,0.1c-1.6,0.3-3,0.9-4.6,1.6L21,2.2
	c-0.1,0-0.2,0.1-0.4,0.2c-1,0.5-3.2,1.5-5.3,1.8l0,0l0,0c-0.2,0-1.3,0.1-2.1,0.2c-3.3,0-6.1-0.2-8.6-0.7C3.1,3.3,2.3,2.6,2.4,2.1
	c0.1-0.4,0.3-0.6,0.9-0.7c0.5-0.1,1.2-0.1,2.3,0.1c2.4,0.3,4.7,1.1,6.2,1.7l0,0l0,0c0.1,0.1,0.2,0,0.3,0c0-0.1,0-0.2-0.1-0.2l0,0
	C9.9,2,7.3,1.1,5.2,0.8C3.7,0.5,2.6,0.5,1.8,0.6C0.7,0.7,0.1,1.1,0,1.8c-0.1,0.3,0,0.7,0.3,1c0.7,1,2.3,1.7,4.3,1.9
	c3.1,0.4,6.1,0.4,9,0.3l0,0c0.8,0,1.5-0.1,1.9-0.2c2.7-0.4,6.1-1.6,8.7-2.6c1.4-0.5,2.7-0.7,3.4-0.3C27.8,2,27.9,2.2,28,2.4
	c0.2,0.6-0.4,1.2-1.6,1.7c-1.7,0.7-3.5,0.9-7.9,1.2c-0.7,0.1-1.1,0-1.7,0c-0.3,0-0.6,0-1,0c-0.1,0-0.2,0-0.4,0h-0.5
	c-1.4-0.1-2.5-0.1-2.5-0.1c-0.6,0-1.2,0-1.8,0C8,5.2,5.7,5.1,3.2,6C2.5,6.2,1.8,6.6,1.5,7C1.1,7.4,1,7.9,1.1,8.2
	C1.2,8.9,1.9,9.4,3,9.5c1,0.2,2.1,0.1,2.8-0.1C8.4,9,10.9,8,12,7.6c0.2-0.1,0.3-0.1,0.4-0.2c0.5-0.2,1-0.4,1.3-0.5
	C15.1,6.4,16,6.1,18.9,6c1.9,0,4.1,0,6.2,0.6l0,0l0,0c0.7,0.1,1.3,0.3,1.7,0.6c0.3,0.2,0.5,0.4,0.5,0.6c0,0.3-0.4,0.5-1,0.7
	c-0.7,0.2-1.6,0.2-2.6,0.2c-2.6-0.1-5.1-0.7-5.6-0.8l0,0c-0.1,0-0.2,0-0.2,0.1s0,0.1,0.1,0.2l0,0C20.6,9,23.2,9.4,25.4,9.4"/>
</svg>
