<?xml version="1.0" encoding="utf-8"?>
<!-- Generator: Adobe Illustrator 23.1.0, SVG Export Plug-In . SVG Version: 6.00 Build 0)  -->
<svg version="1.1" id="layer" xmlns="http://www.w3.org/2000/svg" xmlns:xlink="http://www.w3.org/1999/xlink" x="0px" y="0px"
	 viewBox="0 0 600 272" style="enable-background:new 0 0 600 272;" xml:space="preserve">
<polygon points="0,226.2 11.1,226.2 23.5,261.4 23.6,261.4 35.6,226.2 46.6,226.2 46.6,271.1 39.1,271.1 39.1,236.5 39,236.5 
	26.5,271.1 20.1,271.1 7.6,236.5 7.5,236.5 7.5,271.1 0,271.1 "/>
<rect x="56" y="226.2" width="7.9" height="44.9"/>
<polygon points="69.6,226.2 106,226.2 106,233 91.7,233 91.7,271.1 83.8,271.1 83.8,233 69.6,233 "/>
<path d="M116.1,256.1c0,6.9,5.1,9.6,11.4,9.6c6.9,0,9.5-3.4,9.5-6.8c0-3.5-1.9-4.8-3.7-5.6c-3.1-1.2-7.2-2-13.4-3.7
	c-7.7-2.1-9.9-6.7-9.9-11.4c0-9,8.3-13.2,16.4-13.2c9.4,0,17.2,4.9,17.2,14.3h-7.8c-0.4-5.8-4.3-8-9.7-8c-3.7,0-8.2,1.4-8.2,5.9
	c0,3.1,2.1,4.9,5.3,5.8c0.7,0.2,10.6,2.8,12.9,3.5c5.9,1.8,8.7,6.8,8.7,11.4c0,10.1-8.9,14.1-17.8,14.1c-10.2,0-18.6-4.9-18.7-16
	L116.1,256.1C116.1,256,116.1,256.1,116.1,256.1z"/>
<path d="M151.2,226.2h7.9v26.1c0,6,0.4,13,10.5,13c10.2,0,10.6-7,10.6-13v-26.1h7.9v28.7c0,11.5-7.4,17.2-18.4,17.2
	c-11.1,0-18.4-5.7-18.4-17.2v-28.7L151.2,226.2L151.2,226.2z"/>
<path d="M197,226.2h21.8c8,0,13.3,3.7,13.3,11.1c0,4.5-2.3,7.8-6.4,9.6v0.1c5.5,1.2,8.4,5.5,8.4,11.5c0,7-4.9,12.5-16.5,12.5H197
	V226.2z M204.9,245h12.8c3.8,0,6.6-2.2,6.6-6.2c0-4.5-2.3-6.2-6.6-6.2h-12.8V245z M204.9,264.7h13.9c4.8,0,7.5-2.6,7.5-7.1
	c0-4.4-2.8-6.9-7.5-6.9h-13.9V264.7z"/>
<polygon points="241.2,226.2 241.2,271.1 249.1,271.1 249.1,226.2 "/>
<path d="M263.8,256.1c0,6.9,5.1,9.6,11.4,9.6c6.9,0,9.5-3.4,9.5-6.8c0-3.5-1.9-4.8-3.7-5.6c-3.1-1.2-7.2-2-13.4-3.7
	c-7.7-2.1-9.9-6.7-9.9-11.4c0-9,8.3-13.2,16.4-13.2c9.3,0,17.2,4.9,17.2,14.3h-7.8c-0.4-5.8-4.3-8-9.7-8c-3.7,0-8.2,1.4-8.2,5.9
	c0,3.1,2.1,4.9,5.3,5.8c0.7,0.2,10.6,2.8,12.9,3.5c5.9,1.8,8.7,6.8,8.7,11.4c0,10.1-8.9,14.1-17.8,14.1c-10.2,0-18.5-4.9-18.7-16
	L263.8,256.1L263.8,256.1z"/>
<polygon points="299.2,226.2 307.1,226.2 307.1,244.1 327.5,244.1 327.5,226.2 335.3,226.2 335.3,271.1 327.5,271.1 327.5,250.9 
	307.1,250.9 307.1,271.1 299.2,271.1 "/>
<rect x="344.8" y="226.2" width="7.9" height="44.9"/>
<path d="M379.7,226.2h19.8c12.8,0,15.2,8.3,15.2,13.9c0,5.5-2.4,13.8-15.2,13.7h-11.9V271h-7.8v-44.8H379.7z M387.6,247.5h11.5
	c3.5,0,7.8-1.8,7.8-7.4c0-5.9-3.6-7.4-7.7-7.4h-11.6L387.6,247.5L387.6,247.5z"/>
<polygon points="421.6,226.2 453.9,226.2 453.9,233 429.4,233 429.4,244.8 452.1,244.8 452.1,251.2 429.4,251.2 429.4,264.3 
	454.3,264.3 454.3,271.1 421.6,271.1 "/>
<polygon points="460.9,226.2 469.2,226.2 489.6,259.3 489.8,259.3 489.8,226.2 497.2,226.2 497.2,271.1 488.9,271.1 468.5,238.1 
	468.4,238.1 468.4,271.1 460.9,271.1 "/>
<path d="M536.8,240.5c-1.3-5.2-4.6-8.9-11.2-8.9c-9.6,0-13.6,8.5-13.6,17.1s4,17.1,13.6,17.1c7,0,10.8-5.2,11.5-11.8h7.7
	c-0.6,10.7-8.2,18.1-19.1,18.1c-13.4,0-21.5-10.7-21.5-23.5s8-23.5,21.5-23.5c10.1,0.1,18.1,5.6,19,15.3L536.8,240.5L536.8,240.5z"
	/>
<rect x="551.9" y="226.2" width="7.8" height="44.9"/>
<polygon points="569.3,226.2 577.2,226.2 577.2,264.3 600,264.3 600,271.1 569.3,271.1 "/>
<path d="M506.7,74.9H600V187h-93.3V74.9z M506.7,44.7H600V0h-93.3V44.7z M222.5,74.9H147v72.5c0,13.2-15.6,17.2-26.6,17.2
	c-16.1,0-29.2-5.6-29.2-19.1V74.9H0V134c0,33.3,22.6,59.7,117.9,59.7c64,0,104.6-15.1,104.6-49.3V74.9z M487.4,123
	c0-29.4-24.2-49.8-61.2-49.8c-28.6,0-62.4,13.2-91,25.5V74.9h-93.3V187h93.3v-55.6c0,0,11.5-9,28.1-11.5c19.2-2.8,30.2,0,30.2,20.8
	V187h93.9V123z"/>
</svg>
