<?xml version="1.0" encoding="utf-8"?>
<!-- Generator: Adobe Illustrator 23.1.0, SVG Export Plug-In . SVG Version: 6.00 Build 0)  -->
<svg version="1.1"
	 id="svg2" inkscape:version="0.92.1 r15371" sodipodi:docname="Zebra Pen.svg" xmlns:cc="http://creativecommons.org/ns#" xmlns:dc="http://purl.org/dc/elements/1.1/" xmlns:inkscape="http://www.inkscape.org/namespaces/inkscape" xmlns:rdf="http://www.w3.org/1999/02/22-rdf-syntax-ns#" xmlns:sodipodi="http://sodipodi.sourceforge.net/DTD/sodipodi-0.dtd" xmlns:svg="http://www.w3.org/2000/svg"
	 xmlns="http://www.w3.org/2000/svg" xmlns:xlink="http://www.w3.org/1999/xlink" x="0px" y="0px" viewBox="0 0 238.5 32.6"
	 style="enable-background:new 0 0 238.5 32.6;" xml:space="preserve">
<g id="g12" transform="translate(158.343,54.127)">
	<path id="path14" inkscape:connector-curvature="0" d="M-158.3-46.1h22l-22,16.9v7.7h41.8v-8h-21.7l21.7-17v-7.6h-41.8V-46.1z"/>
</g>
<g id="g16" transform="translate(203.977,45.2793)">
	<path id="path18" inkscape:connector-curvature="0" d="M-143.1-25.5h21.4v-7.8h-21.4v-4h26v-8h-39.5v32.6h41.2v-8H-143L-143.1-25.5
		L-143.1-25.5z"/>
</g>
<g id="g22">
	<g id="g28" transform="translate(249.229,41.3418)">
		<path id="path30" inkscape:connector-curvature="0" d="M-128-16.3h-13.9v-5.3h13.9c0,0,3.1,0.2,3.1,2.7
			C-124.9-16.2-128-16.3-128-16.3 M-141.9-33.3h12.9c0,0,2.3,0.1,2.3,2c0,1.9-2.3,2.1-2.3,2.1h-12.9V-33.3z M-116.1-26.6v-0.2
			c1.1-0.5,3.5-2.7,3.4-6.4v-0.6c-0.2-4.1-4.7-7.4-9.6-7.4h-33.4v32.6h33.5c0,0,11.2-0.2,11.2-9.9v-0.6
			C-111-22.5-114-25.9-116.1-26.6"/>
	</g>
	<g id="g32" transform="translate(285.964,51.1563)">
		<path id="path34" inkscape:connector-curvature="0" d="M-115.8-39.2h-13.5v-4.4h13.5c0,0,2.7,0,2.7,2.1
			C-113.1-39.1-115.8-39.2-115.8-39.2 M-99-41.7v-0.6c0-3.6-3.2-7.6-7.8-8.5c-1.4-0.3-3.4-0.3-3.4-0.3h-32.4v32.6h13.3v-12.6h9.6
			l8.5,12.6h13.8l-9.3-13.3C-106.7-31.8-99-33.4-99-41.7"/>
	</g>
	<g id="g36" transform="translate(316.334,43.8789)">
		<path id="path38" inkscape:connector-curvature="0" d="M-105.7-22.2l4.4-10.7l4.4,10.7H-105.7z M-92.2-43.9h-18.2l-13.7,32.6h13.9
			l1.3-3.4h15l1.4,3.4h14.6L-92.2-43.9z"/>
	</g>
</g>
</svg>
