<svg id="Layer_1" data-name="Layer 1" xmlns="http://www.w3.org/2000/svg" xmlns:xlink="http://www.w3.org/1999/xlink" viewBox="0 0 891 909"><defs><style>.cls-1,.cls-4{fill:#fff;}.cls-2{fill:#020202;}.cls-3{mask:url(#mask);}.cls-4,.cls-5{stroke:#231f20;}.cls-4,.cls-5,.cls-7{stroke-miterlimit:10;}.cls-4,.cls-5,.cls-7,.cls-8{stroke-width:6px;}.cls-5,.cls-7,.cls-8{fill:none;}.cls-6{mask:url(#mask-2);}.cls-7,.cls-8{stroke:#000;}.cls-8{stroke-linecap:round;stroke-linejoin:round;}.cls-9{fill:#231f20;}.cls-10{mask:url(#mask-3);}.cls-11{filter:url(#luminosity-noclip-2);}.cls-12{filter:url(#luminosity-noclip);}.cls-13{filter:url(#luminosity-invert-noclip);}</style><filter id="luminosity-invert-noclip" x="6" y="285" width="870" height="534" filterUnits="userSpaceOnUse" color-interpolation-filters="sRGB"><feColorMatrix values="-1 0 0 0 1 0 -1 0 0 1 0 0 -1 0 1 0 0 0 1 0" result="invert"/><feFlood flood-color="#fff" result="bg"/><feBlend in="invert" in2="bg"/></filter><mask id="mask" x="6" y="285" width="870" height="534" maskUnits="userSpaceOnUse"><g class="cls-13"><rect class="cls-1" x="414" y="756" width="54" height="63" transform="translate(882 1575) rotate(180)"/></g></mask><filter id="luminosity-noclip" x="194.71434" y="417.23801" width="129.25099" height="118.63245" filterUnits="userSpaceOnUse" color-interpolation-filters="sRGB"><feFlood flood-color="#fff" result="bg"/><feBlend in="SourceGraphic" in2="bg"/></filter><mask id="mask-2" x="194.71434" y="417.23801" width="129.25099" height="118.63245" maskUnits="userSpaceOnUse"><g class="cls-12"><rect class="cls-2" x="197.83983" y="424.0998" width="123" height="61.5" transform="translate(53.9723 -26.78249) rotate(6.59696)"/></g></mask><filter id="luminosity-noclip-2" x="513.76056" y="558.3785" width="76.76213" height="71.279" filterUnits="userSpaceOnUse" color-interpolation-filters="sRGB"><feFlood flood-color="#fff" result="bg"/><feBlend in="SourceGraphic" in2="bg"/></filter><mask id="mask-3" x="513.76056" y="558.3785" width="76.76213" height="71.279" maskUnits="userSpaceOnUse"><g class="cls-11"><rect class="cls-2" x="513.86107" y="558.81313" width="76.56111" height="18.11649" transform="translate(-6.42044 6.31399) rotate(-0.65141)"/></g></mask></defs><title>landing</title><rect class="cls-1" x="396" y="738" width="90" height="54"/><g class="cls-3"><rect class="cls-4" x="9" y="288" width="864" height="504" rx="245.58629" transform="translate(882 1080) rotate(180)"/></g><path class="cls-4" d="M256.45565,306h369.0887C751.745,306,855,409.255,855,535.45565v9.0887C855,670.745,751.745,774,625.54435,774H486l-21.76037-21.76037A17.88921,17.88921,0,0,0,451.59,747H430.34971a17.74378,17.74378,0,0,0-12.54674,5.197L396,774H256.45565C130.255,774,27,670.745,27,544.54435v-9.0887C27,409.255,130.255,306,256.45565,306Z"/><rect class="cls-4" x="423" y="765" width="36" height="99" rx="10.74555" transform="translate(882 1629) rotate(180)"/><rect class="cls-4" x="432" y="864" width="18" height="495"/><rect class="cls-4" x="56.03394" y="83.87986" width="369" height="799.5" rx="61.65807" transform="translate(57.15416 -24.43143) rotate(6.59696)"/><rect class="cls-4" x="71.40894" y="99.25486" width="338.25" height="768.75" rx="46.72079" transform="translate(57.15416 -24.43143) rotate(6.59696)"/><path class="cls-5" d="M185.41685,90.31859s4.1039,31.42957,19.3771,33.19592l150.414,17.39541a11.88822,11.88822,0,0,0,5.15448-.54654c6.39126-2.14642,21.52437-9.08266,23.606-27.08226"/><g class="cls-6"><path class="cls-2" d="M216.04916,434.98816c4.00017-1.15931,4.88431-5.63187,8.34993-5.62031,8.046.02684,16.15627,5.06546,26.34078,19.5875,14.57122,20.777,20.02511,22.70537,24.4378,34.19706s15.70845,36.01352-18.76661,49.25158-42.87321-14.89912-47.2859-26.39081.53744-18.86223-3.93886-38.66662c-3.11494-13.78134-5.14436-24.95137,1.321-31.32144C208.49126,434.07037,212.92918,435.89237,216.04916,434.98816Zm11.30817,67.61767c1.73479,9.20054,14.67047,15.83238,22.90208,12.29494s14.1983-14.42654,7.45739-25.96115c-6.12984-9.54648-15.94553-14.9327-24.44758-13.08232C225.672,479.4859,225.2084,491.87085,227.35733,502.60583Z"/></g><path class="cls-7" d="M216.04916,434.98816c4.00017-1.15931,4.88431-5.63187,8.34993-5.62031,8.046.02684,16.15627,5.06546,26.34078,19.5875,14.57122,20.777,20.02511,22.70537,24.4378,34.19706s15.70845,36.01352-18.76661,49.25158-42.87321-14.89912-47.2859-26.39081.53744-18.86223-3.93886-38.66662c-3.11494-13.78134-5.14436-24.95137,1.321-31.32144C208.49126,434.07037,212.92918,435.89237,216.04916,434.98816Zm11.30817,67.61767c1.73479,9.20054,14.67047,15.83238,22.90208,12.29494s14.1983-14.42654,7.45739-25.96115c-6.12984-9.54648-15.94553-14.9327-24.44758-13.08232C225.672,479.4859,225.2084,491.87085,227.35733,502.60583Z"/><polyline class="cls-8" points="215.805 697.455 205.519 719.481 220.792 721.248 202.869 742.391"/><rect class="cls-4" x="657.49697" y="381.05841" width="216" height="252" rx="59.0148" transform="translate(-60.7871 106.62305) rotate(-7.66429)"/><line class="cls-5" x1="652.46021" y1="476.86423" x2="866.53057" y2="448.05661"/><polyline class="cls-5" points="705.978 469.662 727.418 494.02 798.775 484.418 813.013 455.259"/><path class="cls-9" d="M777.51238,593.25342a3.00049,3.00049,0,0,1,.38794,5.97412,3.08853,3.08853,0,0,1-.41156.02783,3.00048,3.00048,0,0,1-.38873-5.97412,3.11154,3.11154,0,0,1,.41235-.02783m-.00079-6a9.00051,9.00051,0,1,0,8.90814,7.80066,9.08193,9.08193,0,0,0-8.90814-7.80066Z"/><path class="cls-4" d="M607.27012,702.63741s-20.69389,31.81878-20.09548,84.45114l4.06922,357.90007s.47874,42.10589-41.62715,42.58462-42.58462-41.62716-42.58462-41.62716L502.96286,788.046s-.7181-63.15884-22.01041-83.97242"/><path class="cls-4" d="M478.55879,493.54415s20.6939-31.81878,20.09548-84.45114l-2.274-200.003s-8.925-11.86466-13.90165-19.20749c-4.16613-6.147-3.20527-18.53552-.07734-24.37674,4.20608-7.85459,13.2609-19.5746,13.2609-19.5746l-1.07715-94.73826s-.47873-42.10589,41.62716-42.58462,42.58462,41.62716,42.58462,41.62716l1.07715,94.73825,13.6058,19.91438a20.7566,20.7566,0,0,1,.2618,23.02588l-13.14951,20.21858,2.274,200.003s.7181,63.15884,22.01041,83.97242"/><rect class="cls-4" x="448.17008" y="492.81925" width="189.48875" height="210.54306" rx="41.80058" transform="translate(-6.7646 6.21104) rotate(-0.65141)"/><rect class="cls-4" x="637.29332" y="544.32007" width="10.52715" height="42.10861" rx="5.26357" transform="translate(-6.38625 7.34182) rotate(-0.65141)"/><rect class="cls-4" x="469.22439" y="513.87356" width="147.38014" height="168.43445" rx="21.85144" transform="matrix(0.99994, -0.01137, 0.01137, 0.99994, -6.7646, 6.21104)"/><rect class="cls-4" x="497.46903" y="167.76898" width="81.51987" height="18.13218" rx="9.06608" transform="translate(-1.97565 6.13055) rotate(-0.65141)"/><rect class="cls-4" x="535.02033" y="819.14602" width="21.05431" height="21.05431" rx="10.52714" transform="translate(-9.39736 6.25599) rotate(-0.65141)"/><rect class="cls-4" x="535.61875" y="871.77838" width="21.05431" height="21.05431" rx="10.52714" transform="translate(-9.99563 6.26615) rotate(-0.65141)"/><g class="cls-10"><path class="cls-2" d="M523.96556,569.08853c2.379-1.03,2.57364-3.86112,4.71448-4.12615,4.97032-.61532,10.37389,1.859,17.803,10.0261,10.62907,11.68492,14.14814,12.4473,17.77536,19.19657s12.52787,21.00374-7.71993,31.88539-27.64318-5.83278-31.2704-12.582-1.14948-11.68914-5.46882-23.56629c-3.0057-8.265-5.13605-15.0028-1.64415-19.44391C519.22668,569.11538,522.11007,569.89188,523.96556,569.08853Zm12.29284,40.86405c1.79375,5.54486,10.302,8.62394,15.107,5.79319s7.63409-10.02306,2.56588-16.616c-4.53474-5.4133-11.01868-7.96828-16.12315-6.158C533.402,595.809,534.08842,603.49278,536.2584,609.95258Z"/></g><path class="cls-7" d="M523.96556,569.08853c2.379-1.03,2.57364-3.86112,4.71448-4.12615,4.97032-.61532,10.37389,1.859,17.803,10.0261,10.62907,11.68492,14.14814,12.4473,17.77536,19.19657s12.52787,21.00374-7.71993,31.88539-27.64318-5.83278-31.2704-12.582-1.14948-11.68914-5.46882-23.56629c-3.0057-8.265-5.13605-15.0028-1.64415-19.44391C519.22668,569.11538,522.11007,569.89188,523.96556,569.08853Zm12.29284,40.86405c1.79375,5.54486,10.302,8.62394,15.107,5.79319s7.63409-10.02306,2.56588-16.616c-4.53474-5.4133-11.01868-7.96828-16.12315-6.158C533.402,595.809,534.08842,603.49278,536.2584,609.95258Z"/><polyline class="cls-8" points="594.829 534.334 584.422 544.98 594.948 544.86 584.542 555.506"/></svg>