<svg id="Layer_1" data-name="Layer 1" xmlns="http://www.w3.org/2000/svg" viewBox="0 0 499.42705 612"><defs><style>.cls-1{fill:#fff;}</style></defs><title>logo</title><path class="cls-1" d="M76.27269,42.125C98.54221,32.78235,100.65552,6.43052,120.6259,4.18842,166.99058-1.017,217.06376,22.6037,285.40272,99.469,383.1769,209.442,415.877,216.9164,448.95036,280.17124S563.4253,477.15192,373.66075,576.37207,116.77708,519.11088,83.7037,455.856,74.23405,346.84772,35.25659,235.75241C8.13322,158.44417-10.99778,95.45447,22.00033,54.45459,32.12628,41.87317,58.90332,49.41183,76.27269,42.125ZM186.45478,424.0833c16.12189,51.84131,95.05193,81.4247,140.11116,55.56466s72.17453-92.55821,25.66155-154.50931c-41.66867-50.90618-101.79719-75.393-149.538-59.07059C161.34509,292.03057,166.92524,363.67917,186.45478,424.0833Z"/></svg>