<svg id="Layer_1" data-name="Layer 1" xmlns="http://www.w3.org/2000/svg" xmlns:xlink="http://www.w3.org/1999/xlink" viewBox="0 0 612 612"><defs><style>.cls-1{fill:#020202;}.cls-2{mask:url(#mask);}.cls-3{fill:#fff;}.cls-3,.cls-4,.cls-5{stroke:#231f20;}.cls-3,.cls-4,.cls-5,.cls-7{stroke-miterlimit:10;stroke-width:6px;}.cls-4{fill:#e6e7e8;}.cls-5{fill:url(#New_Gradient_Swatch_1);}.cls-6{mask:url(#mask-2);}.cls-7{fill:none;stroke:#000;}.cls-8{filter:url(#luminosity-noclip);}.cls-9{filter:url(#luminosity-invert-noclip);}</style><filter id="luminosity-invert-noclip" x="314.50679" y="-4217.78309" width="457.5" height="32766" filterUnits="userSpaceOnUse" color-interpolation-filters="sRGB"><feColorMatrix values="-1 0 0 0 1 0 -1 0 0 1 0 0 -1 0 1 0 0 0 1 0" result="invert"/><feFlood flood-color="#fff" result="bg"/><feBlend in="invert" in2="bg"/></filter><mask id="mask" x="314.50679" y="-4217.78309" width="457.5" height="32766" maskUnits="userSpaceOnUse"><g class="cls-9"/></mask><linearGradient id="New_Gradient_Swatch_1" x1="64.53598" y1="300.17948" x2="870.84637" y2="300.17948" gradientTransform="translate(522.85067 -252.81255) rotate(63.00259)" gradientUnits="userSpaceOnUse"><stop offset="0" stop-color="#8affb7"/><stop offset="1" stop-color="#50d7dd"/></linearGradient><filter id="luminosity-noclip" x="391.95456" y="203.76384" width="126.98991" height="137.51427" filterUnits="userSpaceOnUse" color-interpolation-filters="sRGB"><feFlood flood-color="#fff" result="bg"/><feBlend in="SourceGraphic" in2="bg"/></filter><mask id="mask-2" x="391.95456" y="203.76384" width="126.98991" height="137.51427" maskUnits="userSpaceOnUse"><g class="cls-8"><rect class="cls-1" x="385.77158" y="241.77097" width="123" height="61.5" transform="translate(1.40897 547.34107) rotate(-63.00259)"/></g></mask></defs><title>powergdes-preview3</title><g class="cls-2"><rect class="cls-3" x="156.25679" y="282.03309" width="774" height="451.5" rx="220.00439" transform="translate(35.4737 1051.03989) rotate(-90)"/></g><path class="cls-4" d="M752.88179,342.46211v330.642c0,113.05471-92.49931,205.554-205.554,205.554h-8.142c-113.05471,0-205.554-92.4993-205.554-205.554V548.09559l19.49366-19.49366A16.02573,16.02573,0,0,0,357.81929,517.27v-19.0278a15.89549,15.89549,0,0,0-4.65567-11.23979l-19.53183-19.53183V342.46211c0-113.05471,92.49931-205.554,205.554-205.554h8.142C660.38248,136.90809,752.88179,229.4074,752.88179,342.46211Z"/><rect class="cls-3" x="281.22554" y="463.43934" width="32.25" height="88.6875" rx="9.62622" transform="translate(-210.43255 805.13364) rotate(-90)"/><rect class="cls-3" x="-113.83696" y="149.00184" width="16.125" height="717.5625" transform="translate(402.00864 613.55755) rotate(90)"/><rect class="cls-3" x="283.19117" y="-99.57052" width="369" height="799.5" rx="61.65807" transform="translate(-12.08539 580.6384) rotate(-63.00259)"/><rect class="cls-5" x="298.56617" y="-84.19552" width="338.25" height="768.75" rx="46.72079" transform="translate(-12.08539 580.6384) rotate(-63.00259)"/><path class="cls-3" d="M81.836,215.73937s30.88883,7.1092,37.86831-6.59034L188.43991,74.2328a11.888,11.888,0,0,0,1.28448-5.02169c.21607-6.7386-1.01-23.34038-17.15506-31.56576"/><g class="cls-6"><path class="cls-1" d="M413.56543,306.17306c.30779-4.15339-3.57606-6.54111-2.35718-9.78534,2.82984-7.532,10.3795-13.37722,27.54081-17.86087,24.55311-6.41485,28.26161-10.85449,40.5707-10.98464s39.23037-2.16964,39.62084,34.75764-28.90936,34.99064-41.21845,35.12079-17.49184-7.07872-37.61443-9.78658c-14.00277-1.88432-25.17962-3.87583-28.89647-12.15613C410.07068,312.937,413.32536,309.41254,413.56543,306.17306Zm67.31844,12.97122c9.22819,1.58113,19.95318-8.23149,19.507-17.17989s-8.57246-18.33656-21.73335-16.03917c-11.08446,2.41766-19.5544,9.74018-20.78371,18.354C458.62656,312.66479,470.07312,317.41643,480.88387,319.14428Z"/></g><path class="cls-7" d="M413.56543,306.17306c.30779-4.15339-3.57606-6.54111-2.35718-9.78534,2.82984-7.532,10.3795-13.37722,27.54081-17.86087,24.55311-6.41485,28.26161-10.85449,40.5707-10.98464s39.23037-2.16964,39.62084,34.75764-28.90936,34.99064-41.21845,35.12079-17.49184-7.07872-37.61443-9.78658c-14.00277-1.88432-25.17962-3.87583-28.89647-12.15613C410.07068,312.937,413.32536,309.41254,413.56543,306.17306Zm67.31844,12.97122c9.22819,1.58113,19.95318-8.23149,19.507-17.17989s-8.57246-18.33656-21.73335-16.03917c-11.08446,2.41766-19.5544,9.74018-20.78371,18.354C458.62656,312.66479,470.07312,317.41643,480.88387,319.14428Z"/></svg>