<svg id="Layer_1" data-name="Layer 1" xmlns="http://www.w3.org/2000/svg" xmlns:xlink="http://www.w3.org/1999/xlink" viewBox="0 0 776.61922 776.61922"><defs><style>.cls-1{mask:url(#mask);}.cls-2{fill:#f1f2f2;}.cls-2,.cls-3,.cls-4{stroke:#231f20;stroke-miterlimit:10;stroke-width:6px;}.cls-3{fill:#fff;}.cls-4{fill:none;}.cls-5{fill:url(#New_Gradient_Swatch_1);}.cls-6{fill:#231f20;}.cls-7{filter:url(#luminosity-invert-noclip);}</style><filter id="luminosity-invert-noclip" x="-121.51601" y="-292.92009" width="534" height="870" filterUnits="userSpaceOnUse" color-interpolation-filters="sRGB"><feColorMatrix values="-1 0 0 0 1 0 -1 0 0 1 0 0 -1 0 1 0 0 0 1 0" result="invert"/><feFlood flood-color="#fff" result="bg"/><feBlend in="invert" in2="bg"/></filter><mask id="mask" x="-121.51601" y="-292.92009" width="534" height="870" maskUnits="userSpaceOnUse"><g class="cls-7"/></mask><linearGradient id="New_Gradient_Swatch_1" x1="263.67717" y1="491.22851" x2="275.67859" y2="491.22851" gradientUnits="userSpaceOnUse"><stop offset="0" stop-color="#8affb7"/><stop offset="1" stop-color="#50d7dd"/></linearGradient></defs><title>powergdes-preview1</title><g class="cls-1"><rect class="cls-2" x="-274.51601" y="-109.92009" width="864" height="504" rx="245.58629" transform="translate(15.40407 299.5639) rotate(-90)"/></g><path class="cls-2" d="M391.484-42.46444V326.62427c0,126.2006-103.255,229.45564-229.45565,229.45564h-9.08871c-126.2006,0-229.45564-103.255-229.45564-229.45564V187.07991l21.76036-21.76036A17.88925,17.88925,0,0,0-49.516,152.67V131.42963a17.7438,17.7438,0,0,0-5.197-12.54675l-21.803-21.803V-42.46444c0-126.2006,103.255-229.45565,229.45564-229.45565h9.08871C288.22894-271.92009,391.484-168.665,391.484-42.46444Z"/><rect class="cls-3" x="149.67452" y="276.03258" width="216" height="252" rx="59.0148" transform="translate(-51.31658 37.95724) rotate(-7.66429)"/><line class="cls-4" x1="144.63776" y1="371.83839" x2="358.70812" y2="343.03078"/><polyline class="cls-4" points="198.155 364.636 219.595 388.995 290.952 379.392 305.191 350.233"/><path class="cls-5" d="M269.66583,497.22949a6.00046,6.00046,0,0,1-.78808-11.94727,6.09476,6.09476,0,0,1,.80957-.05468,6.001,6.001,0,0,1-.02149,12.002Z"/><path class="cls-6" d="M269.69013,488.22754a3.00047,3.00047,0,0,1,.38745,5.97412,3.08494,3.08494,0,0,1-.4115.02783,3.00048,3.00048,0,0,1-.38831-5.97412,3.08908,3.08908,0,0,1,.41236-.02783m-.00086-6a9.1043,9.1043,0,0,0-1.21191.08154,9.00045,9.00045,0,0,0,1.18872,17.92041,9.1043,9.1043,0,0,0,1.21191-.08154,9.00044,9.00044,0,0,0-1.18872-17.92041Z"/></svg>