<svg id="Layer_1" data-name="Layer 1" xmlns="http://www.w3.org/2000/svg" xmlns:xlink="http://www.w3.org/1999/xlink" viewBox="0 0 612 612"><defs><style>.cls-1{mask:url(#mask);}.cls-2{fill:#fff;}.cls-2,.cls-3{stroke:#231f20;stroke-miterlimit:10;stroke-width:6px;}.cls-3{fill:#e6e7e8;}.cls-4{filter:url(#luminosity-invert-noclip);}</style><filter id="luminosity-invert-noclip" x="127.05696" y="-4646" width="870" height="32766" filterUnits="userSpaceOnUse" color-interpolation-filters="sRGB"><feColorMatrix values="-1 0 0 0 1 0 -1 0 0 1 0 0 -1 0 1 0 0 0 1 0" result="invert"/><feFlood flood-color="#fff" result="bg"/><feBlend in="invert" in2="bg"/></filter><mask id="mask" x="127.05696" y="-4646" width="870" height="32766" maskUnits="userSpaceOnUse"><g class="cls-4"/></mask></defs><title>powergdes-preview2</title><g class="cls-1"><rect class="cls-2" x="130.05696" y="361.50181" width="864" height="504" rx="245.58629"/></g><path class="cls-3" d="M746.60131,847.50181H377.51261c-126.2006,0-229.45565-103.255-229.45565-229.45565v-9.0887c0-126.20061,103.255-229.45565,229.45565-229.45565H517.057l21.76037,21.76037a17.88923,17.88923,0,0,0,12.64959,5.23963h21.24033a17.74378,17.74378,0,0,0,12.54674-5.197l21.803-21.803H746.60131c126.20061,0,229.45565,103.255,229.45565,229.45565v9.0887C976.057,744.24677,872.80192,847.50181,746.60131,847.50181Z"/><rect class="cls-2" x="544.05696" y="289.50181" width="36" height="99" rx="10.74555"/><rect class="cls-2" x="553.05696" y="-511.49819" width="18" height="801" transform="translate(1124.11393 -221.99638) rotate(180)"/></svg>