<svg id="Layer_1" data-name="Layer 1" xmlns="http://www.w3.org/2000/svg" xmlns:xlink="http://www.w3.org/1999/xlink" viewBox="0 0 1242 648"><defs><style>.cls-1,.cls-4{fill:#fff;}.cls-1{filter:url(#luminosity-invert-noclip);}.cls-2{fill:#020202;}.cls-3{mask:url(#mask);}.cls-4,.cls-5,.cls-6,.cls-9{stroke:#231f20;}.cls-11,.cls-4,.cls-5,.cls-6,.cls-9{stroke-miterlimit:10;}.cls-11,.cls-12,.cls-4,.cls-5,.cls-6,.cls-9{stroke-width:6px;}.cls-5{fill:#e6e7e8;}.cls-11,.cls-12,.cls-6{fill:none;}.cls-7{fill:url(#New_Gradient_Swatch_1);}.cls-8{fill:#231f20;}.cls-9{fill:url(#New_Gradient_Swatch_1-2);}.cls-10{mask:url(#mask-2);}.cls-11,.cls-12{stroke:#000;}.cls-12{stroke-linecap:round;stroke-linejoin:round;}.cls-13{filter:url(#luminosity-noclip);}</style><filter id="luminosity-invert-noclip" x="186" y="87.06622" width="870" height="537.94268" filterUnits="userSpaceOnUse" color-interpolation-filters="sRGB"><feColorMatrix values="-1 0 0 0 1 0 -1 0 0 1 0 0 -1 0 1 0 0 0 1 0" result="invert"/><feFlood flood-color="#fff" result="bg"/><feBlend in="invert" in2="bg"/></filter><mask id="mask" x="186" y="87.06622" width="870" height="537.94268" maskUnits="userSpaceOnUse"><rect class="cls-1" x="585.80856" y="87.06622" width="70.38288" height="33.87646"/></mask><linearGradient id="New_Gradient_Swatch_1" x1="887.50559" y1="338.1377" x2="899.50735" y2="338.1377" gradientUnits="userSpaceOnUse"><stop offset="0" stop-color="#8affb7"/><stop offset="1" stop-color="#50d7dd"/></linearGradient><linearGradient id="New_Gradient_Swatch_1-2" x1="529.18481" y1="422.57616" x2="712.81519" y2="422.57616" gradientTransform="translate(936.99572 -258.86226) rotate(80.64365)" xlink:href="#New_Gradient_Swatch_1"/><filter id="luminosity-noclip" x="577.68274" y="368.9939" width="74.92357" height="78.48784" filterUnits="userSpaceOnUse" color-interpolation-filters="sRGB"><feFlood flood-color="#fff" result="bg"/><feBlend in="SourceGraphic" in2="bg"/></filter><mask id="mask-2" x="577.68274" y="368.9939" width="74.92357" height="78.48784" maskUnits="userSpaceOnUse"><g class="cls-13"><rect class="cls-2" x="554.56336" y="399.17957" width="76.56111" height="18.11649" transform="translate(93.656 926.82575) rotate(-80.64365)"/></g></mask></defs><title>powergdes</title><g class="cls-3"><rect class="cls-4" x="189" y="118.0089" width="864" height="504" rx="245.58629"/></g><path class="cls-5" d="M805.54435,604.0089H436.45565C310.255,604.0089,207,500.75385,207,374.55325v-9.0887C207,239.26394,310.255,136.0089,436.45565,136.0089H576l21.76037,21.76036A17.88922,17.88922,0,0,0,610.41,163.0089h21.24033a17.74378,17.74378,0,0,0,12.54674-5.197L666,136.0089H805.54435C931.745,136.0089,1035,239.26394,1035,365.46455v9.0887C1035,500.75385,931.745,604.0089,805.54435,604.0089Z"/><rect class="cls-4" x="603" y="46.0089" width="36" height="99" rx="10.74555"/><rect class="cls-4" x="612" y="-754.9911" width="18" height="801" transform="translate(1242 -708.98221) rotate(180)"/><rect class="cls-4" x="773.50303" y="122.94159" width="216" height="252" rx="59.0148" transform="translate(-25.32609 119.78872) rotate(-7.66429)"/><line class="cls-6" x1="768.46626" y1="218.7474" x2="982.53662" y2="189.93979"/><polyline class="cls-6" points="821.984 211.545 843.424 235.904 914.781 226.301 929.019 197.142"/><path class="cls-7" d="M893.49609,344.13867a6.01752,6.01752,0,1,1,.81006-.05469A6.10041,6.10041,0,0,1,893.49609,344.13867Z"/><path class="cls-8" d="M893.518,335.13647a3.00063,3.00063,0,0,1,.38836,5.97437,3.12451,3.12451,0,0,1-.41144.02783,3.00062,3.00062,0,0,1-.38885-5.97436,3.12844,3.12844,0,0,1,.41193-.02784m-.00049-6a9.10055,9.10055,0,0,0-1.21161.08155,9.00057,9.00057,0,0,0,1.189,17.92065,9.10052,9.10052,0,0,0,1.21161-.08154,9.00058,9.00058,0,0,0-1.189-17.92066Z"/><path class="cls-4" d="M735.13969,377.368s27.73842,25.90854,79.67394,34.46576l353.1615,58.1891s41.54841,6.84578,34.70263,48.39419-48.39419,34.70263-48.39419,34.70263l-353.1615-58.1891s-62.32261-10.26866-86.51971,7.08265"/><path class="cls-4" d="M506.86031,467.78434s-27.73842-25.90854-79.67394-34.46576L229.83142,400.80114s-13.23513,6.72734-21.33109,10.35222c-6.77741,3.03451-18.8105-.06463-24.01927-4.16006-7.00413-5.50706-16.97226-16.46083-16.97226-16.46083l-93.48393-15.403s-41.54841-6.84578-34.70263-48.39419,48.39419-34.70264,48.39419-34.70264l93.48392,15.403,21.97581-9.938a20.75656,20.75656,0,0,1,22.721,3.74366l17.6258,16.463,197.355,32.51744s62.32261,10.26866,86.51971-7.08266"/><rect class="cls-4" x="526.25562" y="317.30463" width="189.48875" height="210.54306" rx="41.80058" transform="translate(103.08704 966.61456) rotate(-80.64365)"/><rect class="cls-4" x="600.83383" y="297.71005" width="10.52715" height="42.10861" rx="5.26357" transform="translate(193.03835 864.97585) rotate(-80.64369)"/><rect class="cls-9" x="547.30993" y="338.35894" width="147.38014" height="168.43445" rx="21.85144" transform="translate(103.08704 966.61456) rotate(-80.64365)"/><rect class="cls-4" x="164.57983" y="344.91782" width="81.51987" height="18.13218" rx="9.06608" transform="translate(-177.31781 499.04322) rotate(-80.64365)"/><path class="cls-4" d="M849.51625,449.70078h0a10.52714,10.52714,0,0,1,10.52714,10.52714v0a10.52715,10.52715,0,0,1-10.52715,10.52715h0a10.52714,10.52714,0,0,1-10.52714-10.52714v0a10.52714,10.52714,0,0,1,10.52714-10.52714Z" transform="matrix(0.16257, -0.9867, 0.9867, 0.16257, 257.30165, 1223.62134)"/><rect class="cls-4" x="890.92462" y="458.258" width="21.05431" height="21.05431" rx="10.52714" transform="translate(292.35048 1282.03201) rotate(-80.64366)"/><path class="cls-4" d="M953.38728,466.81522h0a10.52714,10.52714,0,0,1,10.52714,10.52714v0a10.52715,10.52715,0,0,1-10.52715,10.52715h0a10.52714,10.52714,0,0,1-10.52714-10.52714v0A10.52714,10.52714,0,0,1,953.38728,466.81522Z" transform="translate(327.39872 1340.44225) rotate(-80.64363)"/><rect class="cls-4" x="994.79565" y="475.37245" width="21.05431" height="21.05431" rx="10.52714" transform="translate(362.44794 1398.85319) rotate(-80.64366)"/><path class="cls-4" d="M1057.25831,483.92967h0a10.52714,10.52714,0,0,1,10.52714,10.52714v0a10.52715,10.52715,0,0,1-10.52715,10.52715h0a10.52714,10.52714,0,0,1-10.52714-10.52714v0A10.52714,10.52714,0,0,1,1057.25831,483.92967Z" transform="matrix(0.16257, -0.9867, 0.9867, 0.16257, 397.49629, 1457.26353)"/><g class="cls-10"><path class="cls-2" d="M589.14607,436.19668c-.6009-2.52176-3.35512-3.20547-3.24408-5.35979.25779-5.00163,3.63347-9.893,12.96739-15.7898,13.35426-8.43672,14.71659-11.76976,21.9935-14.16888s22.86127-8.68719,30.05866,13.14355-10.54791,26.20894-17.82482,28.60807-11.711-.89937-24.15809,1.29022c-8.66156,1.52367-15.66708,2.45069-19.43378-1.75986C588.349,440.86812,589.61475,438.16355,589.14607,436.19668Zm42.37855-5.00437c5.7722-.80287,10.283-8.64659,8.33036-13.87041s-8.54389-9.25975-15.91726-5.41439c-6.119,3.525-9.76188,9.46628-8.86621,14.80768C617.09985,431.54732,624.786,432.20667,631.52462,431.19231Z"/></g><path class="cls-11" d="M589.14607,436.19668c-.6009-2.52176-3.35512-3.20547-3.24408-5.35979.25779-5.00163,3.63347-9.893,12.96739-15.7898,13.35426-8.43672,14.71659-11.76976,21.9935-14.16888s22.86127-8.68719,30.05866,13.14355-10.54791,26.20894-17.82482,28.60807-11.711-.89937-24.15809,1.29022c-8.66156,1.52367-15.66708,2.45069-19.43378-1.75986C588.349,440.86812,589.61475,438.16355,589.14607,436.19668Zm42.37855-5.00437c5.7722-.80287,10.283-8.64659,8.33036-13.87041s-8.54389-9.25975-15.91726-5.41439c-6.119,3.525-9.76188,9.46628-8.86621,14.80768C617.09985,431.54732,624.786,432.20667,631.52462,431.19231Z"/><polyline class="cls-12" points="567.235 360.372 575.91 372.471 577.622 362.083 586.297 374.182"/></svg>