<svg id="Layer_1" data-name="Layer 1" xmlns="http://www.w3.org/2000/svg" xmlns:xlink="http://www.w3.org/1999/xlink" viewBox="0 0 882 1296"><defs><style>.cls-1,.cls-3{fill:#fff;}.cls-1{filter:url(#luminosity-invert-noclip);}.cls-2{mask:url(#mask);}.cls-3,.cls-4{stroke:#231f20;stroke-miterlimit:10;stroke-width:6px;}.cls-4{fill:url(#New_Gradient_Swatch_1);}</style><filter id="luminosity-invert-noclip" x="6" y="760.5" width="870" height="534" filterUnits="userSpaceOnUse" color-interpolation-filters="sRGB"><feColorMatrix values="-1 0 0 0 1 0 -1 0 0 1 0 0 -1 0 1 0 0 0 1 0" result="invert"/><feFlood flood-color="#fff" result="bg"/><feBlend in="invert" in2="bg"/></filter><mask id="mask" x="6" y="760.5" width="870" height="534" maskUnits="userSpaceOnUse"><rect class="cls-1" x="414" y="760.5" width="54" height="63"/></mask><linearGradient id="New_Gradient_Swatch_1" x1="27" y1="1039.5" x2="855" y2="1039.5" gradientUnits="userSpaceOnUse"><stop offset="0" stop-color="#8affb7"/><stop offset="1" stop-color="#50d7dd"/></linearGradient></defs><title>powerg</title><g class="cls-2"><rect class="cls-3" x="9" y="787.5" width="864" height="504" rx="245.58629"/></g><path class="cls-4" d="M625.54435,1273.5H256.45565C130.255,1273.5,27,1170.245,27,1044.04435v-9.0887C27,908.755,130.255,805.5,256.45565,805.5H396l21.76037,21.76037A17.88921,17.88921,0,0,0,430.41,832.5h21.24033a17.74378,17.74378,0,0,0,12.54674-5.197L486,805.5H625.54435C751.745,805.5,855,908.755,855,1034.95565v9.0887C855,1170.245,751.745,1273.5,625.54435,1273.5Z"/><rect class="cls-3" x="423" y="715.5" width="36" height="99" rx="10.74555"/><rect class="cls-3" x="432" y="-85.5" width="18" height="801" transform="translate(882 630) rotate(180)"/></svg>