<svg id="Layer_1" data-name="Layer 1" xmlns="http://www.w3.org/2000/svg" xmlns:xlink="http://www.w3.org/1999/xlink" viewBox="0 0 659.72242 1217.72242"><defs><style>.cls-1,.cls-3{fill:#fff;}.cls-1{filter:url(#luminosity-invert-noclip);}.cls-2{mask:url(#mask);}.cls-3,.cls-4{stroke:#231f20;stroke-miterlimit:10;stroke-width:6px;}.cls-4{fill:url(#New_Gradient_Swatch_1);}</style><filter id="luminosity-invert-noclip" x="6" y="682.22242" width="870" height="534" filterUnits="userSpaceOnUse" color-interpolation-filters="sRGB"><feColorMatrix values="-1 0 0 0 1 0 -1 0 0 1 0 0 -1 0 1 0 0 0 1 0" result="invert"/><feFlood flood-color="#fff" result="bg"/><feBlend in="invert" in2="bg"/></filter><mask id="mask" x="6" y="682.22242" width="870" height="534" maskUnits="userSpaceOnUse"><rect class="cls-1" x="414" y="682.22242" width="54" height="63"/></mask><linearGradient id="New_Gradient_Swatch_1" x1="27" y1="961.22242" x2="855" y2="961.22242" gradientUnits="userSpaceOnUse"><stop offset="0" stop-color="#8affb7"/><stop offset="1" stop-color="#50d7dd"/></linearGradient></defs><title>powergside</title><g class="cls-2"><rect class="cls-3" x="9" y="709.22242" width="864" height="504" rx="245.58629"/></g><path class="cls-4" d="M625.54435,1195.22242H256.45565C130.255,1195.22242,27,1091.96738,27,965.76677v-9.0887c0-126.20061,103.255-229.45565,229.45565-229.45565H396l21.76037,21.76037A17.88921,17.88921,0,0,0,430.41,754.22242h21.24033a17.74378,17.74378,0,0,0,12.54674-5.197L486,727.22242H625.54435C751.745,727.22242,855,830.47746,855,956.67807v9.0887C855,1091.96738,751.745,1195.22242,625.54435,1195.22242Z"/><rect class="cls-3" x="423" y="637.22242" width="36" height="99" rx="10.74555"/><rect class="cls-3" x="432" y="-163.77758" width="18" height="801" transform="translate(882 473.44484) rotate(180)"/></svg>