<svg id="Layer_1" data-name="Layer 1" xmlns="http://www.w3.org/2000/svg" xmlns:xlink="http://www.w3.org/1999/xlink" viewBox="0 0 743.0605 1074.10676"><defs><style>.cls-1,.cls-3{fill:#fff;}.cls-2{mask:url(#mask);}.cls-3,.cls-4,.cls-6{stroke:#231f20;stroke-miterlimit:10;stroke-width:6px;}.cls-4{fill:#fafafa;}.cls-5{mask:url(#mask-2);}.cls-6{fill:url(#New_Gradient_Swatch_1);}.cls-7{filter:url(#luminosity-invert-noclip-2);}.cls-8{filter:url(#luminosity-invert-noclip);}</style><filter id="luminosity-invert-noclip" x="5.71174" y="4.68683" width="537.94268" height="870" filterUnits="userSpaceOnUse" color-interpolation-filters="sRGB"><feColorMatrix values="-1 0 0 0 1 0 -1 0 0 1 0 0 -1 0 1 0 0 0 1 0" result="invert"/><feFlood flood-color="#fff" result="bg"/><feBlend in="invert" in2="bg"/></filter><mask id="mask" x="5.71174" y="4.68683" width="537.94268" height="870" maskUnits="userSpaceOnUse"><g class="cls-8"><rect class="cls-1" x="491.38244" y="422.60629" width="70.38288" height="34.16109" transform="translate(966.26071 -86.88704) rotate(90)"/></g></mask><filter id="luminosity-invert-noclip-2" x="227.34875" y="199.41993" width="537.94268" height="870" filterUnits="userSpaceOnUse" color-interpolation-filters="sRGB"><feColorMatrix values="-1 0 0 0 1 0 -1 0 0 1 0 0 -1 0 1 0 0 0 1 0" result="invert"/><feFlood flood-color="#fff" result="bg"/><feBlend in="invert" in2="bg"/></filter><mask id="mask-2" x="227.34875" y="199.41993" width="537.94268" height="870" maskUnits="userSpaceOnUse"><g class="cls-7"><rect class="cls-1" x="713.01945" y="617.33938" width="70.38288" height="34.16109" transform="translate(1382.63082 -113.79096) rotate(90)"/></g></mask><linearGradient id="New_Gradient_Swatch_1" x1="-104.89324" y1="741.10676" x2="723.10676" y2="741.10676" gradientTransform="translate(1223.45552 325.31317) rotate(90)" gradientUnits="userSpaceOnUse"><stop offset="0" stop-color="#8affb7"/><stop offset="1" stop-color="#50d7dd"/></linearGradient></defs><title>pricing</title><g class="cls-2"><rect class="cls-3" x="-171.28826" y="187.68683" width="864" height="504" rx="245.58629" transform="translate(700.39858 178.97509) rotate(90)"/></g><path class="cls-4" d="M26.71174,624.23118V255.14248c0-126.20061,103.25505-229.45565,229.45565-229.45565h9.08871c126.2006,0,229.45564,103.255,229.45564,229.45565V394.68683L472.95138,416.4472a17.88924,17.88924,0,0,0-5.23964,12.64959v21.24033a17.74378,17.74378,0,0,0,5.197,12.54674l21.803,21.803V624.23118c0,126.20061-103.255,229.45565-229.45564,229.45565h-9.08871C129.96679,853.68683,26.71174,750.43179,26.71174,624.23118Z"/><g class="cls-5"><rect class="cls-3" x="50.34875" y="382.41993" width="864" height="504" rx="245.58629" transform="translate(1116.76868 152.07117) rotate(90)"/></g><path class="cls-6" d="M248.34875,818.96428V449.87558c0-126.20061,103.255-229.45565,229.45565-229.45565h9.08871c126.2006,0,229.45564,103.255,229.45564,229.45565V589.41993L694.58839,611.1803a17.88922,17.88922,0,0,0-5.23964,12.64959v21.24033a17.74374,17.74374,0,0,0,5.197,12.54674l21.803,21.803V818.96428c0,126.20061-103.255,229.45565-229.45564,229.45565H477.8044C351.6038,1048.41993,248.34875,945.16489,248.34875,818.96428Z"/></svg>