<svg id="Layer_1" data-name="Layer 1" xmlns="http://www.w3.org/2000/svg" xmlns:xlink="http://www.w3.org/1999/xlink" viewBox="0 0 1511.23132 520.39858"><defs><style>.cls-1,.cls-3{fill:#fff;}.cls-1{filter:url(#luminosity-invert-noclip);}.cls-2{mask:url(#mask);}.cls-3,.cls-4{stroke:#231f20;stroke-miterlimit:10;stroke-width:6px;}.cls-4{fill:none;}</style><filter id="luminosity-invert-noclip" x="4.49933" y="-22.88707" width="870" height="537.94268" filterUnits="userSpaceOnUse" color-interpolation-filters="sRGB"><feColorMatrix values="-1 0 0 0 1 0 -1 0 0 1 0 0 -1 0 1 0 0 0 1 0" result="invert"/><feFlood flood-color="#fff" result="bg"/><feBlend in="invert" in2="bg"/></filter><mask id="mask" x="4.49933" y="-22.88707" width="870" height="537.94268" maskUnits="userSpaceOnUse"><rect class="cls-1" x="404.30789" y="-22.88707" width="70.38288" height="34.16109"/></mask></defs><title>specs</title><g class="cls-2"><rect class="cls-3" x="7.49933" y="8.05561" width="864" height="504" rx="245.58629"/></g><path class="cls-3" d="M624.04368,494.05561H254.955c-126.20061,0-229.45565-103.255-229.45565-229.45565v-9.0887c0-126.20061,103.255-229.45565,229.45565-229.45565H394.49933L416.2597,47.816a17.88921,17.88921,0,0,0,12.64959,5.23963h21.24033a17.74378,17.74378,0,0,0,12.54674-5.197l21.803-21.803H624.04368c126.20061,0,229.45565,103.255,229.45565,229.45565V264.6C853.49933,390.80057,750.24429,494.05561,624.04368,494.05561Z"/><rect class="cls-3" x="1311.8174" y="305.31318" width="191.91459" height="206.74243" rx="9.10853"/><line class="cls-4" x1="1378.33084" y1="247.45534" x2="1378.33084" y2="307.19034"/><line class="cls-4" x1="1435.10028" y1="247.45534" x2="1435.10028" y2="303.16565"/><rect class="cls-4" x="935.6625" y="52.79796" width="37.67132" height="83.23699" rx="8.17135"/><rect class="cls-4" x="943.55685" y="33.59298" width="21.8826" height="18.374"/><rect class="cls-4" x="1206.50779" y="52.79796" width="37.67132" height="83.23699" rx="8.17135"/><rect class="cls-4" x="1214.40214" y="33.59298" width="21.8826" height="18.374"/><path class="cls-4" d="M954.49815,136.035V348.76708s-1.99474,163.28853,123.484,163.28853,130.88012-297.49259,0-297.49259-95.56326,281.70388,0,281.70388,82.94292-157.17567,75.5273-192.14217c-6.75231-21.56766-15.14239-76.63528-73.86533-76.68144-55.4033-.04356-76.12745,59.27692-69.06407,129.49514s29.1768,123.53976,65.32464,123.53976,73.0013-60.50163,71.14154-108.76669c-1.939-50.32076-17.26835-132.86058-67.21077-130.48-41.00193,1.95438-56.883,63.07794-55.221,125.12481,8.30985,118.18452,84.78448,146.47857,115.13757,143.76039,55.676-4.98591,96.53275-50.96708,87.39191-374.0817"/></svg>