<svg id="Layer_1" data-name="Layer 1" xmlns="http://www.w3.org/2000/svg" xmlns:xlink="http://www.w3.org/1999/xlink" viewBox="0 0 189 1017"><defs><style>.cls-1{fill:#fff;}.cls-1,.cls-2{stroke:#231f20;stroke-miterlimit:10;stroke-width:6px;}.cls-2{fill:url(#New_Gradient_Swatch_1);}</style><linearGradient id="New_Gradient_Swatch_1" x1="133.50076" y1="583.84552" x2="46.49924" y2="433.15448" gradientUnits="userSpaceOnUse"><stop offset="0" stop-color="#8affb7"/><stop offset="1" stop-color="#50d7dd"/></linearGradient></defs><title>watchg</title><path class="cls-1" d="M144,598.5s-18,27-18,72v306s0,36-36,36-36-36-36-36v-306s0-54-18-72"/><path class="cls-1" d="M36,418.5s18-27,18-72v-171s-7.51446-10.22957-11.69751-16.55516c-3.50178-5.29537-2.56-15.87674.17082-20.83986C46.14533,131.43116,54,121.5,54,121.5v-81s0-36,36-36,36,36,36,36v81l11.43772,17.15658a17.74547,17.74547,0,0,1,0,19.68684L126,175.5v171s0,54,18,72"/><rect class="cls-1" x="9" y="418.5" width="162" height="180" rx="35.73665"/><rect class="cls-1" x="171" y="463.5" width="9" height="36" rx="4.5"/><rect class="cls-2" x="27" y="436.5" width="126" height="144" rx="18.68149"/><rect class="cls-1" x="55.24199" y="140.58185" width="69.69395" height="15.50178" rx="7.75088"/><rect class="cls-1" x="81" y="697.5" width="18" height="18" rx="8.99999"/><rect class="cls-1" x="81" y="742.5" width="18" height="18" rx="8.99999"/><rect class="cls-1" x="81" y="787.5" width="18" height="18" rx="8.99999"/><rect class="cls-1" x="81" y="832.5" width="18" height="18" rx="8.99999"/><rect class="cls-1" x="81" y="877.5" width="18" height="18" rx="8.99999"/></svg>