<svg width="20" height="20" viewBox="0 0 20 20" fill="none" xmlns="http://www.w3.org/2000/svg">
<mask id="mask0_102_3819" style="mask-type:alpha" maskUnits="userSpaceOnUse" x="0" y="0" width="20" height="20">
<rect width="20" height="20" fill="#D9D9D9"/>
</mask>
<g mask="url(#mask0_102_3819)">
<path d="M11.875 17.8334C11.5555 18.1528 11.1597 18.3125 10.6875 18.3125C10.2153 18.3125 9.81943 18.1528 9.49999 17.8334L2.16666 10.5C2.01388 10.3472 1.89249 10.1667 1.80249 9.95835C1.71193 9.75002 1.66666 9.5278 1.66666 9.29169V3.33335C1.66666 2.87502 1.82999 2.48252 2.15666 2.15585C2.48277 1.82974 2.87499 1.66669 3.33332 1.66669H9.29166C9.52777 1.66669 9.74999 1.71169 9.95832 1.80169C10.1667 1.89224 10.3472 2.01391 10.5 2.16669L17.8333 9.52085C18.1528 9.8403 18.3125 10.2325 18.3125 10.6975C18.3125 11.1631 18.1528 11.5556 17.8333 11.875L11.875 17.8334ZM10.6875 16.6667L16.6458 10.7084L9.29166 3.33335H3.33332V9.29169L10.6875 16.6667ZM5.41666 6.66669C5.76388 6.66669 6.05888 6.54502 6.30166 6.30169C6.54499 6.05891 6.66666 5.76391 6.66666 5.41669C6.66666 5.06946 6.54499 4.77447 6.30166 4.53169C6.05888 4.28835 5.76388 4.16669 5.41666 4.16669C5.06943 4.16669 4.77443 4.28835 4.53166 4.53169C4.28832 4.77447 4.16666 5.06946 4.16666 5.41669C4.16666 5.76391 4.28832 6.05891 4.53166 6.30169C4.77443 6.54502 5.06943 6.66669 5.41666 6.66669Z" fill="black"/>
</g>
</svg>
