<svg width="21" height="20" viewBox="0 0 21 20" fill="none" xmlns="http://www.w3.org/2000/svg">
<mask id="mask0_102_4720" style="mask-type:alpha" maskUnits="userSpaceOnUse" x="0" y="0" width="21" height="20">
<rect x="0.5" width="20" height="20" fill="#D9D9D9"/>
</mask>
<g mask="url(#mask0_102_4720)">
<path d="M10.5 10C9.58337 10 8.79865 9.67362 8.14587 9.02084C7.4931 8.36807 7.16671 7.58334 7.16671 6.66668C7.16671 5.75001 7.4931 4.96529 8.14587 4.31251C8.79865 3.65973 9.58337 3.33334 10.5 3.33334C11.4167 3.33334 12.2014 3.65973 12.8542 4.31251C13.507 4.96529 13.8334 5.75001 13.8334 6.66668C13.8334 7.58334 13.507 8.36807 12.8542 9.02084C12.2014 9.67362 11.4167 10 10.5 10ZM3.83337 16.6667V14.3333C3.83337 13.8611 3.95504 13.427 4.19837 13.0308C4.44115 12.6353 4.76393 12.3333 5.16671 12.125C6.02782 11.6945 6.90282 11.3714 7.79171 11.1558C8.6806 10.9408 9.58337 10.8333 10.5 10.8333C11.4167 10.8333 12.3195 10.9408 13.2084 11.1558C14.0973 11.3714 14.9723 11.6945 15.8334 12.125C16.2362 12.3333 16.5589 12.6353 16.8017 13.0308C17.045 13.427 17.1667 13.8611 17.1667 14.3333V16.6667H3.83337ZM5.50004 15H15.5V14.3333C15.5 14.1806 15.462 14.0417 15.3859 13.9167C15.3092 13.7917 15.2084 13.6945 15.0834 13.625C14.3334 13.25 13.5764 12.9686 12.8125 12.7808C12.0487 12.5936 11.2778 12.5 10.5 12.5C9.72226 12.5 8.95143 12.5936 8.18754 12.7808C7.42365 12.9686 6.66671 13.25 5.91671 13.625C5.79171 13.6945 5.69115 13.7917 5.61504 13.9167C5.53837 14.0417 5.50004 14.1806 5.50004 14.3333V15ZM10.5 8.33334C10.9584 8.33334 11.3509 8.17001 11.6775 7.84334C12.0037 7.51723 12.1667 7.12501 12.1667 6.66668C12.1667 6.20834 12.0037 5.81612 11.6775 5.49001C11.3509 5.16334 10.9584 5.00001 10.5 5.00001C10.0417 5.00001 9.64949 5.16334 9.32337 5.49001C8.99671 5.81612 8.83337 6.20834 8.83337 6.66668C8.83337 7.12501 8.99671 7.51723 9.32337 7.84334C9.64949 8.17001 10.0417 8.33334 10.5 8.33334Z" fill="black"/>
</g>
</svg>
