<svg width="21" height="20" viewBox="0 0 21 20" fill="none" xmlns="http://www.w3.org/2000/svg">
<mask id="mask0_102_3869" style="mask-type:alpha" maskUnits="userSpaceOnUse" x="0" y="0" width="21" height="20">
<rect x="0.5" width="20" height="20" fill="#D9D9D9"/>
</mask>
<g mask="url(#mask0_102_3869)">
<path d="M13.25 13.9167L14.4167 12.75L11.3333 9.66666V5.83332H9.66666V10.3333L13.25 13.9167ZM10.5 18.3333C9.34721 18.3333 8.26388 18.1144 7.24999 17.6767C6.2361 17.2394 5.35416 16.6458 4.60416 15.8958C3.85416 15.1458 3.26055 14.2639 2.82332 13.25C2.38555 12.2361 2.16666 11.1528 2.16666 9.99999C2.16666 8.84721 2.38555 7.76388 2.82332 6.74999C3.26055 5.7361 3.85416 4.85416 4.60416 4.10416C5.35416 3.35416 6.2361 2.76027 7.24999 2.32249C8.26388 1.88527 9.34721 1.66666 10.5 1.66666C11.6528 1.66666 12.7361 1.88527 13.75 2.32249C14.7639 2.76027 15.6458 3.35416 16.3958 4.10416C17.1458 4.85416 17.7394 5.7361 18.1767 6.74999C18.6144 7.76388 18.8333 8.84721 18.8333 9.99999C18.8333 11.1528 18.6144 12.2361 18.1767 13.25C17.7394 14.2639 17.1458 15.1458 16.3958 15.8958C15.6458 16.6458 14.7639 17.2394 13.75 17.6767C12.7361 18.1144 11.6528 18.3333 10.5 18.3333ZM10.5 16.6667C12.3472 16.6667 13.9203 16.0175 15.2192 14.7192C16.5175 13.4203 17.1667 11.8472 17.1667 9.99999C17.1667 8.15277 16.5175 6.57971 15.2192 5.28082C13.9203 3.98249 12.3472 3.33332 10.5 3.33332C8.65277 3.33332 7.07999 3.98249 5.78166 5.28082C4.48277 6.57971 3.83332 8.15277 3.83332 9.99999C3.83332 11.8472 4.48277 13.4203 5.78166 14.7192C7.07999 16.0175 8.65277 16.6667 10.5 16.6667Z" fill="black"/>
</g>
</svg>
