<svg width="21" height="20" viewBox="0 0 21 20" fill="none" xmlns="http://www.w3.org/2000/svg">
<mask id="mask0_102_3926" style="mask-type:alpha" maskUnits="userSpaceOnUse" x="0" y="0" width="21" height="20">
<rect x="0.5" width="20" height="20" fill="#D9D9D9"/>
</mask>
<g mask="url(#mask0_102_3926)">
<path d="M10.5 9.99999C10.9583 9.99999 11.3508 9.83666 11.6775 9.50999C12.0036 9.18388 12.1667 8.79166 12.1667 8.33332C12.1667 7.87499 12.0036 7.48249 11.6775 7.15582C11.3508 6.82971 10.9583 6.66666 10.5 6.66666C10.0417 6.66666 9.64945 6.82971 9.32334 7.15582C8.99668 7.48249 8.83334 7.87499 8.83334 8.33332C8.83334 8.79166 8.99668 9.18388 9.32334 9.50999C9.64945 9.83666 10.0417 9.99999 10.5 9.99999ZM10.5 16.125C12.1945 14.5694 13.4514 13.1561 14.2708 11.885C15.0903 10.6144 15.5 9.4861 15.5 8.49999C15.5 6.9861 15.0172 5.74638 14.0517 4.78082C13.0867 3.81582 11.9028 3.33332 10.5 3.33332C9.09723 3.33332 7.91307 3.81582 6.94751 4.78082C5.98251 5.74638 5.50001 6.9861 5.50001 8.49999C5.50001 9.4861 5.90973 10.6144 6.72918 11.885C7.54862 13.1561 8.80557 14.5694 10.5 16.125ZM10.5 18.3333C8.2639 16.4305 6.5939 14.663 5.49001 13.0308C4.38557 11.3992 3.83334 9.88888 3.83334 8.49999C3.83334 6.41666 4.50362 4.75693 5.84418 3.52082C7.18418 2.28471 8.73612 1.66666 10.5 1.66666C12.2639 1.66666 13.8158 2.28471 15.1558 3.52082C16.4964 4.75693 17.1667 6.41666 17.1667 8.49999C17.1667 9.88888 16.6147 11.3992 15.5108 13.0308C14.4064 14.663 12.7361 16.4305 10.5 18.3333Z" fill="black"/>
</g>
</svg>
