<?xml version="1.0" standalone="no"?>
<!DOCTYPE svg PUBLIC "-//W3C//DTD SVG 1.1//EN" "http://www.w3.org/Graphics/SVG/1.1/DTD/svg11.dtd" >
<svg xmlns="http://www.w3.org/2000/svg" xmlns:xlink="http://www.w3.org/1999/xlink" version="1.1">
<metadata>
Created by FontForge 20170731 at Sun Oct 18 08:27:53 2020
 By Aleksey,,,
Copyright (c) 2018 by Alexander Slobzheninov. All rights reserved.
</metadata>
<defs>
<font id="ObjectSans-Bold" horiz-adv-x="1241" >
  <font-face 
    font-family="Object Sans"
    font-weight="700"
    font-stretch="normal"
    units-per-em="2048"
    panose-1="0 0 8 0 0 0 0 0 0 0"
    ascent="1638"
    descent="-410"
    x-height="1049"
    cap-height="1458"
    bbox="-352 -602 3064 1966"
    underline-thickness="102"
    underline-position="-255"
    unicode-range="U+000D-FB00"
  />
<missing-glyph horiz-adv-x="0" 
 />
    <glyph glyph-name=".notdef" horiz-adv-x="0" 
 />
    <glyph glyph-name=".null" horiz-adv-x="0" 
 />
    <glyph glyph-name="nonmarkingreturn" horiz-adv-x="682" 
 />
    <glyph glyph-name="NULL" horiz-adv-x="1484" 
d="M150 0v1458h1185v-1458h-1185zM416 231h651v996h-651v-996z" />
    <glyph glyph-name="NULL" horiz-adv-x="1484" 
d="M150 0v1458h1185v-1458h-1185zM416 231h651v996h-651v-996z" />
    <glyph glyph-name="CR" unicode="&#xd;" horiz-adv-x="61" 
 />
    <glyph glyph-name="space" unicode=" " horiz-adv-x="503" 
 />
    <glyph glyph-name="exclam" unicode="!" horiz-adv-x="600" 
d="M221 485l-82 564v409h324v-409l-84 -564h-158zM299 -25q-77 0 -126.5 48.5t-49.5 123.5t49.5 123.5t126.5 48.5q78 0 128 -48.5t50 -123.5t-50 -123.5t-128 -48.5z" />
    <glyph glyph-name="quotedbl" unicode="&#x22;" horiz-adv-x="755" 
d="M104 745l-34 426v287h229v-287l-35 -426h-160zM494 745l-37 426v287h229v-287l-35 -426h-157z" />
    <glyph glyph-name="numbersign" unicode="#" horiz-adv-x="1878" 
d="M311 0l121 444h-362v207h417l66 242h-381v209h436l113 418h258l-113 -418h287l113 418h260l-113 -418h397v-209h-452l-66 -242h416v-207h-471l-119 -444h-258l119 444h-289l-119 -444h-260zM745 651h289l64 242h-287z" />
    <glyph glyph-name="dollar" unicode="$" horiz-adv-x="1437" 
d="M1364 426q0 -184 -129.5 -305t-355.5 -150v-219h-314v223q-223 37 -351 171.5t-128 332.5h324q0 -121 88 -190.5t245 -69.5q132 0 206.5 49.5t74.5 137.5q0 29 -9.5 53t-23.5 41.5t-40 32t-49.5 23.5t-61.5 18t-66.5 14t-73.5 12q-210 30 -305 61q-236 77 -284 263
q-13 51 -13 110q0 183 124 303.5t343 151.5v190h314v-198q206 -40 324 -170t118 -320h-313q1 117 -78.5 182.5t-218.5 65.5q-128 0 -200.5 -48.5t-72.5 -131.5q0 -30 10.5 -54t25.5 -41t44 -31.5t52.5 -23.5t67 -18t70.5 -13.5t78 -11.5q54 -8 88 -14t87.5 -17.5t88.5 -23
t81.5 -31t76.5 -41.5t62.5 -54t51 -68.5t30.5 -85.5t12 -105z" />
    <glyph glyph-name="percent" unicode="%" horiz-adv-x="2162" 
d="M508 664q-193 0 -315.5 123t-122.5 315q0 194 122 316t316 122q192 0 315 -122.5t123 -315.5q0 -192 -123 -315t-315 -123zM416 0l1042 1520h291l-1042 -1520h-291zM508 920q82 0 132 50t50 132t-50 132t-132 50t-133 -50t-51 -132t51 -132t133 -50zM1657 -20
q-192 0 -314 122.5t-122 315.5q0 192 122 315t314 123t315 -123t123 -315q0 -193 -123 -315.5t-315 -122.5zM1657 236q82 0 133 50t51 132t-51 132t-133 50q-80 0 -131 -50.5t-51 -131.5t51 -131.5t131 -50.5z" />
    <glyph glyph-name="ampersand" unicode="&#x26;" horiz-adv-x="1662" 
d="M612 -39q-229 0 -376.5 120.5t-147.5 309.5q0 143 75.5 238t217.5 159q-118 150 -115 302q2 172 131.5 285.5t327.5 113.5q205 0 341 -123t136 -307h-276q0 79 -55 133.5t-140 54.5q-78 0 -129 -48t-51 -124q0 -123 133 -241l420 -383q80 101 127 245h278
q-64 -217 -225 -409l315 -287h-362l-135 121q-103 -74 -234 -117t-256 -43zM664 197q134 0 249 92l-366 332q-164 -67 -164 -220q0 -92 77.5 -148t203.5 -56z" />
    <glyph glyph-name="quotesingle" unicode="'" horiz-adv-x="368" 
d="M106 745l-36 426v287h229v-287l-35 -426h-158z" />
    <glyph glyph-name="parenleft" unicode="(" horiz-adv-x="700" 
d="M403 -369q-147 147 -236 404.5t-89 539.5t89 539.5t236 405.5h285q-157 -168 -250.5 -423t-93.5 -522q0 -271 92.5 -524.5t249.5 -419.5h-283z" />
    <glyph glyph-name="parenright" unicode=")" horiz-adv-x="698" 
d="M295 -369h-283q157 165 249.5 419t92.5 525q0 267 -93 522t-249 423h283q148 -148 238 -405.5t90 -539.5t-90 -539.5t-238 -404.5z" />
    <glyph glyph-name="asterisk" unicode="*" horiz-adv-x="1024" 
d="M408 557l12 291l-246 -156l-104 178l258 138l-258 135l104 178l246 -154l-12 291h208l-12 -291l246 154l104 -178l-258 -135l258 -138l-104 -178l-246 156l12 -291h-208z" />
    <glyph glyph-name="plus" unicode="+" horiz-adv-x="1101" 
d="M406 279v337h-336v234h336v330h290v-330h336v-234h-336v-337h-290z" />
    <glyph glyph-name="comma" unicode="," horiz-adv-x="491" 
d="M207 -330l-113 37l113 273q-62 12 -99.5 57.5t-37.5 109.5q0 75 49.5 123.5t126.5 48.5q78 0 128 -48.5t50 -123.5q0 -63 -43 -139z" />
    <glyph glyph-name="hyphen" unicode="-" horiz-adv-x="985" 
d="M74 512v250h839v-250h-839z" />
    <glyph glyph-name="period" unicode="." horiz-adv-x="489" 
d="M246 -25q-77 0 -127.5 48.5t-50.5 123.5t50.5 123.5t127.5 48.5t126.5 -48.5t49.5 -123.5t-49.5 -123.5t-126.5 -48.5z" />
    <glyph glyph-name="slash" unicode="/" horiz-adv-x="933" 
d="M12 -471l637 1929h273l-637 -1929h-273z" />
    <glyph glyph-name="zero" unicode="0" horiz-adv-x="1505" 
d="M754 -39q-194 0 -345.5 97t-235 272t-83.5 399t83.5 399t235 272t345.5 97q193 0 344.5 -97t235 -272t83.5 -399t-83.5 -399t-235 -272t-344.5 -97zM754 254q146 0 234.5 131t88.5 344t-88.5 344t-234.5 131t-235 -131t-89 -344t89 -344t235 -131z" />
    <glyph glyph-name="one" unicode="1" horiz-adv-x="888" 
d="M412 0v1067h-23l-332 -246v336l402 301h284v-1458h-331z" />
    <glyph glyph-name="two" unicode="2" horiz-adv-x="1267" 
d="M90 0v188l606 539q101 92 132 129q59 74 59 148q0 95 -65.5 157t-162.5 62q-111 0 -184.5 -81.5t-77.5 -213.5h-303q-6 247 155 408t415 161q233 0 384.5 -132t153.5 -333q0 -124 -71.5 -229.5t-217.5 -231.5l-338 -292v-21h594v-258h-1079z" />
    <glyph glyph-name="three" unicode="3" horiz-adv-x="1269" 
d="M639 -39q-162 0 -294.5 71.5t-210 199t-83.5 286.5h318q0 -126 76 -208.5t190 -82.5q110 0 182 67.5t72 170.5q0 104 -73 172t-183 68q-72 0 -123 -23l-74 195l299 303v20h-590v258h1010v-198l-346 -355q174 -30 287.5 -158.5t113.5 -304.5q0 -209 -161 -345t-410 -136z
" />
    <glyph glyph-name="four" unicode="4" horiz-adv-x="1314" 
d="M735 0v301h-698v186l555 971h483v-901h170v-256h-170v-301h-340zM367 557h366v619h-20z" />
    <glyph glyph-name="five" unicode="5" horiz-adv-x="1296" 
d="M651 -39q-245 0 -410.5 155t-174.5 392h315q0 -119 76 -200t190 -81q111 0 183.5 68.5t72.5 169.5q0 110 -78.5 177t-210.5 67h-434l66 749h864v-258h-614l-27 -262h233q232 0 376.5 -135t144.5 -346q0 -216 -162 -356t-410 -140z" />
    <glyph glyph-name="six" unicode="6" horiz-adv-x="1329" 
d="M659 -37q-260 0 -425.5 141t-165.5 361q0 178 151 385l440 608h377l-387 -524q64 20 135 20q210 0 344 -131t134 -340q0 -232 -168 -376t-435 -144zM670 236q111 2 180.5 69.5t69.5 179.5q0 107 -70.5 174.5t-179.5 67.5q-114 1 -187 -67t-73 -175q0 -113 72.5 -181
t187.5 -68z" />
    <glyph glyph-name="seven" unicode="7" horiz-adv-x="1107" 
d="M207 0l485 1184h-659v274h1042v-198l-516 -1260h-352z" />
    <glyph glyph-name="eight" unicode="8" horiz-adv-x="1355" 
d="M680 -37q-271 0 -434.5 119t-163.5 313q0 137 79 234t206 125v20q-99 41 -161.5 124t-62.5 196q0 184 147 293.5t390 109.5q237 0 385.5 -112.5t148.5 -290.5q0 -113 -62.5 -196t-162.5 -124v-20q127 -28 207 -125t80 -234q0 -194 -164.5 -313t-431.5 -119zM680 866
q94 0 156.5 52t62.5 133q0 79 -62.5 129.5t-156.5 50.5q-97 0 -159 -50.5t-62 -129.5q0 -82 62 -133.5t159 -51.5zM680 229q106 0 175 57.5t69 149.5t-69.5 150.5t-174.5 58.5q-108 0 -177 -58.5t-69 -150.5t69 -149.5t177 -57.5z" />
    <glyph glyph-name="nine" unicode="9" horiz-adv-x="1327" 
d="M670 1497q261 0 425.5 -141t164.5 -363q0 -171 -150 -385l-440 -606h-377l385 524q-61 -20 -133 -20q-210 0 -343.5 131t-133.5 338q0 233 168 377.5t434 144.5zM659 1223q-111 0 -181 -68t-70 -180q0 -108 71 -176t180 -68q115 0 188 68t73 176q0 112 -73 181t-188 67z
" />
    <glyph glyph-name="colon" unicode=":" horiz-adv-x="491" 
d="M246 686q-77 0 -126.5 48.5t-49.5 123.5q0 74 50 122t126 48t126 -48t50 -122q0 -75 -49.5 -123.5t-126.5 -48.5zM246 -25q-77 0 -126.5 48.5t-49.5 123.5t49.5 123.5t126.5 48.5t126.5 -48.5t49.5 -123.5t-49.5 -123.5t-126.5 -48.5z" />
    <glyph glyph-name="semicolon" unicode=";" horiz-adv-x="491" 
d="M246 686q-77 0 -126.5 48.5t-49.5 123.5q0 74 50 122t126 48q78 0 128 -48t50 -122q0 -75 -50 -123.5t-128 -48.5zM207 -330l-113 37l115 273q-62 12 -99.5 57.5t-37.5 109.5q0 75 49.5 123.5t126.5 48.5t126.5 -48.5t49.5 -123.5q0 -62 -41 -139z" />
    <glyph glyph-name="less" unicode="&#x3c;" horiz-adv-x="864" 
d="M795 186l-779 373v322l779 372v-278l-562 -244v-20l562 -246v-279z" />
    <glyph glyph-name="equal" unicode="=" horiz-adv-x="1101" 
d="M70 852v242h962v-242h-962zM70 330v241h962v-241h-962z" />
    <glyph glyph-name="greater" unicode="&#x3e;" horiz-adv-x="862" 
d="M68 186v279l561 246v20l-561 244v278l778 -372v-322z" />
    <glyph glyph-name="question" unicode="?" horiz-adv-x="1230" 
d="M453 442q0 106 24.5 180t65.5 120.5t114 97.5q37 25 61 43.5t50 45.5t39 57.5t14 64.5q0 77 -56.5 128.5t-141.5 51.5q-99 0 -157.5 -70t-55.5 -180h-334q0 148 72 265.5t200.5 184t290.5 66.5q223 0 368.5 -120.5t145.5 -303.5q0 -220 -252 -368q-47 -27 -73.5 -47
t-51.5 -50.5t-35 -70t-10 -95.5h-278zM600 -25q-77 0 -126.5 48.5t-49.5 123.5q0 74 50 122t126 48q78 0 127 -48t49 -122q0 -75 -49 -123.5t-127 -48.5z" />
    <glyph glyph-name="at" unicode="@" horiz-adv-x="2078" 
d="M932 -369q-244 0 -439.5 115.5t-305 319t-109.5 456.5q0 194 72 362t198.5 286t305.5 185.5t386 67.5q206 0 384.5 -67t305 -185t199 -284.5t72.5 -358.5q0 -266 -108.5 -409.5t-309.5 -143.5q-113 0 -188 51t-103 142h-20q-52 -95 -156.5 -150t-232.5 -55
q-160 0 -262.5 86t-102.5 221q0 145 126 241.5t370 125.5l223 27v43q0 165 -195 165q-183 0 -180 -159h-297q0 169 131 271.5t348 102.5q222 0 359 -106.5t137 -284.5v-422q0 -56 27 -88t73 -32q78 0 120 99.5t42 272.5q0 207 -98 372t-272 257t-392 92q-219 0 -393 -92
t-272.5 -258.5t-98.5 -376.5q0 -151 49.5 -283t136 -226.5t209.5 -149t265 -54.5q81 0 169.5 19t141.5 47v-178q-59 -30 -147 -47t-168 -17zM985 170q109 0 180.5 68.5t71.5 169.5v77l-215 -26q-107 -11 -158 -54t-51 -104q0 -60 48.5 -95.5t123.5 -35.5z" />
    <glyph glyph-name="A" unicode="A" horiz-adv-x="1548" 
d="M37 0l493 1458h492l489 -1458h-344l-90 260h-606l-90 -260h-344zM545 510h459l-218 657h-20z" />
    <glyph glyph-name="B" unicode="B" horiz-adv-x="1476" 
d="M147 0v1458h705q235 0 375.5 -109.5t140.5 -289.5q0 -106 -59.5 -188.5t-151.5 -112.5v-21q111 -31 181.5 -123.5t70.5 -214.5q0 -183 -145 -291t-387 -108h-730zM487 860h306q100 0 163.5 47.5t63.5 122.5t-63.5 122.5t-163.5 47.5h-306v-340zM487 258h320
q111 0 182.5 52t71.5 134q0 80 -72 132.5t-182 52.5h-320v-371z" />
    <glyph glyph-name="C" unicode="C" horiz-adv-x="1658" 
d="M856 -39q-224 0 -401.5 97t-277 272.5t-99.5 398.5t99.5 398.5t277 272.5t401.5 97q181 0 335.5 -70.5t256.5 -197.5t129 -289l-317 -37q-31 135 -143 222t-255 87q-197 0 -320.5 -134t-123.5 -349t124.5 -350t319.5 -135q140 0 252 85.5t146 217.5l319 -43
q-25 -157 -126 -281t-257.5 -193t-339.5 -69z" />
    <glyph glyph-name="D" unicode="D" horiz-adv-x="1611" 
d="M147 0v1458h547q250 0 440.5 -90.5t295 -256t104.5 -382.5t-104.5 -382.5t-295 -256t-440.5 -90.5h-547zM479 266h215q226 0 364 125.5t138 337.5q0 211 -138 337t-364 126h-215v-926z" />
    <glyph glyph-name="E" unicode="E" horiz-adv-x="1320" 
d="M147 0v1458h1076v-274h-744v-322h688v-239h-688v-349h764v-274h-1096z" />
    <glyph glyph-name="F" unicode="F" horiz-adv-x="1247" 
d="M147 0v1458h1045v-291h-703v-321h615v-266h-615v-580h-342z" />
    <glyph glyph-name="G" unicode="G" horiz-adv-x="1736" 
d="M883 -43q-231 0 -414.5 98t-287 274.5t-103.5 399.5t103.5 398.5t287 272.5t414.5 97q247 0 439.5 -125t248.5 -319l-311 -70q-34 99 -141 164t-236 65q-203 0 -334 -135t-131 -348q0 -212 134 -350.5t341 -138.5q115 0 212.5 47.5t156 130.5t63.5 184h-580v225h908
q23 -252 -67.5 -450.5t-274.5 -309t-428 -110.5z" />
    <glyph glyph-name="H" unicode="H" horiz-adv-x="1581" 
d="M147 0v1458h340v-565h607v565h340v-1458h-340v618h-607v-618h-340z" />
    <glyph glyph-name="I" unicode="I" horiz-adv-x="636" 
d="M147 0v1458h340v-1458h-340z" />
    <glyph glyph-name="J" unicode="J" horiz-adv-x="985" 
d="M356 -33q-159 0 -290 41v260q99 -26 196 -26q109 0 176.5 71t67.5 189v956h340v-991q0 -220 -138.5 -360t-351.5 -140z" />
    <glyph glyph-name="K" unicode="K" horiz-adv-x="1425" 
d="M147 0v1458h342v-594h21l473 594h406l-586 -700l598 -758h-408l-483 643h-21v-643h-342z" />
    <glyph glyph-name="L" unicode="L" horiz-adv-x="1208" 
d="M147 0v1458h340v-1167h666v-291h-1006z" />
    <glyph glyph-name="M" unicode="M" horiz-adv-x="2027" 
d="M147 0v1458h471l383 -1036h21l381 1036h475v-1458h-332v1004h-20l-375 -1004h-277l-374 1004h-21v-1004h-332z" />
    <glyph glyph-name="N" unicode="N" horiz-adv-x="1585" 
d="M147 0v1458h394l553 -1018h20v1018h324v-1458h-394l-552 1016h-21v-1016h-324z" />
    <glyph glyph-name="O" unicode="O" horiz-adv-x="1767" 
d="M883 -39q-237 0 -420 95t-285 270t-102 403t102 403t285.5 270t419.5 95t419.5 -95t285.5 -270t102 -403t-102 -403t-285 -270t-420 -95zM883 244q206 0 336.5 135t130.5 350t-130.5 349t-336.5 134t-336.5 -134t-130.5 -349t130.5 -350t336.5 -135z" />
    <glyph glyph-name="P" unicode="P" horiz-adv-x="1431" 
d="M150 0v1458h641q268 0 426 -132t157 -357q0 -224 -160 -358t-426 -134h-303v-477h-335zM485 735h277q125 0 198.5 64t73.5 170t-73.5 168.5t-198.5 62.5h-277v-465z" />
    <glyph glyph-name="Q" unicode="Q" horiz-adv-x="1769" 
d="M883 -43q-236 0 -419 96t-284.5 271.5t-101.5 404.5q0 228 101.5 403t284.5 270t419 95q237 0 420.5 -95.5t285 -270t101.5 -402.5q0 -305 -181 -514l238 -215h-322l-88 82q-183 -125 -454 -125zM883 240q124 0 229 59l-422 373h320l258 -232q82 122 82 289
q0 213 -131 348t-336 135q-206 0 -335.5 -134t-129.5 -349t130 -352t335 -137z" />
    <glyph glyph-name="R" unicode="R" horiz-adv-x="1495" 
d="M147 0v1458h697q257 0 412 -131t155 -348q0 -177 -113 -297.5t-290 -142.5l-17 -2l467 -537h-389l-418 512h-164v-512h-340zM487 752h312q124 0 199 61t75 164t-75.5 163t-198.5 60h-312v-448z" />
    <glyph glyph-name="S" unicode="S" horiz-adv-x="1447" 
d="M733 -39q-295 0 -471 142t-178 376h324q2 -121 89.5 -190.5t245.5 -69.5q132 0 206.5 49.5t74.5 137.5q0 29 -9.5 53t-23.5 41.5t-40 32t-49.5 23.5t-61.5 18t-66.5 14t-73.5 12q-210 30 -305 61q-236 77 -284 263q-13 51 -13 110q0 212 162.5 337.5t441.5 125.5
q282 0 450.5 -138.5t168.5 -367.5h-313q1 117 -78.5 182.5t-218.5 65.5q-128 0 -200.5 -48.5t-72.5 -131.5q0 -30 10.5 -54t25.5 -41t44 -31.5t52.5 -23.5t67 -18t70.5 -13.5t78 -11.5q54 -8 88 -14t87.5 -17.5t88.5 -23t81.5 -31t76.5 -41.5t62.5 -54t51 -68.5t30.5 -85.5
t12 -105q0 -213 -170.5 -339t-460.5 -126z" />
    <glyph glyph-name="T" unicode="T" horiz-adv-x="1312" 
d="M485 0v1176h-465v282h1270v-282h-465v-1176h-340z" />
    <glyph glyph-name="U" unicode="U" horiz-adv-x="1579" 
d="M791 -39q-290 0 -472 171.5t-182 451.5v874h340v-866q0 -155 88 -251.5t226 -96.5t224.5 97t86.5 251v866h340v-874q0 -185 -82.5 -327t-230.5 -219t-338 -77z" />
    <glyph glyph-name="V" unicode="V" horiz-adv-x="1529" 
d="M500 0l-463 1458h348l369 -1208h20l369 1208h350l-463 -1458h-530z" />
    <glyph glyph-name="W" unicode="W" horiz-adv-x="2402" 
d="M469 0l-403 1458h335l310 -1155h20l293 1155h358l291 -1155h21l309 1155h336l-404 -1458h-483l-240 1014h-20l-240 -1014h-483z" />
    <glyph glyph-name="X" unicode="X" horiz-adv-x="1595" 
d="M57 0l482 770l-469 688h387l325 -506h21l330 506h393l-490 -688l502 -770h-391l-344 573h-21l-340 -573h-385z" />
    <glyph glyph-name="Y" unicode="Y" horiz-adv-x="1437" 
d="M553 0v508l-516 950h354l322 -647h20l309 647h359l-508 -950v-508h-340z" />
    <glyph glyph-name="Z" unicode="Z" horiz-adv-x="1353" 
d="M86 0v172l707 991v21h-695v274h1149v-172l-694 -991v-21h715v-274h-1182z" />
    <glyph glyph-name="bracketleft" unicode="[" horiz-adv-x="854" 
d="M147 -369v1889h693v-207h-400v-1475h400v-207h-693z" />
    <glyph glyph-name="backslash" unicode="\" horiz-adv-x="931" 
d="M920 -471h-271l-637 1929h271z" />
    <glyph glyph-name="bracketright" unicode="]" horiz-adv-x="851" 
d="M705 -369h-693v207h402v1475h-402v207h693v-1889z" />
    <glyph glyph-name="asciicircum" unicode="^" horiz-adv-x="1189" 
d="M70 819l364 639h322l364 -639h-280l-234 451h-20l-232 -451h-284z" />
    <glyph glyph-name="underscore" unicode="_" horiz-adv-x="1024" 
d="M0 -219v219h1024v-219h-1024z" />
    <glyph glyph-name="grave" unicode="`" horiz-adv-x="630" 
d="M324 1208l-254 312h278l215 -312h-239z" />
    <glyph glyph-name="a" unicode="a" horiz-adv-x="1171" 
d="M412 -27q-163 0 -263 81t-100 220q0 297 496 359l223 26v43q0 76 -50.5 122t-139.5 46q-85 0 -135.5 -44t-49.5 -121h-297q0 172 132.5 274t353.5 102q224 0 356.5 -105.5t132.5 -283.5v-692h-303v133h-20q-49 -78 -136 -119t-200 -41zM512 172q113 0 184.5 65t71.5 164
v74l-215 -26q-107 -13 -157 -52.5t-50 -97.5q0 -59 44 -93t122 -34z" />
    <glyph glyph-name="b" unicode="b" horiz-adv-x="1335" 
d="M770 -33q-216 0 -332 166h-20v-133h-303v1520h303v-602h20q116 163 332 163q217 0 356.5 -155t139.5 -402q0 -249 -139 -403t-357 -154zM684 225q120 0 198.5 85.5t78.5 213.5q0 127 -78 212t-199 85t-199.5 -85t-78.5 -212t79 -213t199 -86z" />
    <glyph glyph-name="c" unicode="c" horiz-adv-x="1247" 
d="M639 -33q-251 0 -410 154.5t-159 402.5q0 250 157.5 403.5t411.5 153.5q215 0 363 -111t174 -296l-283 -37q-20 86 -91 140t-159 54q-116 0 -193 -86.5t-77 -220.5t76 -220.5t192 -86.5q90 0 160 54t92 139l285 -35q-29 -185 -178 -296.5t-361 -111.5z" />
    <glyph glyph-name="d" unicode="d" horiz-adv-x="1335" 
d="M565 -33q-218 0 -356.5 154t-138.5 403q0 247 139 402t354 155q218 0 334 -163h21v602h303v-1520h-303v133h-21q-116 -166 -332 -166zM651 225q120 0 198.5 86t78.5 213t-78 212t-199 85t-199.5 -85t-78.5 -212q0 -128 79 -213.5t199 -85.5z" />
    <glyph glyph-name="e" unicode="e" horiz-adv-x="1280" 
d="M649 -33q-256 0 -417.5 156.5t-161.5 408.5q0 245 161 397t416 152q251 0 407 -153t156 -400q0 -69 -4 -92h-823q19 -111 93.5 -177t185.5 -66q86 0 151 38.5t100 104.5l258 -66q-49 -140 -190 -221.5t-332 -81.5zM381 625h520q-14 101 -86 166t-176 65
q-102 0 -170.5 -62.5t-87.5 -168.5z" />
    <glyph glyph-name="f" unicode="f" horiz-adv-x="800" 
d="M205 0v827h-148v222h148v125q0 170 92.5 274t243.5 104q97 0 202 -32v-242q-54 14 -100 14q-61 0 -98 -35t-37 -94v-114h235v-222h-235v-827h-303z" />
    <glyph glyph-name="g" unicode="g" horiz-adv-x="1335" 
d="M649 -504q-230 0 -379.5 96.5t-187.5 272.5l293 57q29 -87 98.5 -135.5t167.5 -48.5q126 0 201.5 76.5t75.5 205.5v117h-21q-132 -151 -332 -151q-220 0 -357.5 148t-137.5 390q0 252 136.5 403.5t356.5 151.5q210 0 342 -164h21v134h295v-1037q0 -242 -154 -379
t-418 -137zM651 233q121 0 199 82.5t78 208.5q0 129 -78 213t-199 84t-199.5 -84t-78.5 -213q0 -126 78.5 -208.5t199.5 -82.5z" />
    <glyph glyph-name="h" unicode="h" horiz-adv-x="1243" 
d="M117 0v1520h303v-613h20q121 174 305 174q177 0 287.5 -122.5t110.5 -311.5v-647h-303v602q0 98 -54 158.5t-145 60.5q-92 0 -156.5 -65.5t-64.5 -165.5v-590h-303z" />
    <glyph glyph-name="i" unicode="i" horiz-adv-x="555" 
d="M279 1194q-80 0 -131.5 50t-51.5 128q0 77 52 127.5t131 50.5t130.5 -50.5t51.5 -127.5q0 -78 -51 -128t-131 -50zM127 0v1049h303v-1049h-303z" />
    <glyph glyph-name="j" unicode="j" horiz-adv-x="569" 
d="M281 1194q-80 0 -131.5 50t-51.5 128q0 77 52 127.5t131 50.5t130.5 -50.5t51.5 -127.5q0 -78 -51 -128t-131 -50zM84 -475q-128 0 -225 33v241q56 -16 125 -16q66 0 105.5 41.5t39.5 107.5v1117h303v-1143q0 -168 -97 -274.5t-251 -106.5z" />
    <glyph glyph-name="k" unicode="k" horiz-adv-x="1153" 
d="M117 0v1520h303v-879h20l336 408h367l-436 -504l444 -545h-369l-342 446h-20v-446h-303z" />
    <glyph glyph-name="l" unicode="l" horiz-adv-x="532" 
d="M115 0v1520h303v-1520h-303z" />
    <glyph glyph-name="m" unicode="m" horiz-adv-x="1908" 
d="M115 0v1049h301v-156h20q45 86 125 137t178 51q103 0 192 -54.5t130 -143.5h20q48 92 133.5 144t196.5 52q174 0 285.5 -120t111.5 -310v-649h-303v598q0 96 -54.5 159t-141.5 64q-89 0 -145 -62.5t-56 -160.5v-598h-305v598q0 101 -51.5 162t-137.5 61q-89 0 -142.5 -61
t-53.5 -162v-598h-303z" />
    <glyph glyph-name="n" unicode="n" 
d="M117 0v1049h303v-148h20q117 178 305 178q177 0 286.5 -122.5t109.5 -313.5v-643h-303v600q0 98 -53 158.5t-144 60.5q-92 0 -156.5 -65.5t-64.5 -163.5v-590h-303z" />
    <glyph glyph-name="o" unicode="o" horiz-adv-x="1298" 
d="M649 -33q-263 0 -422 152t-159 405t159 405t422 152q262 0 422 -152t160 -405q0 -254 -160 -405.5t-422 -151.5zM649 225q121 0 199 84t78 215q0 130 -77.5 213.5t-199.5 83.5q-123 0 -200.5 -83t-77.5 -214t77.5 -215t200.5 -84z" />
    <glyph glyph-name="p" unicode="p" horiz-adv-x="1335" 
d="M770 1081q218 0 357 -154t139 -403q0 -247 -139.5 -402t-356.5 -155q-218 0 -332 164h-20v-602h-303v1520h303v-134h20q116 166 332 166zM684 821q-121 0 -199.5 -85t-78.5 -212t79 -213t199 -86t198.5 86t78.5 213q0 128 -78.5 212.5t-198.5 84.5z" />
    <glyph glyph-name="q" unicode="q" horiz-adv-x="1335" 
d="M565 1081q216 0 332 -166h21v134h303v-1520h-303v602h-21q-114 -164 -334 -164q-215 0 -354 155t-139 402q0 249 138.5 403t356.5 154zM651 821q-120 0 -199 -84.5t-79 -212.5q0 -127 79 -213t199 -86t198.5 86t78.5 213t-78 212t-199 85z" />
    <glyph glyph-name="r" unicode="r" horiz-adv-x="860" 
d="M117 0v1049h299v-144h22q34 74 104.5 119t153.5 45q63 0 119 -27v-272q-85 39 -172 39q-100 0 -161.5 -75t-61.5 -197v-537h-303z" />
    <glyph glyph-name="s" unicode="s" horiz-adv-x="1144" 
d="M573 -37q-233 0 -366 103t-133 284h268q0 -84 64.5 -135t175.5 -51q87 0 138.5 34.5t51.5 94.5q0 23 -8 41t-25.5 30.5t-35.5 20.5t-49.5 14t-54.5 8.5t-62 6.5q-54 6 -87 10t-86 15t-86.5 24.5t-73.5 38t-63 55.5t-39 76.5t-16 101.5q0 160 127.5 255t339.5 95
q213 0 348 -96.5t135 -257.5h-276q-1 70 -58.5 112t-148.5 42q-84 0 -135 -34t-51 -91q0 -27 14 -46.5t32.5 -30.5t56.5 -19.5t64.5 -12t78.5 -9.5q6 -1 9.5 -1t9 -1t9.5 -1q57 -7 99.5 -15t96 -22.5t91.5 -37.5t72 -55.5t51.5 -81t17.5 -108.5q0 -167 -132 -261.5
t-364 -94.5z" />
    <glyph glyph-name="t" unicode="t" horiz-adv-x="817" 
d="M543 -33q-157 0 -251.5 102t-94.5 269v489h-148v222h156l59 331h238l-2 -331h239v-222h-239v-477q0 -67 37.5 -107t101.5 -40q48 0 109 14v-217q-97 -33 -205 -33z" />
    <glyph glyph-name="u" unicode="u" 
d="M1124 1049v-1049h-303v147h-20q-117 -178 -305 -178q-177 0 -286.5 123t-109.5 314v643h303v-600q0 -98 53 -159t144 -61q92 0 156.5 65.5t64.5 164.5v590h303z" />
    <glyph glyph-name="v" unicode="v" horiz-adv-x="1191" 
d="M377 0l-365 1049h320l254 -801h20l256 801h318l-365 -1049h-438z" />
    <glyph glyph-name="w" unicode="w" horiz-adv-x="1824" 
d="M346 0l-315 1049h309l213 -746h20l187 746h303l201 -752h20l209 752h301l-317 -1049h-396l-159 694h-21l-158 -694h-397z" />
    <glyph glyph-name="x" unicode="x" horiz-adv-x="1210" 
d="M18 0l371 545l-352 504h338l221 -330h20l222 330h338l-353 -504l371 -545h-348l-230 362h-20l-229 -362h-349z" />
    <glyph glyph-name="y" unicode="y" horiz-adv-x="1196" 
d="M344 -473q-125 0 -217 37l2 243q75 -30 156 -30q38 0 70.5 13.5t53.5 31.5t41.5 51t31 55.5t26.5 61.5l-494 1059h326l281 -670h20l227 670h316l-406 -1086q-39 -107 -78 -181.5t-90.5 -135t-117.5 -90t-148 -29.5z" />
    <glyph glyph-name="z" unicode="z" horiz-adv-x="1083" 
d="M53 0v147l525 629v23h-504v250h934v-150l-504 -629v-20h524v-250h-975z" />
    <glyph glyph-name="braceleft" unicode="{" horiz-adv-x="802" 
d="M489 -369q-115 0 -185.5 70.5t-70.5 185.5v424q0 61 -37.5 98t-97.5 37h-20v277h20q60 0 97.5 37.5t37.5 97.5v406q0 116 70.5 186t185.5 70h302v-207h-123q-64 0 -104 -39.5t-40 -104.5v-340q0 -101 -62 -164t-165 -69v-21q103 -6 165 -69t62 -164v-360q0 -64 40 -104
t104 -40h123v-207h-302z" />
    <glyph glyph-name="bar" unicode="|" horiz-adv-x="569" 
d="M150 -471v1991h272v-1991h-272z" />
    <glyph glyph-name="braceright" unicode="}" horiz-adv-x="800" 
d="M313 -369h-301v207h123q65 0 104.5 40t39.5 104v360q0 101 62 164t165 69v21q-103 6 -165 69t-62 164v340q0 65 -39.5 104.5t-104.5 39.5h-123v207h301q115 0 185.5 -70t70.5 -186v-406q0 -60 37.5 -97.5t98.5 -37.5h20v-277h-20q-62 0 -99 -37t-37 -98v-424
q0 -115 -70.5 -185.5t-185.5 -70.5z" />
    <glyph glyph-name="asciitilde" unicode="~" horiz-adv-x="1306" 
d="M913 383q-54 0 -115 23t-115.5 55.5t-107.5 64.5t-107 55t-97 23q-55 0 -110.5 -32t-98.5 -85l-92 193q63 79 155 129.5t174 50.5q54 0 114.5 -23t114.5 -55t106 -64.5t104 -55.5t94 -23q58 0 115 31.5t96 83.5l94 -191q-60 -80 -151.5 -130t-172.5 -50z" />
    <glyph glyph-name="exclamdown" unicode="&#xa1;" horiz-adv-x="600" 
d="M299 676q-77 0 -126.5 48.5t-49.5 123.5t49.5 123.5t126.5 48.5t127.5 -48.5t50.5 -123.5t-50.5 -123.5t-127.5 -48.5zM141 -471v393l80 580h158l78 -580v-393h-316z" />
    <glyph glyph-name="cent" unicode="&#xa2;" horiz-adv-x="1247" 
d="M1178 375q-24 -155 -134 -259.5t-274 -135.5v-213h-270v215q-195 40 -312.5 186t-117.5 356q1 212 118 357.5t312 185.5v190h270v-188q166 -31 275.5 -135.5t130.5 -259.5l-283 -37q-20 86 -91 140t-159 54q-116 0 -193 -86.5t-77 -220.5t76 -220.5t192 -86.5
q90 0 160.5 54t93.5 139z" />
    <glyph glyph-name="sterling" unicode="&#xa3;" horiz-adv-x="1302" 
d="M70 0v291q47 12 81.5 31.5t65.5 56.5t49 98.5t23 147.5h-199v206h205v224q0 192 130 317t329 125q205 0 340 -133.5t141 -339.5h-277q-3 95 -55 156t-129 61q-73 0 -118.5 -56t-45.5 -143v-211h457v-206h-471q-13 -106 -47.5 -178t-77.5 -108.5t-109 -68.5v-20h869v-250
h-1161z" />
    <glyph glyph-name="currency" unicode="&#xa4;" horiz-adv-x="1425" 
d="M182 -96l-112 116l188 175q-102 136 -102 323q0 186 102 322l-186 176l112 117l193 -181q145 99 336 99t340 -99l194 178l109 -116l-189 -174q103 -137 103 -322q0 -186 -103 -323l191 -175l-111 -116l-194 182q-146 -100 -340 -100q-193 0 -336 98zM713 174
q144 0 237.5 97t93.5 247t-93.5 247t-237.5 97q-143 0 -236.5 -97.5t-93.5 -246.5q0 -150 92 -247t238 -97z" />
    <glyph glyph-name="yen" unicode="&#xa5;" horiz-adv-x="1519" 
d="M594 0v164h-424v170h424v121h-424v170h352l-465 833h373l326 -665h20l309 665h377l-458 -833h352v-170h-420v-121h420v-170h-420v-164h-342z" />
    <glyph glyph-name="brokenbar" unicode="&#xa6;" horiz-adv-x="567" 
d="M147 672v848h273v-848h-273zM147 -471v848h273v-848h-273z" />
    <glyph glyph-name="section" unicode="&#xa7;" horiz-adv-x="1263" 
d="M627 -317q-210 0 -348.5 111.5t-135.5 281.5h265q3 -78 68 -129t163 -51q80 0 133 37t53 94q0 29 -9.5 52t-35 41t-44 29t-65 24t-66.5 17.5t-78 16.5q-6 1 -9 2q-73 13 -124 25.5t-113.5 37.5t-101 56t-65 81t-26.5 113q0 96 63.5 171t165.5 100q-76 33 -123 107
t-47 171q0 165 130 269t337 104q203 0 336 -104t146 -277h-271q0 77 -60 126.5t-155 49.5q-79 0 -130.5 -34t-51.5 -87q0 -26 10 -47t33.5 -37t46 -28t63.5 -23t69 -18t79 -17q189 -41 267 -74q172 -75 180 -224v-15q0 -98 -70.5 -173.5t-183.5 -101.5q86 -33 138 -107
t52 -173q0 -172 -137 -284.5t-348 -112.5zM700 430q79 4 132 42t53 91q0 29 -14.5 52.5t-35 37.5t-52.5 24.5t-57.5 15.5t-59.5 9q-34 6 -127 29q-74 -6 -123 -45.5t-49 -85.5q0 -37 19.5 -64.5t55.5 -43.5t70.5 -25t81.5 -16z" />
    <glyph glyph-name="dieresis" unicode="&#xa8;" horiz-adv-x="987" 
d="M227 1194q-67 0 -112 44t-45 110q0 67 44.5 110t112.5 43q71 0 115.5 -43t44.5 -110q0 -66 -45 -110t-115 -44zM760 1194q-69 0 -114.5 44t-45.5 110q0 67 45.5 110t114.5 43t113.5 -43t44.5 -110q0 -66 -44.5 -110t-113.5 -44z" />
    <glyph glyph-name="copyright" unicode="&#xa9;" horiz-adv-x="2002" 
d="M1001 -365q-270 0 -480.5 113t-326.5 316t-116 462q0 257 116 459t326.5 315t480.5 113q271 0 481 -111.5t326.5 -313.5t116.5 -462q0 -194 -68 -360t-188.5 -282.5t-293 -182.5t-374.5 -66zM1001 -182q209 0 372.5 90t254 251t90.5 367q0 153 -53 284t-146.5 223.5
t-227 145t-290.5 52.5q-209 0 -372.5 -90t-253.5 -250.5t-90 -364.5q0 -206 90 -367t253.5 -251t372.5 -90zM1014 -29q-238 0 -393.5 154.5t-155.5 398.5q0 243 154 398t395 155q192 0 335.5 -114t172.5 -289l-205 -35q-26 106 -111 175t-192 69q-137 0 -227.5 -101
t-90.5 -258q0 -156 91 -257t231 -101q113 0 199.5 72t109.5 184l195 -39q-26 -180 -169 -296t-339 -116z" />
    <glyph glyph-name="guillemotleft" unicode="&#xab;" horiz-adv-x="1394" 
d="M446 0l-374 532l374 517h324l-385 -517l385 -532h-324zM997 0l-374 532l374 517h324l-385 -517l385 -532h-324z" />
    <glyph glyph-name="logicalnot" unicode="&#xac;" horiz-adv-x="1286" 
d="M975 143v383h-905v244h1126v-627h-221z" />
    <glyph glyph-name="registered" unicode="&#xae;" horiz-adv-x="2002" 
d="M1001 -365q-270 0 -480.5 113t-326.5 316t-116 462q0 257 116 459t326.5 315t480.5 113q271 0 481 -111.5t326.5 -313.5t116.5 -462q0 -194 -68 -360t-188.5 -282.5t-293 -182.5t-374.5 -66zM1001 -182q209 0 372.5 90t254 251t90.5 367q0 153 -53 284t-146.5 223.5
t-227 145t-290.5 52.5q-209 0 -372.5 -90t-253.5 -250.5t-90 -364.5q0 -206 90 -367t253.5 -251t372.5 -90zM610 20v1029h480q161 0 264.5 -89.5t103.5 -228.5q0 -121 -83.5 -204.5t-211.5 -94.5l-12 -2l295 -410h-260l-254 390h-105v-390h-217zM827 571h230q78 0 128 44
t50 114q0 68 -51 111t-127 43h-230v-312z" />
    <glyph glyph-name="macron" unicode="&#xaf;" horiz-adv-x="829" 
d="M70 1245v197h692v-197h-692z" />
    <glyph glyph-name="degree" unicode="&#xb0;" horiz-adv-x="1044" 
d="M524 684q-204 0 -329 117.5t-125 310.5t125 310.5t329 117.5q203 0 328 -117.5t125 -310.5t-125 -310.5t-328 -117.5zM524 877q104 0 169 64.5t65 170.5t-65 171t-169 65q-106 0 -170.5 -65t-64.5 -171t64.5 -170.5t170.5 -64.5z" />
    <glyph glyph-name="plusminus" unicode="&#xb1;" horiz-adv-x="1101" 
d="M424 580v223h-354v219h354v213h256v-213h352v-219h-352v-223h-256zM70 217v217h962v-217h-962z" />
    <glyph glyph-name="acute" unicode="&#xb4;" horiz-adv-x="628" 
d="M307 1208h-239l215 312h278z" />
    <glyph glyph-name="uni00B5" unicode="&#xb5;" horiz-adv-x="1251" 
d="M115 -422v1471h303v-578q0 -108 55.5 -167.5t149.5 -59.5q87 0 147.5 61t60.5 166v578h306v-1049h-293v113q-36 -59 -97 -91t-133 -32q-137 0 -196 96v-508h-303z" />
    <glyph glyph-name="paragraph" unicode="&#xb6;" horiz-adv-x="1587" 
d="M532 -434v1057q-210 0 -337 114.5t-125 302.5t128.5 303t333.5 115h934v-219h-196v-1673h-266v1673h-203v-1673h-269z" />
    <glyph glyph-name="periodcentered" unicode="&#xb7;" horiz-adv-x="491" 
d="M246 442q-77 0 -126.5 48.5t-49.5 123.5q0 74 50 122t126 48q78 0 128 -48t50 -122q0 -75 -50 -123.5t-128 -48.5z" />
    <glyph glyph-name="cedilla" unicode="&#xb8;" horiz-adv-x="606" 
d="M307 -463q-90 0 -155 41.5t-82 106.5l129 51q9 -34 38 -55t64 -21q37 0 60.5 21.5t23.5 52.5q0 39 -32.5 63.5t-82.5 24.5h-106l37 221h153l-22 -135q89 -3 148 -55.5t59 -128.5q0 -82 -65 -134.5t-167 -52.5z" />
    <glyph glyph-name="guillemotright" unicode="&#xbb;" horiz-adv-x="1392" 
d="M76 0l385 532l-385 517h323l373 -517l-373 -532h-323zM627 0l385 532l-385 517h323l373 -517l-373 -532h-323z" />
    <glyph glyph-name="questiondown" unicode="&#xbf;" horiz-adv-x="1159" 
d="M608 698q-78 0 -128 48.5t-50 123.5t50 123.5t128 48.5q75 0 125.5 -48.5t50.5 -123.5t-50.5 -123.5t-125.5 -48.5zM557 -479q-224 0 -369 120t-145 302q0 225 250 368q49 29 75 48.5t50.5 49.5t34.5 69t10 95h278q0 -106 -24.5 -179.5t-65.5 -119.5t-114 -96
q-77 -52 -120 -100t-44 -111q0 -78 56.5 -130t141.5 -52q100 0 158 70.5t55 179.5h334q0 -148 -71.5 -265t-199.5 -183t-290 -66z" />
    <glyph glyph-name="Agrave" unicode="&#xc0;" horiz-adv-x="1548" 
d="M911 1602h-260l-268 247h301zM37 0l493 1458h492l489 -1458h-344l-90 260h-606l-90 -260h-344zM545 510h459l-218 657h-20z" />
    <glyph glyph-name="Aacute" unicode="&#xc1;" horiz-adv-x="1548" 
d="M637 1602l227 247h301l-268 -247h-260zM37 0l493 1458h492l489 -1458h-344l-90 260h-606l-90 -260h-344zM545 510h459l-218 657h-20z" />
    <glyph glyph-name="Acircumflex" unicode="&#xc2;" horiz-adv-x="1548" 
d="M618 1849h314l217 -247h-227l-136 120h-22l-135 -120h-228zM37 0l493 1458h492l489 -1458h-344l-90 260h-606l-90 -260h-344zM545 510h459l-218 657h-20z" />
    <glyph glyph-name="Atilde" unicode="&#xc3;" horiz-adv-x="1548" 
d="M913 1630q-52 0 -99 17.5t-74.5 38t-61 38t-62.5 17.5q-36 0 -71 -24.5t-60 -65.5l-127 96q44 74 110.5 116t147.5 42q51 0 97.5 -17.5t75 -38t63.5 -38t66 -17.5q39 0 74 24.5t57 65.5l127 -88q-103 -166 -263 -166zM37 0l493 1458h492l489 -1458h-344l-90 260h-606
l-90 -260h-344zM545 510h459l-218 657h-20z" />
    <glyph glyph-name="Adieresis" unicode="&#xc4;" horiz-adv-x="1548" 
d="M524 1583q-69 0 -113 43t-44 111q0 65 44 107t113 42q68 0 112 -42.5t44 -106.5q0 -67 -44 -110.5t-112 -43.5zM1024 1583q-68 0 -112 43.5t-44 110.5q0 64 44 106.5t112 42.5q69 0 113.5 -42t44.5 -107q0 -67 -44.5 -110.5t-113.5 -43.5zM37 0l493 1458h492l489 -1458
h-344l-90 260h-606l-90 -260h-344zM545 510h459l-218 657h-20z" />
    <glyph glyph-name="Aring" unicode="&#xc5;" horiz-adv-x="1548" 
d="M774 1577q-101 0 -164 54.5t-63 140.5t63 140t164 54t163 -54t62 -140q0 -87 -62 -141t-163 -54zM774 1677q44 0 73.5 27t29.5 68t-29.5 67.5t-73.5 26.5q-46 0 -74 -26.5t-28 -67.5q0 -42 28.5 -68.5t73.5 -26.5zM37 0l493 1458h492l489 -1458h-344l-90 260h-606
l-90 -260h-344zM545 510h459l-218 657h-20z" />
    <glyph glyph-name="AE" unicode="&#xc6;" horiz-adv-x="2007" 
d="M37 0l717 1458h1167v-274h-590v-318h508v-239h-508v-353h611v-274h-924v244h-481l-121 -244h-379zM649 485h369v736h-21z" />
    <glyph glyph-name="Ccedilla" unicode="&#xc7;" horiz-adv-x="1658" 
d="M862 244q139 0 252 85.5t148 217.5l317 -43q-37 -225 -219 -373.5t-438 -167.5l-9 -55q89 -3 147 -55t58 -129q0 -82 -63.5 -134.5t-165.5 -52.5q-90 0 -155.5 41.5t-84.5 106.5l129 51q9 -34 38.5 -55t66.5 -21q36 0 60 21.5t24 52.5q0 39 -33 63.5t-84 24.5h-105
l23 143q-151 15 -279 77t-219 161t-142 234.5t-50 291.5q0 223 99.5 398.5t277 272.5t401.5 97q275 0 478.5 -156.5t244.5 -402.5l-319 -35q-31 135 -143.5 222t-254.5 87q-197 0 -320.5 -134t-123.5 -349t124.5 -350t319.5 -135z" />
    <glyph glyph-name="Egrave" unicode="&#xc8;" horiz-adv-x="1320" 
d="M831 1602h-258l-268 247h301zM147 0v1458h1076v-274h-744v-322h688v-239h-688v-349h764v-274h-1096z" />
    <glyph glyph-name="Eacute" unicode="&#xc9;" horiz-adv-x="1320" 
d="M559 1602l227 247h301l-270 -247h-258zM147 0v1458h1076v-274h-744v-322h688v-239h-688v-349h764v-274h-1096z" />
    <glyph glyph-name="Ecircumflex" unicode="&#xca;" horiz-adv-x="1320" 
d="M539 1849h313l217 -247h-225l-135 120h-23l-137 -120h-225zM147 0v1458h1076v-274h-744v-322h688v-239h-688v-349h764v-274h-1096z" />
    <glyph glyph-name="Edieresis" unicode="&#xcb;" horiz-adv-x="1320" 
d="M444 1583q-68 0 -111.5 43.5t-43.5 110.5q0 65 44 107t111 42q69 0 113.5 -42t44.5 -107q0 -67 -44.5 -110.5t-113.5 -43.5zM946 1583q-68 0 -111.5 43.5t-43.5 110.5q0 65 44 107t111 42q69 0 112.5 -42t43.5 -107q0 -68 -43.5 -111t-112.5 -43zM147 0v1458h1076v-274
h-744v-322h688v-239h-688v-349h764v-274h-1096z" />
    <glyph glyph-name="Igrave" unicode="&#xcc;" horiz-adv-x="636" 
d="M455 1602h-258l-269 247h301zM150 0v1458h339v-1458h-339z" />
    <glyph glyph-name="Iacute" unicode="&#xcd;" horiz-adv-x="636" 
d="M182 1602l226 247h301l-269 -247h-258zM150 0v1458h339v-1458h-339z" />
    <glyph glyph-name="Icircumflex" unicode="&#xce;" horiz-adv-x="636" 
d="M162 1849h311l219 -247h-227l-135 120h-23l-137 -120h-225zM150 0v1458h339v-1458h-339z" />
    <glyph glyph-name="Idieresis" unicode="&#xcf;" horiz-adv-x="636" 
d="M68 1583q-68 0 -112 43.5t-44 110.5q0 64 44 106.5t112 42.5q69 0 112 -42t43 -107q0 -68 -43 -111t-112 -43zM569 1583q-68 0 -111.5 43.5t-43.5 110.5q0 65 44 107t111 42q69 0 112.5 -42t43.5 -107q0 -68 -43.5 -111t-112.5 -43zM150 0v1458h339v-1458h-339z" />
    <glyph glyph-name="Ntilde" unicode="&#xd1;" horiz-adv-x="1585" 
d="M961 1630q-52 0 -98.5 17.5t-74.5 38t-61 38t-61 17.5q-37 0 -73 -24.5t-61 -65.5l-126 96q97 158 260 158q50 0 95.5 -17.5t74 -38t63.5 -38t66 -17.5q40 0 74 24.5t57 65.5l127 -88q-99 -166 -262 -166zM147 0v1458h394l553 -1018h20v1018h324v-1458h-394l-552 1016
h-21v-1016h-324z" />
    <glyph glyph-name="Ograve" unicode="&#xd2;" horiz-adv-x="1767" 
d="M1020 1602h-258l-268 247h301zM883 -39q-237 0 -420 95t-285 270t-102 403t102 403t285.5 270t419.5 95t419.5 -95t285.5 -270t102 -403t-102 -403t-285 -270t-420 -95zM883 244q206 0 336.5 135t130.5 350t-130.5 349t-336.5 134t-336.5 -134t-130.5 -349t130.5 -350
t336.5 -135z" />
    <glyph glyph-name="Oacute" unicode="&#xd3;" horiz-adv-x="1767" 
d="M748 1602l227 247h301l-270 -247h-258zM883 -39q-237 0 -420 95t-285 270t-102 403t102 403t285.5 270t419.5 95t419.5 -95t285.5 -270t102 -403t-102 -403t-285 -270t-420 -95zM883 244q206 0 336.5 135t130.5 350t-130.5 349t-336.5 134t-336.5 -134t-130.5 -349
t130.5 -350t336.5 -135z" />
    <glyph glyph-name="Ocircumflex" unicode="&#xd4;" horiz-adv-x="1767" 
d="M727 1849h313l217 -247h-225l-135 120h-23l-137 -120h-225zM883 -39q-237 0 -420 95t-285 270t-102 403t102 403t285.5 270t419.5 95t419.5 -95t285.5 -270t102 -403t-102 -403t-285 -270t-420 -95zM883 244q206 0 336.5 135t130.5 350t-130.5 349t-336.5 134
t-336.5 -134t-130.5 -349t130.5 -350t336.5 -135z" />
    <glyph glyph-name="Otilde" unicode="&#xd5;" horiz-adv-x="1767" 
d="M1022 1630q-52 0 -98.5 17.5t-74.5 38t-61 38t-61 17.5q-36 0 -71 -24.5t-60 -65.5l-127 96q94 158 258 158q50 0 95.5 -17.5t74 -38t64.5 -38t67 -17.5q39 0 73.5 24.5t55.5 65.5l129 -88q-103 -166 -264 -166zM883 -39q-237 0 -420 95t-285 270t-102 403t102 403
t285.5 270t419.5 95t419.5 -95t285.5 -270t102 -403t-102 -403t-285 -270t-420 -95zM883 244q206 0 336.5 135t130.5 350t-130.5 349t-336.5 134t-336.5 -134t-130.5 -349t130.5 -350t336.5 -135z" />
    <glyph glyph-name="Odieresis" unicode="&#xd6;" horiz-adv-x="1767" 
d="M633 1583q-68 0 -112 43.5t-44 110.5q0 64 44 106.5t112 42.5q69 0 113.5 -42t44.5 -107q0 -67 -44.5 -110.5t-113.5 -43.5zM1135 1583q-68 0 -112 43.5t-44 110.5q0 64 44 106.5t112 42.5q69 0 112 -42t43 -107q0 -68 -43 -111t-112 -43zM883 -39q-237 0 -420 95
t-285 270t-102 403t102 403t285.5 270t419.5 95t419.5 -95t285.5 -270t102 -403t-102 -403t-285 -270t-420 -95zM883 244q206 0 336.5 135t130.5 350t-130.5 349t-336.5 134t-336.5 -134t-130.5 -349t130.5 -350t336.5 -135z" />
    <glyph glyph-name="multiply" unicode="&#xd7;" horiz-adv-x="874" 
d="M246 352l-176 176l194 203l-194 203l176 176l192 -201l193 201l176 -176l-197 -203l197 -203l-176 -176l-193 203z" />
    <glyph glyph-name="Oslash" unicode="&#xd8;" horiz-adv-x="1726" 
d="M248 -287l186 363q-168 96 -262 266.5t-94 386.5q0 223 100.5 398.5t279.5 272.5t404 97q152 0 275 -47l157 311h219l-202 -391q159 -100 248.5 -266.5t89.5 -374.5q0 -223 -101 -398.5t-280.5 -272.5t-405.5 -97q-131 0 -252 41l-145 -289h-217zM578 356l426 838
q-77 25 -142 25q-193 0 -318.5 -138.5t-125.5 -351.5q0 -116 42.5 -212.5t117.5 -160.5zM862 240q195 0 321 137.5t126 351.5q0 221 -146 361l-420 -834q59 -16 119 -16z" />
    <glyph glyph-name="Ugrave" unicode="&#xd9;" horiz-adv-x="1579" 
d="M930 1602h-258l-271 247h301zM791 -39q-190 0 -338 77t-231 219t-83 327v874h340v-866q0 -155 87 -251.5t225 -96.5t224.5 97t86.5 251v866h340v-874q0 -280 -180.5 -451.5t-470.5 -171.5z" />
    <glyph glyph-name="Uacute" unicode="&#xda;" horiz-adv-x="1579" 
d="M657 1602l226 247h301l-269 -247h-258zM791 -39q-190 0 -338 77t-231 219t-83 327v874h340v-866q0 -155 87 -251.5t225 -96.5t224.5 97t86.5 251v866h340v-874q0 -280 -180.5 -451.5t-470.5 -171.5z" />
    <glyph glyph-name="Ucircumflex" unicode="&#xdb;" horiz-adv-x="1579" 
d="M637 1849h313l217 -247h-225l-135 120h-23l-137 -120h-227zM791 -39q-190 0 -338 77t-231 219t-83 327v874h340v-866q0 -155 87 -251.5t225 -96.5t224.5 97t86.5 251v866h340v-874q0 -280 -180.5 -451.5t-470.5 -171.5z" />
    <glyph glyph-name="Udieresis" unicode="&#xdc;" horiz-adv-x="1579" 
d="M543 1583q-68 0 -113 43.5t-45 110.5q0 64 45 106.5t113 42.5q67 0 111 -42t44 -107q0 -67 -43.5 -110.5t-111.5 -43.5zM1044 1583q-68 0 -112.5 43.5t-44.5 110.5q0 64 44.5 106.5t112.5 42.5t112 -42.5t44 -106.5q0 -67 -44 -110.5t-112 -43.5zM791 -39q-190 0 -338 77
t-231 219t-83 327v874h340v-866q0 -155 87 -251.5t225 -96.5t224.5 97t86.5 251v866h340v-874q0 -280 -180.5 -451.5t-470.5 -171.5z" />
    <glyph glyph-name="Yacute" unicode="&#xdd;" horiz-adv-x="1437" 
d="M584 1602l227 247h301l-268 -247h-260zM553 0v508l-516 950h354l322 -647h20l309 647h359l-508 -950v-508h-340z" />
    <glyph glyph-name="germandbls" unicode="&#xdf;" horiz-adv-x="1447" 
d="M918 -39q-77 0 -162.5 13.5t-143.5 35.5v242q110 -47 219 -47q100 0 160 58t60 157q0 106 -70.5 168.5t-204.5 62.5h-92v207h94q76 0 125 49.5t49 126.5q0 93 -66 149t-171 56q-113 0 -180.5 -73.5t-67.5 -198.5v-967h-340v971q0 229 165 373.5t429 144.5
q242 0 394.5 -118t152.5 -300q0 -102 -49 -174.5t-134 -103.5v-21q133 -34 219.5 -138.5t86.5 -250.5q0 -181 -135.5 -301.5t-337.5 -120.5z" />
    <glyph glyph-name="agrave" unicode="&#xe0;" horiz-adv-x="1171" 
d="M471 1208l-254 312h281l213 -312h-240zM412 -27q-163 0 -263 81t-100 220q0 297 496 359l223 26v43q0 76 -50.5 122t-139.5 46q-85 0 -135.5 -44t-49.5 -121h-297q0 172 132.5 274t353.5 102q224 0 356.5 -105.5t132.5 -283.5v-692h-303v133h-20q-49 -78 -136 -119
t-200 -41zM512 172q113 0 184.5 65t71.5 164v74l-215 -26q-107 -13 -157 -52.5t-50 -97.5q0 -59 44 -93t122 -34z" />
    <glyph glyph-name="aacute" unicode="&#xe1;" horiz-adv-x="1171" 
d="M696 1208h-237l213 312h280zM412 -27q-163 0 -263 81t-100 220q0 297 496 359l223 26v43q0 76 -50.5 122t-139.5 46q-85 0 -135.5 -44t-49.5 -121h-297q0 172 132.5 274t353.5 102q224 0 356.5 -105.5t132.5 -283.5v-692h-303v133h-20q-49 -78 -136 -119t-200 -41z
M512 172q113 0 184.5 65t71.5 164v74l-215 -26q-107 -13 -157 -52.5t-50 -97.5q0 -59 44 -93t122 -34z" />
    <glyph glyph-name="acircumflex" unicode="&#xe2;" horiz-adv-x="1171" 
d="M221 1192l211 309h307l215 -309h-231l-125 164h-20l-129 -164h-228zM412 -27q-163 0 -263 81t-100 220q0 297 496 359l223 26v43q0 76 -50.5 122t-139.5 46q-85 0 -135.5 -44t-49.5 -121h-297q0 172 132.5 274t353.5 102q224 0 356.5 -105.5t132.5 -283.5v-692h-303v133
h-20q-49 -78 -136 -119t-200 -41zM512 172q113 0 184.5 65t71.5 164v74l-215 -26q-107 -13 -157 -52.5t-50 -97.5q0 -59 44 -93t122 -34z" />
    <glyph glyph-name="atilde" unicode="&#xe3;" horiz-adv-x="1171" 
d="M735 1200q-52 0 -99 17.5t-75 38t-62 38t-63 17.5q-37 0 -71.5 -21.5t-55.5 -56.5l-127 96q44 73 111 115.5t149 42.5q49 0 94.5 -17.5t74 -39t64.5 -39t68 -17.5q39 0 73.5 22.5t53.5 57.5l129 -88q-103 -166 -264 -166zM412 -27q-163 0 -263 81t-100 220q0 297 496 359
l223 26v43q0 76 -50.5 122t-139.5 46q-85 0 -135.5 -44t-49.5 -121h-297q0 172 132.5 274t353.5 102q224 0 356.5 -105.5t132.5 -283.5v-692h-303v133h-20q-49 -78 -136 -119t-200 -41zM512 172q113 0 184.5 65t71.5 164v74l-215 -26q-107 -13 -157 -52.5t-50 -97.5
q0 -59 44 -93t122 -34z" />
    <glyph glyph-name="adieresis" unicode="&#xe4;" horiz-adv-x="1171" 
d="M319 1194q-69 0 -114 44t-45 110q0 67 45 110t114 43t114.5 -43t45.5 -110q0 -66 -45.5 -110t-114.5 -44zM850 1194q-69 0 -114.5 44t-45.5 110q0 67 45.5 110t114.5 43t114.5 -43t45.5 -110q0 -66 -45.5 -110t-114.5 -44zM412 -27q-163 0 -263 81t-100 220
q0 297 496 359l223 26v43q0 76 -50.5 122t-139.5 46q-85 0 -135.5 -44t-49.5 -121h-297q0 172 132.5 274t353.5 102q224 0 356.5 -105.5t132.5 -283.5v-692h-303v133h-20q-49 -78 -136 -119t-200 -41zM512 172q113 0 184.5 65t71.5 164v74l-215 -26q-107 -13 -157 -52.5
t-50 -97.5q0 -59 44 -93t122 -34z" />
    <glyph glyph-name="aring" unicode="&#xe5;" horiz-adv-x="1171" 
d="M584 1196q-108 0 -176 63t-68 164t68 164.5t176 63.5q109 0 176 -63.5t67 -164.5t-67 -164t-176 -63zM584 1305q53 0 87 33t34 85t-34 85.5t-87 33.5q-52 0 -85.5 -33t-33.5 -86q0 -52 33 -85t86 -33zM412 -27q-163 0 -263 81t-100 220q0 297 496 359l223 26v43
q0 76 -50.5 122t-139.5 46q-85 0 -135.5 -44t-49.5 -121h-297q0 172 132.5 274t353.5 102q224 0 356.5 -105.5t132.5 -283.5v-692h-303v133h-20q-49 -78 -136 -119t-200 -41zM512 172q113 0 184.5 65t71.5 164v74l-215 -26q-107 -13 -157 -52.5t-50 -97.5q0 -59 44 -93
t122 -34z" />
    <glyph glyph-name="ae" unicode="&#xe6;" horiz-adv-x="1902" 
d="M547 1083q128 0 229.5 -45t161.5 -123q153 166 383 166q224 0 369 -153.5t145 -399.5q0 -67 -4 -90h-776q17 -111 87 -178t169 -67q72 0 131.5 38t93.5 105l260 -68q-46 -131 -176 -216t-289 -85q-137 0 -247 64t-171 174q-54 -106 -177.5 -169t-278.5 -63
q-184 0 -296 82t-112 219q0 141 127 237.5t369 125.5l223 27v34q0 74 -53 117t-144 43q-79 0 -129 -40.5t-49 -104.5h-297q0 162 127.5 266t323.5 104zM1288 856q-91 0 -154.5 -63.5t-80.5 -169.5h473q-12 105 -77 169t-161 64zM553 459q-104 -12 -155.5 -52t-51.5 -98
t46 -89.5t122 -31.5q109 0 181.5 63.5t72.5 156.5v77z" />
    <glyph glyph-name="ccedilla" unicode="&#xe7;" horiz-adv-x="1247" 
d="M1178 375q-26 -170 -154 -278.5t-315 -125.5l-11 -63q89 -3 148 -55.5t59 -128.5q0 -82 -64.5 -134.5t-166.5 -52.5q-90 0 -155.5 41.5t-82.5 106.5l129 51q9 -34 38.5 -55t66.5 -21q36 0 59 21.5t23 52.5q0 39 -32.5 63.5t-82.5 24.5h-107l25 149q-218 26 -351.5 176.5
t-133.5 376.5q1 165 73 292t201 196t295 69q215 0 363 -111t174 -296l-283 -37q-20 86 -91 140t-159 54q-116 0 -193 -86.5t-77 -220.5t76 -220.5t192 -86.5q90 0 160.5 54t93.5 139z" />
    <glyph glyph-name="egrave" unicode="&#xe8;" horiz-adv-x="1280" 
d="M532 1208l-253 312h280l213 -312h-240zM649 -33q-256 0 -417.5 156.5t-161.5 408.5q0 245 161 397t416 152q252 0 408.5 -153t156.5 -400q0 -46 -4 -92h-825q20 -112 95 -177.5t186 -65.5q85 0 151 38.5t100 104.5l259 -66q-49 -140 -191 -221.5t-334 -81.5zM381 625h522
q-14 101 -86.5 166t-177.5 65q-100 0 -168.5 -62.5t-89.5 -168.5z" />
    <glyph glyph-name="eacute" unicode="&#xe9;" horiz-adv-x="1280" 
d="M760 1208h-240l213 312h281zM649 -33q-256 0 -417.5 156.5t-161.5 408.5q0 245 161 397t416 152q252 0 408.5 -153t156.5 -400q0 -46 -4 -92h-825q20 -112 95 -177.5t186 -65.5q85 0 151 38.5t100 104.5l259 -66q-49 -140 -191 -221.5t-334 -81.5zM381 625h522
q-14 101 -86.5 166t-177.5 65q-100 0 -168.5 -62.5t-89.5 -168.5z" />
    <glyph glyph-name="ecircumflex" unicode="&#xea;" horiz-adv-x="1280" 
d="M283 1192l211 309h307l215 -309h-232l-125 164h-20l-127 -164h-229zM649 -33q-256 0 -417.5 156.5t-161.5 408.5q0 245 161 397t416 152q252 0 408.5 -153t156.5 -400q0 -46 -4 -92h-825q20 -112 95 -177.5t186 -65.5q85 0 151 38.5t100 104.5l259 -66
q-49 -140 -191 -221.5t-334 -81.5zM381 625h522q-14 101 -86.5 166t-177.5 65q-100 0 -168.5 -62.5t-89.5 -168.5z" />
    <glyph glyph-name="edieresis" unicode="&#xeb;" horiz-adv-x="1280" 
d="M381 1194q-69 0 -114.5 44t-45.5 110q0 67 45.5 110t114.5 43t114.5 -43t45.5 -110q0 -66 -45.5 -110t-114.5 -44zM911 1194q-69 0 -114 44t-45 110q0 67 45 110t114 43t114.5 -43t45.5 -110q0 -66 -45.5 -110t-114.5 -44zM649 -33q-256 0 -417.5 156.5t-161.5 408.5
q0 245 161 397t416 152q252 0 408.5 -153t156.5 -400q0 -46 -4 -92h-825q20 -112 95 -177.5t186 -65.5q85 0 151 38.5t100 104.5l259 -66q-49 -140 -191 -221.5t-334 -81.5zM381 625h522q-14 101 -86.5 166t-177.5 65q-100 0 -168.5 -62.5t-89.5 -168.5z" />
    <glyph glyph-name="igrave" unicode="&#xec;" horiz-adv-x="534" 
d="M156 1208l-254 312h280l213 -312h-239zM117 0v1049h303v-1049h-303z" />
    <glyph glyph-name="iacute" unicode="&#xed;" horiz-adv-x="534" 
d="M383 1208h-240l213 312h281zM117 0v1049h303v-1049h-303z" />
    <glyph glyph-name="icircumflex" unicode="&#xee;" horiz-adv-x="534" 
d="M-94 1192l211 309h307l215 -309h-231l-125 164h-21l-127 -164h-229zM117 0v1049h303v-1049h-303z" />
    <glyph glyph-name="idieresis" unicode="&#xef;" horiz-adv-x="534" 
d="M4 1194q-69 0 -114.5 44t-45.5 110q0 67 45.5 110t114.5 43t114.5 -43t45.5 -110q0 -66 -45.5 -110t-114.5 -44zM535 1194q-69 0 -114.5 44t-45.5 110q0 67 45.5 110t114.5 43t114 -43t45 -110q0 -66 -45 -110t-114 -44zM117 0v1049h303v-1049h-303z" />
    <glyph glyph-name="ntilde" unicode="&#xf1;" 
d="M795 1200q-51 0 -97.5 17.5t-74.5 38t-62.5 38t-64.5 17.5q-36 0 -70.5 -21.5t-56.5 -56.5l-127 96q46 73 112.5 115.5t147.5 42.5q50 0 95.5 -17.5t74 -39t64.5 -39t67 -17.5q40 0 73.5 22.5t53.5 57.5l129 -88q-99 -166 -264 -166zM117 0v1049h303v-148h20
q117 178 305 178q177 0 286.5 -122.5t109.5 -313.5v-643h-303v600q0 98 -53 158.5t-144 60.5q-92 0 -156.5 -65.5t-64.5 -163.5v-590h-303z" />
    <glyph glyph-name="ograve" unicode="&#xf2;" horiz-adv-x="1298" 
d="M537 1208l-254 312h278l215 -312h-239zM649 -33q-263 0 -422 152t-159 405t159 405t422 152q262 0 422 -152t160 -405q0 -254 -160 -405.5t-422 -151.5zM649 225q121 0 199 84t78 215q0 130 -77.5 213.5t-199.5 83.5q-123 0 -200.5 -83t-77.5 -214t77.5 -215t200.5 -84z
" />
    <glyph glyph-name="oacute" unicode="&#xf3;" horiz-adv-x="1298" 
d="M762 1208h-240l215 312h279zM649 -33q-263 0 -422 152t-159 405t159 405t422 152q262 0 422 -152t160 -405q0 -254 -160 -405.5t-422 -151.5zM649 225q121 0 199 84t78 215q0 130 -77.5 213.5t-199.5 83.5q-123 0 -200.5 -83t-77.5 -214t77.5 -215t200.5 -84z" />
    <glyph glyph-name="ocircumflex" unicode="&#xf4;" horiz-adv-x="1298" 
d="M287 1192l211 309h307l213 -309h-230l-124 164h-21l-129 -164h-227zM649 -33q-263 0 -422 152t-159 405t159 405t422 152q262 0 422 -152t160 -405q0 -254 -160 -405.5t-422 -151.5zM649 225q121 0 199 84t78 215q0 130 -77.5 213.5t-199.5 83.5q-123 0 -200.5 -83
t-77.5 -214t77.5 -215t200.5 -84z" />
    <glyph glyph-name="otilde" unicode="&#xf5;" horiz-adv-x="1298" 
d="M799 1200q-51 0 -97.5 17.5t-74.5 38t-62.5 38t-64.5 17.5q-36 0 -70.5 -21.5t-56.5 -56.5l-127 96q44 73 111.5 115.5t148.5 42.5q50 0 95.5 -17.5t74 -39t64.5 -39t67 -17.5q39 0 73.5 22.5t53.5 57.5l129 -88q-103 -166 -264 -166zM649 -33q-263 0 -422 152t-159 405
t159 405t422 152q262 0 422 -152t160 -405q0 -254 -160 -405.5t-422 -151.5zM649 225q121 0 199 84t78 215q0 130 -77.5 213.5t-199.5 83.5q-123 0 -200.5 -83t-77.5 -214t77.5 -215t200.5 -84z" />
    <glyph glyph-name="odieresis" unicode="&#xf6;" horiz-adv-x="1298" 
d="M383 1194q-69 0 -113.5 44t-44.5 110q0 67 44.5 110t113.5 43q71 0 115.5 -43t44.5 -110q0 -66 -45 -110t-115 -44zM915 1194q-69 0 -114 44t-45 110q0 67 45 110t114 43t113.5 -43t44.5 -110q0 -66 -44.5 -110t-113.5 -44zM649 -33q-263 0 -422 152t-159 405t159 405
t422 152q262 0 422 -152t160 -405q0 -254 -160 -405.5t-422 -151.5zM649 225q121 0 199 84t78 215q0 130 -77.5 213.5t-199.5 83.5q-123 0 -200.5 -83t-77.5 -214t77.5 -215t200.5 -84z" />
    <glyph glyph-name="divide" unicode="&#xf7;" horiz-adv-x="1060" 
d="M530 993q-67 0 -109 41.5t-42 106.5q0 63 42 104t109 41q66 0 109 -41t43 -104q0 -64 -43 -106t-109 -42zM70 614v226h921v-226h-921zM530 158q-67 0 -109 41t-42 106q0 64 42 105t109 41q66 0 109 -41.5t43 -104.5q0 -64 -43 -105.5t-109 -41.5z" />
    <glyph glyph-name="oslash" unicode="&#xf8;" horiz-adv-x="1325" 
d="M659 1081q102 0 197 -28l86 176h188l-124 -240q118 -70 183.5 -190.5t65.5 -274.5q0 -250 -164 -403.5t-427 -153.5q-79 0 -172 21l-76 -152h-187l107 207q-127 71 -196.5 195.5t-69.5 285.5q0 250 163 403.5t426 153.5zM662 870q-142 0 -234 -97t-92 -249
q0 -170 110 -266l306 598q-41 14 -90 14zM662 178q144 0 234.5 96.5t90.5 249.5q0 154 -94 248l-299 -588q20 -6 68 -6z" />
    <glyph glyph-name="ugrave" unicode="&#xf9;" 
d="M496 1208l-254 312h280l213 -312h-239zM1124 1049v-1049h-303v147h-20q-117 -178 -305 -178q-177 0 -286.5 123t-109.5 314v643h303v-600q0 -98 53 -159t144 -61q92 0 156.5 65.5t64.5 164.5v590h303z" />
    <glyph glyph-name="uacute" unicode="&#xfa;" 
d="M721 1208h-240l215 312h281zM1124 1049v-1049h-303v147h-20q-117 -178 -305 -178q-177 0 -286.5 123t-109.5 314v643h303v-600q0 -98 53 -159t144 -61q92 0 156.5 65.5t64.5 164.5v590h303z" />
    <glyph glyph-name="ucircumflex" unicode="&#xfb;" 
d="M246 1192l211 309h307l213 -309h-229l-125 164h-21l-129 -164h-227zM1124 1049v-1049h-303v147h-20q-117 -178 -305 -178q-177 0 -286.5 123t-109.5 314v643h303v-600q0 -98 53 -159t144 -61q92 0 156.5 65.5t64.5 164.5v590h303z" />
    <glyph glyph-name="udieresis" unicode="&#xfc;" 
d="M344 1194q-69 0 -114.5 44t-45.5 110q0 67 45.5 110t114.5 43t113.5 -43t44.5 -110q0 -66 -44.5 -110t-113.5 -44zM874 1194q-69 0 -114 44t-45 110q0 67 45 110t114 43t114.5 -43t45.5 -110q0 -66 -45.5 -110t-114.5 -44zM1124 1049v-1049h-303v147h-20
q-117 -178 -305 -178q-177 0 -286.5 123t-109.5 314v643h303v-600q0 -98 53 -159t144 -61q92 0 156.5 65.5t64.5 164.5v590h303z" />
    <glyph glyph-name="yacute" unicode="&#xfd;" horiz-adv-x="1198" 
d="M741 1208h-239l215 312h280zM344 -473q-125 0 -217 37l2 243q75 -30 156 -30q38 0 70.5 13.5t53.5 31.5t41.5 51t31 55.5t26.5 61.5l-494 1059h326l281 -670h20l227 670h316l-406 -1086q-39 -107 -78 -181.5t-90.5 -135t-117.5 -90t-148 -29.5z" />
    <glyph glyph-name="ydieresis" unicode="&#xff;" horiz-adv-x="1198" 
d="M365 1194q-69 0 -114.5 44t-45.5 110q0 67 45.5 110t114.5 43t113 -43t44 -110q0 -66 -44 -110t-113 -44zM895 1194q-69 0 -114.5 44t-45.5 110q0 67 45.5 110t114.5 43t114.5 -43t45.5 -110q0 -66 -45.5 -110t-114.5 -44zM344 -473q-125 0 -217 37l2 243q75 -30 156 -30
q38 0 70.5 13.5t53.5 31.5t41.5 51t31 55.5t26.5 61.5l-494 1059h326l281 -670h20l227 670h316l-406 -1086q-39 -107 -78 -181.5t-90.5 -135t-117.5 -90t-148 -29.5z" />
    <glyph glyph-name="Amacron" unicode="&#x100;" horiz-adv-x="1548" 
d="M428 1655v196h692v-196h-692zM37 0l493 1458h492l489 -1458h-344l-90 260h-606l-90 -260h-344zM545 510h459l-218 657h-20z" />
    <glyph glyph-name="amacron" unicode="&#x101;" horiz-adv-x="1171" 
d="M240 1245v197h690v-197h-690zM412 -27q-163 0 -263 81t-100 220q0 297 496 359l223 26v43q0 76 -50.5 122t-139.5 46q-85 0 -135.5 -44t-49.5 -121h-297q0 172 132.5 274t353.5 102q224 0 356.5 -105.5t132.5 -283.5v-692h-303v133h-20q-49 -78 -136 -119t-200 -41z
M512 172q113 0 184.5 65t71.5 164v74l-215 -26q-107 -13 -157 -52.5t-50 -97.5q0 -59 44 -93t122 -34z" />
    <glyph glyph-name="Abreve" unicode="&#x102;" horiz-adv-x="1548" 
d="M774 1581q-148 0 -244 75.5t-96 192.5h225q0 -51 31 -80.5t84 -29.5q52 0 82.5 29.5t30.5 80.5h223q0 -117 -95 -192.5t-241 -75.5zM37 0l493 1458h492l489 -1458h-344l-90 260h-606l-90 -260h-344zM545 510h459l-218 657h-20z" />
    <glyph glyph-name="abreve" unicode="&#x103;" horiz-adv-x="1171" 
d="M584 1221q-133 0 -219 84t-86 215h198q0 -64 28.5 -101t78.5 -37q51 0 79.5 37t28.5 101h199q0 -130 -86.5 -214.5t-220.5 -84.5zM412 -27q-163 0 -263 81t-100 220q0 297 496 359l223 26v43q0 76 -50.5 122t-139.5 46q-85 0 -135.5 -44t-49.5 -121h-297q0 172 132.5 274
t353.5 102q224 0 356.5 -105.5t132.5 -283.5v-692h-303v133h-20q-49 -78 -136 -119t-200 -41zM512 172q113 0 184.5 65t71.5 164v74l-215 -26q-107 -13 -157 -52.5t-50 -97.5q0 -59 44 -93t122 -34z" />
    <glyph glyph-name="Aogonek" unicode="&#x104;" horiz-adv-x="1548" 
d="M1337 0q-100 -38 -158.5 -93.5t-58.5 -111.5q0 -38 27.5 -62t73.5 -24q51 0 112 33v-123q-72 -37 -153 -37q-88 0 -142.5 47.5t-54.5 122.5q0 69 47 134.5t135 117.5l-88 256h-606l-90 -260h-344l493 1458h492l489 -1458h-174zM545 510h459l-218 657h-20z" />
    <glyph glyph-name="aogonek" unicode="&#x105;" horiz-adv-x="1171" 
d="M582 1081q224 0 356.5 -105.5t132.5 -283.5v-692h-123q-100 -38 -158.5 -93.5t-58.5 -111.5q0 -39 27.5 -62.5t72.5 -23.5q53 0 113 33v-123q-72 -37 -153 -37q-88 0 -142.5 47.5t-54.5 122.5q0 138 180 248h-6v133h-20q-49 -78 -136 -119t-200 -41q-163 0 -263 81
t-100 220q0 297 496 359l223 26v43q0 76 -50.5 122t-139.5 46q-85 0 -135.5 -44t-49.5 -121h-297q0 172 132.5 274t353.5 102zM768 401v74l-215 -26q-107 -13 -157 -52.5t-50 -97.5q0 -59 44 -93t122 -34q113 0 184.5 65t71.5 164z" />
    <glyph glyph-name="Cacute" unicode="&#x106;" horiz-adv-x="1658" 
d="M719 1618l227 250h301l-270 -250h-258zM856 -39q-224 0 -402 97t-277.5 272.5t-98.5 398.5q0 223 99.5 398.5t277 272.5t401.5 97q275 0 478.5 -156.5t244.5 -402.5l-319 -35q-31 135 -143.5 222t-254.5 87q-197 0 -320.5 -134t-123.5 -349t124.5 -350t319.5 -135
q139 0 252 85.5t148 217.5l317 -43q-25 -157 -126 -281t-257.5 -193t-339.5 -69z" />
    <glyph glyph-name="cacute" unicode="&#x107;" horiz-adv-x="1247" 
d="M754 1208h-238l213 312h281zM639 -33q-251 0 -410 154.5t-159 402.5q1 165 73 292t201 196t295 69q215 0 363 -111t174 -296l-283 -37q-20 86 -91 140t-159 54q-116 0 -193 -86.5t-77 -220.5t76 -220.5t192 -86.5q90 0 160.5 54t93.5 139l283 -35q-29 -186 -177.5 -297
t-361.5 -111z" />
    <glyph glyph-name="Ccircumflex" unicode="&#x108;" horiz-adv-x="1658" 
d="M698 1868h314l217 -250h-225l-136 123h-22l-137 -123h-226zM856 -39q-224 0 -402 97t-277.5 272.5t-98.5 398.5q0 223 99.5 398.5t277 272.5t401.5 97q275 0 478.5 -156.5t244.5 -402.5l-319 -35q-31 135 -143.5 222t-254.5 87q-197 0 -320.5 -134t-123.5 -349
t124.5 -350t319.5 -135q139 0 252 85.5t148 217.5l317 -43q-25 -157 -126 -281t-257.5 -193t-339.5 -69z" />
    <glyph glyph-name="ccircumflex" unicode="&#x109;" horiz-adv-x="1247" 
d="M279 1192l210 309h308l215 -309h-232l-125 164h-20l-129 -164h-227zM639 -33q-251 0 -410 154.5t-159 402.5q1 165 73 292t201 196t295 69q215 0 363 -111t174 -296l-283 -37q-20 86 -91 140t-159 54q-116 0 -193 -86.5t-77 -220.5t76 -220.5t192 -86.5q90 0 160.5 54
t93.5 139l283 -35q-29 -186 -177.5 -297t-361.5 -111z" />
    <glyph glyph-name="Cdotaccent" unicode="&#x10a;" horiz-adv-x="1658" 
d="M856 1618q-75 0 -122.5 42.5t-47.5 108.5t47.5 109t122.5 43q73 0 120.5 -43t47.5 -109t-47.5 -108.5t-120.5 -42.5zM856 -39q-224 0 -402 97t-277.5 272.5t-98.5 398.5q0 223 99.5 398.5t277 272.5t401.5 97q275 0 478.5 -156.5t244.5 -402.5l-319 -35
q-31 135 -143.5 222t-254.5 87q-197 0 -320.5 -134t-123.5 -349t124.5 -350t319.5 -135q139 0 252 85.5t148 217.5l317 -43q-25 -157 -126 -281t-257.5 -193t-339.5 -69z" />
    <glyph glyph-name="cdotaccent" unicode="&#x10b;" horiz-adv-x="1247" 
d="M641 1194q-78 0 -130 50t-52 128q0 76 52 127t130 51q79 0 130.5 -50.5t51.5 -127.5q0 -78 -51 -128t-131 -50zM639 -33q-251 0 -410 154.5t-159 402.5q1 165 73 292t201 196t295 69q215 0 363 -111t174 -296l-283 -37q-20 86 -91 140t-159 54q-116 0 -193 -86.5
t-77 -220.5t76 -220.5t192 -86.5q90 0 160.5 54t93.5 139l283 -35q-29 -186 -177.5 -297t-361.5 -111z" />
    <glyph glyph-name="Ccaron" unicode="&#x10c;" horiz-adv-x="1658" 
d="M698 1618l-215 250h226l137 -123h22l136 123h225l-217 -250h-314zM856 -39q-224 0 -402 97t-277.5 272.5t-98.5 398.5q0 223 99.5 398.5t277 272.5t401.5 97q275 0 478.5 -156.5t244.5 -402.5l-319 -35q-31 135 -143.5 222t-254.5 87q-197 0 -320.5 -134t-123.5 -349
t124.5 -350t319.5 -135q139 0 252 85.5t148 217.5l317 -43q-25 -157 -126 -281t-257.5 -193t-339.5 -69z" />
    <glyph glyph-name="ccaron" unicode="&#x10d;" horiz-adv-x="1247" 
d="M274 1520h230l127 -164h20l125 164h232l-215 -312h-306zM639 -33q-251 0 -410 154.5t-159 402.5q1 165 73 292t201 196t295 69q215 0 363 -111t174 -296l-283 -37q-20 86 -91 140t-159 54q-116 0 -193 -86.5t-77 -220.5t76 -220.5t192 -86.5q90 0 160.5 54t93.5 139
l283 -35q-29 -186 -177.5 -297t-361.5 -111z" />
    <glyph glyph-name="Dcaron" unicode="&#x10e;" horiz-adv-x="1611" 
d="M608 1602l-215 247h225l138 -120h22l135 120h226l-217 -247h-314zM150 0v1458h546q250 0 440.5 -90.5t295 -256t104.5 -382.5t-104.5 -382.5t-295 -256t-440.5 -90.5h-546zM481 266h215q226 0 363 125.5t137 337.5q0 211 -137.5 337t-362.5 126h-215v-926z" />
    <glyph glyph-name="dcaron" unicode="&#x10f;" horiz-adv-x="1349" 
d="M1462 1073l-78 33l84 158q-54 8 -88 45.5t-34 89.5q0 61 40 101t101 40q62 0 101.5 -38.5t39.5 -98.5q0 -57 -41 -121zM565 -33q-218 0 -356.5 154t-138.5 403q0 247 139 402t354 155q218 0 334 -163h21v602h303v-1520h-303v133h-21q-116 -166 -332 -166zM651 225
q120 0 198.5 86t78.5 213t-78 212t-199 85t-199.5 -85t-78.5 -212q0 -128 79 -213.5t199 -85.5z" />
    <glyph glyph-name="Dcroat" unicode="&#x110;" horiz-adv-x="1699" 
d="M784 1458q250 0 440.5 -90.5t295 -256t104.5 -382.5t-104.5 -382.5t-295 -256t-440.5 -90.5h-546v698h-201v207h201v553h546zM784 266q226 0 363 125.5t137 337.5q0 211 -137.5 337t-362.5 126h-215v-287h389v-207h-389v-432h215z" />
    <glyph glyph-name="dcroat" unicode="&#x111;" horiz-adv-x="1333" 
d="M1384 1382v-170h-165v-1212h-304v133h-20q-116 -166 -332 -166q-218 0 -356.5 154t-138.5 403q0 247 139 402t354 155q218 0 334 -163h20v294h-335v170h335v138h304v-138h165zM649 225q120 0 198.5 86t78.5 213t-78 212t-199 85t-199.5 -85t-78.5 -212q0 -128 79 -213.5
t199 -85.5z" />
    <glyph glyph-name="Emacron" unicode="&#x112;" horiz-adv-x="1320" 
d="M350 1655v196h690v-196h-690zM147 0v1458h1076v-274h-744v-322h688v-239h-688v-349h764v-274h-1096z" />
    <glyph glyph-name="emacron" unicode="&#x113;" horiz-adv-x="1280" 
d="M301 1245v197h690v-197h-690zM649 -33q-256 0 -417.5 156.5t-161.5 408.5q0 245 161 397t416 152q252 0 408.5 -153t156.5 -400q0 -46 -4 -92h-825q20 -112 95 -177.5t186 -65.5q85 0 151 38.5t100 104.5l259 -66q-49 -140 -191 -221.5t-334 -81.5zM381 625h522
q-14 101 -86.5 166t-177.5 65q-100 0 -168.5 -62.5t-89.5 -168.5z" />
    <glyph glyph-name="Ebreve" unicode="&#x114;" horiz-adv-x="1320" 
d="M694 1581q-148 0 -243 75.5t-95 192.5h226q0 -51 30 -80.5t82 -29.5q53 0 84 29.5t31 80.5h223q0 -117 -95 -192.5t-243 -75.5zM147 0v1458h1076v-274h-744v-322h688v-239h-688v-349h764v-274h-1096z" />
    <glyph glyph-name="ebreve" unicode="&#x115;" horiz-adv-x="1280" 
d="M645 1221q-133 0 -219 84t-86 215h199q0 -64 28 -101t78 -37q51 0 80 37.5t29 100.5h198q0 -130 -86.5 -214.5t-220.5 -84.5zM649 -33q-256 0 -417.5 156.5t-161.5 408.5q0 245 161 397t416 152q252 0 408.5 -153t156.5 -400q0 -46 -4 -92h-825q20 -112 95 -177.5
t186 -65.5q85 0 151 38.5t100 104.5l259 -66q-49 -140 -191 -221.5t-334 -81.5zM381 625h522q-14 101 -86.5 166t-177.5 65q-100 0 -168.5 -62.5t-89.5 -168.5z" />
    <glyph glyph-name="Edotaccent" unicode="&#x116;" horiz-adv-x="1320" 
d="M696 1602q-75 0 -122.5 42.5t-47.5 108.5t47.5 109t122.5 43q73 0 120.5 -43t47.5 -109t-47.5 -108.5t-120.5 -42.5zM147 0v1458h1076v-274h-744v-322h688v-239h-688v-349h764v-274h-1096z" />
    <glyph glyph-name="edotaccent" unicode="&#x117;" horiz-adv-x="1280" 
d="M645 1194q-78 0 -130 50t-52 128q0 76 52 127t130 51q81 0 132.5 -50.5t51.5 -127.5q0 -78 -51.5 -128t-132.5 -50zM649 -33q-256 0 -417.5 156.5t-161.5 408.5q0 245 161 397t416 152q252 0 408.5 -153t156.5 -400q0 -46 -4 -92h-825q20 -112 95 -177.5t186 -65.5
q85 0 151 38.5t100 104.5l259 -66q-49 -140 -191 -221.5t-334 -81.5zM381 625h522q-14 101 -86.5 166t-177.5 65q-100 0 -168.5 -62.5t-89.5 -168.5z" />
    <glyph glyph-name="Eogonek" unicode="&#x118;" horiz-adv-x="1320" 
d="M479 274h764v-274h-100q-100 -38 -158.5 -93.5t-58.5 -111.5q0 -39 27.5 -62.5t72.5 -23.5q54 0 115 33v-123q-72 -37 -156 -37q-88 0 -142.5 47.5t-54.5 122.5q0 138 181 248h-822v1458h1076v-274h-744v-322h688v-239h-688v-349z" />
    <glyph glyph-name="eogonek" unicode="&#x119;" horiz-adv-x="1280" 
d="M1212 528q0 -46 -4 -92h-825q20 -112 95 -177.5t186 -65.5q85 0 151 38.5t100 104.5l259 -66q-38 -108 -133 -182t-228 -104q-84 -38 -132 -88.5t-48 -100.5q0 -39 27.5 -62.5t72.5 -23.5q53 0 113 33v-123q-72 -37 -156 -37q-86 0 -140 47.5t-54 122.5q0 118 129 215
q-246 8 -400.5 163.5t-154.5 401.5q0 245 161 397t416 152q252 0 408.5 -153t156.5 -400zM381 625h522q-14 101 -86.5 166t-177.5 65q-100 0 -168.5 -62.5t-89.5 -168.5z" />
    <glyph glyph-name="Ecaron" unicode="&#x11a;" horiz-adv-x="1320" 
d="M539 1602l-215 247h225l137 -120h23l135 120h225l-217 -247h-313zM147 0v1458h1076v-274h-744v-322h688v-239h-688v-349h764v-274h-1096z" />
    <glyph glyph-name="ecaron" unicode="&#x11b;" horiz-adv-x="1280" 
d="M279 1520h229l127 -164h20l125 164h232l-213 -312h-307zM649 -33q-256 0 -417.5 156.5t-161.5 408.5q0 245 161 397t416 152q252 0 408.5 -153t156.5 -400q0 -46 -4 -92h-825q20 -112 95 -177.5t186 -65.5q85 0 151 38.5t100 104.5l259 -66q-49 -140 -191 -221.5
t-334 -81.5zM381 625h522q-14 101 -86.5 166t-177.5 65q-100 0 -168.5 -62.5t-89.5 -168.5z" />
    <glyph glyph-name="Gcircumflex" unicode="&#x11c;" horiz-adv-x="1734" 
d="M729 1849h311l220 -247h-228l-135 120h-23l-137 -120h-225zM885 -43q-232 0 -416 98t-287.5 274.5t-103.5 399.5t103.5 398.5t287.5 272.5t416 97q244 0 437 -125t249 -319l-311 -70q-34 101 -140 165t-237 64q-203 0 -334 -135t-131 -348q0 -212 134 -350.5t341 -138.5
q115 0 212.5 47.5t156 130.5t63.5 184h-580v225h910q22 -252 -69 -450.5t-274.5 -309t-426.5 -110.5z" />
    <glyph glyph-name="gcircumflex" unicode="&#x11d;" horiz-adv-x="1335" 
d="M285 1192l211 309h307l215 -309h-232l-124 164h-21l-127 -164h-229zM649 -504q-230 0 -379.5 96.5t-187.5 272.5l293 57q29 -87 98.5 -135.5t167.5 -48.5q126 0 201.5 76.5t75.5 205.5v117h-21q-132 -151 -332 -151q-220 0 -357.5 148t-137.5 390q0 252 136.5 403.5
t356.5 151.5q210 0 342 -164h21v134h295v-1037q0 -242 -154 -379t-418 -137zM651 233q121 0 199 82.5t78 208.5q0 129 -78 213t-199 84t-199.5 -84t-78.5 -213q0 -126 78.5 -208.5t199.5 -82.5z" />
    <glyph glyph-name="Gbreve" unicode="&#x11e;" horiz-adv-x="1734" 
d="M883 1581q-148 0 -243 75.5t-95 192.5h225q0 -51 30.5 -80.5t82.5 -29.5q53 0 83.5 29.5t30.5 80.5h224q0 -117 -95 -192.5t-243 -75.5zM885 -43q-232 0 -416 98t-287.5 274.5t-103.5 399.5t103.5 398.5t287.5 272.5t416 97q244 0 437 -125t249 -319l-311 -70
q-34 101 -140 165t-237 64q-203 0 -334 -135t-131 -348q0 -212 134 -350.5t341 -138.5q115 0 212.5 47.5t156 130.5t63.5 184h-580v225h910q22 -252 -69 -450.5t-274.5 -309t-426.5 -110.5z" />
    <glyph glyph-name="gbreve" unicode="&#x11f;" horiz-adv-x="1335" 
d="M649 1221q-135 0 -221 84t-86 215h199q0 -64 28 -101t80 -37q49 0 78 37.5t29 100.5h198q0 -130 -86.5 -214.5t-218.5 -84.5zM649 -504q-230 0 -379.5 96.5t-187.5 272.5l293 57q29 -87 98.5 -135.5t167.5 -48.5q126 0 201.5 76.5t75.5 205.5v117h-21
q-132 -151 -332 -151q-220 0 -357.5 148t-137.5 390q0 252 136.5 403.5t356.5 151.5q210 0 342 -164h21v134h295v-1037q0 -242 -154 -379t-418 -137zM651 233q121 0 199 82.5t78 208.5q0 129 -78 213t-199 84t-199.5 -84t-78.5 -213q0 -126 78.5 -208.5t199.5 -82.5z" />
    <glyph glyph-name="Gdotaccent" unicode="&#x120;" horiz-adv-x="1734" 
d="M885 1602q-75 0 -122.5 42.5t-47.5 108.5t47.5 109t122.5 43q73 0 120.5 -43t47.5 -109t-47.5 -108.5t-120.5 -42.5zM885 -43q-232 0 -416 98t-287.5 274.5t-103.5 399.5t103.5 398.5t287.5 272.5t416 97q244 0 437 -125t249 -319l-311 -70q-34 101 -140 165t-237 64
q-203 0 -334 -135t-131 -348q0 -212 134 -350.5t341 -138.5q115 0 212.5 47.5t156 130.5t63.5 184h-580v225h910q22 -252 -69 -450.5t-274.5 -309t-426.5 -110.5z" />
    <glyph glyph-name="gdotaccent" unicode="&#x121;" horiz-adv-x="1335" 
d="M649 1194q-80 0 -132 50t-52 128q0 77 52.5 127.5t131.5 50.5t130.5 -50.5t51.5 -127.5q0 -78 -51 -128t-131 -50zM649 -504q-230 0 -379.5 96.5t-187.5 272.5l293 57q29 -87 98.5 -135.5t167.5 -48.5q126 0 201.5 76.5t75.5 205.5v117h-21q-132 -151 -332 -151
q-220 0 -357.5 148t-137.5 390q0 252 136.5 403.5t356.5 151.5q210 0 342 -164h21v134h295v-1037q0 -242 -154 -379t-418 -137zM651 233q121 0 199 82.5t78 208.5q0 129 -78 213t-199 84t-199.5 -84t-78.5 -213q0 -126 78.5 -208.5t199.5 -82.5z" />
    <glyph glyph-name="Gcommaaccent" unicode="&#x122;" horiz-adv-x="1734" 
d="M885 -43q-232 0 -416 98t-287.5 274.5t-103.5 399.5t103.5 398.5t287.5 272.5t416 97q244 0 437 -125t249 -319l-311 -70q-34 101 -140 165t-237 64q-203 0 -334 -135t-131 -348q0 -212 134 -350.5t341 -138.5q115 0 212.5 47.5t156 130.5t63.5 184h-580v225h910
q22 -252 -69 -450.5t-274.5 -309t-426.5 -110.5zM862 -602l-78 33l84 157q-54 8 -89.5 46t-35.5 90q0 62 40.5 101.5t103.5 39.5q62 0 101.5 -38.5t39.5 -98.5q0 -57 -41 -123z" />
    <glyph glyph-name="gcommaaccent" unicode="&#x123;" horiz-adv-x="1335" 
d="M672 1651l80 -33l-86 -158q54 -8 89.5 -45.5t35.5 -89.5q0 -61 -40 -101t-102 -40q-63 0 -103 38.5t-40 98.5q0 54 43 121zM649 -504q-230 0 -379.5 96.5t-187.5 272.5l293 57q29 -87 98.5 -135.5t167.5 -48.5q126 0 201.5 76.5t75.5 205.5v117h-21q-132 -151 -332 -151
q-220 0 -357.5 148t-137.5 390q0 252 136.5 403.5t356.5 151.5q210 0 342 -164h21v134h295v-1037q0 -242 -154 -379t-418 -137zM651 233q121 0 199 82.5t78 208.5q0 129 -78 213t-199 84t-199.5 -84t-78.5 -213q0 -126 78.5 -208.5t199.5 -82.5z" />
    <glyph glyph-name="Itilde" unicode="&#x128;" horiz-adv-x="636" 
d="M457 1630q-52 0 -98.5 17.5t-74.5 38t-61 38t-61 17.5q-36 0 -71 -24.5t-60 -65.5l-127 96q94 158 258 158q50 0 95.5 -17.5t74 -38t64.5 -38t67 -17.5q39 0 73.5 24.5t55.5 65.5l129 -88q-103 -166 -264 -166zM150 0v1458h339v-1458h-339z" />
    <glyph glyph-name="itilde" unicode="&#x129;" horiz-adv-x="534" 
d="M420 1200q-52 0 -99 17.5t-75 38t-62 38t-63 17.5q-37 0 -71.5 -21.5t-55.5 -56.5l-127 96q44 73 111 115.5t149 42.5q49 0 94.5 -17.5t74 -39t64.5 -39t68 -17.5q39 0 73.5 22.5t53.5 57.5l129 -88q-103 -166 -264 -166zM117 0v1049h303v-1049h-303z" />
    <glyph glyph-name="Imacron" unicode="&#x12a;" horiz-adv-x="636" 
d="M-27 1655v196h691v-196h-691zM150 0v1458h339v-1458h-339z" />
    <glyph glyph-name="imacron" unicode="&#x12b;" horiz-adv-x="534" 
d="M-76 1245v197h690v-197h-690zM117 0v1049h303v-1049h-303z" />
    <glyph glyph-name="Iogonek" unicode="&#x12e;" horiz-adv-x="636" 
d="M150 1458h339v-1458h-61q-100 -38 -158.5 -93.5t-58.5 -111.5q0 -39 27.5 -62.5t72.5 -23.5q53 0 113 33v-123q-72 -37 -156 -37q-86 0 -140 47.5t-54 122.5q0 140 178 248h-102v1458z" />
    <glyph glyph-name="iogonek" unicode="&#x12f;" horiz-adv-x="555" 
d="M279 1194q-80 0 -131.5 50t-51.5 128q0 77 52 127.5t131 50.5t130.5 -50.5t51.5 -127.5q0 -78 -51 -128t-131 -50zM127 0v1049h303v-1049h-47q-99 -38 -157 -93.5t-58 -111.5q0 -39 27.5 -62.5t72.5 -23.5q52 0 113 33v-123q-72 -37 -156 -37q-86 0 -140 47.5t-54 122.5
q0 140 178 248h-82z" />
    <glyph glyph-name="Idotaccent" unicode="&#x130;" horiz-adv-x="636" 
d="M319 1602q-75 0 -122 42.5t-47 108.5t47 109t122 43q73 0 120.5 -43t47.5 -109t-47.5 -108.5t-120.5 -42.5zM150 0v1458h339v-1458h-339z" />
    <glyph glyph-name="dotlessi" unicode="&#x131;" horiz-adv-x="534" 
d="M117 0v1049h303v-1049h-303z" />
    <glyph glyph-name="IJ" unicode="&#x132;" horiz-adv-x="1574" 
d="M150 0v1458h339v-1458h-339zM946 -33q-163 0 -291 41v260q99 -26 197 -26q108 0 176 71t68 189v956h340v-991q0 -220 -138.5 -360t-351.5 -140z" />
    <glyph glyph-name="ij" unicode="&#x133;" horiz-adv-x="1126" 
d="M279 1194q-80 0 -131.5 50t-51.5 128q0 77 52 127.5t131 50.5t130.5 -50.5t51.5 -127.5q0 -78 -51 -128t-131 -50zM838 1194q-80 0 -131.5 50t-51.5 128q0 77 52 127.5t131 50.5t130.5 -50.5t51.5 -127.5q0 -78 -51 -128t-131 -50zM127 0v1049h303v-1049h-303zM641 -475
q-130 0 -227 33v241q53 -16 125 -16q66 0 106.5 41.5t40.5 107.5v1117h303v-1143q0 -168 -97 -274.5t-251 -106.5z" />
    <glyph glyph-name="Kcommaaccent" unicode="&#x136;" horiz-adv-x="1425" 
d="M147 0v1458h342v-594h21l473 594h406l-586 -700l598 -758h-408l-483 643h-21v-643h-342zM729 -602l-80 33l86 157q-54 8 -89.5 46t-35.5 90q0 62 40.5 101.5t103.5 39.5q62 0 101.5 -38.5t39.5 -98.5q0 -53 -43 -123z" />
    <glyph glyph-name="kcommaaccent" unicode="&#x137;" horiz-adv-x="1153" 
d="M117 0v1520h303v-879h20l336 408h367l-436 -504l444 -545h-369l-342 446h-20v-446h-303zM575 -602l-77 33l84 157q-54 8 -88.5 46t-34.5 90q0 62 39.5 101.5t101.5 39.5t101.5 -38.5t39.5 -98.5q0 -57 -41 -123z" />
    <glyph glyph-name="Lacute" unicode="&#x139;" horiz-adv-x="1208" 
d="M182 1602l228 247h301l-269 -247h-260zM150 0v1458h339v-1167h666v-291h-1005z" />
    <glyph glyph-name="lacute" unicode="&#x13a;" horiz-adv-x="532" 
d="M131 1602l225 247h301l-268 -247h-258zM115 0v1520h303v-1520h-303z" />
    <glyph glyph-name="Lcommaaccent" unicode="&#x13b;" horiz-adv-x="1208" 
d="M150 0v1458h339v-1167h666v-291h-1005zM649 -602l-80 33l86 157q-54 8 -89.5 46t-35.5 90q0 61 40 101t102 40q63 0 103 -38.5t40 -98.5q0 -53 -43 -123z" />
    <glyph glyph-name="lcommaaccent" unicode="&#x13c;" horiz-adv-x="532" 
d="M115 0v1520h303v-1520h-303zM244 -602l-80 33l86 157q-54 8 -89.5 46t-35.5 90q0 62 40 101.5t103 39.5q62 0 102 -38.5t40 -98.5q0 -53 -43 -123z" />
    <glyph glyph-name="Lcaron" unicode="&#x13d;" horiz-adv-x="1208" 
d="M760 1012l-78 32l84 158q-54 8 -89.5 45.5t-35.5 89.5q0 62 40 102t103 40q62 0 102 -39t40 -99q0 -56 -41 -120zM150 0v1458h339v-1167h666v-291h-1005z" />
    <glyph glyph-name="lcaron" unicode="&#x13e;" horiz-adv-x="538" 
d="M664 1065l-80 33l86 157q-54 8 -89.5 46t-35.5 90q0 61 39.5 101t101.5 40q63 0 103 -38.5t40 -98.5q0 -53 -43 -123zM115 0v1520h303v-1520h-303z" />
    <glyph glyph-name="Lslash" unicode="&#x141;" horiz-adv-x="1329" 
d="M612 291h666v-291h-1006v451l-219 -136v260l219 136v747h340v-538l502 309v-260l-502 -310v-368z" />
    <glyph glyph-name="lslash" unicode="&#x142;" horiz-adv-x="909" 
d="M889 1196v-262l-287 -184v-750h-303v555l-276 -176v262l276 176v703h303v-508z" />
    <glyph glyph-name="Nacute" unicode="&#x143;" horiz-adv-x="1585" 
d="M686 1602l225 247h301l-268 -247h-258zM147 0v1458h394l553 -1018h20v1018h324v-1458h-394l-552 1016h-21v-1016h-324z" />
    <glyph glyph-name="nacute" unicode="&#x144;" 
d="M758 1208h-240l215 312h279zM117 0v1049h303v-148h20q117 178 305 178q177 0 286.5 -122.5t109.5 -313.5v-643h-303v600q0 98 -53 158.5t-144 60.5q-92 0 -156.5 -65.5t-64.5 -163.5v-590h-303z" />
    <glyph glyph-name="Ncommaaccent" unicode="&#x145;" horiz-adv-x="1585" 
d="M147 0v1458h394l553 -1018h20v1018h324v-1458h-394l-552 1016h-21v-1016h-324zM797 -602l-80 33l86 157q-54 8 -89.5 46t-35.5 90q0 62 40 101.5t101 39.5q63 0 103.5 -38.5t40.5 -98.5q0 -53 -43 -123z" />
    <glyph glyph-name="ncommaaccent" unicode="&#x146;" 
d="M117 0v1049h303v-148h20q117 178 305 178q177 0 286.5 -122.5t109.5 -313.5v-643h-303v600q0 98 -53 158.5t-144 60.5q-92 0 -156.5 -65.5t-64.5 -163.5v-590h-303zM608 -602l-78 33l84 157q-54 8 -89.5 46t-35.5 90q0 62 40.5 101.5t103.5 39.5q62 0 101.5 -38.5
t39.5 -98.5q0 -57 -41 -123z" />
    <glyph glyph-name="Ncaron" unicode="&#x147;" horiz-adv-x="1585" 
d="M666 1602l-217 247h227l135 -120h23l135 120h227l-217 -247h-313zM147 0v1458h394l553 -1018h20v1018h324v-1458h-394l-552 1016h-21v-1016h-324z" />
    <glyph glyph-name="ncaron" unicode="&#x148;" 
d="M279 1520h227l129 -164h20l125 164h232l-215 -312h-308zM117 0v1049h303v-148h20q117 178 305 178q177 0 286.5 -122.5t109.5 -313.5v-643h-303v600q0 98 -53 158.5t-144 60.5q-92 0 -156.5 -65.5t-64.5 -163.5v-590h-303z" />
    <glyph glyph-name="Omacron" unicode="&#x14c;" horiz-adv-x="1767" 
d="M539 1655v196h690v-196h-690zM883 -39q-237 0 -420 95t-285 270t-102 403t102 403t285.5 270t419.5 95t419.5 -95t285.5 -270t102 -403t-102 -403t-285 -270t-420 -95zM883 244q206 0 336.5 135t130.5 350t-130.5 349t-336.5 134t-336.5 -134t-130.5 -349t130.5 -350
t336.5 -135z" />
    <glyph glyph-name="omacron" unicode="&#x14d;" horiz-adv-x="1298" 
d="M303 1245v197h692v-197h-692zM649 -33q-263 0 -422 152t-159 405t159 405t422 152q262 0 422 -152t160 -405q0 -254 -160 -405.5t-422 -151.5zM649 225q121 0 199 84t78 215q0 130 -77.5 213.5t-199.5 83.5q-123 0 -200.5 -83t-77.5 -214t77.5 -215t200.5 -84z" />
    <glyph glyph-name="Obreve" unicode="&#x14e;" horiz-adv-x="1767" 
d="M883 1581q-148 0 -243 75.5t-95 192.5h225q0 -51 30.5 -80.5t82.5 -29.5q53 0 83.5 29.5t30.5 80.5h224q0 -117 -95 -192.5t-243 -75.5zM883 -39q-237 0 -420 95t-285 270t-102 403t102 403t285.5 270t419.5 95t419.5 -95t285.5 -270t102 -403t-102 -403t-285 -270
t-420 -95zM883 244q206 0 336.5 135t130.5 350t-130.5 349t-336.5 134t-336.5 -134t-130.5 -349t130.5 -350t336.5 -135z" />
    <glyph glyph-name="obreve" unicode="&#x14f;" horiz-adv-x="1298" 
d="M649 1221q-134 0 -220.5 84.5t-86.5 214.5h201q0 -64 27 -101t79 -37q50 0 78.5 37t28.5 101h200q0 -130 -86.5 -214.5t-220.5 -84.5zM649 -33q-263 0 -422 152t-159 405t159 405t422 152q262 0 422 -152t160 -405q0 -254 -160 -405.5t-422 -151.5zM649 225q121 0 199 84
t78 215q0 130 -77.5 213.5t-199.5 83.5q-123 0 -200.5 -83t-77.5 -214t77.5 -215t200.5 -84z" />
    <glyph glyph-name="Ohungarumlaut" unicode="&#x150;" horiz-adv-x="1767" 
d="M575 1602l191 249h266l-235 -249h-222zM940 1602l209 249h262l-250 -249h-221zM883 -39q-237 0 -420 95t-285 270t-102 403t102 403t285.5 270t419.5 95t419.5 -95t285.5 -270t102 -403t-102 -403t-285 -270t-420 -95zM883 244q206 0 336.5 135t130.5 350t-130.5 349
t-336.5 134t-336.5 -134t-130.5 -349t130.5 -350t336.5 -135z" />
    <glyph glyph-name="ohungarumlaut" unicode="&#x151;" horiz-adv-x="1298" 
d="M352 1208l191 303h266l-238 -303h-219zM942 1208h-225l223 303h272zM649 -33q-263 0 -422 152t-159 405t159 405t422 152q262 0 422 -152t160 -405q0 -254 -160 -405.5t-422 -151.5zM649 225q121 0 199 84t78 215q0 130 -77.5 213.5t-199.5 83.5q-123 0 -200.5 -83
t-77.5 -214t77.5 -215t200.5 -84z" />
    <glyph glyph-name="OE" unicode="&#x152;" horiz-adv-x="2117" 
d="M836 -39q-345 0 -551.5 211t-206.5 557t206.5 557t551.5 211q130 0 249 -39h947v-274h-619v-324h537v-242h-537v-344h639v-274h-965q-115 -39 -251 -39zM856 254q144 0 225 49v850q-79 51 -213 51q-196 0 -323 -132t-127 -343q0 -210 123.5 -342.5t314.5 -132.5z" />
    <glyph glyph-name="oe" unicode="&#x153;" horiz-adv-x="2140" 
d="M2073 528q0 -63 -5 -92h-825q15 -105 92.5 -170t188.5 -65q83 0 150.5 36.5t101.5 98.5l247 -78q-51 -134 -188 -212.5t-317 -78.5q-137 0 -248.5 53.5t-184.5 151.5q-72 -98 -185 -151.5t-257 -53.5q-254 0 -413.5 153.5t-159.5 403.5q0 249 158.5 403t408.5 154
q143 0 257 -53t185 -151q73 97 186 150.5t251 53.5q246 0 401.5 -154.5t155.5 -398.5zM1243 625h520q-13 104 -85.5 167.5t-176.5 63.5q-102 0 -172.5 -63t-85.5 -168zM651 225q121 0 199 84t78 215q0 130 -77.5 213.5t-199.5 83.5q-123 0 -200.5 -83t-77.5 -214t77.5 -215
t200.5 -84z" />
    <glyph glyph-name="Racute" unicode="&#x154;" horiz-adv-x="1495" 
d="M623 1602l225 247h301l-268 -247h-258zM150 0v1458h696q255 0 411 -131.5t156 -347.5q0 -178 -113 -298t-292 -142l-17 -2l469 -537h-391l-416 512h-164v-512h-339zM489 752h312q123 0 197.5 61t74.5 164t-74.5 163t-197.5 60h-312v-448z" />
    <glyph glyph-name="racute" unicode="&#x155;" horiz-adv-x="860" 
d="M590 1208h-240l213 312h281zM117 0v1049h299v-144h22q34 74 104.5 119t153.5 45q63 0 119 -27v-272q-85 39 -172 39q-100 0 -161.5 -75t-61.5 -197v-537h-303z" />
    <glyph glyph-name="Rcommaaccent" unicode="&#x156;" horiz-adv-x="1495" 
d="M150 0v1458h696q255 0 411 -131.5t156 -347.5q0 -178 -113 -298t-292 -142l-17 -2l469 -537h-391l-416 512h-164v-512h-339zM489 752h312q123 0 197.5 61t74.5 164t-74.5 163t-197.5 60h-312v-448zM778 -602l-78 33l84 157q-54 7 -88 45t-34 91q0 62 40 101.5t101 39.5
q62 0 101.5 -38.5t39.5 -98.5q0 -57 -41 -123z" />
    <glyph glyph-name="rcommaaccent" unicode="&#x157;" horiz-adv-x="860" 
d="M117 0v1049h299v-144h22q34 74 104.5 119t153.5 45q63 0 119 -27v-272q-85 39 -172 39q-100 0 -161.5 -75t-61.5 -197v-537h-303zM252 -602l-80 33l86 157q-54 8 -89.5 46t-35.5 90q0 62 39.5 101.5t101.5 39.5q63 0 103.5 -38.5t40.5 -98.5q0 -53 -43 -123z" />
    <glyph glyph-name="Rcaron" unicode="&#x158;" horiz-adv-x="1495" 
d="M602 1602l-217 247h227l136 -120h22l137 120h226l-218 -247h-313zM150 0v1458h696q255 0 411 -131.5t156 -347.5q0 -178 -113 -298t-292 -142l-17 -2l469 -537h-391l-416 512h-164v-512h-339zM489 752h312q123 0 197.5 61t74.5 164t-74.5 163t-197.5 60h-312v-448z" />
    <glyph glyph-name="rcaron" unicode="&#x159;" horiz-adv-x="860" 
d="M109 1520h229l127 -164h20l125 164h232l-213 -312h-307zM117 0v1049h299v-144h22q34 74 104.5 119t153.5 45q63 0 119 -27v-272q-85 39 -172 39q-100 0 -161.5 -75t-61.5 -197v-537h-303z" />
    <glyph glyph-name="Sacute" unicode="&#x15a;" horiz-adv-x="1447" 
d="M586 1602l227 247h301l-270 -247h-258zM733 -39q-295 0 -471 142t-176 376h324q0 -121 88 -190.5t245 -69.5q132 0 206.5 49.5t74.5 137.5q0 29 -9.5 53t-23.5 41.5t-40 32t-49.5 23.5t-61.5 18t-66.5 14t-73.5 12q-210 30 -305 61q-236 77 -284 263q-13 51 -13 110
q0 212 162.5 337.5t441.5 125.5q282 0 450.5 -138.5t168.5 -367.5h-313q1 117 -78.5 182.5t-218.5 65.5q-128 0 -200.5 -48.5t-72.5 -131.5q0 -30 10.5 -54t25.5 -41t44 -31.5t52.5 -23.5t67 -18t70.5 -13.5t78 -11.5q54 -8 88 -14t87.5 -17.5t88.5 -23t81.5 -31t76.5 -41.5
t62.5 -54t51 -68.5t30.5 -85.5t12 -105q0 -213 -170.5 -339t-460.5 -126z" />
    <glyph glyph-name="sacute" unicode="&#x15b;" horiz-adv-x="1144" 
d="M668 1208h-238l213 312h281zM573 -37q-232 0 -364.5 103t-132.5 284h266q0 -84 65 -135t175 -51q88 0 139 34.5t51 94.5q0 23 -8 41t-25.5 30.5t-35.5 20.5t-49.5 14t-54.5 8.5t-62 6.5q-54 6 -87 10t-86 15t-86.5 24.5t-73.5 38t-63 55.5t-39 76.5t-16 101.5
q0 160 128 255t339 95q213 0 348 -96.5t135 -257.5h-276q-1 70 -58.5 112t-148.5 42q-84 0 -135 -34t-51 -91q0 -22 8 -39.5t27.5 -29t37 -19.5t52.5 -14t56.5 -8.5t66.5 -7.5q19 -2 28 -3q57 -7 99.5 -15t96 -22.5t91.5 -37.5t72 -55.5t51.5 -81t17.5 -108.5
q0 -167 -133 -261.5t-365 -94.5z" />
    <glyph glyph-name="Scircumflex" unicode="&#x15c;" horiz-adv-x="1447" 
d="M567 1849h312l219 -247h-228l-135 120h-22l-138 -120h-225zM733 -39q-295 0 -471 142t-176 376h324q0 -121 88 -190.5t245 -69.5q132 0 206.5 49.5t74.5 137.5q0 29 -9.5 53t-23.5 41.5t-40 32t-49.5 23.5t-61.5 18t-66.5 14t-73.5 12q-210 30 -305 61q-236 77 -284 263
q-13 51 -13 110q0 212 162.5 337.5t441.5 125.5q282 0 450.5 -138.5t168.5 -367.5h-313q1 117 -78.5 182.5t-218.5 65.5q-128 0 -200.5 -48.5t-72.5 -131.5q0 -30 10.5 -54t25.5 -41t44 -31.5t52.5 -23.5t67 -18t70.5 -13.5t78 -11.5q54 -8 88 -14t87.5 -17.5t88.5 -23
t81.5 -31t76.5 -41.5t62.5 -54t51 -68.5t30.5 -85.5t12 -105q0 -213 -170.5 -339t-460.5 -126z" />
    <glyph glyph-name="scircumflex" unicode="&#x15d;" horiz-adv-x="1144" 
d="M193 1192l210 309h308l215 -309h-232l-125 164h-20l-129 -164h-227zM573 -37q-232 0 -364.5 103t-132.5 284h266q0 -84 65 -135t175 -51q88 0 139 34.5t51 94.5q0 23 -8 41t-25.5 30.5t-35.5 20.5t-49.5 14t-54.5 8.5t-62 6.5q-54 6 -87 10t-86 15t-86.5 24.5t-73.5 38
t-63 55.5t-39 76.5t-16 101.5q0 160 128 255t339 95q213 0 348 -96.5t135 -257.5h-276q-1 70 -58.5 112t-148.5 42q-84 0 -135 -34t-51 -91q0 -22 8 -39.5t27.5 -29t37 -19.5t52.5 -14t56.5 -8.5t66.5 -7.5q19 -2 28 -3q57 -7 99.5 -15t96 -22.5t91.5 -37.5t72 -55.5
t51.5 -81t17.5 -108.5q0 -167 -133 -261.5t-365 -94.5z" />
    <glyph glyph-name="Scedilla" unicode="&#x15e;" horiz-adv-x="1447" 
d="M1364 426q0 -200 -151 -324t-412 -139l-8 -55q89 -3 146.5 -55t57.5 -129q0 -82 -63.5 -134.5t-165.5 -52.5q-90 0 -156.5 41.5t-83.5 106.5l129 51q9 -34 38.5 -55t66.5 -21q36 0 60 21.5t24 52.5q0 39 -33 63.5t-84 24.5h-104l22 143q-259 20 -410 158.5t-151 355.5
h324q0 -121 88 -190.5t245 -69.5q132 0 206.5 49.5t74.5 137.5q0 29 -9.5 53t-23.5 41.5t-40 32t-49.5 23.5t-61.5 18t-66.5 14t-73.5 12q-210 30 -305 61q-236 77 -284 263q-13 51 -13 110q0 212 162.5 337.5t441.5 125.5q282 0 450.5 -138.5t168.5 -367.5h-313
q1 117 -78.5 182.5t-218.5 65.5q-128 0 -200.5 -48.5t-72.5 -131.5q0 -30 10.5 -54t25.5 -41t44 -31.5t52.5 -23.5t67 -18t70.5 -13.5t78 -11.5q54 -8 88 -14t87.5 -17.5t88.5 -23t81.5 -31t76.5 -41.5t62.5 -54t51 -68.5t30.5 -85.5t12 -105z" />
    <glyph glyph-name="scedilla" unicode="&#x15f;" horiz-adv-x="1144" 
d="M1071 319q0 -158 -118 -251.5t-328 -102.5l-11 -57q90 -3 148.5 -55t58.5 -129q0 -82 -64.5 -134.5t-166.5 -52.5q-89 0 -155 41.5t-83 106.5l129 51q9 -34 38.5 -55t66.5 -21q36 0 59 21.5t23 52.5q0 40 -32 64t-83 24h-107l25 147q-187 22 -291 122t-104 259h266
q0 -84 65 -135t175 -51q88 0 139 34.5t51 94.5q0 23 -8 41t-25.5 30.5t-35.5 20.5t-49.5 14t-54.5 8.5t-62 6.5q-54 6 -87 10t-86 15t-86.5 24.5t-73.5 38t-63 55.5t-39 76.5t-16 101.5q0 160 128 255t339 95q213 0 348 -96.5t135 -257.5h-276q-1 70 -58.5 112t-148.5 42
q-84 0 -135 -34t-51 -91q0 -22 8 -39.5t27.5 -29t37 -19.5t52.5 -14t56.5 -8.5t66.5 -7.5q19 -2 28 -3q57 -7 99.5 -15t96 -22.5t91.5 -37.5t72 -55.5t51.5 -81t17.5 -108.5z" />
    <glyph glyph-name="Scaron" unicode="&#x160;" horiz-adv-x="1447" 
d="M565 1602l-215 247h225l138 -120h22l135 120h226l-217 -247h-314zM733 -39q-295 0 -471 142t-176 376h324q0 -121 88 -190.5t245 -69.5q132 0 206.5 49.5t74.5 137.5q0 29 -9.5 53t-23.5 41.5t-40 32t-49.5 23.5t-61.5 18t-66.5 14t-73.5 12q-210 30 -305 61
q-236 77 -284 263q-13 51 -13 110q0 212 162.5 337.5t441.5 125.5q282 0 450.5 -138.5t168.5 -367.5h-313q1 117 -78.5 182.5t-218.5 65.5q-128 0 -200.5 -48.5t-72.5 -131.5q0 -30 10.5 -54t25.5 -41t44 -31.5t52.5 -23.5t67 -18t70.5 -13.5t78 -11.5q54 -8 88 -14
t87.5 -17.5t88.5 -23t81.5 -31t76.5 -41.5t62.5 -54t51 -68.5t30.5 -85.5t12 -105q0 -213 -170.5 -339t-460.5 -126z" />
    <glyph glyph-name="scaron" unicode="&#x161;" horiz-adv-x="1144" 
d="M188 1520h230l127 -164h20l125 164h232l-215 -312h-306zM573 -37q-232 0 -364.5 103t-132.5 284h266q0 -84 65 -135t175 -51q88 0 139 34.5t51 94.5q0 23 -8 41t-25.5 30.5t-35.5 20.5t-49.5 14t-54.5 8.5t-62 6.5q-54 6 -87 10t-86 15t-86.5 24.5t-73.5 38t-63 55.5
t-39 76.5t-16 101.5q0 160 128 255t339 95q213 0 348 -96.5t135 -257.5h-276q-1 70 -58.5 112t-148.5 42q-84 0 -135 -34t-51 -91q0 -22 8 -39.5t27.5 -29t37 -19.5t52.5 -14t56.5 -8.5t66.5 -7.5q19 -2 28 -3q57 -7 99.5 -15t96 -22.5t91.5 -37.5t72 -55.5t51.5 -81
t17.5 -108.5q0 -167 -133 -261.5t-365 -94.5z" />
    <glyph glyph-name="uni0162" unicode="&#x162;" horiz-adv-x="1312" 
d="M487 0v1176h-464v282h1269v-282h-465v-1176h-340zM635 -602l-80 33l84 157q-54 8 -88.5 46t-34.5 90q0 62 40 101.5t101 39.5q62 0 103 -38.5t41 -98.5q0 -53 -43 -123z" />
    <glyph glyph-name="uni0163" unicode="&#x163;" horiz-adv-x="817" 
d="M543 -33q-157 0 -251.5 102t-94.5 269v489h-148v222h158l57 331h238v-331h237v-222h-237v-477q0 -67 36.5 -107t100.5 -40q51 0 109 14v-217q-97 -33 -205 -33zM471 -598l-78 33l84 157q-54 6 -88.5 44.5t-34.5 91.5q0 60 40.5 99.5t101.5 39.5q62 0 101.5 -38t39.5 -99
q0 -55 -41 -121z" />
    <glyph glyph-name="Tcaron" unicode="&#x164;" horiz-adv-x="1312" 
d="M502 1602l-217 247h227l135 -120h23l135 120h227l-217 -247h-313zM487 0v1176h-464v282h1269v-282h-465v-1176h-340z" />
    <glyph glyph-name="tcaron" unicode="&#x165;" horiz-adv-x="817" 
d="M664 1124l-78 33l84 160q-54 6 -88.5 44t-34.5 89q0 62 39.5 101.5t101.5 39.5t101.5 -38.5t39.5 -98.5q0 -57 -41 -121zM543 -33q-157 0 -251.5 102t-94.5 269v489h-148v222h158l57 331h238v-331h237v-222h-237v-477q0 -67 36.5 -107t100.5 -40q51 0 109 14v-217
q-97 -33 -205 -33z" />
    <glyph glyph-name="Utilde" unicode="&#x168;" horiz-adv-x="1579" 
d="M932 1630q-52 0 -98.5 17.5t-74.5 38t-61 38t-61 17.5q-36 0 -72 -24.5t-61 -65.5l-127 96q97 158 260 158q50 0 95.5 -17.5t74 -38t63.5 -38t66 -17.5q40 0 74 24.5t57 65.5l127 -88q-99 -166 -262 -166zM791 -39q-190 0 -338 77t-231 219t-83 327v874h340v-866
q0 -155 87 -251.5t225 -96.5t224.5 97t86.5 251v866h340v-874q0 -280 -180.5 -451.5t-470.5 -171.5z" />
    <glyph glyph-name="utilde" unicode="&#x169;" 
d="M758 1200q-51 0 -97.5 17.5t-74.5 38t-62.5 38t-64.5 17.5q-36 0 -70.5 -21.5t-56.5 -56.5l-127 96q46 73 112.5 115.5t147.5 42.5q50 0 95.5 -17.5t74.5 -39t65 -39t68 -17.5q39 0 73 22.5t52 57.5l129 -88q-99 -166 -264 -166zM1124 1049v-1049h-303v147h-20
q-117 -178 -305 -178q-177 0 -286.5 123t-109.5 314v643h303v-600q0 -98 53 -159t144 -61q92 0 156.5 65.5t64.5 164.5v590h303z" />
    <glyph glyph-name="Umacron" unicode="&#x16a;" horiz-adv-x="1579" 
d="M449 1655v196h690v-196h-690zM791 -39q-190 0 -338 77t-231 219t-83 327v874h340v-866q0 -155 87 -251.5t225 -96.5t224.5 97t86.5 251v866h340v-874q0 -280 -180.5 -451.5t-470.5 -171.5z" />
    <glyph glyph-name="umacron" unicode="&#x16b;" 
d="M262 1245v197h692v-197h-692zM1124 1049v-1049h-303v147h-20q-117 -178 -305 -178q-177 0 -286.5 123t-109.5 314v643h303v-600q0 -98 53 -159t144 -61q92 0 156.5 65.5t64.5 164.5v590h303z" />
    <glyph glyph-name="Ubreve" unicode="&#x16c;" horiz-adv-x="1579" 
d="M793 1581q-148 0 -244 75.5t-96 192.5h225q0 -51 31 -80.5t84 -29.5t83.5 29.5t30.5 80.5h223q0 -117 -94.5 -192.5t-242.5 -75.5zM791 -39q-190 0 -338 77t-231 219t-83 327v874h340v-866q0 -155 87 -251.5t225 -96.5t224.5 97t86.5 251v866h340v-874
q0 -280 -180.5 -451.5t-470.5 -171.5z" />
    <glyph glyph-name="ubreve" unicode="&#x16d;" 
d="M608 1221q-133 0 -219 84t-86 215h199q0 -64 28 -101t78 -37t78.5 37t28.5 101h200q0 -130 -86.5 -214.5t-220.5 -84.5zM1124 1049v-1049h-303v147h-20q-117 -178 -305 -178q-177 0 -286.5 123t-109.5 314v643h303v-600q0 -98 53 -159t144 -61q92 0 156.5 65.5
t64.5 164.5v590h303z" />
    <glyph glyph-name="Uring" unicode="&#x16e;" horiz-adv-x="1579" 
d="M793 1577q-100 0 -164 54.5t-64 140.5t64 140t164 54q101 0 164 -54t63 -140t-63 -140.5t-164 -54.5zM793 1677q46 0 75 27t29 68t-29 67.5t-75 26.5t-74.5 -26.5t-28.5 -67.5t28.5 -68t74.5 -27zM791 -39q-190 0 -338 77t-231 219t-83 327v874h340v-866
q0 -155 87 -251.5t225 -96.5t224.5 97t86.5 251v866h340v-874q0 -280 -180.5 -451.5t-470.5 -171.5z" />
    <glyph glyph-name="uring" unicode="&#x16f;" 
d="M608 1196q-108 0 -175.5 63t-67.5 164t68 164.5t175 63.5q109 0 176.5 -63.5t67.5 -164.5t-67.5 -164t-176.5 -63zM608 1305q53 0 86 33t33 85q0 53 -33.5 86t-85.5 33t-85.5 -33t-33.5 -86q0 -52 33 -85t86 -33zM1124 1049v-1049h-303v147h-20q-117 -178 -305 -178
q-177 0 -286.5 123t-109.5 314v643h303v-600q0 -98 53 -159t144 -61q92 0 156.5 65.5t64.5 164.5v590h303z" />
    <glyph glyph-name="Uhungarumlaut" unicode="&#x170;" horiz-adv-x="1579" 
d="M483 1602l193 249h264l-233 -249h-224zM850 1602l207 249h264l-250 -249h-221zM791 -39q-190 0 -338 77t-231 219t-83 327v874h340v-866q0 -155 87 -251.5t225 -96.5t224.5 97t86.5 251v866h340v-874q0 -280 -180.5 -451.5t-470.5 -171.5z" />
    <glyph glyph-name="uhungarumlaut" unicode="&#x171;" 
d="M311 1208l191 303h266l-238 -303h-219zM903 1208h-227l223 303h272zM1124 1049v-1049h-303v147h-20q-117 -178 -305 -178q-177 0 -286.5 123t-109.5 314v643h303v-600q0 -98 53 -159t144 -61q92 0 156.5 65.5t64.5 164.5v590h303z" />
    <glyph glyph-name="Uogonek" unicode="&#x172;" horiz-adv-x="1579" 
d="M1102 1458h340v-874q0 -231 -126 -390.5t-341 -211.5q-82 -38 -128 -87.5t-46 -99.5q0 -39 27.5 -62.5t72.5 -23.5q52 0 113 33v-123q-72 -37 -154 -37q-87 0 -141.5 47.5t-54.5 122.5q0 115 120 209q-286 2 -465.5 173.5t-179.5 449.5v874h340v-866q0 -155 87 -251.5
t225 -96.5t224.5 97t86.5 251v866z" />
    <glyph glyph-name="uogonek" unicode="&#x173;" 
d="M821 1049h303v-1049h-143q-100 -38 -158.5 -93.5t-58.5 -111.5q0 -39 27.5 -62.5t72.5 -23.5q55 0 115 33v-123q-72 -37 -156 -37q-86 0 -140 47.5t-54 122.5q0 72 49.5 137.5t142.5 118.5v139h-20q-117 -178 -305 -178q-177 0 -286.5 123t-109.5 314v643h303v-600
q0 -98 53 -159t144 -61q92 0 156.5 65.5t64.5 164.5v590z" />
    <glyph glyph-name="Wcircumflex" unicode="&#x174;" horiz-adv-x="2404" 
d="M1047 1849h313l217 -247h-225l-138 120h-22l-135 -120h-228zM469 0l-403 1458h335l310 -1155h20l293 1155h358l291 -1155h21l309 1155h336l-404 -1458h-483l-240 1014h-20l-240 -1014h-483z" />
    <glyph glyph-name="wcircumflex" unicode="&#x175;" horiz-adv-x="1824" 
d="M551 1192l211 309h307l213 -309h-229l-125 164h-21l-129 -164h-227zM346 0l-315 1049h309l213 -746h20l187 746h303l201 -752h20l209 752h301l-317 -1049h-396l-159 694h-21l-158 -694h-397z" />
    <glyph glyph-name="Ycircumflex" unicode="&#x176;" horiz-adv-x="1437" 
d="M565 1849h314l217 -247h-228l-135 120h-22l-136 -120h-227zM553 0v508l-516 950h354l322 -647h20l309 647h359l-508 -950v-508h-340z" />
    <glyph glyph-name="ycircumflex" unicode="&#x177;" horiz-adv-x="1198" 
d="M266 1192l211 309h307l213 -309h-229l-125 164h-20l-129 -164h-228zM344 -473q-125 0 -217 37l2 243q75 -30 156 -30q38 0 70.5 13.5t53.5 31.5t41.5 51t31 55.5t26.5 61.5l-494 1059h326l281 -670h20l227 670h316l-406 -1086q-39 -107 -78 -181.5t-90.5 -135t-117.5 -90
t-148 -29.5z" />
    <glyph glyph-name="Ydieresis" unicode="&#x178;" horiz-adv-x="1437" 
d="M471 1583q-68 0 -113 43.5t-45 110.5q0 64 45 106.5t113 42.5t112 -42.5t44 -106.5q0 -67 -44 -110.5t-112 -43.5zM973 1583q-69 0 -113.5 43.5t-44.5 110.5q0 65 44.5 107t113.5 42q67 0 111 -42t44 -107q0 -67 -43.5 -110.5t-111.5 -43.5zM553 0v508l-516 950h354
l322 -647h20l309 647h359l-508 -950v-508h-340z" />
    <glyph glyph-name="Zacute" unicode="&#x179;" horiz-adv-x="1355" 
d="M565 1602l228 247h301l-269 -247h-260zM86 0v172l707 991v21h-695v274h1149v-172l-694 -991v-21h715v-274h-1182z" />
    <glyph glyph-name="zacute" unicode="&#x17a;" horiz-adv-x="1083" 
d="M678 1208h-240l215 312h279zM53 0v147l525 629v23h-504v250h934v-150l-504 -629v-20h524v-250h-975z" />
    <glyph glyph-name="Zdotaccent" unicode="&#x17b;" horiz-adv-x="1355" 
d="M702 1602q-74 0 -122 42.5t-48 108.5t48 109t122 43q75 0 122.5 -43t47.5 -109t-47.5 -108.5t-122.5 -42.5zM86 0v172l707 991v21h-695v274h1149v-172l-694 -991v-21h715v-274h-1182z" />
    <glyph glyph-name="zdotaccent" unicode="&#x17c;" horiz-adv-x="1083" 
d="M565 1194q-78 0 -130 50t-52 128q0 76 52 127t130 51q79 0 131 -50.5t52 -127.5q0 -78 -51.5 -128t-131.5 -50zM53 0v147l525 629v23h-504v250h934v-150l-504 -629v-20h524v-250h-975z" />
    <glyph glyph-name="Zcaron" unicode="&#x17d;" horiz-adv-x="1355" 
d="M547 1602l-217 247h227l135 -120h23l135 120h227l-217 -247h-313zM86 0v172l707 991v21h-695v274h1149v-172l-694 -991v-21h715v-274h-1182z" />
    <glyph glyph-name="zcaron" unicode="&#x17e;" horiz-adv-x="1083" 
d="M199 1520h229l127 -164h20l125 164h232l-215 -312h-307zM53 0v147l525 629v23h-504v250h934v-150l-504 -629v-20h524v-250h-975z" />
    <glyph glyph-name="AEacute" unicode="&#x1fc;" horiz-adv-x="2007" 
d="M1028 1602l227 247h301l-270 -247h-258zM37 0l717 1458h1167v-274h-590v-318h508v-239h-508v-353h611v-274h-924v244h-481l-121 -244h-379zM649 485h369v736h-21z" />
    <glyph glyph-name="aeacute" unicode="&#x1fd;" horiz-adv-x="1902" 
d="M1077 1208h-239l213 312h280zM547 1083q128 0 229.5 -45t161.5 -123q153 166 383 166q224 0 369 -153.5t145 -399.5q0 -67 -4 -90h-776q17 -111 87 -178t169 -67q72 0 131.5 38t93.5 105l260 -68q-46 -131 -176 -216t-289 -85q-137 0 -247 64t-171 174
q-54 -106 -177.5 -169t-278.5 -63q-184 0 -296 82t-112 219q0 141 127 237.5t369 125.5l223 27v34q0 74 -53 117t-144 43q-79 0 -129 -40.5t-49 -104.5h-297q0 162 127.5 266t323.5 104zM1288 856q-91 0 -154.5 -63.5t-80.5 -169.5h473q-12 105 -77 169t-161 64zM553 459
q-104 -12 -155.5 -52t-51.5 -98t46 -89.5t122 -31.5q109 0 181.5 63.5t72.5 156.5v77z" />
    <glyph glyph-name="Oslashacute" unicode="&#x1fe;" horiz-adv-x="1726" 
d="M645 1602l227 247h302l-269 -247h-260zM248 -287l186 363q-167 97 -261.5 267.5t-94.5 385.5q0 223 100.5 398.5t280 272.5t405.5 97q150 0 273 -47l159 311h217l-200 -391q158 -100 248 -267t90 -374q0 -223 -101.5 -398.5t-281 -272.5t-404.5 -97q-133 0 -254 41
l-145 -289h-217zM578 356l426 838q-77 25 -140 25q-193 0 -319.5 -139t-126.5 -351q0 -116 42.5 -212.5t117.5 -160.5zM864 240q194 0 319.5 138t125.5 351q0 223 -144 361l-422 -834q59 -16 121 -16z" />
    <glyph glyph-name="oslashacute" unicode="&#x1ff;" horiz-adv-x="1323" 
d="M743 1208h-239l213 312h280zM227 -164l107 207q-126 71 -196 195.5t-70 285.5q0 250 163.5 403.5t427.5 153.5q107 0 195 -26l88 174h188l-124 -238q118 -71 183.5 -192t65.5 -275q0 -250 -164 -403.5t-427 -153.5q-79 0 -175 21l-75 -152h-187zM446 258l306 598
q-41 14 -90 14q-142 0 -234 -97t-92 -249q0 -170 110 -266zM662 178q143 0 234 97t91 249q0 149 -94 250l-301 -590q23 -6 70 -6z" />
    <glyph glyph-name="Scommaaccent" unicode="&#x218;" horiz-adv-x="1447" 
d="M733 -39q-295 0 -471 142t-176 376h324q0 -121 88 -190.5t245 -69.5q132 0 206.5 49.5t74.5 137.5q0 29 -9.5 53t-23.5 41.5t-40 32t-49.5 23.5t-61.5 18t-66.5 14t-73.5 12q-210 30 -305 61q-236 77 -284 263q-13 51 -13 110q0 212 162.5 337.5t441.5 125.5
q282 0 450.5 -138.5t168.5 -367.5h-313q1 117 -78.5 182.5t-218.5 65.5q-128 0 -200.5 -48.5t-72.5 -131.5q0 -30 10.5 -54t25.5 -41t44 -31.5t52.5 -23.5t67 -18t70.5 -13.5t78 -11.5q54 -8 88 -14t87.5 -17.5t88.5 -23t81.5 -31t76.5 -41.5t62.5 -54t51 -68.5t30.5 -85.5
t12 -105q0 -213 -170.5 -339t-460.5 -126zM711 -602l-78 33l84 157q-54 8 -89.5 46t-35.5 90q0 62 40 101.5t103 39.5q62 0 102 -38.5t40 -98.5q0 -57 -41 -123z" />
    <glyph glyph-name="scommaaccent" unicode="&#x219;" horiz-adv-x="1144" 
d="M573 -37q-232 0 -364.5 103t-132.5 284h266q0 -84 65 -135t175 -51q88 0 139 34.5t51 94.5q0 23 -8 41t-25.5 30.5t-35.5 20.5t-49.5 14t-54.5 8.5t-62 6.5q-54 6 -87 10t-86 15t-86.5 24.5t-73.5 38t-63 55.5t-39 76.5t-16 101.5q0 160 128 255t339 95q213 0 348 -96.5
t135 -257.5h-276q-1 70 -58.5 112t-148.5 42q-84 0 -135 -34t-51 -91q0 -22 8 -39.5t27.5 -29t37 -19.5t52.5 -14t56.5 -8.5t66.5 -7.5q19 -2 28 -3q57 -7 99.5 -15t96 -22.5t91.5 -37.5t72 -55.5t51.5 -81t17.5 -108.5q0 -167 -133 -261.5t-365 -94.5zM535 -602l-80 33
l86 157q-54 8 -89.5 46t-35.5 90q0 62 40 101.5t101 39.5q63 0 103 -38.5t40 -98.5q0 -53 -43 -123z" />
    <glyph glyph-name="uni021A" unicode="&#x21a;" horiz-adv-x="1312" 
d="M487 0v1176h-464v282h1269v-282h-465v-1176h-340zM635 -602l-80 33l84 157q-54 8 -88.5 46t-34.5 90q0 62 40 101.5t101 39.5q62 0 103 -38.5t41 -98.5q0 -53 -43 -123z" />
    <glyph glyph-name="uni021B" unicode="&#x21b;" horiz-adv-x="817" 
d="M543 -33q-157 0 -251.5 102t-94.5 269v489h-148v222h158l57 331h238v-331h237v-222h-237v-477q0 -67 36.5 -107t100.5 -40q51 0 109 14v-217q-97 -33 -205 -33zM471 -598l-78 33l84 157q-54 6 -88.5 44.5t-34.5 91.5q0 60 40.5 99.5t101.5 39.5q62 0 101.5 -38t39.5 -99
q0 -55 -41 -121z" />
    <glyph glyph-name="circumflex" unicode="&#x2c6;" horiz-adv-x="870" 
d="M70 1192l211 311h307l213 -311h-230l-125 164h-20l-129 -164h-227z" />
    <glyph glyph-name="caron" unicode="&#x2c7;" horiz-adv-x="870" 
d="M70 1520h227l129 -164h20l125 164h230l-213 -312h-307z" />
    <glyph glyph-name="breve" unicode="&#x2d8;" horiz-adv-x="751" 
d="M375 1221q-132 0 -218.5 84.5t-86.5 214.5h200q0 -64 27.5 -101t79.5 -37q50 0 78 37t28 101h199q0 -131 -86 -215t-221 -84z" />
    <glyph glyph-name="dotaccent" unicode="&#x2d9;" horiz-adv-x="501" 
d="M252 1194q-80 0 -131 50t-51 128q0 77 51.5 127.5t130.5 50.5t130.5 -50.5t51.5 -127.5q0 -78 -51 -128t-131 -50z" />
    <glyph glyph-name="ring" unicode="&#x2da;" horiz-adv-x="624" 
d="M313 1196q-109 0 -176 63t-67 164t67 164.5t176 63.5q107 0 174.5 -63.5t67.5 -164.5t-67.5 -164t-174.5 -63zM313 1305q51 0 85 33t34 85t-34 85.5t-85 33.5q-54 0 -86 -33t-32 -86t32 -85.5t86 -32.5z" />
    <glyph glyph-name="ogonek" unicode="&#x2db;" horiz-adv-x="505" 
d="M264 -418q-86 0 -140 47.5t-54 122.5q0 92 81.5 174t229.5 137l41 -63q-99 -38 -157 -93.5t-58 -111.5q0 -39 26.5 -62.5t71.5 -23.5q55 0 115 33v-123q-72 -37 -156 -37z" />
    <glyph glyph-name="tilde" unicode="&#x2dc;" horiz-adv-x="954" 
d="M623 1200q-51 0 -97.5 17.5t-74.5 38t-62.5 38t-64.5 17.5q-36 0 -70.5 -21.5t-56.5 -56.5l-127 96q44 73 111.5 115.5t148.5 42.5q50 0 95.5 -17.5t74 -39t64.5 -39t67 -17.5q39 0 73.5 22.5t53.5 57.5l129 -88q-103 -166 -264 -166z" />
    <glyph glyph-name="hungarumlaut" unicode="&#x2dd;" horiz-adv-x="997" 
d="M70 1208l190 303h266l-237 -303h-219zM659 1208h-225l223 303h273z" />
    <glyph glyph-name="uni0401" unicode="&#x401;" horiz-adv-x="1320" 
d="M444 1583q-68 0 -111.5 43.5t-43.5 110.5q0 65 44 107t111 42q69 0 113.5 -42t44.5 -107q0 -67 -44.5 -110.5t-113.5 -43.5zM946 1583q-68 0 -111.5 43.5t-43.5 110.5q0 65 44 107t111 42q69 0 112.5 -42t43.5 -107q0 -68 -43.5 -111t-112.5 -43zM147 0v1458h1076v-274
h-744v-322h688v-239h-688v-349h764v-274h-1096z" />
    <glyph glyph-name="uni0402" unicode="&#x402;" horiz-adv-x="1466" 
d="M915 -29q-89 0 -170 21v244q61 -11 101 -11q102 0 160.5 55.5t58.5 165.5v91q0 135 -71.5 209.5t-194.5 74.5q-127 0 -210 -80t-83 -217v-524h-303v1233h-189v225h693v-225h-201v-336h20q49 89 151.5 136.5t219.5 47.5q216 0 343.5 -133t127.5 -360v-170
q0 -207 -124 -327t-329 -120z" />
    <glyph glyph-name="uni0403" unicode="&#x403;" horiz-adv-x="1232" 
d="M481 1602l226 247h301l-269 -247h-258zM147 0v1458h1035v-282h-695v-1176h-340z" />
    <glyph glyph-name="uni0404" unicode="&#x404;" horiz-adv-x="1683" 
d="M870 -43q-228 0 -409 97.5t-283 273.5t-102 399t102 399t283 273.5t409 97.5q191 0 351.5 -73t261 -204t119.5 -296l-314 -33q-28 138 -142.5 229.5t-262.5 91.5q-178 0 -301.5 -102.5t-151.5 -271.5h660v-215h-662q26 -170 151 -276.5t302 -106.5q151 0 266 90.5
t143 226.5l318 -35q-17 -163 -117.5 -292t-263 -201t-357.5 -72z" />
    <glyph glyph-name="uni0405" unicode="&#x405;" horiz-adv-x="1447" 
d="M733 -39q-295 0 -471 142t-176 376h324q0 -121 88 -190.5t245 -69.5q132 0 206.5 49.5t74.5 137.5q0 29 -9.5 53t-23.5 41.5t-40 32t-49.5 23.5t-61.5 18t-66.5 14t-73.5 12q-210 30 -305 61q-236 77 -284 263q-13 51 -13 110q0 212 162.5 337.5t441.5 125.5
q282 0 450.5 -138.5t168.5 -367.5h-313q1 117 -78.5 182.5t-218.5 65.5q-128 0 -200.5 -48.5t-72.5 -131.5q0 -30 10.5 -54t25.5 -41t44 -31.5t52.5 -23.5t67 -18t70.5 -13.5t78 -11.5q54 -8 88 -14t87.5 -17.5t88.5 -23t81.5 -31t76.5 -41.5t62.5 -54t51 -68.5t30.5 -85.5
t12 -105q0 -213 -170.5 -339t-460.5 -126z" />
    <glyph glyph-name="uni0406" unicode="&#x406;" horiz-adv-x="636" 
d="M147 0v1458h340v-1458h-340z" />
    <glyph glyph-name="uni0407" unicode="&#x407;" horiz-adv-x="671" 
d="M86 1583q-68 0 -112 43.5t-44 110.5q0 64 44 106.5t112 42.5q69 0 113.5 -42t44.5 -107q0 -67 -44.5 -110.5t-113.5 -43.5zM588 1583q-68 0 -112 43.5t-44 110.5q0 64 44 106.5t112 42.5q69 0 113 -42t44 -107q0 -68 -44 -111t-113 -43zM168 0v1458h340v-1458h-340z" />
    <glyph glyph-name="uni0408" unicode="&#x408;" horiz-adv-x="991" 
d="M356 -33q-159 0 -290 41v262q107 -28 196 -28q109 0 176.5 71t67.5 189v956h340v-991q0 -220 -138.5 -360t-351.5 -140z" />
    <glyph glyph-name="uni0409" unicode="&#x409;" horiz-adv-x="2394" 
d="M53 0v274q141 0 205.5 72t79.5 248l74 864h1056v-493h340q236 0 383.5 -134t147.5 -342q0 -215 -147.5 -352t-383.5 -137h-680v1184h-401l-59 -658q-23 -266 -175.5 -396t-439.5 -130zM1468 291h293q104 0 171 54.5t67 137.5q0 86 -67 142.5t-171 56.5h-293v-391z" />
    <glyph glyph-name="uni040A" unicode="&#x40a;" horiz-adv-x="2258" 
d="M147 0v1458h340v-563h504v563h340v-493h340q237 0 384 -133.5t147 -342.5q0 -215 -146.5 -352t-384.5 -137h-680v621h-504v-621h-340zM1333 291h293q103 0 169.5 54.5t66.5 137.5q0 86 -66.5 142.5t-169.5 56.5h-293v-391z" />
    <glyph glyph-name="uni040B" unicode="&#x40b;" horiz-adv-x="1466" 
d="M203 0v1233h-189v225h693v-225h-201v-336h20q49 89 151.5 136.5t219.5 47.5q216 0 343.5 -133t127.5 -360v-584h-303v533q0 135 -71.5 209.5t-194.5 74.5q-127 0 -210 -80t-83 -217v-524h-303z" />
    <glyph glyph-name="uni040C" unicode="&#x40c;" horiz-adv-x="1425" 
d="M618 1602l228 247h301l-268 -247h-261zM147 0v1458h342v-594h21l473 594h406l-586 -700l598 -758h-408l-483 643h-21v-643h-342z" />
    <glyph glyph-name="uni040E" unicode="&#x40e;" horiz-adv-x="1505" 
d="M766 1581q-148 0 -243 75.5t-95 192.5h225q0 -51 30.5 -80.5t82.5 -29.5q53 0 84 29.5t31 80.5h223q0 -117 -95 -192.5t-243 -75.5zM393 -33q-165 0 -246 33v262q76 -29 166 -29q89 0 155.5 45t121.5 162l18 39l-565 979h379l356 -653h21l293 653h378l-518 -1061
q-119 -245 -240.5 -337.5t-318.5 -92.5z" />
    <glyph glyph-name="uni040F" unicode="&#x40f;" horiz-adv-x="1583" 
d="M647 -307v307h-500v1458h342v-1184h607v1184h340v-1458h-500v-307h-289z" />
    <glyph glyph-name="uni0410" unicode="&#x410;" horiz-adv-x="1548" 
d="M37 0l493 1458h492l489 -1458h-344l-90 260h-606l-90 -260h-344zM545 510h459l-218 657h-20z" />
    <glyph glyph-name="uni0411" unicode="&#x411;" horiz-adv-x="1452" 
d="M147 0v1458h1145v-272h-805v-268h344q266 0 416 -122.5t150 -334.5q0 -213 -152.5 -337t-421.5 -124h-676zM487 258h297q126 0 199.5 53.5t73.5 147.5q0 92 -72 147.5t-192 55.5h-306v-404z" />
    <glyph glyph-name="uni0412" unicode="&#x412;" horiz-adv-x="1476" 
d="M147 0v1458h705q235 0 375.5 -109.5t140.5 -289.5q0 -107 -59 -189t-152 -112v-21q111 -31 181.5 -123.5t70.5 -214.5q0 -183 -145 -291t-387 -108h-730zM487 860h306q100 0 163.5 47.5t63.5 122.5t-63.5 122.5t-163.5 47.5h-306v-340zM487 258h322q109 0 180.5 52.5
t71.5 133.5q0 80 -71.5 132.5t-180.5 52.5h-322v-371z" />
    <glyph glyph-name="uni0413" unicode="&#x413;" horiz-adv-x="1286" 
d="M147 0v1458h1035v-282h-695v-1176h-340z" />
    <glyph glyph-name="uni0414" unicode="&#x414;" horiz-adv-x="1785" 
d="M43 -307v581h139q88 67 140.5 171.5t72.5 261.5l92 751h1039v-1184h207v-581h-277v307h-1137v-307h-276zM539 274h647v910h-395l-72 -529q-32 -228 -180 -360v-21z" />
    <glyph glyph-name="uni0415" unicode="&#x415;" horiz-adv-x="1320" 
d="M147 0v1458h1076v-274h-744v-322h688v-239h-688v-349h764v-274h-1096z" />
    <glyph glyph-name="uni0416" unicode="&#x416;" horiz-adv-x="2248" 
d="M47 0l596 758l-586 700h406l473 -594h20v594h340v-594h21l471 594h405l-583 -700l596 -758h-406l-483 643h-21v-643h-340v643h-20l-483 -643h-406z" />
    <glyph glyph-name="uni0417" unicode="&#x417;" horiz-adv-x="1353" 
d="M696 -39q-282 0 -455 155.5t-173 397.5h329q0 -119 79.5 -194.5t209.5 -75.5q115 0 191.5 57t76.5 145q0 86 -72 141.5t-182 55.5h-141v213h148q97 0 160 50.5t63 127.5q0 79 -69 128.5t-177 49.5q-121 0 -191.5 -64t-70.5 -171h-328q0 229 164 374.5t430 145.5
q241 0 402 -118t161 -304q0 -116 -62.5 -195.5t-168.5 -109.5v-20q121 -20 199.5 -117.5t78.5 -226.5q0 -127 -79.5 -229t-217.5 -159t-305 -57z" />
    <glyph glyph-name="uni0418" unicode="&#x418;" horiz-adv-x="1585" 
d="M1438 0h-324v1016h-20l-553 -1016h-394v1458h324v-1018h21l552 1018h394v-1458z" />
    <glyph glyph-name="uni0419" unicode="&#x419;" horiz-adv-x="1585" 
d="M819 1581q-148 0 -243 75.5t-95 192.5h224q0 -51 30.5 -80.5t83.5 -29.5t84 29.5t31 80.5h223q0 -117 -95 -192.5t-243 -75.5zM147 1458h324v-1016h21l552 1016h394v-1458h-324v1018h-20l-553 -1018h-394v1458z" />
    <glyph glyph-name="uni041A" unicode="&#x41a;" horiz-adv-x="1425" 
d="M147 0v1458h342v-594h21l473 594h406l-586 -700l598 -758h-408l-483 643h-21v-643h-342z" />
    <glyph glyph-name="uni041B" unicode="&#x41b;" horiz-adv-x="1615" 
d="M53 0v274q141 0 205.5 72t79.5 248l74 864h1056v-1458h-340v1184h-401l-59 -658q-23 -266 -175.5 -396t-439.5 -130z" />
    <glyph glyph-name="uni041C" unicode="&#x41c;" horiz-adv-x="2027" 
d="M147 0v1458h471l383 -1036h21l381 1036h475v-1458h-332v1004h-20l-375 -1004h-277l-374 1004h-21v-1004h-332z" />
    <glyph glyph-name="uni041D" unicode="&#x41d;" horiz-adv-x="1581" 
d="M147 0v1458h340v-565h607v565h340v-1458h-340v618h-607v-618h-340z" />
    <glyph glyph-name="uni041E" unicode="&#x41e;" horiz-adv-x="1767" 
d="M883 -39q-237 0 -420 95t-285 270t-102 403t102 403t285.5 270t419.5 95t419.5 -95t285.5 -270t102 -403t-102 -403t-285 -270t-420 -95zM883 244q206 0 336.5 135t130.5 350t-130.5 349t-336.5 134t-336.5 -134t-130.5 -349t130.5 -350t336.5 -135z" />
    <glyph glyph-name="uni041F" unicode="&#x41f;" horiz-adv-x="1568" 
d="M147 0v1458h1274v-1458h-340v1190h-594v-1190h-340z" />
    <glyph glyph-name="uni0420" unicode="&#x420;" horiz-adv-x="1431" 
d="M150 0v1458h641q268 0 426 -132t157 -357q0 -224 -160 -358t-426 -134h-303v-477h-335zM485 735h277q125 0 198.5 64t73.5 170t-73.5 168.5t-198.5 62.5h-277v-465z" />
    <glyph glyph-name="uni0421" unicode="&#x421;" horiz-adv-x="1658" 
d="M856 -39q-224 0 -402 97t-277.5 272.5t-98.5 398.5q0 223 99.5 398.5t277 272.5t401.5 97q275 0 478.5 -156.5t244.5 -402.5l-319 -35q-31 135 -143.5 222t-254.5 87q-197 0 -320.5 -134t-123.5 -349t124.5 -350t319.5 -135q139 0 252 85.5t148 217.5l317 -43
q-25 -157 -126 -281t-257.5 -193t-339.5 -69z" />
    <glyph glyph-name="uni0422" unicode="&#x422;" horiz-adv-x="1312" 
d="M487 0v1176h-464v282h1269v-282h-465v-1176h-340z" />
    <glyph glyph-name="uni0423" unicode="&#x423;" horiz-adv-x="1503" 
d="M393 -33q-165 0 -246 33v262q76 -29 166 -29q89 0 155.5 45t121.5 162l18 39l-565 979h379l356 -653h21l293 653h378l-518 -1061q-119 -245 -240.5 -337.5t-318.5 -92.5z" />
    <glyph glyph-name="uni0424" unicode="&#x424;" horiz-adv-x="1830" 
d="M745 -61v167q-316 12 -501 186t-185 441q0 132 47.5 244.5t134.5 195.5t217.5 132.5t289.5 54.5v160h339v-160q158 -5 288 -54.5t216.5 -132.5t133.5 -195.5t47 -244.5t-47.5 -245t-134.5 -196t-216.5 -132t-288.5 -54v-167h-340zM748 371v725q-157 -4 -256 -107.5
t-99 -255.5q0 -151 100 -254.5t255 -107.5zM1087 371q155 0 254 103.5t99 260.5q0 151 -100.5 256t-252.5 105v-725z" />
    <glyph glyph-name="uni0425" unicode="&#x425;" horiz-adv-x="1595" 
d="M57 0l482 770l-469 688h387l325 -506h21l330 506h393l-490 -688l502 -770h-391l-344 573h-21l-340 -573h-385z" />
    <glyph glyph-name="uni0426" unicode="&#x426;" horiz-adv-x="1701" 
d="M1378 -309v309h-1231v1458h340v-1186h609v1186h340v-1186h231v-581h-289z" />
    <glyph glyph-name="uni0427" unicode="&#x427;" horiz-adv-x="1497" 
d="M1010 0v608q-54 -68 -157.5 -108.5t-211.5 -40.5q-235 0 -385 138.5t-150 379.5v481h340v-432q0 -144 80 -222.5t207 -78.5q82 0 160.5 45.5t116.5 114.5v573h340v-1458h-340z" />
    <glyph glyph-name="uni0428" unicode="&#x428;" horiz-adv-x="2117" 
d="M147 0v1458h340v-1184h402v1184h340v-1184h401v1184h342v-1458h-1825z" />
    <glyph glyph-name="uni0429" unicode="&#x429;" horiz-adv-x="2246" 
d="M1925 -307v307h-1778v1458h340v-1184h402v1184h342v-1184h399v1184h342v-1186h240v-579h-287z" />
    <glyph glyph-name="uni042A" unicode="&#x42a;" horiz-adv-x="1587" 
d="M291 0v1180h-250v278h590v-436h346q164 0 291 -67t194.5 -182t67.5 -257q0 -223 -152.5 -369.5t-400.5 -146.5h-686zM633 291h299q113 0 185.5 63.5t72.5 159.5q0 97 -72.5 161t-185.5 64h-299v-448z" />
    <glyph glyph-name="uni042B" unicode="&#x42b;" horiz-adv-x="2043" 
d="M147 0v1458h340v-436h334q249 0 402 -144t153 -362q0 -222 -153 -369t-402 -147h-674zM1556 0v1458h340v-1458h-340zM487 291h289q113 0 186.5 63.5t73.5 159.5q0 98 -73 161.5t-187 63.5h-289v-448z" />
    <glyph glyph-name="uni042C" unicode="&#x42c;" horiz-adv-x="1449" 
d="M147 0v1458h340v-436h353q164 0 291 -67t194.5 -182t67.5 -257q0 -222 -152.5 -369t-400.5 -147h-693zM487 291h306q115 0 187.5 63t72.5 160q0 98 -72.5 161.5t-187.5 63.5h-306v-448z" />
    <glyph glyph-name="uni042D" unicode="&#x42d;" horiz-adv-x="1683" 
d="M813 -43q-195 0 -357.5 72t-262.5 201t-117 292l317 35q28 -137 143 -227t267 -90q177 0 300.5 106.5t151.5 276.5h-661v215h659q-28 169 -151 271.5t-301 102.5q-148 0 -263.5 -91.5t-144.5 -229.5l-311 33q14 124 76.5 230.5t158.5 181.5t224.5 118t271.5 43
q228 0 409.5 -97.5t283.5 -273.5t102 -399t-102 -399t-283.5 -273.5t-409.5 -97.5z" />
    <glyph glyph-name="uni042E" unicode="&#x42e;" horiz-adv-x="2168" 
d="M1372 -45q-298 0 -485.5 174.5t-218.5 480.5h-181v-610h-340v1458h340v-608h181q29 306 217.5 480.5t486.5 174.5q215 0 378 -93t253 -269.5t90 -413.5q0 -358 -196.5 -566t-524.5 -208zM1372 246q170 0 275.5 132.5t105.5 350.5q0 221 -104.5 352t-276.5 131
q-170 0 -275.5 -131.5t-105.5 -351.5q0 -221 104.5 -352t276.5 -131z" />
    <glyph glyph-name="uni042F" unicode="&#x42f;" horiz-adv-x="1495" 
d="M1346 0h-340v512h-164l-416 -512h-391l469 537l-17 2q-179 22 -292 142t-113 298q0 216 156 347.5t411 131.5h697v-1458zM1006 752v448h-312q-123 0 -197.5 -60t-74.5 -163t74.5 -164t197.5 -61h312z" />
    <glyph glyph-name="uni0430" unicode="&#x430;" horiz-adv-x="1171" 
d="M412 -27q-163 0 -263 81t-100 220q0 297 496 359l223 26v43q0 76 -50.5 122t-139.5 46q-85 0 -135.5 -44t-49.5 -121h-297q0 172 132.5 274t353.5 102q224 0 356.5 -105.5t132.5 -283.5v-692h-303v133h-20q-49 -78 -136 -119t-200 -41zM512 172q113 0 184.5 65t71.5 164
v74l-215 -26q-107 -13 -157 -52.5t-50 -97.5q0 -59 44 -93t122 -34z" />
    <glyph glyph-name="uni0431" unicode="&#x431;" horiz-adv-x="1249" 
d="M639 -37q-251 0 -398 160.5t-147 437.5q0 235 29 391.5t98 259t175.5 149.5t267.5 56q118 6 167.5 33t49.5 86h258q0 -163 -100 -245t-308 -93q-194 -7 -272 -81.5t-86 -258.5h20q104 137 299 137q222 0 356 -144.5t134 -371.5q0 -230 -150.5 -373t-392.5 -143zM639 221
q106 0 173 74t67 190q0 115 -67 187.5t-173 72.5q-107 0 -175.5 -72t-68.5 -188t68.5 -190t175.5 -74z" />
    <glyph glyph-name="uni0432" unicode="&#x432;" horiz-adv-x="1144" 
d="M115 0v1049h573q162 0 261.5 -76t99.5 -195q0 -79 -43.5 -140t-110.5 -83v-20q90 -22 141 -82.5t51 -153.5q0 -135 -104 -217t-272 -82h-596zM401 635h230q58 0 94.5 29.5t36.5 74.5t-36.5 76t-94.5 31h-230v-211zM401 203h230q65 0 106 35t41 88q0 51 -40.5 83.5
t-106.5 32.5h-230v-239z" />
    <glyph glyph-name="uni0433" unicode="&#x433;" horiz-adv-x="968" 
d="M115 0v1049h811v-250h-508v-799h-303z" />
    <glyph glyph-name="uni0434" unicode="&#x434;" horiz-adv-x="1427" 
d="M33 -307v557h129q60 30 91 122.5t50 258.5l49 418h848v-799h172v-557h-248v307h-843v-307h-248zM463 250h434v549h-287l-39 -289q-11 -89 -34.5 -143t-73.5 -97v-20z" />
    <glyph glyph-name="uni0435" unicode="&#x435;" horiz-adv-x="1280" 
d="M649 -33q-256 0 -417.5 156.5t-161.5 408.5q0 245 161 397t416 152q252 0 408.5 -153t156.5 -400q0 -46 -4 -92h-825q20 -112 95 -177.5t186 -65.5q85 0 151 38.5t100 104.5l259 -66q-49 -140 -191 -221.5t-334 -81.5zM381 625h522q-14 101 -86.5 166t-177.5 65
q-100 0 -168.5 -62.5t-89.5 -168.5z" />
    <glyph glyph-name="uni0436" unicode="&#x436;" horiz-adv-x="1685" 
d="M6 0l402 545l-388 504h347l305 -412h20v412h303v-412h21l305 412h346l-387 -504l401 -545h-354l-311 451h-21v-451h-303v451h-20l-312 -451h-354z" />
    <glyph glyph-name="uni0437" unicode="&#x437;" horiz-adv-x="1099" 
d="M582 -33q-231 0 -372.5 112.5t-141.5 299.5h286q0 -83 59.5 -134.5t153.5 -51.5q80 0 131.5 37.5t51.5 95.5q0 56 -45 86t-119 30h-129v191h131q65 0 106 29.5t41 76.5q0 52 -49.5 84.5t-126.5 32.5q-86 0 -138 -42t-52 -112h-277q0 171 132 275t347 104q196 0 322.5 -87
t126.5 -228q0 -80 -44 -134.5t-122 -76.5v-20q89 -22 142 -88.5t53 -157.5q0 -145 -130.5 -233.5t-336.5 -88.5z" />
    <glyph glyph-name="uni0438" unicode="&#x438;" horiz-adv-x="1284" 
d="M115 0v1049h303v-643h20l406 643h325v-1049h-305v637h-20l-402 -637h-327z" />
    <glyph glyph-name="uni0439" unicode="&#x439;" horiz-adv-x="1284" 
d="M631 1221q-134 0 -220.5 84.5t-86.5 214.5h200q0 -64 28.5 -101t78.5 -37t78 37t28 101h201q0 -130 -86.5 -214.5t-220.5 -84.5zM115 0v1049h303v-643h20l406 643h325v-1049h-305v637h-20l-402 -637h-327z" />
    <glyph glyph-name="uni043A" unicode="&#x43a;" horiz-adv-x="1169" 
d="M117 0v1049h303v-408h20l336 408h367l-436 -504l444 -545h-369l-342 446h-20v-446h-303z" />
    <glyph glyph-name="uni043B" unicode="&#x43b;" horiz-adv-x="1232" 
d="M23 0v233q104 0 143 57.5t57 211.5l64 547h831v-1049h-303v799h-268l-64 -475q-8 -62 -29 -112t-48 -83t-65.5 -57.5t-74.5 -38t-82 -21.5t-81.5 -10t-79.5 -2z" />
    <glyph glyph-name="uni043C" unicode="&#x43c;" horiz-adv-x="1652" 
d="M115 0v1049h397l303 -742h21l303 742h399v-1049h-305v668h-21l-276 -668h-221l-277 666h-20v-666h-303z" />
    <glyph glyph-name="uni043D" unicode="&#x43d;" horiz-adv-x="1255" 
d="M115 0v1047h303v-394h420v394h303v-1047h-303v403h-420v-403h-303z" />
    <glyph glyph-name="uni043E" unicode="&#x43e;" horiz-adv-x="1298" 
d="M649 -33q-263 0 -422 152t-159 405t159 405t422 152q262 0 422 -152t160 -405q0 -254 -160 -405.5t-422 -151.5zM649 225q121 0 199 84t78 215q0 130 -77.5 213.5t-199.5 83.5q-123 0 -200.5 -83t-77.5 -214t77.5 -215t200.5 -84z" />
    <glyph glyph-name="uni043F" unicode="&#x43f;" horiz-adv-x="1265" 
d="M115 0v1049h1036v-1049h-303v799h-430v-799h-303z" />
    <glyph glyph-name="uni0440" unicode="&#x440;" horiz-adv-x="1335" 
d="M770 1081q218 0 357 -154t139 -403q0 -247 -139.5 -402t-356.5 -155q-218 0 -332 164h-20v-602h-303v1520h303v-134h20q116 166 332 166zM684 821q-121 0 -199.5 -85t-78.5 -212t79 -213t199 -86t198.5 86t78.5 213q0 128 -78.5 212.5t-198.5 84.5z" />
    <glyph glyph-name="uni0441" unicode="&#x441;" horiz-adv-x="1247" 
d="M639 -33q-251 0 -410 154.5t-159 402.5q1 165 73 292t201 196t295 69q215 0 363 -111t174 -296l-283 -37q-20 86 -91 140t-159 54q-116 0 -193 -86.5t-77 -220.5t76 -220.5t192 -86.5q90 0 160.5 54t93.5 139l283 -35q-29 -186 -177.5 -297t-361.5 -111z" />
    <glyph glyph-name="uni0442" unicode="&#x442;" horiz-adv-x="1064" 
d="M381 0v799h-348v250h999v-250h-346v-799h-305z" />
    <glyph glyph-name="uni0443" unicode="&#x443;" horiz-adv-x="1198" 
d="M344 -473q-125 0 -217 37l2 243q75 -30 156 -30q38 0 70.5 13.5t53.5 31.5t41.5 51t31 55.5t26.5 61.5l-494 1059h326l281 -670h20l227 670h316l-406 -1086q-39 -107 -78 -181.5t-90.5 -135t-117.5 -90t-148 -29.5z" />
    <glyph glyph-name="uni0444" unicode="&#x444;" horiz-adv-x="1642" 
d="M680 -473v448q-266 11 -439 167t-173 386q0 149 78.5 271t218.5 194.5t315 79.5v447h287v-449q173 -7 312 -80t217.5 -194.5t78.5 -268.5q0 -228 -172.5 -384.5t-435.5 -168.5v-448h-287zM678 219v610q-131 -5 -219 -92t-88 -211q0 -127 88 -214.5t219 -92.5zM965 221
q131 5 219 92t88 213q0 123 -88 209t-219 92v-606z" />
    <glyph glyph-name="uni0445" unicode="&#x445;" horiz-adv-x="1212" 
d="M18 0l371 545l-352 504h338l221 -330h20l222 330h338l-353 -504l371 -545h-348l-230 362h-20l-229 -362h-349z" />
    <glyph glyph-name="uni0446" unicode="&#x446;" horiz-adv-x="1355" 
d="M1069 -307v307h-954v1049h303v-799h432v799h303v-799h166v-557h-250z" />
    <glyph glyph-name="uni0447" unicode="&#x447;" horiz-adv-x="1191" 
d="M784 0v418q-47 -69 -140 -111.5t-195 -42.5q-165 0 -270 115.5t-105 300.5v369h303v-336q0 -93 48 -146t134 -53q67 0 126 30.5t87 78.5v426h305v-1049h-293z" />
    <glyph glyph-name="uni0448" unicode="&#x448;" horiz-adv-x="1755" 
d="M115 0v1049h303v-799h307v799h303v-799h307v799h305v-1049h-1525z" />
    <glyph glyph-name="uni0449" unicode="&#x449;" horiz-adv-x="1849" 
d="M1565 -307v307h-1450v1049h303v-799h307v799h303v-799h307v799h305v-799h175v-557h-250z" />
    <glyph glyph-name="uni044A" unicode="&#x44a;" horiz-adv-x="1273" 
d="M252 0v799h-238v250h541v-283h231q204 0 322.5 -107t118.5 -272q0 -166 -119 -276.5t-322 -110.5h-534zM549 240h205q78 0 125 38.5t47 104.5q0 64 -47.5 103.5t-124.5 39.5h-205v-286z" />
    <glyph glyph-name="uni044B" unicode="&#x44b;" horiz-adv-x="1568" 
d="M115 0v1049h303v-283h188q205 0 323 -107t118 -272q0 -166 -118.5 -276.5t-322.5 -110.5h-491zM1149 0v1047h305v-1047h-305zM410 240h163q78 0 125 38.5t47 104.5q0 64 -47.5 103.5t-124.5 39.5h-163v-286z" />
    <glyph glyph-name="uni044C" unicode="&#x44c;" horiz-adv-x="1142" 
d="M115 0v1049h303v-283h233q205 0 323 -107t118 -272q0 -166 -119 -276.5t-322 -110.5h-536zM418 240h200q78 0 124 38.5t46 104.5q0 64 -46.5 103.5t-123.5 39.5h-200v-286z" />
    <glyph glyph-name="uni044D" unicode="&#x44d;" horiz-adv-x="1243" 
d="M606 -41q-198 0 -349.5 112.5t-186.5 286.5l274 41q22 -86 94 -140t166 -54q102 0 175.5 64.5t88.5 166.5h-391v176h393q-19 104 -92 168t-174 64q-92 0 -165 -55t-93 -142l-276 39q31 177 181.5 290.5t354.5 113.5q122 0 228 -42.5t181 -117t118 -180t43 -226.5
q0 -245 -161.5 -405t-408.5 -160z" />
    <glyph glyph-name="uni044E" unicode="&#x44e;" horiz-adv-x="1683" 
d="M1071 -43q-208 0 -347.5 121t-170.5 325h-135v-403h-303v1049h303v-412h133q33 205 172.5 329t347.5 124q244 0 394.5 -158t150.5 -410t-150.5 -408.5t-394.5 -156.5zM1071 225q116 0 183 80.5t67 216.5q0 135 -67 217t-183 82t-184 -82t-68 -217q0 -136 68 -216.5
t184 -80.5z" />
    <glyph glyph-name="uni044F" unicode="&#x44f;" horiz-adv-x="1169" 
d="M59 0l275 346q-125 33 -194.5 124.5t-69.5 209.5q0 162 122 265.5t316 103.5h547v-1049h-314v322h-108l-230 -322h-344zM551 547h201v268h-201q-80 0 -129 -37t-49 -98q0 -60 48.5 -96.5t129.5 -36.5z" />
    <glyph glyph-name="uni0451" unicode="&#x451;" horiz-adv-x="1280" 
d="M381 1194q-69 0 -114.5 44t-45.5 110q0 67 45.5 110t114.5 43t114.5 -43t45.5 -110q0 -66 -45.5 -110t-114.5 -44zM911 1194q-69 0 -114 44t-45 110q0 67 45 110t114 43t114.5 -43t45.5 -110q0 -66 -45.5 -110t-114.5 -44zM649 -33q-256 0 -417.5 156.5t-161.5 408.5
q0 245 161 397t416 152q252 0 408.5 -153t156.5 -400q0 -46 -4 -92h-825q20 -112 95 -177.5t186 -65.5q85 0 151 38.5t100 104.5l259 -66q-49 -140 -191 -221.5t-334 -81.5zM381 625h522q-14 101 -86.5 166t-177.5 65q-100 0 -168.5 -62.5t-89.5 -168.5z" />
    <glyph glyph-name="uni0452" unicode="&#x452;" horiz-adv-x="1239" 
d="M702 -369q-115 0 -215 29v231q65 -14 119 -14q106 0 169 61t63 168v445q0 98 -54 158.5t-145 60.5q-92 0 -156.5 -65.5t-64.5 -165.5v-539h-303v1169h-189v224h189v127h303v-127h262v-224h-262v-290h20q112 159 301 159q180 0 291 -118.5t111 -307.5v-530
q0 -211 -119.5 -331t-319.5 -120z" />
    <glyph glyph-name="uni0453" unicode="&#x453;" horiz-adv-x="937" 
d="M352 1208l223 312h289l-272 -312h-240zM115 0v1049h811v-250h-508v-799h-303z" />
    <glyph glyph-name="uni0454" unicode="&#x454;" horiz-adv-x="1243" 
d="M637 -41q-162 0 -292 72.5t-203.5 201.5t-73.5 291q0 246 161 406t408 160q203 0 354 -113.5t180 -290.5l-274 -39q-20 87 -93 142t-165 55q-101 0 -175 -64t-91 -168h393v-176h-393q17 -103 90.5 -167t173.5 -64q95 0 167 53.5t95 140.5l275 -41q-35 -174 -187 -286.5
t-350 -112.5z" />
    <glyph glyph-name="uni0455" unicode="&#x455;" horiz-adv-x="1144" 
d="M573 -37q-232 0 -364.5 103t-132.5 284h266q0 -84 65 -135t175 -51q88 0 139 34.5t51 94.5q0 23 -8 41t-25.5 30.5t-35.5 20.5t-49.5 14t-54.5 8.5t-62 6.5q-54 6 -87 10t-86 15t-86.5 24.5t-73.5 38t-63 55.5t-39 76.5t-16 101.5q0 160 128 255t339 95q213 0 348 -96.5
t135 -257.5h-276q-1 70 -58.5 112t-148.5 42q-84 0 -135 -34t-51 -91q0 -22 8 -39.5t27.5 -29t37 -19.5t52.5 -14t56.5 -8.5t66.5 -7.5q19 -2 28 -3q57 -7 99.5 -15t96 -22.5t91.5 -37.5t72 -55.5t51.5 -81t17.5 -108.5q0 -167 -133 -261.5t-365 -94.5z" />
    <glyph glyph-name="uni0456" unicode="&#x456;" horiz-adv-x="579" 
d="M289 1194q-79 0 -131 50t-52 128q0 76 52.5 127t130.5 51q81 0 131.5 -50.5t50.5 -127.5q0 -78 -50.5 -128t-131.5 -50zM137 0v1049h305v-1049h-305z" />
    <glyph glyph-name="uni0457" unicode="&#x457;" horiz-adv-x="536" 
d="M4 1194q-69 0 -114.5 44t-45.5 110q0 67 45.5 110t114.5 43t114.5 -43t45.5 -110q0 -66 -45.5 -110t-114.5 -44zM535 1194q-69 0 -114.5 44t-45.5 110q0 67 45.5 110t114.5 43t114 -43t45 -110q0 -66 -45 -110t-114 -44zM117 0v1049h303v-1049h-303z" />
    <glyph glyph-name="uni0458" unicode="&#x458;" horiz-adv-x="569" 
d="M281 1194q-80 0 -131.5 50t-51.5 128q0 77 52 127.5t131 50.5t130.5 -50.5t51.5 -127.5q0 -78 -51 -128t-131 -50zM84 -475q-128 0 -225 33v241q56 -16 125 -16q66 0 105.5 41.5t39.5 107.5v1117h303v-1143q0 -168 -97 -274.5t-251 -106.5z" />
    <glyph glyph-name="uni0459" unicode="&#x459;" horiz-adv-x="1742" 
d="M23 0v233q104 0 143 57.5t57 211.5l64 547h782v-349h219q185 0 296.5 -100.5t111.5 -247.5t-112 -249.5t-296 -102.5h-522v805h-219l-64 -481q-8 -62 -28.5 -112t-47.5 -83t-65.5 -57.5t-75 -38t-82.5 -21.5t-81.5 -10t-79.5 -2zM1069 240h186q60 0 99 30.5t39 77.5
q0 51 -38.5 82t-99.5 31h-186v-221z" />
    <glyph glyph-name="uni045A" unicode="&#x45a;" horiz-adv-x="1710" 
d="M115 0v1049h303v-396h315v396h303v-349h219q185 0 296.5 -100.5t111.5 -247.5t-112 -249.5t-296 -102.5h-522v403h-315v-403h-303zM1036 240h187q60 0 98.5 30.5t38.5 77.5q0 51 -38.5 82t-98.5 31h-187v-221z" />
    <glyph glyph-name="uni045B" unicode="&#x45b;" horiz-adv-x="1239" 
d="M115 0v1169h-189v224h189v127h303v-127h262v-224h-262v-282h20q113 160 301 160q180 0 291 -118.5t111 -307.5v-621h-303v559q0 98 -54 158.5t-145 60.5q-92 0 -156.5 -65.5t-64.5 -165.5v-547h-303z" />
    <glyph glyph-name="uni045C" unicode="&#x45c;" horiz-adv-x="1150" 
d="M469 1208l223 312h289l-272 -312h-240zM115 0v1049h303v-408h20l338 408h365l-434 -504l444 -545h-371l-342 446h-20v-446h-303z" />
    <glyph glyph-name="uni045E" unicode="&#x45e;" horiz-adv-x="1198" 
d="M629 1221q-133 0 -219 84t-86 215h198q0 -64 28.5 -101t78.5 -37t78 37t28 101h201q0 -130 -86.5 -214.5t-220.5 -84.5zM344 -473q-125 0 -217 37l2 243q75 -30 156 -30q38 0 70.5 13.5t53.5 31.5t41.5 51t31 55.5t26.5 61.5l-494 1059h326l281 -670h20l227 670h316
l-406 -1086q-39 -107 -78 -181.5t-90.5 -135t-117.5 -90t-148 -29.5z" />
    <glyph glyph-name="uni045F" unicode="&#x45f;" horiz-adv-x="1286" 
d="M512 -307v307h-397v1049h303v-799h450v799h303v-1049h-397v-307h-262z" />
    <glyph glyph-name="uni0490" unicode="&#x490;" horiz-adv-x="1320" 
d="M147 0v1458h838v260h283v-528h-781v-1190h-340z" />
    <glyph glyph-name="uni0491" unicode="&#x491;" horiz-adv-x="937" 
d="M115 0v1049h561v174h250v-424h-508v-799h-303z" />
    <glyph glyph-name="Wgrave" unicode="&#x1e80;" horiz-adv-x="2404" 
d="M1339 1602h-258l-270 247h301zM469 0l-403 1458h335l310 -1155h20l293 1155h358l291 -1155h21l309 1155h336l-404 -1458h-483l-240 1014h-20l-240 -1014h-483z" />
    <glyph glyph-name="wgrave" unicode="&#x1e81;" horiz-adv-x="1824" 
d="M801 1208l-254 312h278l215 -312h-239zM346 0l-315 1049h309l213 -746h20l187 746h303l201 -752h20l209 752h301l-317 -1049h-396l-159 694h-21l-158 -694h-397z" />
    <glyph glyph-name="Wacute" unicode="&#x1e82;" horiz-adv-x="2404" 
d="M1065 1602l227 247h301l-268 -247h-260zM469 0l-403 1458h335l310 -1155h20l293 1155h358l291 -1155h21l309 1155h336l-404 -1458h-483l-240 1014h-20l-240 -1014h-483z" />
    <glyph glyph-name="wacute" unicode="&#x1e83;" horiz-adv-x="1824" 
d="M1026 1208h-240l215 312h279zM346 0l-315 1049h309l213 -746h20l187 746h303l201 -752h20l209 752h301l-317 -1049h-396l-159 694h-21l-158 -694h-397z" />
    <glyph glyph-name="Wdieresis" unicode="&#x1e84;" horiz-adv-x="2404" 
d="M952 1583q-68 0 -112.5 43.5t-44.5 110.5q0 64 44.5 106.5t112.5 42.5t112 -42.5t44 -106.5q0 -67 -44 -110.5t-112 -43.5zM1454 1583q-68 0 -113 43.5t-45 110.5q0 64 45 106.5t113 42.5t112 -42.5t44 -106.5q0 -67 -44 -110.5t-112 -43.5zM469 0l-403 1458h335
l310 -1155h20l293 1155h358l291 -1155h21l309 1155h336l-404 -1458h-483l-240 1014h-20l-240 -1014h-483z" />
    <glyph glyph-name="wdieresis" unicode="&#x1e85;" horiz-adv-x="1824" 
d="M647 1194q-69 0 -113.5 44t-44.5 110q0 67 44.5 110t113.5 43q71 0 115.5 -43t44.5 -110q0 -66 -45 -110t-115 -44zM1180 1194q-69 0 -114.5 44t-45.5 110q0 67 45.5 110t114.5 43t113 -43t44 -110q0 -66 -44 -110t-113 -44zM346 0l-315 1049h309l213 -746h20l187 746
h303l201 -752h20l209 752h301l-317 -1049h-396l-159 694h-21l-158 -694h-397z" />
    <glyph glyph-name="uni1E9E" unicode="&#x1e9e;" horiz-adv-x="1447" 
d="M918 -39q-77 0 -162.5 13.5t-143.5 35.5v242q110 -47 219 -47q100 0 160 58t60 157q0 106 -70.5 168.5t-204.5 62.5h-92v207h94q76 0 125 49.5t49 126.5q0 93 -66 149t-171 56q-113 0 -180.5 -73.5t-67.5 -198.5v-967h-340v971q0 229 165 373.5t429 144.5
q242 0 394.5 -118t152.5 -300q0 -102 -49 -174.5t-134 -103.5v-21q133 -34 219.5 -138.5t86.5 -250.5q0 -181 -135.5 -301.5t-337.5 -120.5z" />
    <glyph glyph-name="Ygrave" unicode="&#x1ef2;" horiz-adv-x="1437" 
d="M858 1602h-258l-270 247h301zM553 0v508l-516 950h354l322 -647h20l309 647h359l-508 -950v-508h-340z" />
    <glyph glyph-name="ygrave" unicode="&#x1ef3;" horiz-adv-x="1198" 
d="M516 1208l-254 312h281l213 -312h-240zM344 -473q-125 0 -217 37l2 243q75 -30 156 -30q38 0 70.5 13.5t53.5 31.5t41.5 51t31 55.5t26.5 61.5l-494 1059h326l281 -670h20l227 670h316l-406 -1086q-39 -107 -78 -181.5t-90.5 -135t-117.5 -90t-148 -29.5z" />
    <glyph glyph-name="endash" unicode="&#x2013;" horiz-adv-x="1302" 
d="M68 512v250h1167v-250h-1167z" />
    <glyph glyph-name="emdash" unicode="&#x2014;" horiz-adv-x="1712" 
d="M68 512v250h1577v-250h-1577z" />
    <glyph glyph-name="quoteleft" unicode="&#x2018;" horiz-adv-x="489" 
d="M285 1536l112 -39l-112 -272q62 -12 99.5 -58t37.5 -110q0 -73 -50.5 -121.5t-127.5 -48.5q-76 0 -126 48t-50 122q0 63 43 139z" />
    <glyph glyph-name="quoteright" unicode="&#x2019;" horiz-adv-x="491" 
d="M207 885l-113 37l115 272q-62 12 -99.5 58t-37.5 110q0 74 50 122t126 48t126 -48t50 -122q0 -62 -41 -139z" />
    <glyph glyph-name="quotesinglbase" unicode="&#x201a;" horiz-adv-x="491" 
d="M207 -330l-113 37l115 273q-62 12 -99.5 57.5t-37.5 109.5q0 75 49.5 123.5t126.5 48.5t126.5 -48.5t49.5 -123.5q0 -62 -41 -139z" />
    <glyph glyph-name="quotedblleft" unicode="&#x201c;" horiz-adv-x="931" 
d="M285 1536l112 -39l-112 -272q62 -12 99.5 -58t37.5 -110q0 -73 -50.5 -121.5t-127.5 -48.5q-76 0 -126 48t-50 122q0 63 43 139zM727 1536l113 -39l-113 -272q62 -12 99.5 -58t37.5 -110q0 -74 -50 -122t-126 -48q-78 0 -128 48t-50 122q0 63 43 139z" />
    <glyph glyph-name="quotedblright" unicode="&#x201d;" horiz-adv-x="933" 
d="M207 885l-113 37l115 272q-62 12 -99.5 58t-37.5 110q0 74 50 122t126 48t126 -48t50 -122q0 -62 -41 -139zM649 885l-112 37l112 272q-61 12 -98 57.5t-37 110.5q0 74 50 122t126 48t126 -48t50 -122q0 -63 -43 -139z" />
    <glyph glyph-name="quotedblbase" unicode="&#x201e;" horiz-adv-x="933" 
d="M207 -330l-113 37l115 273q-62 12 -99.5 57.5t-37.5 109.5q0 75 49.5 123.5t126.5 48.5t126.5 -48.5t49.5 -123.5q0 -62 -41 -139zM651 -330l-112 37l112 273q-62 12 -99.5 57.5t-37.5 109.5q0 75 49.5 123.5t126.5 48.5q78 0 128 -48.5t50 -123.5q0 -63 -43 -139z" />
    <glyph glyph-name="dagger" unicode="&#x2020;" horiz-adv-x="974" 
d="M354 -465v983h-286v244h286v754h267v-754h286v-244h-286v-983h-267z" />
    <glyph glyph-name="daggerdbl" unicode="&#x2021;" horiz-adv-x="1097" 
d="M416 -471v727h-348v233h348v293h-348v230h348v508h266v-508h348v-230h-348v-293h348v-233h-348v-727h-266z" />
    <glyph glyph-name="bullet" unicode="&#x2022;" horiz-adv-x="589" 
d="M295 416q-98 0 -161.5 62t-63.5 157t63.5 157t161.5 62t161.5 -62t63.5 -157t-63.5 -157t-161.5 -62z" />
    <glyph glyph-name="ellipsis" unicode="&#x2026;" horiz-adv-x="1388" 
d="M244 -25q-77 0 -126.5 48.5t-49.5 123.5t49.5 123.5t126.5 48.5t126.5 -48.5t49.5 -123.5t-49.5 -123.5t-126.5 -48.5zM694 -25q-77 0 -127.5 48.5t-50.5 123.5t50.5 123.5t127.5 48.5t126.5 -48.5t49.5 -123.5t-49.5 -123.5t-126.5 -48.5zM1143 -25q-77 0 -126.5 48.5
t-49.5 123.5t49.5 123.5t126.5 48.5q78 0 127 -48.5t49 -123.5t-49 -123.5t-127 -48.5z" />
    <glyph glyph-name="perthousand" unicode="&#x2030;" horiz-adv-x="3133" 
d="M508 664q-193 0 -315.5 123t-122.5 315q0 194 122 316t316 122q192 0 315 -122.5t123 -315.5q0 -192 -123 -315t-315 -123zM416 0l1042 1520h291l-1042 -1520h-291zM506 920q83 0 133.5 50t50.5 132t-50.5 132t-133.5 50q-82 0 -132 -50t-50 -132t50 -132t132 -50z
M1657 -20q-192 0 -314 122.5t-122 315.5q0 192 122 315t314 123t315 -123t123 -315q0 -193 -123 -315.5t-315 -122.5zM2626 -20q-192 0 -315.5 122.5t-123.5 315.5q0 192 123.5 315t315.5 123q193 0 315.5 -123t122.5 -315q0 -194 -122 -316t-316 -122zM1657 236
q82 0 133 50t51 132t-51 132t-133 50t-132 -50t-50 -132t50 -132t132 -50zM2626 236q82 0 132 50t50 132t-50 132t-132 50t-132.5 -50t-50.5 -132t50.5 -132t132.5 -50z" />
    <glyph glyph-name="guilsinglleft" unicode="&#x2039;" horiz-adv-x="782" 
d="M391 0l-375 532l375 517h324l-385 -517l385 -532h-324z" />
    <glyph glyph-name="guilsinglright" unicode="&#x203a;" horiz-adv-x="780" 
d="M391 0h-323l385 532l-385 517h323l373 -517z" />
    <glyph glyph-name="lira" unicode="&#x20a4;" horiz-adv-x="1302" 
d="M70 0v285q64 12 108.5 55.5t67.5 138.5h-168v148h215q2 29 2 94h-217v158h217v176q0 192 130 316t331 124q204 0 338.5 -129.5t140.5 -333.5h-295q-1 90 -50.5 149.5t-121.5 59.5q-70 0 -114 -53t-44 -137v-172h457v-158h-457q0 -36 -4 -94h461v-160h-512
q-27 -93 -76 -144t-133 -83v-21h885v-219h-1161z" />
    <glyph glyph-name="Euro" unicode="&#x20ac;" horiz-adv-x="1837" 
d="M1040 244q139 0 252 85.5t148 217.5l317 -43q-25 -157 -126 -281t-257.5 -193t-339.5 -69q-281 0 -484.5 151t-268.5 404h-211v162h188q-2 16 -2 51q0 39 2 57h-188v162h213q66 250 268.5 399.5t482.5 149.5q275 0 478.5 -156.5t244.5 -402.5l-319 -35
q-31 135 -143.5 222t-254.5 87q-140 0 -246 -70t-157 -194h444v-162h-483q-2 -18 -2 -57q0 -35 2 -51h483v-162h-446q51 -127 158 -199.5t247 -72.5z" />
    <glyph glyph-name="uni20BD" unicode="&#x20bd;" horiz-adv-x="1533" 
d="M893 1458q271 0 428 -121.5t156 -343.5q-1 -147 -74.5 -252t-204 -158t-307.5 -53h-303v-118h342v-230h-342v-182h-336v182h-184v230h184v118h-184v240h184v688h641zM862 770q125 0 200 61.5t75 161.5q0 105 -74 165.5t-201 60.5h-274v-449h274z" />
    <glyph glyph-name="uni2116" unicode="&#x2116;" horiz-adv-x="2136" 
d="M166 0v1458h371l452 -989h21v989h299v-1458h-373l-451 987h-20v-987h-299zM1716 539q-129 0 -212 79t-83 199q0 122 83 200.5t212 78.5q128 0 210.5 -79t82.5 -200t-83.5 -199.5t-209.5 -78.5zM1716 698q52 0 86.5 34t34.5 85t-34.5 85t-86.5 34t-86.5 -34t-34.5 -85
t34.5 -85t86.5 -34zM1411 250v178h623v-178h-623z" />
    <glyph glyph-name="trademark" unicode="&#x2122;" horiz-adv-x="2359" 
d="M301 307v932h-278v219h815v-219h-281v-932h-256zM961 307v1151h331l287 -811h20l283 811h340v-1151h-242v778h-20l-272 -778h-193l-272 778h-21v-778h-241z" />
    <glyph glyph-name="arrowleft" unicode="&#x2190;" 
d="M440 102l-372 416l372 416h279l-291 -303v-8h746v-209h-746v-8l291 -304h-279z" />
    <glyph glyph-name="arrowup" unicode="&#x2191;" horiz-adv-x="966" 
d="M381 0v748h-8l-305 -291v276l415 375l416 -375v-276l-303 291h-8v-748h-207z" />
    <glyph glyph-name="arrowright" unicode="&#x2192;" 
d="M524 102l291 304v8h-747v209h747v8l-291 303h277l373 -416l-373 -416h-277z" />
    <glyph glyph-name="arrowdown" unicode="&#x2193;" horiz-adv-x="966" 
d="M483 0l-415 373v278l305 -291h8v748h207v-748h8l303 291v-278z" />
    <glyph glyph-name="uni2196" unicode="&#x2196;" horiz-adv-x="1021" 
d="M807 90l-526 526l-7 -4l-10 -422l-196 197l30 559l559 29l197 -195l-422 -10l-4 -6l526 -528z" />
    <glyph glyph-name="uni2197" unicode="&#x2197;" horiz-adv-x="1021" 
d="M215 88l-147 148l528 528l-6 6l-420 8l197 197l557 -29l30 -559l-196 -197l-10 422l-7 4z" />
    <glyph glyph-name="uni2198" unicode="&#x2198;" horiz-adv-x="1021" 
d="M367 131l-197 197l420 10l6 6l-528 526l147 148l526 -529l7 7l10 422l196 -199l-30 -557z" />
    <glyph glyph-name="uni2199" unicode="&#x2199;" horiz-adv-x="1021" 
d="M657 131l-559 31l-30 557l196 199l10 -422l7 -7l526 529l147 -148l-526 -526l4 -6l422 -10z" />
    <glyph glyph-name="minus" unicode="&#x2212;" horiz-adv-x="978" 
d="M70 616v234h839v-234h-839z" />
    <glyph glyph-name="notequal" unicode="&#x2260;" horiz-adv-x="1101" 
d="M211 8l117 334h-258v242h338l100 280h-438v242h518l104 299h201l-102 -299h241v-242h-321l-99 -280h420v-242h-497l-117 -334h-207z" />
    <glyph glyph-name="lessequal" unicode="&#x2264;" horiz-adv-x="892" 
d="M825 463l-757 233v320l757 233v-231l-557 -152v-20l557 -152v-231zM68 180v207h757v-207h-757z" />
    <glyph glyph-name="greaterequal" unicode="&#x2265;" horiz-adv-x="892" 
d="M68 463v231l557 152v20l-557 152v231l757 -233v-320zM825 180h-757v207h757v-207z" />
    <glyph glyph-name="uniF6C3" unicode="&#xf6c3;" horiz-adv-x="0" 
d="M-236 -602l-77 33l84 157q-54 8 -88.5 46t-34.5 90q0 62 40 101.5t101 39.5q62 0 101.5 -38.5t39.5 -98.5q0 -57 -41 -123z" />
    <glyph glyph-name="uni0430.alt1" unicode="&#xfb00;" horiz-adv-x="1349" 
d="M561 -33q-220 0 -355.5 153.5t-135.5 403.5q0 249 136 403t355 154q218 0 348 -192h21v160h303v-1049h-303v158h-21q-129 -191 -348 -191zM651 225q120 0 198.5 85t78.5 214t-78.5 213t-198.5 84q-121 0 -199.5 -84t-78.5 -213t78.5 -214t199.5 -85z" />
    <glyph glyph-name="a.alt1" horiz-adv-x="1349" 
d="M561 -33q-220 0 -355.5 153.5t-135.5 403.5q0 249 136 403t355 154q218 0 348 -192h21v160h303v-1049h-303v158h-21q-129 -191 -348 -191zM651 225q120 0 198.5 85t78.5 214t-78.5 213t-198.5 84q-121 0 -199.5 -84t-78.5 -213t78.5 -214t199.5 -85z" />
    <glyph glyph-name="agrave.alt1" horiz-adv-x="1349" 
d="M549 1208l-254 312h280l213 -312h-239zM561 -33q-220 0 -355.5 153.5t-135.5 403.5q0 249 136 403t355 154q218 0 348 -192h21v160h303v-1049h-303v158h-21q-129 -191 -348 -191zM651 225q120 0 198.5 85t78.5 214t-78.5 213t-198.5 84q-121 0 -199.5 -84t-78.5 -213
t78.5 -214t199.5 -85z" />
    <glyph glyph-name="aacute.alt1" horiz-adv-x="1349" 
d="M774 1208h-237l213 312h280zM561 -33q-220 0 -355.5 153.5t-135.5 403.5q0 249 136 403t355 154q218 0 348 -192h21v160h303v-1049h-303v158h-21q-129 -191 -348 -191zM651 225q120 0 198.5 85t78.5 214t-78.5 213t-198.5 84q-121 0 -199.5 -84t-78.5 -213t78.5 -214
t199.5 -85z" />
    <glyph glyph-name="atilde.alt1" horiz-adv-x="1349" 
d="M813 1200q-52 0 -99 17.5t-75 38t-62 38t-63 17.5q-37 0 -71.5 -21.5t-55.5 -56.5l-127 96q44 73 110.5 115.5t147.5 42.5q50 0 95.5 -17.5t74.5 -39t65 -39t68 -17.5q39 0 73.5 22.5t53.5 57.5l129 -88q-103 -166 -264 -166zM561 -33q-220 0 -355.5 153.5t-135.5 403.5
q0 249 136 403t355 154q218 0 348 -192h21v160h303v-1049h-303v158h-21q-129 -191 -348 -191zM651 225q120 0 198.5 85t78.5 214t-78.5 213t-198.5 84q-121 0 -199.5 -84t-78.5 -213t78.5 -214t199.5 -85z" />
    <glyph glyph-name="adieresis.alt1" horiz-adv-x="1349" 
d="M397 1194q-69 0 -114 44t-45 110q0 67 45 110t114 43t114.5 -43t45.5 -110q0 -66 -45.5 -110t-114.5 -44zM928 1194q-69 0 -114.5 44t-45.5 110q0 67 45.5 110t114.5 43t114 -43t45 -110q0 -66 -45 -110t-114 -44zM561 -33q-220 0 -355.5 153.5t-135.5 403.5
q0 249 136 403t355 154q218 0 348 -192h21v160h303v-1049h-303v158h-21q-129 -191 -348 -191zM651 225q120 0 198.5 85t78.5 214t-78.5 213t-198.5 84q-121 0 -199.5 -84t-78.5 -213t78.5 -214t199.5 -85z" />
    <glyph glyph-name="aring.alt1" horiz-adv-x="1349" 
d="M662 1196q-108 0 -176 63t-68 164t68 164.5t176 63.5q109 0 176 -63.5t67 -164.5t-67 -164t-176 -63zM662 1305q53 0 86.5 33t33.5 85t-33.5 85.5t-86.5 33.5q-52 0 -85.5 -33t-33.5 -86q0 -52 33 -85t86 -33zM561 -33q-220 0 -355.5 153.5t-135.5 403.5q0 249 136 403
t355 154q218 0 348 -192h21v160h303v-1049h-303v158h-21q-129 -191 -348 -191zM651 225q120 0 198.5 85t78.5 214t-78.5 213t-198.5 84q-121 0 -199.5 -84t-78.5 -213t78.5 -214t199.5 -85z" />
    <glyph glyph-name="amacron.alt1" horiz-adv-x="1349" 
d="M317 1245v197h691v-197h-691zM561 -33q-220 0 -355.5 153.5t-135.5 403.5q0 249 136 403t355 154q218 0 348 -192h21v160h303v-1049h-303v158h-21q-129 -191 -348 -191zM651 225q120 0 198.5 85t78.5 214t-78.5 213t-198.5 84q-121 0 -199.5 -84t-78.5 -213t78.5 -214
t199.5 -85z" />
    <glyph glyph-name="abreve.alt1" horiz-adv-x="1349" 
d="M662 1221q-134 0 -220 84.5t-86 214.5h199q0 -64 28.5 -101t78.5 -37q51 0 79.5 37t28.5 101h199q0 -130 -86.5 -214.5t-220.5 -84.5zM561 -33q-220 0 -355.5 153.5t-135.5 403.5q0 249 136 403t355 154q218 0 348 -192h21v160h303v-1049h-303v158h-21
q-129 -191 -348 -191zM651 225q120 0 198.5 85t78.5 214t-78.5 213t-198.5 84q-121 0 -199.5 -84t-78.5 -213t78.5 -214t199.5 -85z" />
    <glyph glyph-name="aogonek.alt1" horiz-adv-x="1349" 
d="M930 1049h303v-1049h-129q-100 -38 -158.5 -93.5t-58.5 -111.5q0 -39 27.5 -62.5t72.5 -23.5q53 0 113 33v-123q-72 -37 -154 -37q-87 0 -141.5 47.5t-54.5 122.5q0 143 180 248v158h-21q-129 -191 -348 -191q-220 0 -355.5 153.5t-135.5 403.5q0 249 136 403t355 154
q218 0 348 -192h21v160zM651 225q120 0 198.5 85t78.5 214t-78.5 213t-198.5 84q-121 0 -199.5 -84t-78.5 -213t78.5 -214t199.5 -85z" />
    <glyph glyph-name="acircumflex.alt1" horiz-adv-x="1349" 
d="M299 1192l211 309h307l215 -309h-231l-125 164h-21l-129 -164h-227zM561 -33q-220 0 -355.5 153.5t-135.5 403.5q0 249 136 403t355 154q218 0 348 -192h21v160h303v-1049h-303v158h-21q-129 -191 -348 -191zM651 225q120 0 198.5 85t78.5 214t-78.5 213t-198.5 84
q-121 0 -199.5 -84t-78.5 -213t78.5 -214t199.5 -85z" />
    <glyph glyph-name="IJacute" horiz-adv-x="1562" 
d="M174 1602l227 247h301l-268 -247h-260zM1102 1602l225 247h301l-268 -247h-258zM147 0v1458h340v-1458h-340zM934 -33q-161 0 -289 41v260q96 -26 197 -26q108 0 175.5 71t67.5 189v956h340v-991q0 -220 -138 -360t-353 -140z" />
    <glyph glyph-name="ijacute" horiz-adv-x="1083" 
d="M131 1208l221 312h289l-270 -312h-240zM668 1208l221 312h291l-273 -312h-239zM117 0v1049h303v-1049h-303zM623 -451q-127 0 -228 33v213q49 -14 125 -14q66 0 107 40.5t41 106.5v1121h303v-1133q0 -165 -95.5 -266t-252.5 -101z" />
    <glyph glyph-name="acute.case" horiz-adv-x="665" 
d="M70 1602l225 247h301l-268 -247h-258z" />
    <glyph glyph-name="breve.case" horiz-adv-x="815" 
d="M408 1581q-147 0 -242.5 75.5t-95.5 192.5h225q0 -51 30.5 -80.5t82.5 -29.5q54 0 84 29.5t30 80.5h223q0 -117 -94.5 -192.5t-242.5 -75.5z" />
    <glyph glyph-name="caron.case" horiz-adv-x="884" 
d="M287 1602l-217 247h227l135 -120h23l135 120h227l-217 -247h-313z" />
    <glyph glyph-name="caron.alt1" horiz-adv-x="421" 
d="M186 1012l-77 32l84 158q-54 8 -88.5 45.5t-34.5 89.5q0 62 40 102t101 40t101 -39t40 -99q0 -56 -41 -120z" />
    <glyph glyph-name="circumflex.case" horiz-adv-x="884" 
d="M285 1851h313l217 -249h-225l-135 122h-23l-137 -122h-227z" />
    <glyph glyph-name="dieresis.case" horiz-adv-x="952" 
d="M225 1583q-68 0 -111.5 43.5t-43.5 110.5q0 65 44 107t111 42q69 0 113.5 -42t44.5 -107q0 -67 -44.5 -110.5t-113.5 -43.5zM727 1583q-68 0 -112 43.5t-44 110.5q0 64 44 106.5t112 42.5q69 0 113.5 -42t44.5 -107q0 -67 -44.5 -110.5t-113.5 -43.5z" />
    <glyph glyph-name="dotaccent.case" horiz-adv-x="477" 
d="M238 1602q-73 0 -120.5 42.5t-47.5 108.5t47.5 109t120.5 43q75 0 122.5 -43t47.5 -109t-47.5 -108.5t-122.5 -42.5z" />
    <glyph glyph-name="grave.case" horiz-adv-x="663" 
d="M596 1602h-258l-270 247h301z" />
    <glyph glyph-name="hungarumlaut.case" horiz-adv-x="974" 
d="M70 1602l190 247h266l-233 -247h-223zM436 1602l207 247h262l-248 -247h-221z" />
    <glyph glyph-name="ring.case" horiz-adv-x="591" 
d="M297 1577q-101 0 -164 54.5t-63 140.5t63 140t164 54t163 -54t62 -140q0 -87 -62 -141t-163 -54zM297 1677q44 0 73 27t29 68t-29 67.5t-73 26.5q-46 0 -74 -26.5t-28 -67.5q0 -42 28.5 -68.5t73.5 -26.5z" />
    <glyph glyph-name="tilde.case" horiz-adv-x="954" 
d="M623 1630q-51 0 -97.5 17.5t-74.5 38t-61 38t-62 17.5q-36 0 -71 -24.5t-60 -65.5l-127 96q94 158 258 158q50 0 96 -17.5t74.5 -38t64 -38t66.5 -17.5q39 0 73.5 24.5t55.5 65.5l129 -88q-103 -166 -264 -166z" />
    <glyph glyph-name="uni0432.alt1" horiz-adv-x="1232" 
d="M641 -53q-239 0 -389 141.5t-150 364.5v565q0 229 142 376.5t366 147.5q186 0 308 -101.5t122 -258.5q0 -97 -49 -186.5t-125 -139.5q132 -41 215.5 -158.5t83.5 -275.5q0 -212 -146 -343.5t-378 -131.5zM408 848q168 51 258 128t90 169q0 67 -43 107t-113 40
q-87 0 -139.5 -59t-52.5 -154v-231zM637 215q98 0 160.5 63.5t62.5 165.5q0 101 -63 173.5t-160 78.5q-123 -50 -229 -86v-159q0 -102 64 -169t165 -67z" />
    <glyph glyph-name="uni0433.alt" horiz-adv-x="1144" 
d="M571 -37q-232 0 -364.5 94.5t-132.5 261.5q0 60 17.5 108.5t51.5 81t72 55.5t91.5 37.5t96 22.5t99.5 15q146 16 187 28q89 26 89 93q0 57 -52 91t-134 34q-93 0 -150 -42t-57 -112h-276q0 161 134.5 257.5t346.5 96.5t340.5 -95t128.5 -255q0 -56 -16 -101.5t-39 -76.5
t-63 -55.5t-73.5 -38t-86.5 -24.5t-86 -15t-87 -10q-48 -4 -75 -8t-62.5 -12.5t-54 -20t-32 -32t-13.5 -48.5q0 -60 52 -94.5t140 -34.5q109 0 173.5 51t66.5 135h266q0 -181 -133 -284t-365 -103z" />
    <glyph glyph-name="uni0414.alt1" horiz-adv-x="1783" 
d="M47 -307v581h193l395 1184h526l391 -1184h185v-581h-277v307h-1136v-307h-277zM586 274h618l-297 918h-20z" />
    <glyph glyph-name="uni0434.alt1" horiz-adv-x="1335" 
d="M649 -504q-230 0 -379.5 96.5t-187.5 272.5l293 57q29 -87 98.5 -135.5t167.5 -48.5q126 0 201.5 76.5t75.5 205.5v117h-21q-132 -151 -332 -151q-220 0 -357.5 148t-137.5 390q0 252 136.5 403.5t356.5 151.5q210 0 342 -164h21v134h295v-1037q0 -242 -154 -379
t-418 -137zM651 233q121 0 199 82.5t78 208.5q0 129 -78 213t-199 84t-199.5 -84t-78.5 -213q0 -126 78.5 -208.5t199.5 -82.5z" />
    <glyph glyph-name="uni0437.alt1" horiz-adv-x="1157" 
d="M575 -512q-242 0 -400.5 137.5t-158.5 349.5h297q0 -103 70.5 -166t179.5 -63t177.5 66t68.5 168q0 95 -59.5 152.5t-153.5 57.5h-190v234h190q86 0 142.5 56.5t56.5 142.5q0 91 -63.5 149.5t-162.5 58.5q-98 0 -163.5 -58.5t-65.5 -147.5h-287q0 198 149.5 331.5
t375.5 133.5q216 0 358.5 -122t142.5 -309q0 -122 -63.5 -213.5t-165.5 -119.5v-21q114 -29 186 -132.5t72 -238.5q0 -194 -151.5 -320t-381.5 -126z" />
    <glyph glyph-name="uni0436.alt" horiz-adv-x="1685" 
d="M6 0l402 545l-388 504h347l305 -412h20v883h303v-883h21l305 412h346l-387 -504l401 -545h-354l-311 451h-21v-451h-303v451h-20l-312 -451h-354z" />
    <glyph glyph-name="uni0438.alt1" 
d="M1124 1049v-1049h-303v147h-20q-117 -178 -305 -178q-177 0 -286.5 123t-109.5 314v643h303v-600q0 -98 53 -159t144 -61q92 0 156.5 65.5t64.5 164.5v590h303z" />
    <glyph glyph-name="uni0439.alt1" 
d="M608 1221q-133 0 -219 84t-86 215h199q0 -64 28 -101t78 -37t78.5 37t28.5 101h200q0 -130 -86.5 -214.5t-220.5 -84.5zM1124 1049v-1049h-303v147h-20q-117 -178 -305 -178q-177 0 -286.5 123t-109.5 314v643h303v-600q0 -98 53 -159t144 -61q92 0 156.5 65.5
t64.5 164.5v590h303z" />
    <glyph glyph-name="uni043A.alt1" horiz-adv-x="1153" 
d="M117 0v1520h303v-879h20l336 408h367l-436 -504l444 -545h-369l-342 446h-20v-446h-303z" />
    <glyph glyph-name="uni041B.alt1" horiz-adv-x="1542" 
d="M37 0l475 1458h526l469 -1458h-354l-369 1192h-20l-373 -1192h-354z" />
    <glyph glyph-name="uni043B.alt1" horiz-adv-x="1222" 
d="M14 0l369 1049h455l372 -1049h-323l-264 817h-21l-264 -817h-324z" />
    <glyph glyph-name="uni0442.alt1" horiz-adv-x="1908" 
d="M115 0v1049h301v-156h20q45 86 125 137t178 51q103 0 192 -54.5t130 -143.5h20q48 92 133.5 144t196.5 52q174 0 285.5 -120t111.5 -310v-649h-303v598q0 96 -54.5 159t-141.5 64q-89 0 -145 -62.5t-56 -160.5v-598h-305v598q0 101 -51.5 162t-137.5 61q-89 0 -142.5 -61
t-53.5 -162v-598h-303z" />
    <glyph glyph-name="uni043F.alt1" 
d="M117 0v1049h303v-148h20q117 178 305 178q177 0 286.5 -122.5t109.5 -313.5v-643h-303v600q0 98 -53 158.5t-144 60.5q-92 0 -156.5 -65.5t-64.5 -163.5v-590h-303z" />
    <glyph glyph-name="uni0446.alt1" horiz-adv-x="1310" 
d="M1049 -307v307h-228v143h-18q-118 -174 -307 -174q-177 0 -287.5 123t-110.5 314v645h303v-602q0 -98 53 -159t144 -61q93 0 158 65.5t65 164.5v590h303v-799h174v-557h-249z" />
    <glyph glyph-name="uni0448.alt1" horiz-adv-x="1908" 
d="M1794 1049v-1049h-301v156h-20q-45 -86 -125.5 -137.5t-178.5 -51.5q-103 0 -191.5 55t-129.5 144h-21q-48 -93 -133 -145t-196 -52q-174 0 -286 120t-112 310v650h303v-598q0 -96 55 -159.5t142 -66.5q89 0 145 63.5t56 162.5v598h305v-598q0 -102 51 -164t137 -62
q89 0 143 62t54 164v598h303z" />
    <glyph glyph-name="uni0449.alt1" horiz-adv-x="1978" 
d="M1716 -307v307h-225v156h-21q-44 -86 -122.5 -137.5t-176.5 -51.5q-105 0 -196.5 55t-132.5 144h-21q-48 -93 -131.5 -145t-193.5 -52q-174 0 -286 120t-112 310v650h303v-598q0 -96 55 -159.5t142 -66.5q89 0 145 63.5t56 162.5v598h305v-598q0 -102 51 -164t137 -62
q89 0 143 62t54 164v598h303v-799h174v-557h-250z" />
    <glyph glyph-name="uni044A.alt1" horiz-adv-x="1208" 
d="M707 0q-202 0 -326.5 105.5t-124.5 277.5v424h-242v242h545v-283h182q193 0 313 -105t120 -274q0 -172 -130 -279.5t-337 -107.5zM709 240q70 0 114.5 40t44.5 103t-43.5 103t-115.5 40h-158v-145q0 -62 45 -101.5t113 -39.5z" />
    <glyph glyph-name="uni044C.alt1" horiz-adv-x="1054" 
d="M549 0q-202 0 -326.5 105.5t-124.5 277.5v666h303v-283h183q193 0 312.5 -105t119.5 -274q0 -172 -130 -279.5t-337 -107.5zM551 240q70 0 115 40t45 103t-44 103t-116 40h-158v-145q0 -62 45 -101.5t113 -39.5z" />
    <glyph glyph-name="uni044E.alt1" horiz-adv-x="1677" 
d="M1065 -43q-206 0 -350 121t-178 321h-119v-405h-303v1526h303v-879h114q35 200 181 322t352 122q242 0 393.5 -156.5t151.5 -406.5q0 -252 -151.5 -408.5t-393.5 -156.5zM1065 223q117 0 188.5 82t71.5 217q0 134 -71.5 215.5t-188.5 81.5t-187.5 -81.5t-70.5 -215.5
q0 -135 70.5 -217t187.5 -82z" />
    <glyph glyph-name="uni0424.alt1" horiz-adv-x="1923" 
d="M791 -123v123q-157 9 -290 65.5t-226.5 151t-146 226.5t-52.5 286q0 312 198 512t519 217v111h340v-111q157 -7 289.5 -63.5t225.5 -151.5t145 -227t52 -287q0 -207 -89.5 -369.5t-252 -256t-373.5 -103.5v-123h-339zM793 266v926q-167 -8 -275 -137t-108 -326t108 -326
t275 -137zM1133 266q166 5 273 134t107 329t-107 329t-273 134v-926z" />
    </font>
</defs>
</svg>
