<svg width="38" height="32" viewBox="0 0 38 32" fill="none" xmlns="http://www.w3.org/2000/svg">
<g clip-path="url(#clip0_102_2303)">
<path fill-rule="evenodd" clip-rule="evenodd" d="M13.1092 32C10.5341 31.9304 8.06338 31.2145 6.0202 29.8524V29.4597L6.80565 28.0976C7.84465 28.883 9.02284 29.4945 10.3502 29.8524C11.245 30.101 12.1746 30.2103 13.1042 30.2103V32H13.1092ZM6.0202 27.9186V27.4513C6.05499 27.4861 6.12956 27.5607 6.19916 27.5955L6.0202 27.9186ZM6.0202 29.8524C5.9506 29.8176 5.91083 29.7828 5.84123 29.743L6.0202 29.4547V29.8474V29.8524ZM6.0202 27.4563V27.9236L5.19497 29.3205C3.79804 28.2467 2.58008 26.8498 1.68526 25.1347V22.9871L2.68945 22.4154C3.40531 24.384 4.5139 26.1041 6.0202 27.4612V27.4563ZM1.69023 22.0823V15.4954L2.01336 15.6744C1.72503 17.7126 1.90399 19.7558 2.48066 21.6498L1.6952 22.0774L1.69023 22.0823ZM1.69023 15.4954V22.0823L0.686033 22.6888C0.00497062 20.402 -0.208794 17.7176 0.223706 14.6404L1.69023 15.5004V15.4954ZM1.69023 22.9772V25.1247C1.44166 24.5878 1.15333 24.0161 0.939568 23.4445L1.69023 22.9772Z" fill="#D3AE4E"/>
<path fill-rule="evenodd" clip-rule="evenodd" d="M24.8464 6.19419C25.2739 6.76588 25.6318 7.37735 25.955 8.01864L24.8464 8.62514V6.18922V6.19419ZM24.8464 12.9253V9.52493L26.2433 8.69971C26.6708 9.41557 27.6054 12.0652 27.7446 15.4308H25.3485C25.2789 14.6453 25.0999 13.7853 24.8464 12.9253ZM21.4112 2.65465C22.7336 3.61908 23.8819 4.80224 24.8464 6.19916V8.63508L23.345 9.52991C22.485 8.20755 21.3764 7.05919 20.1585 6.23893V4.80721L21.4112 2.65962V2.65465ZM24.8464 9.52493V12.9253C24.5978 12.0304 24.2399 11.1008 23.7726 10.1712L24.8464 9.52493ZM20.1585 3.26115L20.765 2.18735C20.5512 2.07799 20.3722 1.93879 20.1585 1.82942V3.26115ZM20.1585 6.23396C19.9447 6.08979 19.7657 5.9854 19.552 5.84123L20.1585 4.80224V6.23396ZM20.1585 1.82942C18.2594 0.715861 16.0771 0.0347988 13.7853 0V4.76247C14.8939 4.6531 16.0423 4.69287 17.2204 4.94143C17.7921 5.0856 18.329 5.26456 18.8659 5.47833L20.1535 3.26115V1.82445L20.1585 1.82942Z" fill="#D3AE4E"/>
<path fill-rule="evenodd" clip-rule="evenodd" d="M26.5316 22.7982L25.4578 22.1171V16.1765H27.7496C27.7496 18.2545 27.4612 20.5412 26.5316 22.7982ZM25.4578 24.911V23.0517L26.2085 23.4793C25.9947 23.9814 25.7064 24.4437 25.4578 24.911ZM25.4578 22.1171L25.0999 21.9034L24.7072 21.6548C24.7072 21.6548 25.602 19.3979 25.423 16.1765H25.4578V22.1171ZM25.4578 23.0468V24.906C24.4536 26.5515 23.1661 27.9832 21.6995 29.1316L20.8395 27.6651V27.1282C22.2712 25.8754 23.4892 24.2647 24.3095 22.4055L25.4528 23.0517L25.4578 23.0468ZM20.8395 29.7381V29.236L21.0533 29.5939C20.9837 29.6287 20.9091 29.7033 20.8395 29.7381ZM20.8395 27.1232V27.6601L20.6257 27.3022C20.6953 27.2326 20.7699 27.1928 20.8395 27.1232ZM20.8395 29.236V29.7381C18.8013 31.1002 16.4002 31.9205 13.8599 31.995V30.1706C16.0422 29.9916 18.155 29.1664 20.0143 27.8092L20.8395 29.241V29.236Z" fill="#D3AE4E"/>
<path fill-rule="evenodd" clip-rule="evenodd" d="M9.56471 17.3248L17.6529 23.2307L31.9006 13.8897L33.2975 16.0025L35.5147 11.5284L37.7319 7.05422L32.7556 7.37735L27.7794 7.70048L29.2111 9.84807L17.8269 17.4342L9.55974 11.3842V17.3248H9.56471ZM9.56471 6.33836V0.606494C10.6733 0.248563 11.8217 0.0347988 13.0346 0V4.90166C11.7471 5.15023 10.5639 5.65232 9.56471 6.33338V6.33836ZM8.09819 7.41215L6.09477 3.79804L5.48827 2.72425C5.48827 2.72425 2.51049 4.83206 1.04397 7.80488C0.720835 8.45114 0.576669 8.98804 0.54187 9.45037V9.62933C0.576669 10.8125 1.4715 11.5284 2.44089 12.1696L9.56471 17.3248V11.3842L6.41293 9.12723C6.94982 8.52074 7.52152 7.90927 8.09321 7.40718L8.09819 7.41215ZM9.56471 0.606494V6.33338C9.27637 6.51235 8.99301 6.69132 8.73948 6.90508L6.0898 2.25695C7.16359 1.54109 8.30698 1.00419 9.55974 0.611465L9.56471 0.606494Z" fill="#D3AE4E"/>
</g>
<defs>
<clipPath id="clip0_102_2303">
<rect width="37.7319" height="32" fill="white"/>
</clipPath>
</defs>
</svg>
