<svg width="138" height="32" viewBox="0 0 138 32" fill="none" xmlns="http://www.w3.org/2000/svg">
<path d="M6.31732 14.4052L6.24618 13.9022L6.68761 13.862C7.23554 13.8083 7.64609 13.7413 7.91924 13.6608C8.20404 13.5669 8.38072 13.3791 8.44928 13.0975C8.52949 12.8024 8.52312 12.3262 8.43017 11.669L6.86517 0.60357H3.99952C3.37625 0.60357 2.89878 0.724284 2.5671 0.965711C2.24706 1.19373 1.98855 1.56928 1.79155 2.09237C1.60809 2.61547 1.40188 3.31292 1.1729 4.18475L0.731873 4.08415L0.889978 1.60952L0.885905 0L6.68673 0.0603573H8.61749L14.4216 0L14.8728 1.60952L15.7308 4.08415L15.3008 4.20487C14.8791 3.42693 14.4949 2.76971 14.148 2.23321C13.8147 1.6967 13.4529 1.29432 13.0627 1.02607C12.6706 0.744402 12.1832 0.60357 11.6006 0.60357H8.5927L10.1577 11.669C10.2506 12.3262 10.3722 12.8024 10.5223 13.0975C10.6841 13.3791 10.9207 13.5669 11.232 13.6608C11.5415 13.7413 11.971 13.8083 12.5205 13.862L12.9734 13.9022L13.0445 14.4052L9.72318 14.3448L6.31732 14.4052Z" fill="white"/>
<path d="M17.2544 14.4052L17.1832 13.9022L17.584 13.862C18.0507 13.8083 18.4002 13.7413 18.6327 13.6608C18.8769 13.5669 19.0265 13.3791 19.0815 13.0975C19.1346 12.8024 19.1147 12.3262 19.0217 11.669L17.7584 2.73618C17.6635 2.06555 17.5487 1.5894 17.4141 1.30773C17.2794 1.02607 17.0776 0.844997 16.8088 0.764522C16.5516 0.670633 16.1822 0.596863 15.7004 0.543212L15.2882 0.502975L15.217 0L18.2335 0.0603573H18.2538L21.2532 0L21.3244 0.502975L20.9236 0.543212C20.4705 0.596863 20.1219 0.670633 19.8777 0.764522C19.6317 0.844997 19.4811 1.02607 19.4261 1.30773C19.3711 1.5894 19.391 2.06555 19.4859 2.73618L20.7493 11.669C20.8422 12.3262 20.957 12.8024 21.0935 13.0975C21.2282 13.3791 21.4309 13.5669 21.7016 13.6608C21.9705 13.7413 22.339 13.8083 22.8073 13.862L23.2194 13.9022L23.2906 14.4052L20.2741 14.3448H20.2538L17.2544 14.4052Z" fill="white"/>
<path d="M24.0009 14.4052L23.9298 13.9022L24.3306 13.862C24.7972 13.8083 25.1468 13.7413 25.3793 13.6608C25.6234 13.5669 25.773 13.3791 25.828 13.0975C25.8812 12.8024 25.8612 12.3262 25.7683 11.669L24.5049 2.73618C24.4101 2.06555 24.2953 1.5894 24.1606 1.30773C24.0259 1.02607 23.8242 0.844997 23.5554 0.764522C23.2982 0.670633 22.9287 0.596863 22.4469 0.543212L22.0347 0.502975L21.9636 0L24.9801 0.0603573H26.1182L32.5971 11.669L36.3004 0.0603573H37.5198L40.3566 0L40.4278 0.502975L40.027 0.543212C39.5739 0.596863 39.2253 0.670633 38.9811 0.764522C38.7351 0.844997 38.5846 1.02607 38.5295 1.30773C38.4745 1.5894 38.4945 2.06555 38.5893 2.73618L39.8527 11.669C39.9456 12.3262 40.0604 12.8024 40.197 13.0975C40.3336 13.3925 40.5363 13.5803 40.8051 13.6608C41.0739 13.7413 41.4424 13.8083 41.9107 13.862L42.3228 13.9022L42.394 14.4052L39.3775 14.3448L36.3578 14.4052L36.2867 13.9022L36.6875 13.862C37.1541 13.8083 37.5037 13.7413 37.7362 13.6608C37.9822 13.5803 38.1318 13.3925 38.1849 13.0975C38.238 12.8024 38.2181 12.3262 38.1252 11.669L36.6626 1.32785L32.4878 14.3448H32.1016L25.0455 1.52904L26.5593 12.2323C26.62 12.6615 26.7197 12.9834 26.8585 13.198C26.9972 13.4126 27.1952 13.5669 27.4523 13.6608C27.7211 13.7413 28.0829 13.8083 28.5376 13.862L28.9498 13.9022L29.0209 14.4052L26.4313 14.3448L24.0009 14.4052Z" fill="white"/>
<path d="M43.2165 14.4052L43.1453 13.9022L43.5461 13.862C44.0127 13.8083 44.3623 13.7413 44.5948 13.6608C44.839 13.5669 44.9886 13.3791 45.0436 13.0975C45.0967 12.8024 45.0768 12.3262 44.9838 11.669L43.7204 2.73618C43.6256 2.06555 43.5108 1.5894 43.3761 1.30773C43.2415 1.02607 43.0397 0.844997 42.7709 0.764522C42.5137 0.670633 42.1442 0.596863 41.6624 0.543212L41.2503 0.502975L41.1791 0L44.1956 0.0603573H52.0812L52.3267 1.50892L52.7511 3.35987H52.2633C52.0831 2.7563 51.8861 2.27344 51.6723 1.9113C51.4721 1.54916 51.2173 1.28091 50.9081 1.10654C50.597 0.918766 50.1938 0.798053 49.6985 0.744402C49.2148 0.677339 48.5935 0.643807 47.8348 0.643807H45.152L45.9857 6.53867H48.262C48.533 6.53867 48.7616 6.47831 48.9477 6.35759C49.132 6.22347 49.2604 5.98204 49.3331 5.63331C49.4192 5.28458 49.4294 4.78161 49.3635 4.12439H49.8716L50.192 6.82033L50.6741 9.79794H50.166C50.0275 8.81882 49.8078 8.12806 49.5071 7.72568C49.2044 7.30989 48.8159 7.102 48.3417 7.102H46.0654L46.7853 12.1921C46.8764 12.8359 47.0793 13.2651 47.3942 13.4797C47.7072 13.6809 48.2498 13.7815 49.0222 13.7815H50.9123C51.6981 13.7815 52.2955 13.6943 52.7044 13.5199C53.1269 13.3456 53.4095 12.9969 53.5523 12.4738C53.6932 11.9373 53.7313 11.1526 53.6665 10.1198H54.1746L54.3738 12.5341L54.5689 14.3448H46.2158L43.2165 14.4052Z" fill="white"/>
<path d="M63.1247 14.4052L63.0536 13.9022L63.495 13.862C64.043 13.8083 64.4535 13.7413 64.7267 13.6608C65.0115 13.5669 65.1881 13.3791 65.2567 13.0975C65.3369 12.8024 65.3305 12.3262 65.2376 11.669L63.6726 0.60357H60.8069C60.1837 0.60357 59.7062 0.724284 59.3745 0.965711C59.0545 1.19373 58.796 1.56928 58.599 2.09237C58.4155 2.61547 58.2093 3.31292 57.9803 4.18475L57.5393 4.08415L57.6974 1.60952L57.6933 0L63.4942 0.0603573H65.4249L71.229 0L71.6802 1.60952L72.5383 4.08415L72.1082 4.20487C71.6866 3.42693 71.3023 2.76971 70.9555 2.23321C70.6221 1.6967 70.2604 1.29432 69.8701 1.02607C69.478 0.744402 68.9907 0.60357 68.4081 0.60357H65.4001L66.9651 11.669C67.0581 12.3262 67.1796 12.8024 67.3297 13.0975C67.4915 13.3791 67.7281 13.5669 68.0394 13.6608C68.3489 13.7413 68.7784 13.8083 69.328 13.862L69.7808 13.9022L69.8519 14.4052L66.5306 14.3448L63.1247 14.4052Z" fill="white"/>
<path d="M85.6082 14.5661C84.863 14.5661 84.2724 14.318 83.8363 13.8217C83.412 13.3121 83.0934 12.6884 82.8807 11.9507C82.7371 11.4142 82.5528 10.8777 82.3279 10.3412C82.1165 9.80464 81.8237 9.31508 81.4495 8.87247C81.0869 8.41644 80.6089 8.05429 80.0154 7.78604C79.4355 7.51779 78.7052 7.38366 77.8245 7.38366H76.9506L77.5567 11.669C77.6496 12.3262 77.7644 12.8024 77.901 13.0975C78.0357 13.3791 78.2383 13.5669 78.5091 13.6608C78.7779 13.7413 79.1464 13.8083 79.6147 13.862L80.0268 13.9022L80.098 14.4052L77.0815 14.3448H77.0612L74.0618 14.4052L73.9907 13.9022L74.3915 13.862C74.8581 13.8083 75.2077 13.7413 75.4402 13.6608C75.6843 13.5669 75.8339 13.3791 75.8889 13.0975C75.942 12.8024 75.9221 12.3262 75.8291 11.669L74.5658 2.73618C74.4709 2.06555 74.3562 1.5894 74.2215 1.30773C74.0868 1.02607 73.8851 0.844997 73.6162 0.764522C73.3591 0.670633 72.9896 0.596863 72.5078 0.543212L72.0956 0.502975L72.0245 0L75.0409 0.0603573H77.8863C78.8076 0.0603573 79.6764 0.167659 80.4926 0.382261C81.3069 0.583451 81.9872 0.938886 82.5335 1.44857C83.0934 1.95825 83.4378 2.66912 83.5668 3.58118C83.6806 4.38594 83.5907 5.04316 83.2969 5.55284C83.0148 6.0491 82.5947 6.43137 82.0364 6.69962C81.4899 6.95446 80.8787 7.13553 80.2028 7.24283C81.2149 7.30989 82.0763 7.65192 82.7868 8.2689C83.509 8.87247 84.0416 9.76441 84.3847 10.9447C84.6128 11.6958 84.8453 12.286 85.0822 12.7152C85.3307 13.131 85.5757 13.4261 85.8171 13.6004C86.0702 13.7614 86.3119 13.8419 86.5423 13.8419C86.6913 13.8419 86.8298 13.815 86.9577 13.7614C87.0991 13.7077 87.2203 13.6541 87.3211 13.6004L87.5345 14.1034C87.3329 14.2107 87.0558 14.3113 86.7032 14.4052C86.3526 14.5125 85.9875 14.5661 85.6082 14.5661ZM78.0009 0.583451H75.9888L76.8738 6.84045H78.581C79.8817 6.84045 80.7525 6.5789 81.1934 6.05581C81.6478 5.53272 81.8011 4.74808 81.6531 3.70189C81.5127 2.70935 81.1675 1.94483 80.6174 1.40833C80.0654 0.85841 79.1932 0.583451 78.0009 0.583451Z" fill="white"/>
<path d="M86.2625 14.4052L86.1913 13.9022L86.3714 13.8821C86.8361 13.815 87.209 13.7211 87.49 13.6004C87.7846 13.4797 88.0213 13.2852 88.2001 13.017C88.3906 12.7353 88.5533 12.353 88.6883 11.8702L91.9364 0.0603573H92.6274L99.0941 11.8702C99.458 12.5274 99.8176 13.0103 100.173 13.3188C100.528 13.6272 100.981 13.8083 101.53 13.862L101.942 13.9022L102.013 14.4052L99.4847 14.3448L96.2414 14.4052L96.1703 13.9022L96.5711 13.862C97.0377 13.8083 97.3622 13.7077 97.5446 13.5602C97.727 13.4126 97.7992 13.2048 97.7612 12.9365C97.7233 12.6682 97.5772 12.3061 97.3231 11.8501L95.8963 9.23461H90.165L89.4374 11.8501C89.3767 12.0915 89.3267 12.3128 89.2874 12.514C89.2463 12.7018 89.2361 12.8694 89.257 13.017C89.293 13.2718 89.4289 13.4663 89.6647 13.6004C89.914 13.7346 90.2989 13.8217 90.8195 13.862L91.2316 13.9022L91.3028 14.4052L88.7131 14.3448L86.2625 14.4052ZM90.3382 8.5908H95.5614L92.0986 2.21309L90.3382 8.5908Z" fill="white"/>
<path d="M106.129 14.546L99.0482 2.13261C98.8133 1.71682 98.5423 1.3815 98.2353 1.12666C97.9399 0.85841 97.5349 0.677339 97.0203 0.583451L96.6025 0.502975L96.5313 0L99.5681 0.0603573L102.588 0L102.659 0.502975L102.058 0.563331C101.643 0.603569 101.32 0.710871 101.087 0.885235C100.866 1.04619 100.779 1.29432 100.827 1.62964C100.861 1.87107 100.978 2.17285 101.178 2.53499L106.647 12.172L109.224 2.51487C109.278 2.32709 109.309 2.15944 109.315 2.0119C109.333 1.85095 109.333 1.71011 109.316 1.5894C109.271 1.2675 109.129 1.03277 108.891 0.885235C108.652 0.724283 108.34 0.623688 107.955 0.583451L107.232 0.502975L107.161 0L110.015 0.0603573L112.038 0L112.107 0.482856L111.653 0.583451C111.154 0.690752 110.783 0.898647 110.543 1.20714C110.302 1.51563 110.107 1.95825 109.958 2.53499L106.779 14.546H106.129Z" fill="white"/>
<path d="M113.779 14.4052L113.708 13.9022L114.109 13.862C114.575 13.8083 114.925 13.7413 115.157 13.6608C115.401 13.5669 115.551 13.3791 115.606 13.0975C115.659 12.8024 115.639 12.3262 115.546 11.669L114.283 2.73618C114.188 2.06555 114.073 1.5894 113.939 1.30773C113.804 1.02607 113.602 0.844997 113.333 0.764522C113.076 0.670633 112.707 0.596863 112.225 0.543212L111.813 0.502975L111.742 0L114.758 0.0603573H122.644L122.889 1.50892L123.314 3.35987H122.826C122.646 2.7563 122.449 2.27344 122.235 1.9113C122.035 1.54916 121.78 1.28091 121.471 1.10654C121.16 0.918766 120.756 0.798053 120.261 0.744402C119.777 0.677339 119.156 0.643807 118.397 0.643807H115.715L116.548 6.53867H118.825C119.096 6.53867 119.324 6.47831 119.51 6.35759C119.695 6.22347 119.823 5.98204 119.896 5.63331C119.982 5.28458 119.992 4.78161 119.926 4.12439H120.434L120.754 6.82033L121.237 9.79794H120.728C120.59 8.81882 120.37 8.12806 120.07 7.72568C119.767 7.30989 119.378 7.102 118.904 7.102H116.628L117.348 12.1921C117.439 12.8359 117.642 13.2651 117.957 13.4797C118.27 13.6809 118.812 13.7815 119.585 13.7815H121.475C122.261 13.7815 122.858 13.6943 123.267 13.5199C123.689 13.3456 123.972 12.9969 124.115 12.4738C124.256 11.9373 124.294 11.1526 124.229 10.1198H124.737L124.936 12.5341L125.131 14.3448H116.778L113.779 14.4052Z" fill="white"/>
<path d="M126.165 14.4052L126.093 13.9022L126.494 13.862C126.961 13.8083 127.31 13.7413 127.543 13.6608C127.789 13.5803 127.939 13.3925 127.992 13.0975C128.045 12.8024 128.025 12.3262 127.932 11.669L126.669 2.73618C126.574 2.06555 126.459 1.5894 126.324 1.30773C126.188 1.01266 125.985 0.824878 125.716 0.744402C125.459 0.650514 125.09 0.583451 124.611 0.543212L124.198 0.502975L124.127 0L127.184 0.0603573L129.798 0L129.863 0.462736L129.544 0.502975C129.156 0.543212 128.86 0.603569 128.655 0.684046C128.463 0.764521 128.345 0.938886 128.302 1.20714C128.257 1.46198 128.277 1.89118 128.362 2.49475L129.548 10.8844C129.641 11.5416 129.752 12.0848 129.881 12.514C130.023 12.9432 130.277 13.2584 130.644 13.4596C131.012 13.6608 131.575 13.7614 132.333 13.7614H133.858C135.036 13.7614 135.84 13.4529 136.267 12.8359C136.706 12.2055 136.89 11.3002 136.818 10.1198H137.265L137.668 14.4052L129.164 14.3448L126.165 14.4052Z" fill="white"/>
<path d="M2.79779 31.8426L2.92664 31.3507L3.36405 31.3114C3.87607 31.2589 4.27052 31.1933 4.54739 31.1146C4.84194 31.0228 5.07512 30.8392 5.24694 30.5638C5.42219 30.2752 5.594 29.8096 5.76237 29.1669L8.05082 20.4314C8.22263 19.7756 8.29478 19.3099 8.26728 19.0345C8.23978 18.7591 8.1011 18.582 7.85122 18.5033C7.61902 18.4115 7.26065 18.3393 6.77611 18.2869L6.35932 18.2475L6.48818 17.7556L9.63323 17.8147H12.2385C12.6229 17.8147 13.0679 17.8278 13.5736 17.854C14.0792 17.8803 14.5745 17.9458 15.0596 18.0508C15.5623 18.1426 16.0034 18.3065 16.3828 18.5426C16.78 18.7656 17.0606 19.0804 17.2245 19.487C17.4062 19.8805 17.4145 20.392 17.2496 21.0216C17.0915 21.625 16.7992 22.1431 16.3726 22.5759C15.9603 23.0087 15.4814 23.3694 14.936 23.658C14.4082 23.9334 13.8746 24.1499 13.3351 24.3073C14.0047 24.3597 14.6076 24.504 15.1437 24.7401C15.6797 24.9762 16.0676 25.3435 16.3071 25.8419C16.5644 26.3272 16.5848 26.983 16.3683 27.8093C16.169 28.5701 15.8369 29.2128 15.372 29.7374C14.9248 30.249 14.3912 30.6556 13.7712 30.9573C13.1546 31.2458 12.5017 31.4557 11.8125 31.5868C11.1232 31.718 10.444 31.7836 9.77492 31.7836H5.97376L2.79779 31.8426ZM12.7348 18.3656H10.3217L8.80127 24.1695H11.6415C12.5241 24.1695 13.2762 23.9072 13.8977 23.3826C14.5334 22.8579 14.9887 22.0709 15.2636 21.0216C15.4595 20.274 15.4791 19.71 15.3225 19.3296C15.1659 18.9492 14.8627 18.6935 14.413 18.5623C13.9776 18.4311 13.4182 18.3656 12.7348 18.3656ZM8.72337 31.2327H9.91924C10.6311 31.2327 11.2744 31.1409 11.8493 30.9573C12.4384 30.7736 12.9388 30.4392 13.3507 29.9538C13.7802 29.4554 14.1153 28.7471 14.3558 27.829C14.5895 26.9371 14.601 26.2682 14.3904 25.8222C14.1798 25.3762 13.7588 25.0811 13.1275 24.9368C12.4962 24.7926 11.668 24.7204 10.6429 24.7204H8.65695L7.47149 29.2456C7.26532 30.0325 7.26852 30.5638 7.4811 30.8392C7.71134 31.1015 8.12543 31.2327 8.72337 31.2327Z" fill="white"/>
<path d="M24.422 32C23.3543 32 22.4112 31.8229 21.5929 31.4688C20.7887 31.1146 20.1363 30.6162 19.6355 29.9735C19.149 29.3308 18.8358 28.5701 18.6959 27.6913C18.5594 26.7994 18.6303 25.8222 18.9086 24.7598C19.187 23.6974 19.6263 22.7267 20.2267 21.8479C20.827 20.9692 21.5388 20.2084 22.3621 19.5657C23.1996 18.923 24.1132 18.4246 25.1028 18.0704C26.1068 17.7163 27.1426 17.5392 28.2103 17.5392C29.2781 17.5392 30.214 17.7163 31.0181 18.0704C31.8365 18.4246 32.4889 18.923 32.9754 19.5657C33.4762 20.2084 33.7965 20.9692 33.9365 21.8479C34.0764 22.7267 34.0072 23.6974 33.7289 24.7598C33.4505 25.8222 33.0095 26.7994 32.4057 27.6913C31.8053 28.5701 31.0864 29.3308 30.2489 29.9735C29.4256 30.6162 28.512 31.1146 27.5081 31.4688C26.5185 31.8229 25.4897 32 24.422 32ZM24.5766 31.4098C25.8152 31.4098 26.8893 31.1409 27.799 30.6031C28.7086 30.0653 29.4703 29.3046 30.0839 28.3209C30.701 27.324 31.1899 26.137 31.5507 24.7598C31.9115 23.3826 32.0428 22.2021 31.9446 21.2184C31.8498 20.2215 31.4867 19.4608 30.8554 18.9361C30.2275 18.3983 29.2943 18.1295 28.0557 18.1295C26.8314 18.1295 25.7572 18.3983 24.8334 18.9361C23.9271 19.4608 23.1655 20.2215 22.5484 21.2184C21.9348 22.2021 21.4476 23.3826 21.0868 24.7598C20.726 26.137 20.593 27.324 20.6878 28.3209C20.786 29.3046 21.149 30.0653 21.7769 30.6031C22.4191 31.1409 23.3523 31.4098 24.5766 31.4098Z" fill="white"/>
<path d="M41.0437 32C39.976 32 39.0329 31.8229 38.2146 31.4688C37.4104 31.1146 36.758 30.6162 36.2573 29.9735C35.7707 29.3308 35.4575 28.5701 35.3176 27.6913C35.1811 26.7994 35.252 25.8222 35.5303 24.7598C35.8087 23.6974 36.248 22.7267 36.8484 21.8479C37.4488 20.9692 38.1606 20.2084 38.9838 19.5657C39.8213 18.923 40.7349 18.4246 41.7246 18.0704C42.7285 17.7163 43.7643 17.5392 44.832 17.5392C45.8998 17.5392 46.8357 17.7163 47.6398 18.0704C48.4582 18.4246 49.1106 18.923 49.5972 19.5657C50.0979 20.2084 50.4182 20.9692 50.5582 21.8479C50.6981 22.7267 50.6289 23.6974 50.3506 24.7598C50.0723 25.8222 49.6312 26.7994 49.0274 27.6913C48.427 28.5701 47.7081 29.3308 46.8706 29.9735C46.0473 30.6162 45.1338 31.1146 44.1298 31.4688C43.1402 31.8229 42.1115 32 41.0437 32ZM41.1983 31.4098C42.4369 31.4098 43.511 31.1409 44.4207 30.6031C45.3304 30.0653 46.092 29.3046 46.7056 28.3209C47.3227 27.324 47.8116 26.137 48.1724 24.7598C48.5332 23.3826 48.6645 22.2021 48.5663 21.2184C48.4715 20.2215 48.1085 19.4608 47.4771 18.9361C46.8492 18.3983 45.916 18.1295 44.6774 18.1295C43.4531 18.1295 42.379 18.3983 41.4551 18.9361C40.5488 19.4608 39.7872 20.2215 39.1702 21.2184C38.5565 22.2021 38.0693 23.3826 37.7085 24.7598C37.3477 26.137 37.2147 27.324 37.3095 28.3209C37.4077 29.3046 37.7707 30.0653 38.3986 30.6031C39.0408 31.1409 39.974 31.4098 41.1983 31.4098Z" fill="white"/>
<path d="M49.4097 31.8426L49.5385 31.3507L49.9759 31.3114C50.4879 31.2589 50.8824 31.1933 51.1593 31.1146C51.4538 31.0228 51.687 30.8392 51.8588 30.5638C52.0341 30.2752 52.2059 29.8096 52.3742 29.1669L54.6627 20.4314C54.8345 19.7756 54.9066 19.3099 54.8791 19.0345C54.8517 18.7591 54.713 18.582 54.4631 18.5033C54.2309 18.4115 53.8725 18.3393 53.388 18.2869L52.9712 18.2475L53.1 17.7556L56.2451 17.8147L59.1007 17.7556L58.9667 18.2672L58.5293 18.3065C58.0919 18.3459 57.7456 18.418 57.4903 18.523C57.235 18.6279 57.0269 18.8246 56.8659 19.1132C56.7049 19.4017 56.5471 19.8411 56.3924 20.4314L55.0111 25.7042L61.3092 20.4117C61.6941 20.0838 61.9815 19.8018 62.1715 19.5657C62.3757 19.3296 62.5001 19.1263 62.5448 18.9558C62.6376 18.6017 62.3651 18.3918 61.7274 18.3262L61.0595 18.2672L61.1935 17.7556L63.9115 17.8147L66.5109 17.7556L66.382 18.2475L65.6353 18.3262C65.1945 18.3787 64.7475 18.5361 64.2944 18.7984C63.8555 19.0607 63.3713 19.4149 62.8416 19.8608L58.5618 23.4809L61.3683 28.4192C61.7011 28.9964 62.0048 29.4948 62.2792 29.9145C62.5679 30.3342 62.8806 30.6621 63.2174 30.8982C63.5718 31.1212 63.9984 31.2589 64.4972 31.3114L64.9353 31.3507L64.8065 31.8426L61.576 31.7836L58.4 31.8426L58.5289 31.3507L58.8544 31.3311C59.548 31.2917 59.9395 31.1015 60.0289 30.7605C60.0976 30.4982 59.9999 30.1375 59.7358 29.6784L56.9411 24.8581L54.7482 26.7076L54.104 29.1669C53.9356 29.8096 53.8563 30.2752 53.8662 30.5638C53.8937 30.8392 54.0164 31.0228 54.2344 31.1146C54.4558 31.1933 54.7874 31.2589 55.2292 31.3114L55.6033 31.3507L55.4744 31.8426L52.607 31.7836H52.5856L49.4097 31.8426Z" fill="white"/>
<path d="M64.3839 31.8426L64.5127 31.3507L64.9501 31.3114C65.4622 31.2589 65.8566 31.1933 66.1335 31.1146C66.428 31.0228 66.6612 30.8392 66.833 30.5638C67.0083 30.2752 67.1801 29.8096 67.3485 29.1669L69.6369 20.4314C69.8087 19.7756 69.8809 19.3099 69.8534 19.0345C69.8259 18.7591 69.6872 18.582 69.4373 18.5033C69.2051 18.4115 68.8467 18.3393 68.3622 18.2869L67.9454 18.2475L68.0743 17.7556L71.2193 17.8147H71.2407L74.4166 17.7556L74.2878 18.2475L73.8504 18.2869C73.3526 18.3393 72.9564 18.4115 72.6619 18.5033C72.3708 18.582 72.1393 18.7591 71.9675 19.0345C71.7957 19.3099 71.6239 19.7756 71.4521 20.4314L69.1636 29.1669C68.9952 29.8096 68.9231 30.2752 68.9472 30.5638C68.9746 30.8392 69.1116 31.0228 69.3581 31.1146C69.6079 31.1933 69.968 31.2589 70.4383 31.3114L70.8551 31.3507L70.7263 31.8426L67.5812 31.7836H67.5599L64.3839 31.8426Z" fill="white"/>
<path d="M71.5529 31.8623L71.6818 31.3704L72.1192 31.3311C72.6312 31.2786 73.0257 31.213 73.3025 31.1343C73.5937 31.0556 73.8268 30.872 74.0021 30.5834C74.1773 30.2949 74.3509 29.8227 74.5227 29.1669L77.1822 19.0148C77.0919 18.8705 76.9409 18.7131 76.7293 18.5426C76.5212 18.359 76.168 18.2672 75.6697 18.2672H75.0291L75.1631 17.7556L79.2904 17.8147C79.4608 18.1426 79.6891 18.5754 79.9753 19.1132C80.2757 19.651 80.6034 20.2478 80.9584 20.9036C81.3276 21.5594 81.7058 22.2349 82.0932 22.93C82.484 23.6121 82.8585 24.2745 83.2169 24.9172C83.5895 25.5599 83.9224 26.137 84.2155 26.6485C84.5086 27.1601 84.7366 27.5667 84.8996 27.8684L86.8479 20.4314C87.0197 19.7756 87.0919 19.3099 87.0643 19.0345C87.0403 18.7459 86.9033 18.5623 86.6534 18.4836C86.4212 18.3918 86.0611 18.3262 85.5732 18.2869L85.1564 18.2475L85.2852 17.7556L88.0459 17.8147L90.6666 17.7556L90.5378 18.2475L90.1004 18.2869C89.6026 18.3393 89.2064 18.4115 88.9119 18.5033C88.6208 18.582 88.3893 18.7591 88.2175 19.0345C88.0457 19.3099 87.8739 19.7756 87.7021 20.4314L84.7281 31.7836H84.0875C83.9731 31.3507 83.7706 30.8195 83.4799 30.1899C83.207 29.5472 82.8783 28.8455 82.4939 28.0848C82.1095 27.324 81.7 26.5502 81.2656 25.7632C80.8487 24.9631 80.4251 24.1892 79.9945 23.4416C79.564 22.694 79.159 22.0119 78.7795 21.3954C78.4 20.779 78.0784 20.2674 77.8148 19.8608L75.3769 29.1669C75.205 29.8227 75.1312 30.2949 75.1552 30.5834C75.1793 30.872 75.3163 31.0556 75.5662 31.1343C75.816 31.213 76.1761 31.2786 76.6464 31.3311L77.0632 31.3704L76.9343 31.8623L74.2216 31.7836L71.5529 31.8623Z" fill="white"/>
<path d="M94.7185 32C93.4088 32 92.2902 31.7049 91.3628 31.1146C90.4497 30.5244 89.8137 29.6915 89.4548 28.616C89.1102 27.5404 89.1303 26.2682 89.5151 24.7991C89.7935 23.7367 90.2417 22.7595 90.8597 21.8676C91.4777 20.9757 92.2055 20.2084 93.043 19.5657C93.8805 18.923 94.7798 18.4246 95.741 18.0704C96.7022 17.7163 97.6669 17.5392 98.635 17.5392C99.2614 17.5392 99.8048 17.6114 100.265 17.7556C100.726 17.8999 101.095 18.0377 101.374 18.1688C101.707 18.3131 101.937 18.4115 102.066 18.4639C102.209 18.5164 102.373 18.5426 102.558 18.5426C102.757 18.5426 102.913 18.4639 103.025 18.3065C103.155 18.136 103.241 17.9721 103.282 17.8147H103.816L103.181 20.0772L102.62 22.3792H102.086C102.292 21.4872 102.235 20.7265 101.916 20.0969C101.614 19.4542 101.143 18.9689 100.503 18.641C99.8807 18.3 99.1851 18.1295 98.4163 18.1295C96.7506 18.1295 95.3537 18.7066 94.2256 19.8608C93.0975 21.0151 92.2534 22.6612 91.6933 24.7991C91.1023 27.0551 91.1073 28.7209 91.7082 29.7965C92.3091 30.872 93.4068 31.4098 95.0013 31.4098C95.7985 31.4098 96.5342 31.2917 97.2082 31.0556C97.8822 30.8195 98.447 30.5113 98.9025 30.1309C99.3615 29.7374 99.646 29.3308 99.756 28.9111L99.9003 28.3602C100.051 27.7831 100.01 27.3699 99.7766 27.1207C99.5571 26.8715 99.0645 26.7141 98.2986 26.6485L97.401 26.5698L97.5247 26.0976L101.049 26.1763L104.358 26.0976L104.235 26.5698L103.253 26.6485C102.862 26.6748 102.512 26.8125 102.205 27.0617C101.898 27.3109 101.663 27.7437 101.502 28.3602L101.409 28.7144C101.33 29.016 101.306 29.298 101.337 29.5604C101.382 29.8227 101.431 30.0457 101.482 30.2293L101.652 30.7212L101.084 31.0163C100.971 30.7408 100.834 30.5572 100.673 30.4654C100.529 30.3605 100.394 30.308 100.266 30.308C100.038 30.308 99.8176 30.3605 99.605 30.4654C99.3925 30.5703 99.1605 30.6949 98.9092 30.8392C98.6259 30.9966 98.2894 31.1671 97.8996 31.3507C97.5241 31.5344 97.0788 31.6852 96.5639 31.8033C96.0455 31.9344 95.4303 32 94.7185 32Z" fill="white"/>
<path d="M108.816 32C108.247 32 107.749 31.9147 107.324 31.7442C106.913 31.5737 106.545 31.4032 106.22 31.2327C105.948 31.0753 105.715 30.9573 105.522 30.8786C105.344 30.7999 105.176 30.7605 105.019 30.7605C104.82 30.7605 104.657 30.8392 104.53 30.9966C104.421 31.1409 104.321 31.3048 104.231 31.4885L104.089 31.7836H103.555L104.27 29.462L104.871 26.924H105.405L105.398 27.8487C105.403 28.4258 105.533 28.9898 105.787 29.5407C106.056 30.0916 106.45 30.5441 106.969 30.8982C107.503 31.2524 108.168 31.4294 108.966 31.4294C109.407 31.4294 109.849 31.3442 110.292 31.1737C110.753 30.99 111.16 30.7146 111.513 30.3473C111.879 29.9801 112.14 29.5013 112.295 28.9111C112.525 28.0323 112.397 27.324 111.912 26.7863C111.44 26.2485 110.72 25.7369 109.751 25.2516L108.957 24.8581C108.013 24.386 107.352 23.8679 106.973 23.3039C106.611 22.7267 106.548 21.9922 106.781 21.1003C106.963 20.4051 107.31 19.7887 107.821 19.2509C108.332 18.7131 108.947 18.2934 109.667 17.9917C110.401 17.6901 111.188 17.5392 112.028 17.5392C112.611 17.5392 113.084 17.6114 113.445 17.7556C113.805 17.8999 114.086 18.0245 114.286 18.1295C114.612 18.3 114.881 18.3852 115.095 18.3852C115.323 18.3852 115.511 18.1819 115.66 17.7753H116.194L115.635 19.6641L115.178 21.5725H114.644C114.751 20.838 114.694 20.215 114.472 19.7034C114.253 19.1788 113.924 18.7787 113.484 18.5033C113.057 18.2278 112.56 18.0901 111.99 18.0901C111.15 18.0901 110.409 18.3131 109.765 18.759C109.136 19.205 108.73 19.7756 108.548 20.4707C108.352 21.2184 108.461 21.8086 108.874 22.2414C109.291 22.6612 109.869 23.0612 110.61 23.4416L111.382 23.8351C112.072 24.1892 112.645 24.5565 113.101 24.9368C113.574 25.3041 113.895 25.7369 114.063 26.2354C114.246 26.7338 114.239 27.3568 114.043 28.1044C113.841 28.8783 113.47 29.5604 112.931 30.1506C112.406 30.7408 111.78 31.1999 111.054 31.5278C110.345 31.8426 109.599 32 108.816 32Z" fill="white"/>
<path d="M119.685 19.5431C119.685 20.1022 119.874 20.5705 120.251 20.948C120.629 21.3256 121.141 21.5144 121.787 21.5144C122.426 21.5144 122.934 21.3292 123.311 20.9589C123.696 20.5814 123.889 20.1095 123.889 19.5431C123.889 18.9768 123.7 18.5012 123.322 18.1164C122.952 17.7316 122.44 17.5392 121.787 17.5392C121.126 17.5392 120.611 17.7353 120.24 18.1273C119.87 18.5121 119.685 18.9841 119.685 19.5431Z" fill="white"/>
<path d="M127.33 20.725C127.172 20.725 127.041 20.6931 126.937 20.6294C126.836 20.5657 126.755 20.4808 126.696 20.3746C126.635 20.2707 126.592 20.1504 126.569 20.0135C126.545 19.8743 126.534 19.7303 126.534 19.5817V19.4755C126.534 19.3292 126.545 19.1876 126.569 19.0507C126.595 18.9138 126.639 18.7923 126.7 18.6861C126.759 18.5799 126.839 18.495 126.941 18.4312C127.042 18.3675 127.171 18.3357 127.326 18.3357C127.433 18.3357 127.531 18.3546 127.62 18.3923C127.71 18.4277 127.787 18.4761 127.85 18.5374C127.914 18.5988 127.962 18.6719 127.995 18.7569C128.028 18.8419 128.043 18.9315 128.038 19.0259H128.965C128.97 18.7994 128.932 18.5953 128.852 18.4135C128.772 18.2295 128.66 18.0725 128.516 17.9428C128.369 17.8153 128.196 17.7162 127.995 17.6454C127.795 17.5746 127.577 17.5392 127.341 17.5392C127.046 17.5392 126.786 17.59 126.562 17.6914C126.34 17.7929 126.154 17.931 126.003 18.1056C125.852 18.2802 125.738 18.4855 125.663 18.7215C125.587 18.9551 125.549 19.2064 125.549 19.4755V19.5817C125.549 19.8507 125.587 20.1032 125.663 20.3392C125.741 20.5728 125.855 20.7769 126.006 20.9515C126.155 21.1262 126.341 21.2642 126.565 21.3657C126.79 21.4648 127.05 21.5144 127.348 21.5144C127.567 21.5144 127.775 21.4801 127.971 21.4117C128.169 21.3409 128.342 21.2442 128.491 21.1215C128.64 20.9987 128.756 20.8524 128.841 20.6825C128.929 20.5126 128.97 20.3285 128.965 20.1303H128.038C128.043 20.22 128.026 20.3014 127.988 20.3746C127.953 20.4477 127.902 20.5103 127.836 20.5622C127.77 20.6141 127.693 20.6542 127.606 20.6825C127.519 20.7108 127.427 20.725 127.33 20.725Z" fill="white"/>
<path d="M129.854 19.4896V19.564C129.854 19.8448 129.894 20.1044 129.974 20.3427C130.054 20.5787 130.172 20.784 130.328 20.9586C130.481 21.1333 130.67 21.2701 130.894 21.3692C131.121 21.466 131.378 21.5144 131.666 21.5144C131.952 21.5144 132.207 21.466 132.431 21.3692C132.655 21.2701 132.844 21.1333 132.997 20.9586C133.15 20.784 133.267 20.5787 133.348 20.3427C133.428 20.1044 133.468 19.8448 133.468 19.564V19.4896C133.468 19.2112 133.428 18.9539 133.348 18.718C133.267 18.4796 133.15 18.2731 132.997 18.0985C132.841 17.9239 132.651 17.787 132.427 17.6879C132.203 17.5888 131.947 17.5392 131.659 17.5392C131.371 17.5392 131.115 17.5888 130.891 17.6879C130.669 17.787 130.481 17.9239 130.328 18.0985C130.172 18.2731 130.054 18.4796 129.974 18.718C129.894 18.9539 129.854 19.2112 129.854 19.4896ZM130.838 19.564V19.4896C130.838 19.3339 130.853 19.1864 130.884 19.0472C130.915 18.9079 130.963 18.7852 131.029 18.679C131.095 18.5728 131.18 18.4891 131.284 18.4277C131.388 18.3663 131.513 18.3357 131.659 18.3357C131.808 18.3357 131.934 18.3663 132.038 18.4277C132.142 18.4891 132.227 18.5728 132.293 18.679C132.356 18.7852 132.404 18.9079 132.434 19.0472C132.465 19.1864 132.48 19.3339 132.48 19.4896V19.564C132.48 19.7244 132.465 19.8755 132.434 20.0171C132.404 20.1563 132.356 20.2778 132.293 20.3816C132.227 20.4878 132.142 20.5716 132.038 20.633C131.934 20.6943 131.81 20.725 131.666 20.725C131.517 20.725 131.39 20.6943 131.284 20.633C131.18 20.5716 131.095 20.4878 131.029 20.3816C130.963 20.2778 130.915 20.1563 130.884 20.0171C130.853 19.8755 130.838 19.7244 130.838 19.564Z" fill="white"/>
<path d="M134.955 17.61H134.109V21.44H135.004V18.5728C135.016 18.5422 135.029 18.5138 135.043 18.4879C135.057 18.4619 135.074 18.4395 135.093 18.4206C135.119 18.3947 135.148 18.3746 135.181 18.3605C135.214 18.3463 135.252 18.3392 135.294 18.3392C135.332 18.3392 135.368 18.3451 135.401 18.3569C135.434 18.3663 135.463 18.384 135.489 18.41C135.513 18.436 135.532 18.4725 135.546 18.5197C135.56 18.5669 135.567 18.6271 135.567 18.7003V21.44H136.434V18.6153C136.434 18.587 136.434 18.5646 136.434 18.5481C136.434 18.5315 136.434 18.5209 136.434 18.5162C136.446 18.4902 136.46 18.4678 136.477 18.4489C136.493 18.4277 136.512 18.4088 136.533 18.3923C136.559 18.3758 136.586 18.3628 136.615 18.3534C136.645 18.3439 136.68 18.3392 136.717 18.3392C136.753 18.3392 136.787 18.3451 136.82 18.3569C136.855 18.3663 136.886 18.384 136.912 18.41C136.938 18.4383 136.958 18.4761 136.972 18.5233C136.989 18.5705 136.997 18.6307 136.997 18.7038V21.44H137.893V18.7073C137.893 18.495 137.871 18.3156 137.829 18.1693C137.789 18.0206 137.732 17.8991 137.659 17.8047C137.583 17.7127 137.495 17.6454 137.393 17.6029C137.294 17.5605 137.187 17.5392 137.071 17.5392C136.979 17.5392 136.894 17.551 136.816 17.5746C136.739 17.5982 136.669 17.6313 136.608 17.6737C136.558 17.7068 136.512 17.7469 136.47 17.7941C136.429 17.8389 136.393 17.8897 136.36 17.9463C136.339 17.8873 136.313 17.8354 136.282 17.7906C136.254 17.7434 136.219 17.7032 136.179 17.6702C136.127 17.6254 136.066 17.5923 135.995 17.5711C135.924 17.5498 135.844 17.5392 135.755 17.5392C135.57 17.5392 135.414 17.5876 135.284 17.6844C135.156 17.7788 135.056 17.9085 134.983 18.0737L134.955 17.61Z" fill="white"/>
</svg>
