<?xml version="1.0" encoding="UTF-8"?>
<svg xmlns="http://www.w3.org/2000/svg" id="outline" viewBox="0 0 512 512" width="512" height="512"><path d="M408,136h-5.57812c-.8169,0-1.62354.04266-2.42188.1156V113.54053l15.42773-38.56934a7.99779,7.99779,0,0,0-.77148-7.40869l-32-48a7.99959,7.99959,0,0,0-13.3125,0l-32,48a7.99779,7.99779,0,0,0-.77148,7.40869L352,113.54053V152H324l-9.59961-12.7998A48.22961,48.22961,0,0,0,276,120h-8.32861A50.14949,50.14949,0,0,0,280,87.01514V76a60,60,0,0,0-120,0v44.1452a47.63993,47.63993,0,0,0-34.3252,18.38556l-37.248,47.89063A40.18616,40.18616,0,0,0,80,210.97949V280a32.03635,32.03635,0,0,0,32,32h16a8.00008,8.00008,0,0,0,8-8V288h2.34277A13.65669,13.65669,0,0,0,148,264.68652l-12-12V218.80615l23.41211-29.26562L168,202.42236v68.69922L120.19043,486.26465A8.00016,8.00016,0,0,0,128,496h72a8.00008,8.00008,0,0,0,8-8V472a8.00072,8.00072,0,0,0-3.88379-6.85986l-18.80176-11.281,34.00269-92.29278L232.04,488.7959A7.99881,7.99881,0,0,0,240,496h64a8.00008,8.00008,0,0,0,8-8V472a7.99873,7.99873,0,0,0-5.0293-7.42773L288,456.984V217.88867a84.19221,84.19221,0,0,0-4.50781-27.08246l5.47851,5.47846A39.74137,39.74137,0,0,0,317.25488,208H352V488a8.00008,8.00008,0,0,0,8,8h32a8.00008,8.00008,0,0,0,8-8V200h8a24.02718,24.02718,0,0,0,24-24V160A24.02718,24.02718,0,0,0,408,136ZM376,38.42236,399.00977,72.936,386.584,104H365.416L352.99023,72.936ZM240,88a16,16,0,0,1-32,0V75.31348l1.58008-1.57959,10.8418,5.42138a8.00257,8.00257,0,0,0,7.15624,0l10.8418-5.42138L240,75.31348ZM220,32a44.04978,44.04978,0,0,1,44,44V87.01514A34.18965,34.18965,0,0,1,248,115.999v-6.86688A31.85948,31.85948,0,0,0,256,88V72a8.00035,8.00035,0,0,0-2.34277-5.65674l-8-8a8.00192,8.00192,0,0,0-9.23535-1.49853L224,63.05566l-12.42188-6.21093a8.00065,8.00065,0,0,0-9.23535,1.49853l-8,8A8.00035,8.00035,0,0,0,192,72v48H176V76A44.04978,44.04978,0,0,1,220,32ZM184,267.22168V240h88v74.60645ZM164.11621,441.14014l-8.23242,13.71972L192,476.5293V480H137.97266l43.54345-195.94354,41.14356,22.15436L171.34985,445.48035Zm102.85449,7.43213-5.9414,14.85546L296,477.4165V480H247.24023L231.96362,327.24017l4.925-13.36773L272,332.77863V450.584ZM317.25488,192a23.84541,23.84541,0,0,1-16.9707-7.0293L280,164.6861V152H264v24H240V152H224v24H200v16h66.85059A68.17507,68.17507,0,0,1,272,217.88867V224H184V200a7.99983,7.99983,0,0,0-1.34375-4.4375l-16-24a7.99961,7.99961,0,0,0-12.90332-.56006l-32,40A8.00033,8.00033,0,0,0,120,216v40a8.00121,8.00121,0,0,0,2.34277,5.65674L132.68555,272H128a8.00008,8.00008,0,0,0-8,8v16h-8a16.01833,16.01833,0,0,1-16-16V210.97949a24.11646,24.11646,0,0,1,5.05566-14.73437l37.248-47.89112A31.795,31.795,0,0,1,163.56348,136H200a8.00008,8.00008,0,0,0,8-8V115.69489a31.95586,31.95586,0,0,0,24,3.29248V128a8.00008,8.00008,0,0,0,8,8h36a32.15109,32.15109,0,0,1,25.59961,12.7998l12,16A7.99952,7.99952,0,0,0,320,168h32v24ZM368,480V120h16v23.50684a26.3873,26.3873,0,0,0-3.5625,33.57177L384,182.42224V480Zm48-304a8.00917,8.00917,0,0,1-8,8h-3.71875L393.75,168.20361A10.42283,10.42283,0,0,1,402.42188,152H408a8.00917,8.00917,0,0,1,8,8Z"/></svg>
