<svg id="Layer_1" data-name="Layer 1" xmlns="http://www.w3.org/2000/svg" viewBox="0 0 558 468"><title>thblack</title><path d="M461.27027,164.75089q-41.81361,0-62.40428,17.47-20.591,17.48259-30.57764,46.17855V28.93079L252.21474,0V344.476c0,13.29393-3.27563,44.47126-16.38992,67.82143C221.068,435.695,211.85183,436.80555,208.5207,437.694c-3.33112.88813-18.32152,2.5538-24.52043-8.35442-6.19849-10.90863-5.9317-23.49818-5.9317-43.05534V164.74584L62,113.27837,0,158.03249l62,31V372.55207q0,54.29146,27.45422,74.88723c18.30282,13.72712,36.223,20.59319,79.2546,20.59319,43.032,0,66.86351-26.14973,106.99053-76.11782,40.12787-49.9681,97.67767-153.5309,107.88024-171.00088q15.28114-26.21255,35.25489-26.21007,13.11,0,18.09973,10.91872,4.98976,10.92382,4.992,48.36235V416.56513L558,468.03249V268.96635Q558,164.75588,461.27027,164.75089Z"/></svg>